<?xml version="1.0" encoding="utf-8"?>
<!-- Generator: Adobe Illustrator 26.0.0, SVG Export Plug-In . SVG Version: 6.00 Build 0)  -->
<svg version="1.1" id="Layer_1" xmlns="http://www.w3.org/2000/svg" xmlns:xlink="http://www.w3.org/1999/xlink" x="0px" y="0px"
	 viewBox="0 0 5289.33 699.82" style="enable-background:new 0 0 5289.33 699.82;" xml:space="preserve">
<style type="text/css">
	.st0{display:none;fill:none;stroke:#FFFFFF;stroke-miterlimit:10;}
	.st1{fill-rule:evenodd;clip-rule:evenodd;}
</style>
<rect x="-82.17" y="-486.74" class="st0" width="2999.99" height="1500.01"/>
<g>
	<path class="st1" d="M1972.39,377.74h0.13v-1.7h-0.18v-0.58h-0.16v-0.74l0.98-0.99h0.74l0.98,0.99v0.74h-0.16v0.58h-0.18v1.7h11.97
		l3.18-10.38h-0.67v-0.85h-0.91v-0.67l-1.11-0.45v-0.65h0.29v-0.83h1.51l9.99-2.84v-0.49c0-0.38,0.29-0.69,0.65-0.69h0.34v-53.75
		l0.49-0.86h0.31l0.49,0.86v53.75h0.34c0.36,0,0.65,0.31,0.65,0.69v0.49l9.99,2.84h1.51v0.83h0.29v0.65l-1.11,0.45v0.67h-0.91v0.85
		h-0.67l3.18,10.38h11.97v-1.7h-0.18v-0.58h-0.16v-0.74l0.98-0.99h0.74l0.98,0.99v0.74h-0.16v0.58h-0.18v1.7h0.13l5.71,16.58h11.18
		v-6.43h0.17v-0.41l-0.6-0.18v-0.52l1.18-0.43h2.99l1.18,0.43v0.52l-0.6,0.18v0.41h0.17v6.43h4.72v-8.98h0.22v-0.53l-0.77-0.23
		v-0.67l1.5-0.54h3.8l1.5,0.54v0.67l-0.77,0.23v0.53h0.22v8.98h6.44v-6.43h0.17v-0.41l-0.6-0.18v-0.52l1.18-0.43h2.99l1.18,0.43
		v0.52l-0.6,0.18v0.41h0.17v6.43h44.16v-8.98h0.22v-0.53l-0.77-0.23v-0.67l1.5-0.54h3.8l1.5,0.54v0.67l-0.77,0.23v0.53h0.22v8.98
		H2150l6.49-3.39l0.11-1.3l0.21-2.35l0.21,2.35l0.11,1.3l17.83,9.32l16.58,8.66h3.53v148.9h-187.01h-15.24H1805.8v-148.9h3.53
		l16.58-8.66l17.83-9.32l0.11-1.3l0.21-2.35l0.21,2.35l0.11,1.3l6.49,3.39h28.94v-8.98h0.22v-0.53l-0.77-0.23v-0.67l1.5-0.54h3.8
		l1.5,0.54v0.67l-0.77,0.23v0.53h0.22v8.98h44.16v-6.43h0.17v-0.41l-0.6-0.18v-0.52l1.18-0.43h2.99l1.18,0.43v0.52l-0.6,0.18v0.41
		h0.17v6.43h6.44v-8.98h0.22v-0.53l-0.77-0.23v-0.67l1.5-0.54h3.8l1.5,0.54v0.67l-0.77,0.23v0.53h0.22v8.98h4.72v-6.43h0.17v-0.41
		l-0.6-0.18v-0.52l1.18-0.43h2.99l1.18,0.43v0.52l-0.6,0.18v0.41h0.17v6.43h11.18L1972.39,377.74L1972.39,377.74z"/>
	<path class="st1" d="M1203.65,349.45h8.79v-7.6h-1.12v-1.82h1.55v-1.07l3.51-2.7h10.98v-4.04h-1.12v-1.82h1.55v-1.07l3.5-2.7h0.79
		v-15.49l-3.02-1.81v-3.2h1.11v-7.99l-2.05-1.23v-3.2h1.79v-0.77h3.34v-3.61h-1.12v-2.08h2.18v-0.67c0-0.49,0.4-0.89,0.89-0.89h0.13
		l0.55-1.44c-1.38-0.62-2.32-1.79-2.32-3.13c0-1.53,1.21-2.83,2.93-3.35v-1.02c-0.33-0.34-0.53-0.79-0.53-1.27
		c0-0.49,0.2-0.93,0.53-1.27v-0.33c0-0.54,0.44-0.98,0.98-0.98h1.33c0.54,0,0.98,0.44,0.98,0.98v0.33c0.33,0.34,0.53,0.78,0.53,1.27
		c0,0.49-0.2,0.93-0.53,1.27v1.02c1.71,0.52,2.93,1.83,2.93,3.35c0,1.34-0.93,2.51-2.32,3.13l0.55,1.44h0.13
		c0.49,0,0.89,0.4,0.89,0.89v0.67h2.18v0.82h1.97v-6.77h3.09v-4.47h1.72v-0.29h2.84v-2.62h-0.45v-1.46l5.16-3.22v-13.89l-1.9-1.54
		v-0.31h-0.46v-1.42h0.84v-0.31h1.33v-7.01h1.49v0.82h0.55l0.93,1.28c0.67-2.2,2.27-4,4.36-4.97v-2.19l0.78-0.38l0.1-5.18
		l-0.88-0.25v-0.61l0.9-0.25l0.6-31.04l1.76-1.93h0.12h0.87h0.12l1.77,1.93l0.6,31.04l0.9,0.25v0.61l-0.88,0.25l0.1,5.18l0.78,0.38
		v2.19c2.09,0.97,3.69,2.77,4.36,4.97l0.93-1.28h0.55v-0.82h1.5v7.01h1.32v0.31h0.84v1.42h-0.46v0.31l-1.9,1.54v13.89l5.16,3.22
		v1.46h-0.45v2.62h2.84v0.29h1.72v4.47h3.1v6.77h1.97v-0.82h2.18v-0.67c0-0.49,0.4-0.89,0.89-0.89h0.12l0.55-1.44
		c-1.38-0.62-2.32-1.79-2.32-3.13c0-1.53,1.22-2.83,2.93-3.35v-1.02c-0.33-0.34-0.53-0.79-0.53-1.27c0-0.49,0.2-0.93,0.53-1.27
		v-0.33c0-0.54,0.44-0.98,0.98-0.98h1.33c0.54,0,0.98,0.44,0.98,0.98v0.33c0.33,0.34,0.53,0.78,0.53,1.27c0,0.49-0.2,0.93-0.53,1.27
		v1.02c1.71,0.52,2.93,1.83,2.93,3.35c0,1.34-0.93,2.51-2.32,3.13l0.55,1.44h0.13c0.49,0,0.89,0.4,0.89,0.89v0.67h2.18v2.08h-1.12
		v3.61h3.34v0.77h1.79v3.2l-2.05,1.23v7.99h1.11v3.2l-3.02,1.81v15.49h0.79l3.5,2.7v1.07h1.55v1.82h-1.12v4.04h10.98l3.5,2.7v1.07
		h1.55v1.82h-1.12v7.6h8.79v1.52h-0.97v1.45h1.76v1.94l-12,19.34v7.87h-109.15v-7.87l-12-19.34v-1.94h1.76v-1.45h-0.97V349.45
		L1203.65,349.45z M1272.65,256.2L1272.65,256.2c0.86,0,1.57,0.71,1.57,1.57v8.78h-3.14v-8.78
		C1271.08,256.91,1271.79,256.2,1272.65,256.2L1272.65,256.2z M1266.23,256.2L1266.23,256.2c0.86,0,1.57,0.71,1.57,1.57v8.78h-3.14
		v-8.78C1264.66,256.91,1265.37,256.2,1266.23,256.2L1266.23,256.2z M1266.99,309.14h4.9v5.44h-4.9V309.14L1266.99,309.14z
		 M1266.99,315.82h4.9v10.16h-4.9V315.82L1266.99,315.82z M1251.05,309.14h4.9v5.44h-4.9V309.14L1251.05,309.14z M1251.05,315.82
		h4.9v10.16h-4.9V315.82L1251.05,315.82z M1282.94,309.14h4.9v5.44h-4.9V309.14L1282.94,309.14z M1282.94,315.82h4.9v10.16h-4.9
		V315.82L1282.94,315.82z"/>
	<path class="st1" d="M1269.2,202.3v-27.97c-0.2-0.06-0.35-0.2-0.35-0.36c0-0.16,0.14-0.3,0.35-0.36v-0.07
		c-0.21-0.08-0.36-0.28-0.36-0.51c0-0.31,0.27-0.56,0.59-0.56s0.59,0.25,0.59,0.56c0,0.23-0.15,0.42-0.36,0.51v0.07
		c0.21,0.06,0.34,0.2,0.34,0.36c0,0.16-0.14,0.29-0.34,0.36v0.01c3.48,0.31,3.78,5.52,7.46,5.52c0,1.77,0,2.51,0,4.28
		c-4.98-1.25-4.9-5.02-7.46-4.58v22.73H1269.2L1269.2,202.3z"/>
	<polygon class="st1" points="1355.01,363.79 1349.07,363.79 1318.25,363.79 1265.2,363.79 1187.41,363.79 1178.14,363.79 
		1175.75,363.79 1175.75,364.89 1178.14,364.89 1178.14,366.88 1139.25,388.54 1135.18,388.38 1116.52,398.77 1116.52,401.2 
		1098.02,411.5 1098.02,411.72 1095.57,413.04 1095.57,413.61 1098.02,414.14 1098.02,421.51 1091.8,426.99 1091.8,427.91 
		1093.57,428.54 1093.57,429.07 1098.02,430.64 1098.02,526.91 1178.14,526.91 1242.94,526.91 1265.2,526.91 1313.47,526.91 
		1318.25,526.91 1355.01,526.91 1406.37,526.91 1406.37,427.48 1410.17,426.31 1410.17,425.78 1412.19,425.15 1412.19,424.23 
		1406.37,419.74 1406.37,413.21 1407.33,412.92 1407.33,411.99 1403.89,409.35 1394.51,401.2 1394.51,398.77 1382.55,388.38 
		1379.94,388.54 1355.01,366.88 1355.01,364.89 1356.54,364.89 1356.54,363.79 1355.01,363.79 	"/>
	<path class="st1" d="M1794.49,277.55c-0.24,0.37-0.52,0.86-0.7,1.37c-0.36,1.05-1.54,1.28-2.99,3.48
		c-1.22,1.87-0.58,4.65-0.36,5.46c-28.15,0.61-53.05,12.43-68.91,30.46c-6.46,7.34-13.34,16.8-20.44,24.72h-23.33l-6.44,1.5v1.58
		h1.46v1.49l-4.1,0.31v1.57h0.99v1.32h2.86v24.71l-1.52,0.29v0.43h-7.74v2.13h1.3v2.19h0.96v0.7h2.15v32.67h-16.86v-1.49h-2.61
		V284.94c1.6-0.22,2.65-0.59,2.65-1.02c0-0.38-0.85-0.73-2.18-0.95l3.37-4.84v-0.63h1.88v-2.79l2.93-4.2v-0.49l0.88-5.52
		c0.82-0.4,1.27-0.84,1.27-1.3v-13.12c0-1.46-4.51-2.69-10.8-3.16v-57.6c0.71-0.18,1.13-0.41,1.13-0.65c0-0.31-0.64-0.58-1.69-0.78
		l-6.14-28.28l-4.84-22.27c0.1-0.19,0.15-0.41,0.15-0.63c0-0.42-0.19-1.08-0.48-1.62v-1.17c0.33-0.14,0.55-0.35,0.55-0.59
		c0-0.29-0.33-0.55-0.83-0.68v-1.76c0.26-0.21,0.43-0.52,0.43-0.87c0-0.36-0.17-0.94-0.45-1.37c0.01-0.04,0.02-0.08,0.02-0.12
		c0-0.15-0.08-0.28-0.21-0.38v-0.88c0.29-0.07,0.48-0.21,0.48-0.35c0-0.18-0.28-0.33-0.67-0.39v-1.35c0.89-0.17,1.56-0.94,1.56-1.88
		c0-1.06-0.86-1.91-1.91-1.91c-1.06,0-1.91,0.86-1.91,1.91c0,0.94,0.67,1.72,1.56,1.88v1.35c-0.39,0.06-0.67,0.21-0.67,0.39
		c0,0.15,0.19,0.28,0.48,0.35v0.88c-0.13,0.1-0.21,0.23-0.21,0.38c0,0.04,0.01,0.08,0.02,0.12c-0.27,0.43-0.45,1.02-0.45,1.37
		c0,0.35,0.17,0.66,0.43,0.86v1.77c-0.49,0.13-0.82,0.39-0.82,0.68c0,0.23,0.21,0.45,0.54,0.59v1.17c-0.3,0.54-0.48,1.2-0.48,1.62
		c0,0.23,0.05,0.44,0.15,0.63l-4.84,22.27l-6.14,28.28c-1.05,0.2-1.69,0.47-1.69,0.78c0,0.24,0.42,0.47,1.13,0.65v57.6
		c-6.29,0.46-10.8,1.7-10.8,3.16v13.12c0,0.46,0.45,0.9,1.27,1.3l0.87,5.52v0.49l2.93,4.2v2.79h1.88v0.63l3.37,4.84
		c-1.33,0.23-2.18,0.57-2.18,0.95c0,0.42,1.05,0.8,2.65,1.02v109.57c-3.39,1.53-6.34,3.68-8.64,6.29c-2,2.27-4.14,5.24-6.35,7.62
		l-5.31,1.66v1.22h-2.58v2.65h1.39v47.01l-7.09,2.22v1.22h-2.58v2.65h1.4v45.99h20.77h29.13h264.42h29.81h20.09v-45.99h1.4v-2.65
		h-2.58v-1.22l-7.09-2.22v-47.01h1.4v-2.65h-2.58v-1.22l-5.31-1.66c-2.2-2.38-4.34-5.35-6.34-7.62c-3.09-3.51-7.36-6.2-12.31-7.64
		v-11.88h2.16v-0.7h0.96v-2.19h1.3v-2.13h-7.74v-0.43l-1.52-0.29v-24.71h2.87v-1.32h0.99v-1.57l-4.1-0.31v-1.49h1.46v-1.58
		l-6.44-1.5h-23.33c-7.1-7.92-13.99-17.38-20.45-24.72c-15.86-18.04-40.76-29.86-68.91-30.46c0.22-0.8,0.86-3.59-0.36-5.46
		c-1.44-2.2-2.63-2.43-2.99-3.48c-0.18-0.52-0.46-1.01-0.7-1.37v-1.94c0.05-0.11,0.08-0.22,0.08-0.35c0-0.08-0.01-0.15-0.04-0.22
		c0.51-0.34,0.85-0.9,0.85-1.54c0-0.54-0.24-1.4-0.63-2.1v-1.53c0.43-0.18,0.71-0.45,0.71-0.76c0-0.38-0.43-0.71-1.07-0.88v-2.29
		c0.34-0.27,0.56-0.67,0.56-1.13c0-0.46-0.23-1.22-0.58-1.78c0.02-0.05,0.02-0.1,0.02-0.16c0-0.19-0.1-0.37-0.27-0.49v-1.15
		c0.38-0.09,0.63-0.26,0.63-0.46c0-0.23-0.36-0.43-0.87-0.51v-1.76c1.15-0.22,2.03-1.23,2.03-2.44c0-1.37-1.11-2.49-2.49-2.49
		c-1.38,0-2.49,1.11-2.49,2.49c0,1.21,0.87,2.23,2.03,2.44v1.76c-0.51,0.08-0.87,0.28-0.87,0.51c0,0.2,0.25,0.36,0.62,0.46v1.15
		c-0.16,0.13-0.27,0.3-0.27,0.49c0,0.05,0.01,0.11,0.02,0.16c-0.36,0.56-0.58,1.32-0.58,1.78c0,0.45,0.22,0.86,0.56,1.12v2.29
		c-0.64,0.17-1.07,0.5-1.07,0.88c0,0.3,0.27,0.58,0.71,0.76v1.53c-0.39,0.7-0.63,1.56-0.63,2.1c0,0.64,0.34,1.2,0.84,1.54
		c-0.02,0.07-0.03,0.14-0.03,0.22c0,0.12,0.03,0.24,0.08,0.35V277.55L1794.49,277.55z M1635.3,121.83c0.65,0,1.19,0.53,1.19,1.19
		c0,0.65-0.53,1.18-1.19,1.18c-0.65,0-1.18-0.53-1.18-1.18C1634.12,122.36,1634.65,121.83,1635.3,121.83L1635.3,121.83z
		 M1898.96,355.97c4.58,1.37,7.94,5.64,7.94,10.65v6.71l-7.94-1.5V355.97L1898.96,355.97z M1692.17,355.97
		c-4.58,1.37-7.94,5.64-7.94,10.65v6.71l7.94-1.5V355.97L1692.17,355.97z M1795.56,254.17c0.85,0,1.54,0.69,1.54,1.54
		c0,0.85-0.69,1.54-1.54,1.54c-0.85,0-1.54-0.69-1.54-1.54C1794.02,254.86,1794.71,254.17,1795.56,254.17L1795.56,254.17z"/>
	<path class="st1" d="M528.63,329.97l0.35,15.39l0.1,4.56h0.24c1.32,0,2.41,1.1,2.41,2.45v0.96h-2.57l0.1,4.59l1.33,0.24v0.47
		l-1.31,0.34l0.18,7.91l2.34,1.38v0.97c3.26,0.48,5.8,3.57,5.8,7.28v2.29h15.76c2.16-5.7,7.49-10.01,14.04-11.14v-1.06l2.34-1.38
		l0.18-7.91l-1.31-0.34v-0.47l1.33-0.25l0.29-12.55l0.35-15.39h0.42l0.35,15.39l0.29,12.55l1.33,0.25v0.47l-1.3,0.34l0.18,7.91
		l2.34,1.38v1.06c6.55,1.12,11.88,5.44,14.04,11.14H604v-2.29c0-3.71,2.53-6.79,5.8-7.28v-0.97l2.34-1.38l0.18-7.91l-1.31-0.34
		v-0.47l1.33-0.24l0.1-4.59h-2.56v-0.96c0-1.35,1.08-2.45,2.41-2.45h0.24l0.1-4.56l0.35-15.39h0.42l0.35,15.39l0.1,4.56h0.24
		c1.32,0,2.41,1.1,2.41,2.45v0.96h-2.57l0.1,4.59l1.33,0.24v0.47l-1.31,0.34l0.18,7.91l2.34,1.38v0.97c3.26,0.48,5.8,3.57,5.8,7.28
		v2.29h1.11v1.17h-1.11v5.77h0.66v3.86c1.52,1.25,2.78,3.61,3.51,6.59l2.23,0.71l0.7-8.39h0.84l-0.15,8.83l0.22,0.07v6.44l-1.19,0.4
		v4.14h3.92v1.45h-0.68v1.55h-1.25v0.39l-1.99,3.55v10.5h5.66l2.04-4.56h31.52h9.51h58.96l2.04,4.56h2.76v-1.67H741v-0.93h0.69
		v-3.91l-1.99-3.55v-0.39h-1.25v-1.55h-0.68v-1.45h4.69v-3.92c0-6.51,4.83-11.84,10.75-11.89v-1.31h-1.09v-0.93h3.01v-3.05h-1.53
		v-0.86h13.96h13.33l0.23-9.96l0.35-15.39h0.42l0.35,15.39l0.23,9.96h13.33h13.96v0.86h-1.53v3.05h3.01v0.93h-1.09v1.31
		c5.92,0.04,10.75,5.38,10.75,11.89v3.92h4.69v1.45h-0.68v1.55h-1.25v0.39l-1.99,3.55v3.91h0.69v0.93h-0.69v36.72h4.64v1.46h-0.68
		v1.55h-1.24v0.39l-1.99,3.55v20.3l0.81,0.56v3.35l2.3,0.81v0.54h-0.91v0.67l-1.39,1.98v63.86h-0.81c-167.73,0-335.46,0-503.2,0
		h-0.81v-63.86l-1.39-1.98v-0.67h-0.91v-0.54l2.3-0.81v-3.35l0.81-0.56v-20.3l-1.99-3.55v-0.39h-1.24v-1.55h-0.68v-1.46h4.64v-36.72
		h-0.69v-0.93h0.69v-3.91l-1.99-3.55v-0.39h-1.24v-1.55h-0.68v-1.45h4.69v-3.92c0-6.51,4.83-11.84,10.75-11.89v-1.31h-1.09v-0.93
		h3.01v-3.05h-1.53v-0.86h13.96h13.33l0.23-9.96l0.35-15.39h0.42l0.35,15.39l0.23,9.96h13.33h13.96v0.86h-1.53v3.05h3.01v0.93h-1.09
		v1.31c5.92,0.04,10.76,5.37,10.76,11.89v3.92h4.69v1.45h-0.68v1.55h-1.24v0.39l-1.99,3.55v3.91h0.69v0.93h-0.69v1.67h2.76
		l2.04-4.56h58.96h9.51h31.52l2.04,4.56h5.66v-10.5l-1.99-3.55v-0.39h-1.24v-1.55h-0.68v-1.45h3.92v-4.14l-1.19-0.4v-6.44l0.21-0.07
		l-0.15-8.83h0.85l0.69,8.39l2.23-0.71c0.74-2.98,1.99-5.35,3.51-6.59v-3.86h0.66v-5.77h-1.11v-1.17h1.11v-2.29
		c0-3.71,2.53-6.79,5.8-7.28v-0.97l2.34-1.38l0.18-7.91l-1.31-0.34v-0.47l1.33-0.24l0.1-4.59h-2.57v-0.96
		c0-1.35,1.08-2.45,2.41-2.45h0.24l0.1-4.56l0.35-15.39H528.63L528.63,329.97z"/>
	<path class="st1" d="M2434.63,206.16c3.12,0.22,6.09,0.91,8.82,1.97l0.43-0.99c0.05-0.13,0.2-0.18,0.32-0.13l0.14,0.06
		c0.13,0.05,0.18,0.2,0.13,0.32l-0.42,0.98c6.45,2.68,11.49,7.52,13.89,13.45c5.84,2.07,10,6.3,10.54,11.27h-0.48v0.36l-2.02,1.64
		v5.73c0.29,0.08,0.49,0.23,0.49,0.41c0,0.15-0.13,0.28-0.34,0.36v1.94l-0.55,0.48v14.06h0.34v0.37h-0.24l0.86,1.66v0.42h0.39v4.94
		l3.2,0.85l-0.48,1.23l-0.8-0.08l-0.51,0.99v2.61l1.27,0.34v2.27l3.03,0.8l-0.48,1.23l-0.8-0.08l-2.23,4.27v1.68l6.54,2.79
		l-0.48,1.23l-0.8-0.08l-0.05,0.09h0.14v1.71h-1.03l-0.78,1.5v2.73h0.54v1.21h-0.54v2.87h0.89v1.09h-0.46v0.6l-0.44,0.51v32.44
		h80.11l-0.04-0.2v-2.03h0.28v-2.52h-0.28v-0.76l-0.99-0.84v-0.39h-0.7v-1.07l-1.24-0.46v-0.43l8.54-2.64v-1.59h0.47v-3.58
		l-1.28-0.47v-0.42l1.88-0.8v-3.2l0.6-0.32v-1.67l0.32-0.12v-12.49l-0.32-0.38v-0.43c-0.16-0.13-0.35-0.32-0.49-0.61
		c-0.21-0.43-0.25-0.43-0.18-0.91c0.07-0.48,0.28-0.5,0.28-0.5s-0.32,0.07-0.44-0.57c-0.07-0.4,0.43-0.64,0.83-0.8v-4.6h-1.9
		c-0.05-0.49-0.07-1-0.07-1.52c0-3.49,1.06-6.32,2.36-6.32l5.98-4.09c3.35-24.64,27.7-43.95,57.73-45.15l0.75-1.96
		c-0.22-0.15-0.35-0.32-0.35-0.51c0-0.13,0.06-0.26,0.18-0.37c-0.39-0.49-0.63-1.1-0.63-1.77c0-1.05,0.58-1.96,1.45-2.46
		c-0.03-0.08-0.04-0.15-0.04-0.23c0-0.28,0.2-0.53,0.51-0.7c-0.46-0.27-0.76-0.72-0.76-1.24c0-0.22,0.05-0.42,0.15-0.61
		c-0.3-0.24-0.73-0.46-1.16-0.26c-0.78,0.37-1.19,0.75-0.54,1.26c0.66,0.5-0.36,1.05-0.63,0.72c-0.27-0.33-0.21-1.58,0.72-2.21
		c0.59-0.4,1.38-0.12,1.88,0.13c0.15-0.15,0.34-0.28,0.55-0.37v-7.9h-5.21l-0.19,0.39c-0.03,0.05-0.07,0.06-0.1,0.02l-0.27-0.36
		c-0.03-0.04-0.04-0.12-0.01-0.18l0.34-0.73l-0.34-0.73c-0.03-0.05-0.02-0.13,0.01-0.17l0.27-0.36c0.03-0.04,0.08-0.03,0.1,0.02
		l0.19,0.39h5.21v-6.11l-0.39-0.18c-0.05-0.03-0.06-0.07-0.02-0.1l0.36-0.27c0.04-0.03,0.12-0.04,0.17-0.01l0.73,0.34l0.73-0.34
		c0.05-0.03,0.13-0.02,0.18,0.01l0.36,0.27c0.04,0.03,0.03,0.08-0.02,0.1l-0.39,0.18v6.11h5.22l0.18-0.39
		c0.03-0.05,0.07-0.07,0.1-0.02l0.27,0.36c0.03,0.04,0.04,0.12,0.01,0.17l-0.34,0.73l0.34,0.73c0.03,0.06,0.02,0.13-0.01,0.18
		l-0.27,0.36c-0.03,0.04-0.08,0.03-0.1-0.02l-0.18-0.39h-5.22v8c0.13,0.08,0.24,0.17,0.34,0.27c0.5-0.26,1.29-0.53,1.88-0.13
		c0.93,0.63,0.99,1.89,0.72,2.21c-0.27,0.33-1.28-0.21-0.63-0.72c0.65-0.5,0.24-0.89-0.54-1.26c-0.43-0.2-0.86,0.02-1.16,0.26
		c0.09,0.19,0.15,0.39,0.15,0.61c0,0.52-0.3,0.97-0.75,1.24c0.32,0.17,0.51,0.42,0.51,0.7c0,0.05-0.01,0.09-0.02,0.14
		c0.97,0.48,1.63,1.44,1.63,2.56c0,0.67-0.23,1.28-0.63,1.77c0.11,0.11,0.18,0.24,0.18,0.37c0,0.19-0.13,0.36-0.35,0.51l0.76,1.96
		c30.02,1.19,54.37,20.51,57.72,45.15l5.99,4.09c1.3,0,2.36,2.83,2.36,6.32c0,0.52-0.02,1.03-0.07,1.52h-1.9v4.6
		c0.4,0.16,0.9,0.4,0.83,0.8c-0.12,0.64-0.44,0.57-0.44,0.57s0.21,0.03,0.28,0.5c0.07,0.48,0.02,0.48-0.18,0.91
		c-0.14,0.3-0.32,0.48-0.48,0.61v0.43l-0.32,0.38v12.49l0.32,0.12v1.67l0.6,0.32v3.2l1.88,0.8v0.42l-1.27,0.47v3.58h0.47v1.59
		l8.54,2.64v0.43l-1.24,0.46v1.07h-0.7v0.39l-1,0.84v0.76h-0.28v2.52h0.28v2.03l-0.88,4.42c15.43,0.06,29.26,7.08,38.64,18.16
		l3.73,2.06c0.58,0,1.05,1,1.05,2.24c0,0.15-0.01,0.3-0.02,0.43h-0.29v1.21l0.13,0.22v0.17l0.16,0.26h0.01v0
		c1.08,1.77,2.06,3.6,2.94,5.5l5.41,2.99c1.57,0,2.84,2.72,2.84,6.07c0,0.41-0.02,0.8-0.05,1.18h-0.79v3.28l0.35,0.6v1.16h0.44v0.88
		h-0.96v11.89h0.74v3.2l2.67,1.75v0.4h-0.63v4.33l6.29,2.89v0.51h-1.41v1.64h-0.82v0.3h-0.45l10.02,4.59v0.51h-1.41v1.38
		c9.2,1.34,16.76,6.61,20.06,13.65l3.32,1.83c1.57,0,2.84,2.72,2.84,6.07c0,0.41-0.02,0.8-0.05,1.19h-0.79v3.27l0.35,0.6v1.16h0.44
		v0.88h-2v13.41c0.48-0.06,0.95-0.09,1.44-0.09c4.4,0,8.3,2.44,10.74,6.2l13.64,7.53c1.57,0,2.84,2.72,2.84,6.06
		c0,0.41-0.02,0.8-0.05,1.19h-0.79v3.28l0.35,0.6v1.16h0.44v0.88h-0.95v33.59h-5.59h-6.69h-115.63h-9.06h-234.71h-20.08h-83.34
		v-41.86l-1.25-1.94v-0.28h-0.77v-0.3h-0.83v-1.64h-1.41v-0.51l12.24-2.71v-6.65h-0.47v-1.64h-1.41v-0.51l4.52-1V442.1h-0.32v-0.86
		h0.32v-2.52l-1.06-1.64v-0.28h-0.78v-0.3h-0.82v-1.64h-1.41v-0.51l9.22-4.23v-17.89l-0.63-0.26v-0.24h0.63v-5.9h-0.58v-0.45h0.58
		v-4.02h-0.44v-0.38l0.44-0.29v-1.29l-1.81-2.8v-0.28h-0.78v-0.3h-0.83v-1.64h-1.41v-0.51l3.14-1.44c0.05-0.47,0.1-0.95,0.17-1.44
		c0.99-7.44,3.57-13.47,5.76-13.47h0.59c0.1-0.74,0.38-2.25,0.67-3.57c0.41-1.91,1.5-3.98,1.5-4.58c0-0.6,0.26-1.09,0.56-1.46
		c0.3-0.38,0.04-1.46,0.04-1.46s-0.41-0.04-0.9-0.15c-0.49-0.11,0-1.05-0.11-1.39c-0.11-0.34,1.13-0.19,1.2-0.53
		c0.08-0.34-0.26-4.13-0.26-4.13s-0.6-0.26-0.23-0.71c0.38-0.45,1.35-0.3,2.25-0.04c0.9,0.26-0.34,0.75-0.34,0.75
		s0.26,4.35,0.38,4.61c0.11,0.26,0.23,0.37,0.23,1.24c0,0.86-0.79,2.14-0.79,2.14s-0.15,0.64-0.15,1.35c0,0.71,0.94,2.06,1.46,3.37
		c0.36,0.9,0.42,3.19,0.42,4.55h13.2v-3.32l-0.63-0.26v-0.24h0.63v-5.9h-0.57v-0.45h0.57v-4.02h-0.44v-0.38l0.44-0.29v-2.12
		l-0.73-1.13v-0.28h-0.77v-0.3h-0.82v-1.64h-1.41v-0.51l3.68-1.69l0.97-3.25l0.83-0.53v-2.67l-1.4-1.43v-0.38h1.4v-2.35v-0.2v-0.16
		v-0.06l0,0c0.05-6.01,2.12-10.95,4.8-11.82v-34.36l-0.44-0.51v-0.6h-0.46v-1.09h0.89v-2.87h-0.54v-1.21h0.54v-2.73l-0.78-1.5h-1.03
		v-1.71h0.14l-0.05-0.09l-0.8,0.08l-0.48-1.23l6.54-2.79v-1.68l-2.23-4.27l-0.8,0.08l-0.48-1.23l3.03-0.8v-2.27l1.27-0.34v-2.61
		l-0.52-0.99l-0.8,0.08l-0.48-1.23l3.2-0.85v-4.94h0.39v-0.42l0.85-1.66h-0.24v-0.37h0.33V244l-0.55-0.48v-1.94
		c-0.21-0.09-0.34-0.22-0.34-0.36c0-0.18,0.2-0.33,0.48-0.41v-5.73l-2.02-1.64v-0.36h-0.47c0.54-4.98,4.7-9.2,10.54-11.27
		c2.4-5.92,7.44-10.77,13.89-13.45l-0.42-0.98c-0.05-0.12,0.01-0.27,0.13-0.32l0.14-0.06c0.13-0.05,0.27,0,0.33,0.13l0.43,0.99
		c2.73-1.06,5.7-1.75,8.82-1.97l0.48-1.25c-0.18-0.12-0.28-0.26-0.28-0.41c0-0.1,0.05-0.21,0.15-0.3c-0.32-0.39-0.51-0.88-0.51-1.42
		c0-0.84,0.47-1.58,1.17-1.98c-0.02-0.06-0.04-0.12-0.04-0.19c0-0.23,0.16-0.43,0.41-0.57c-0.37-0.22-0.61-0.58-0.61-0.99
		c0-0.17,0.04-0.34,0.12-0.49c-0.24-0.19-0.58-0.37-0.93-0.21c-0.62,0.29-0.96,0.6-0.43,1.01c0.53,0.41-0.29,0.84-0.5,0.58
		c-0.21-0.26-0.17-1.27,0.58-1.78c0.47-0.32,1.1-0.1,1.51,0.1c0.12-0.12,0.27-0.22,0.45-0.29v-6.34h-4.19l-0.15,0.31
		c-0.02,0.04-0.06,0.05-0.08,0.02l-0.21-0.29c-0.03-0.04-0.03-0.1-0.01-0.14l0.28-0.59l-0.28-0.59c-0.02-0.04-0.02-0.11,0.01-0.14
		l0.21-0.29c0.02-0.03,0.06-0.02,0.08,0.02l0.15,0.31h4.19v-4.91l-0.31-0.15c-0.04-0.02-0.05-0.06-0.02-0.08l0.29-0.21
		c0.03-0.02,0.1-0.03,0.14-0.01l0.59,0.28l0.59-0.28c0.04-0.02,0.1-0.02,0.14,0.01l0.29,0.21c0.03,0.03,0.03,0.06-0.02,0.08
		l-0.31,0.15v4.91h4.19l0.15-0.31c0.02-0.04,0.06-0.05,0.08-0.02l0.21,0.29c0.03,0.03,0.03,0.1,0.01,0.14l-0.27,0.59l0.27,0.59
		c0.02,0.04,0.02,0.11-0.01,0.14l-0.21,0.29c-0.03,0.03-0.06,0.03-0.08-0.02l-0.15-0.31h-4.19v6.42c0.1,0.06,0.2,0.13,0.28,0.21
		c0.4-0.2,1.04-0.42,1.51-0.1c0.74,0.5,0.79,1.51,0.58,1.78c-0.22,0.26-1.03-0.17-0.5-0.58c0.53-0.41,0.19-0.72-0.43-1.01
		c-0.34-0.16-0.69,0.01-0.93,0.21c0.08,0.15,0.12,0.31,0.12,0.49c0,0.42-0.24,0.78-0.61,0.99c0.25,0.14,0.41,0.34,0.41,0.57
		c0,0.04,0,0.07-0.01,0.11c0.78,0.38,1.31,1.16,1.31,2.06c0,0.53-0.19,1.02-0.51,1.42c0.09,0.09,0.15,0.19,0.15,0.3
		c0,0.15-0.1,0.29-0.28,0.41L2434.63,206.16L2434.63,206.16z M2453.38,232.99L2453.38,232.99c2.61,0.68,4.75,4.28,4.75,8v19.94
		l-9.5-2.46v-19.94C2448.63,234.8,2450.77,232.31,2453.38,232.99L2453.38,232.99z M2411.4,232.99L2411.4,232.99
		c-2.61,0.68-4.75,4.28-4.75,8v19.94l9.5-2.46v-19.94C2416.15,234.8,2414.01,232.31,2411.4,232.99L2411.4,232.99z M2432.39,229.32
		L2432.39,229.32c4.06,0,7.38,3.32,7.38,7.38v21.76h-14.76V236.7C2425.01,232.64,2428.33,229.32,2432.39,229.32L2432.39,229.32z"/>
	<path class="st1" d="M1027.96,261.78c3.47,0,6.35,4.21,6.94,9.77c0.95-0.45,2-0.7,3.09-0.7c4.43,0,8.03,4.09,8.03,9.13
		c0,0.52-0.04,1.02-0.11,1.52h11.18v2.34h-2.34v4.49h-1.58v1.53l-5.98,9.1v9.85h0.29l0.77,6.21h0.67v0.77h-0.62v26.85h35.14
		l24.17,9.17v1.81h-2.02l-4.01,8.2h0.91v1.71h-0.72l-0.59,8.82h0.79v1.32h-1.13V514.1c-284.87,0,17.72,0-266.62,0V373.67h-1.13
		v-1.32h0.78l-0.59-8.82h-0.72v-1.71h0.9l-4.01-8.2h-2.02v-1.81l24.17-9.17h35.14v-26.85h-0.63v-0.77h0.67l0.77-6.21h0.29v-9.85
		l-5.98-9.1v-1.53h-1.57v-4.49h-2.34v-2.34h11.18c-0.07-0.5-0.11-1-0.11-1.52c0-5.04,3.59-9.13,8.03-9.13c1.1,0,2.14,0.25,3.09,0.7
		c0.6-5.56,3.48-9.77,6.94-9.77c1.02,0,1.99,0.37,2.87,1.03v-1.91c-1.4-0.31-2.34-0.89-2.34-1.55c0-0.41,0.37-0.79,0.98-1.09
		c-0.08-0.06-0.12-0.13-0.12-0.2c0-0.18,0.28-0.33,0.67-0.38v-3.98c0-0.41,0.33-0.74,0.74-0.74h0.07v-20.73
		c-0.29-0.07-0.49-0.2-0.49-0.35c0-0.15,0.2-0.28,0.49-0.35v-0.89c-0.4-0.15-0.69-0.43-0.76-0.75c-1.13-0.22-1.88-0.62-1.88-1.07
		c0-0.13,0.07-0.27,0.2-0.39c-0.87-0.33-1.4-0.78-1.4-1.28c0-0.38,0.31-0.73,0.84-1.02c-1.83-2.07-2.26-7.05-1.38-11.21
		c1.06-5.03,5.71-7.31,8.28-8.54c1.87-0.89,3.47-2.82,4.21-3.82c-0.04-0.31-0.03-0.78,0.27-1.23c0.33-0.5,0.72-1.48,0.97-2.14
		c-0.19-0.1-0.3-0.22-0.3-0.35c0-0.12,0.1-0.24,0.28-0.34l0.85-4.1l0.17-0.82c-0.19-0.08-0.31-0.18-0.31-0.29
		c0-0.03,0.01-0.05,0.02-0.07c-0.65-0.36-1.09-1.04-1.09-1.82c0-0.84,0.5-1.56,1.23-1.89c0.01-0.24,0.11-0.46,0.26-0.62v-2.59
		c-1.21-0.28-2.12-1.32-2.23-2.58h0.42c0.34,0.74,1,1.3,1.81,1.5v-4.45l-2.22,1.02v-1.34l2.22-1.02v-7.87h-5.58v-1.34h5.58v-2.38
		h-2.98v-1.34h2.98v-1.94h1.34v1.94h2.98v1.34h-2.98v2.38h5.58v1.34h-5.58v7.26l2.22-1.02v1.34l-2.22,1.02v5.07
		c0.8-0.2,1.47-0.76,1.81-1.5h0.42c-0.11,1.26-1.03,2.29-2.23,2.58v2.63c0.13,0.16,0.21,0.36,0.22,0.58
		c0.73,0.33,1.23,1.05,1.23,1.89c0,0.78-0.44,1.46-1.09,1.82c0.01,0.02,0.02,0.05,0.02,0.07c0,0.11-0.12,0.22-0.31,0.29l0.17,0.82
		l0.84,4.1c0.18,0.1,0.28,0.22,0.28,0.34c0,0.13-0.11,0.25-0.3,0.35c0.25,0.65,0.65,1.64,0.97,2.14c0.3,0.45,0.31,0.92,0.27,1.23
		c0.63,0.85,1.89,2.38,3.4,3.36l2.55-3.4h2.06c0-5.44,1.51-9.84,3.36-9.84c0.47,0,0.92,0.28,1.32,0.79l19.7-59.09v-3.46
		c-1.4-0.31-2.34-0.89-2.34-1.55c0-0.41,0.36-0.79,0.98-1.1c-0.08-0.06-0.12-0.12-0.12-0.19c0-0.18,0.28-0.33,0.67-0.39v-3.97
		c0-0.41,0.33-0.74,0.74-0.74h0.07v-20.73c-0.3-0.07-0.49-0.2-0.49-0.35c0-0.15,0.2-0.28,0.49-0.35v-0.89
		c-0.4-0.15-0.69-0.43-0.76-0.74c-1.13-0.23-1.89-0.62-1.89-1.07c0-0.14,0.07-0.27,0.2-0.39c-0.86-0.33-1.4-0.78-1.4-1.28
		c0-0.38,0.31-0.73,0.84-1.02c-1.83-2.07-2.26-7.05-1.38-11.21c1.06-5.03,5.7-7.31,8.29-8.54c1.87-0.89,3.47-2.82,4.21-3.82
		c-0.05-0.31-0.03-0.78,0.26-1.23c0.32-0.5,0.72-1.48,0.97-2.14c-0.19-0.1-0.3-0.22-0.3-0.35c0-0.12,0.1-0.24,0.28-0.34l0.85-4.1
		l0.17-0.82c-0.19-0.07-0.31-0.18-0.31-0.29c0-0.03,0.01-0.05,0.02-0.07c-0.65-0.36-1.09-1.04-1.09-1.82c0-0.84,0.5-1.56,1.23-1.89
		c0.01-0.24,0.11-0.46,0.26-0.62v-2.59c-1.21-0.28-2.12-1.32-2.23-2.58h0.42c0.34,0.74,1.01,1.3,1.81,1.5v-4.45l-2.22,1.02v-1.34
		l2.22-1.02v-7.87h-5.58v-1.34h5.58v-2.38h-2.98v-1.34h2.98v-1.93h1.34v1.93h2.98v1.34h-2.98v2.38h5.58v1.34h-5.58v7.26l2.22-1.02
		v1.34l-2.22,1.02v5.07c0.8-0.2,1.47-0.76,1.81-1.5h0.42c-0.11,1.26-1.02,2.3-2.23,2.58v2.63c0.13,0.16,0.21,0.36,0.22,0.58
		c0.73,0.33,1.23,1.05,1.23,1.89c0,0.78-0.44,1.46-1.09,1.82c0.01,0.02,0.02,0.05,0.02,0.07c0,0.11-0.12,0.22-0.31,0.29l0.17,0.82
		l0.85,4.1c0.18,0.1,0.28,0.22,0.28,0.34c0,0.13-0.11,0.25-0.3,0.35c0.25,0.65,0.65,1.63,0.97,2.14c0.3,0.45,0.31,0.92,0.27,1.23
		c0.74,1,2.34,2.93,4.21,3.82c2.58,1.23,7.23,3.51,8.28,8.54c0.88,4.17,0.45,9.14-1.38,11.21c0.53,0.29,0.84,0.64,0.84,1.02
		c0,0.5-0.54,0.95-1.4,1.28c0.13,0.12,0.2,0.26,0.2,0.39c0,0.45-0.75,0.85-1.88,1.07c-0.07,0.32-0.36,0.59-0.76,0.74v0.89
		c0.3,0.07,0.49,0.2,0.49,0.35c0,0.15-0.2,0.28-0.49,0.35v20.73h0.07c0.41,0,0.74,0.33,0.74,0.74v3.97
		c0.39,0.06,0.67,0.21,0.67,0.39c0,0.07-0.05,0.14-0.12,0.19c0.62,0.3,0.98,0.69,0.98,1.1c0,0.66-0.94,1.24-2.34,1.55v3.18
		l19.7,59.09c0.41-0.51,0.85-0.79,1.32-0.79c1.86,0,3.37,4.41,3.37,9.85h2.06l2.69,3.59c1.45-0.99,2.65-2.45,3.26-3.27
		c-0.04-0.31-0.03-0.78,0.27-1.23c0.32-0.5,0.72-1.48,0.97-2.14c-0.19-0.1-0.3-0.22-0.3-0.35c0-0.12,0.1-0.24,0.28-0.34l0.84-4.1
		l0.17-0.82c-0.19-0.08-0.31-0.18-0.31-0.29c0-0.03,0.01-0.05,0.02-0.07c-0.65-0.36-1.09-1.04-1.09-1.82c0-0.84,0.5-1.56,1.23-1.89
		c0.02-0.24,0.11-0.46,0.26-0.62v-2.59c-1.2-0.28-2.12-1.32-2.23-2.58h0.42c0.34,0.74,1,1.3,1.81,1.5v-4.45l-2.22,1.02v-1.34
		l2.22-1.02v-7.87h-5.58v-1.34h5.58v-2.38h-2.98v-1.34h2.98v-1.94h1.34v1.94h2.98v1.34h-2.98v2.38h5.58v1.34h-5.58v7.26l2.22-1.02
		v1.34l-2.22,1.02v5.07c0.8-0.2,1.47-0.76,1.81-1.5h0.42c-0.11,1.26-1.02,2.29-2.23,2.58v2.63c0.13,0.16,0.21,0.36,0.22,0.58
		c0.73,0.33,1.23,1.05,1.23,1.89c0,0.78-0.44,1.46-1.09,1.82c0.01,0.02,0.02,0.05,0.02,0.07c0,0.11-0.12,0.22-0.31,0.29l0.17,0.82
		l0.85,4.1c0.18,0.1,0.28,0.22,0.28,0.34c0,0.13-0.11,0.25-0.3,0.35c0.25,0.65,0.65,1.64,0.97,2.14c0.29,0.45,0.31,0.92,0.26,1.23
		c0.74,1,2.34,2.93,4.22,3.82c2.58,1.23,7.23,3.51,8.28,8.54c0.87,4.17,0.45,9.14-1.38,11.21c0.53,0.29,0.84,0.64,0.84,1.02
		c0,0.5-0.54,0.95-1.4,1.28c0.13,0.12,0.2,0.26,0.2,0.39c0,0.45-0.75,0.85-1.89,1.07c-0.07,0.32-0.36,0.59-0.76,0.75v0.89
		c0.29,0.07,0.49,0.2,0.49,0.35c0,0.15-0.2,0.28-0.49,0.35v20.73h0.07c0.41,0,0.74,0.33,0.74,0.74v3.98
		c0.39,0.06,0.67,0.21,0.67,0.38c0,0.07-0.04,0.14-0.12,0.2c0.62,0.3,0.98,0.68,0.98,1.09c0,0.66-0.94,1.23-2.34,1.55v1.91
		C1025.97,262.15,1026.94,261.78,1027.96,261.78L1027.96,261.78z"/>
	<polygon class="st1" points="0.5,597.34 2835.15,597.34 2835.15,510.32 0.5,510.32 0.5,597.34 	"/>
	<path class="st1" d="M720.09,194.26c-4-1.28-3.68-1.6-6.4-0.16c-2.72,1.44-4,0.8-3.84-0.16c0.16-0.96-0.48-2.08-2.4-2.08
		c-1.92,0-0.8,0.8-1.76,2.24c-0.96,1.44-0.64,1.12-0.48,3.84c0.16,2.72,1.44,5.92,0.32,6.56c-1.12,0.64-0.48,1.12-0.64,2.08
		c-0.16,0.96-3.84-2.24-5.44-4.48c-1.6-2.24-3.68-1.6-5.44-1.6c-1.76,0-3.2-1.6-3.2-1.6s0.64-0.32,1.44-1.92
		c0.8-1.6,0.96-1.76,1.28-3.2c0.32-1.44,0-5.6-0.8-7.36c-0.8-1.76-1.6-4.16-1.6-5.28c0-1.12,0.16-3.36-1.12-2.72
		c-1.28,0.64-0.96,0.8-2.56-0.16c-1.6-0.96-2.24,0.8-3.52,0.16c-1.28-0.64-1.6,0.48-1.6,2.24c0,1.76-0.64,2.88-1.44,4.48
		c-0.8,1.6,0,2.08-0.48,3.2c-0.48,1.12-0.16,3.84,0.32,5.44c0.48,1.6,0,1.76,0.8,4c0.8,2.24-0.48,2.56-2.56,1.76
		c-2.08-0.8-5.92,0.32-6.4,3.68c-0.48,3.36-2.24,4.8-4.48,6.08c-2.24,1.28-3.52,2.24-6.88,5.76c-0.16-2.88-7.36-3.84-10.25-1.76
		c-3.84-0.32-4.32,2.24-3.36,3.36c0.96,1.12,7.52,1.92,7.84,2.88c0.32,0.96,0.96,1.6,4,1.76c3.04,0.16,2.24-1.44,2.24-1.44
		l1.92-0.64c0,0,1.6,4.8,3.36,8c1.76,3.2,7.52,3.04,9.28,3.04c1.76,0,0.64,0.8,0.48,2.4c-0.16,1.6-2.72,0.48-1.28,3.36
		c1.44,2.88,0.48,1.44,0.96,4.32c0.48,2.88-0.48,8.33-1.92,12.17c-1.44,3.84,0,4.48,0.48,4.48c0.48,0,0,6.4,0.96,7.84
		c0.96,1.44,0,6.24-1.12,9.45c-1.12,3.2,0.48,2.88,0.64,3.36c0.16,0.48-0.96,1.44-0.96,4c0,2.56-0.96,1.28,0.48,3.04
		c1.44,1.76-0.8,2.72-0.8,2.72l2.69,6.72l-5.75,3.66v3.86h1.38l0.83,2.51l3.85,7.51v169.55h-2.96l-1.47,0.76l-1.02,6.75h-1.03v28.23
		h11.8h6.17h11.79v-28.23h-1.03l-1.02-6.75l-1.47-0.76h-2.95V311.68l3.85-7.51l0.83-2.51H700v-3.86l-6.23-3.96h-0.89
		c1.27-0.96,4.01-3.22,4.01-4.82c0-2.08-1.44-2.08-1.92-3.36c-0.48-1.28,0.32-2.08,0.16-3.2c-0.16-1.12-1.6-3.36-2.4-6.56
		c-0.8-3.2,0.32-3.84,1.12-5.92c0.8-2.08,2.24-2.4,0.96-4.64c-1.28-2.24,0.8-5.44,2.72-8c1.92-2.56,1.12-5.76-0.64-7.2
		c-1.76-1.44-1.76-1.92-0.64-3.68c1.12-1.76,1.92-4.8,1.76-6.56c-0.16-1.76,0.96-4.96,0.32-7.36c-0.64-2.4-0.16-2.72-0.16-2.72
		c0,0,2.88,0.64,4,0.32c1.12-0.32,2.56-1.44,5.44-2.72c2.88-1.28,1.28-3.2,1.28-4.96c0-1.76,1.76-9.12,2.24-10.56
		c0.48-1.44,2.4-0.96,4.8-0.48c2.4,0.48,2.72,0,4.16-1.28c1.44-1.28,4.16-3.04,3.04-3.52c-1.12-0.48-1.76-0.64-4.64,0.16
		c-2.88,0.8-4.64,1.12-7.52,0.48c-2.88-0.64-1.12-4-1.12-5.28c0-1.28,2.56,0.96,4.8,0.32c2.24-0.64,1.12-0.48,3.52-1.44
		c2.4-0.96,6.4-3.04,7.2-4.8C726.17,194.26,724.09,195.54,720.09,194.26L720.09,194.26z M657.21,215.95
		c-1.58,0.08-0.87,0.72-1.58,1.11c-0.71,0.39-2.77-0.24-4.75-1.11c-1.98-0.87,0.32-1.5,0.32-1.5c1.03-0.79,3.09-0.55,5.78,0.24
		C659.67,215.48,658.8,215.87,657.21,215.95L657.21,215.95z"/>
	<path class="st1" d="M1545.68,261.59c-1.49-2.97,0.89-8.03-1.04-18.3c-1.93-10.27-2.83-11.01-7.44-13.69
		c-4.61-2.68-9.97,1.93-9.97,1.93s-3.27-1.19-8.03-2.23c-4.76-1.04-11.45-1.04-11.45-1.04c0,0-0.3-1.79-1.49-3.87
		c-1.19-2.08-1.49-2.68-2.38-5.06c-0.89-2.38,0.6-4.46,1.49-6.84c0.9-2.38-0.59-4.61-0.89-8.18c-0.29-3.57-1.34-4.17-2.53-5.06
		c-1.19-0.89-1.19-1.34-1.64-2.83c-0.45-1.49,2.38-3.12,1.78-4.46c-0.6-1.34-4.91-3.12-8.78-2.83c-3.87,0.3-1.34,3.12-1.04,3.57
		c0.3,0.45-1.04,0.45-2.38,1.79c-1.34,1.34,1.34,2.08,1.78,4.91c0.44,2.82,2.08,1.04,2.08,1.04l0.15,2.53c0,0-2.98,3.87-3.13,5.65
		c-0.15,1.79-2.08,5.8-3.27,7.14c-1.19,1.34-2.53,4.16-4.46,4.76c-1.93,0.59-4.31,4.76-4.31,4.76s-6.84-6.1-9.08-8.33
		c-2.23-2.23-5.65-4.61-9.82-7.29c-4.16-2.68-4.91-2.98-7.89-4.31c-2.97-1.34-3.42-3.27-4.31-4.61c-0.89-1.34,0,2.53-0.15,2.98
		c-0.15,0.45-0.89-1.04-1.94-1.19c-1.04-0.15-0.15,3.42-0.15,3.42s-0.45,0.74-1.04,2.08c-0.6,1.34-1.34,3.42-2.68,4.61
		c-1.34,1.19-1.19,2.83-2.23,3.72c-1.04,0.89-1.93,2.53-4.02,4.32c-2.08,1.78-0.3,4.91,1.19,5.8c1.49,0.89,5.06-0.89,6.4-1.93
		c1.34-1.04,0,0,2.08-0.3c2.08-0.3,1.49-0.6,2.83-0.74c1.34-0.15,2.23-1.19,4.16-1.19c1.93,0,1.79,2.38,2.38,5.06
		c0.6,2.68,3.87,6.84,6.55,17.7c2.68,10.86,6.55,12.64,7.14,12.79c0.6,0.15,1.04,3.42,1.49,4.76c0.45,1.34,1.34,4.61,3.57,11.01
		c2.23,6.4,0.99,10.96-0.2,12.74c-0.79,1.18-1.93,2.98-2.6,4.29h-1.85v4h0.28c-0.36,2.72-2.9,4.94-6.23,5.56h-5.95v0.97h-3.22v2.22
		h-6.75v1.45h1.05l1.38,4.21h2.65v4.66h3.46l4.3,13.08h-0.83v4.57h0.95c-0.66,1.94-1.55,5.04-2.04,5.82
		c-0.73,1.17-1.89,1.02-2.04,1.89c-0.15,0.87-1.31,1.46-2.18,1.46c-0.88,0-4.08,0.58-4.23-0.58c-0.14-1.17,2.63-1.6,3.79-2.04
		c1.17-0.44,2.33-1.89,1.6-2.77c-0.73-0.87-2.04-1.46-1.46-2.19c0.58-0.73,4.81-6.85,4.81-7.58c0-0.73-4.66-0.44-6.26,0
		c-1.6,0.44-10.64,4.37-11.51,6.56c-0.88,2.19-1.17,5.39-1.17,6.85c0,1.46-2.33,2.18-4.37,1.6c-2.04-0.58-0.14-1.6,0.29-2.48
		c0.44-0.87,0-1.89-0.73-2.62c-0.73-0.73-2.33-0.59-3.35-0.44c-1.02,0.14-1.75,2.04-3.21,2.62c-1.46,0.58,0.15,1.46,0.73,2.77
		c0.58,1.31,2.33,2.48,2.77,2.48c0.44,0-1.16,3.35-2.33,4.08c-1.17,0.73-4.95-0.44-5.97-0.44c-1.02,0-1.17-0.44-1.31-1.17
		c-0.14-0.73-1.75-1.46-1.75-1.46c0,0,0.73-10.64,0.73-11.07c0-0.44-1.17-3.21-1.17-3.21l-1.46,2.92c0,0,0.87,6.85,0.29,10.78
		c-1.02,0-2.19,0.44-0.44,1.46c-0.29,1.31,1.46,3.21,2.48,3.35c1.02,0.15,6.41,1.75,7.87,2.19c1.46,0.44,3.35-1.02,3.35-1.02
		l2.04,2.77c0,0,1.9,2.04,2.77,2.62c0.87,0.58,0.73,2.77,1.46,3.79c0.73,1.02,0.73,0.73-0.58,2.33c-1.31,1.6,0.73,2.33,1.75,2.91
		c1.02,0.58,0.15,3.64-0.73,5.1c-0.87,1.46-0.58,4.81-0.58,5.25c0,0.44-5.1,9.91-5.39,10.49c-0.29,0.58-2.04,4.66-2.04,4.66
		l3.06-2.19c0,0,4.66-9.62,4.95-10.05c0.29-0.44,0.58,1.02,1.16,2.62c0.59,1.6,1.31,2.04,1.75,1.75c0.44-0.29,1.31,0.58,1.89,1.9
		c0.58,1.31,0.58,3.35,2.04,4.95c0.75,0.82,0.92,1.92,0.91,2.85c0,0-1.12,2.72-3.38,3.17c-2.26,0.45-2.04,0.9-2.04,0.9l-0.01,0.06
		h-1.24c-1.21,0-2.21,0.99-2.21,2.21l0,0c0,0.62,0.26,1.18,0.68,1.58h-2.6v5.38h0.78c0.23,0.86,0.5,2.33-0.04,3.17
		c-0.79,1.25-0.28,2.77,0.79,4.07c0.81,0.98-0.46,2.56-1.14,3.29h-0.82v1.23h-2.01v6.55l-10.54,2.66v4.22h-2.8v20.45h-4.56v17.86
		h-38.03v59.19h253.13v-59.19h-38.03v-17.86h-4.56v-20.45h-2.8v-4.22l-10.55-2.66v-6.55h-2.01v-1.23h-0.82
		c-0.68-0.73-1.94-2.31-1.14-3.29c1.08-1.3,1.58-2.83,0.79-4.07c-0.54-0.84-0.27-2.31-0.04-3.17h0.78v-5.38h-2.6
		c0.42-0.4,0.68-0.96,0.68-1.58l0,0c0-1.22-0.99-2.21-2.21-2.21h-1.2c2.96-2.63,7.15-6.54,7.65-7.25c0.72-1.02,0.72-3.53-0.56-3.82
		c-1.27-0.29,0.27-0.88,1.01-2.04c0.75-1.17-1.71-2.33-2.39-3.79c-0.67-1.46,0.78-2.48,0.55-4.95c-0.24-2.48-1.37-4.81-1.37-4.81
		s0.52-0.58,1.84-2.77c1.33-2.19-1.16-4.23-1.16-4.23c0,0,1.35-1.31,1.57-2.92c0.22-1.6-1.28-2.33-1.93-3.93
		c-0.65-1.61-1.75-1.02-4.11-2.92c-2.36-1.9,1.29-1.9,1.55-2.77c0.27-0.87-0.9-1.9-0.6-5.1c0.3-3.21,0.26-2.92-0.39-3.5
		c-0.65-0.58-2.94-0.88-3.36-2.04c-0.42-1.17-1.94-0.73-4.54-0.87c-2.6-0.14,0.59-5.25,0.65-5.68c0,0-6.2-1.67-12.76-3.41v-1.44
		h-0.83l4.3-13.08h3.46v-4.66h2.65l1.38-4.21h1.05v-1.45h-6.75v-2.22h-3.22v-0.97h-5.95c-3.33-0.62-5.87-2.84-6.23-5.56h0.28v-4
		h-5.04c0.72-0.26,1.31-0.58,1.63-0.96c1.34-1.64,2.23-3.72,1.64-5.65c-0.59-1.94-1.34-9.07-1.34-12.5c0-3.42,0.59-8.03-0.6-9.52
		c-1.19-1.49-1.78-2.83-2.97-5.21c-1.19-2.38-0.45-5.21-0.15-8.33c0.3-3.13,1.04-9.08,1.19-8.78c0.15,0.3,2.38,3.42,3.87,7.88
		c1.49,4.46,1.19,3.57,2.38,5.65c1.19,2.08-0.45,3.87,1.04,6.4c1.49,2.53,0.15,3.42,1.49,4.91c1.34,1.49,2.68,5.65,3.57,6.55
		c0.89,0.89,1.19-2.68,0.45-5.8C1544.35,262.19,1547.17,264.57,1545.68,261.59L1545.68,261.59z M1479.85,290.67
		c0.33-1.37,0.52-3.14,0.52-5.13c0-4.31-0.3-2.98-1.04-7.14c-0.74-4.17-1.78-12.94-1.78-13.69c0-0.75,1.93,2.98,4.31,3.13
		c2.38,0.15,2.38-0.3,3.42-0.89c1.04-0.6,0.89,1.19,1.04,1.64c0.15,0.45,3.27-0.74,3.72-2.53c0.45-1.79,0-5.95,0-5.95
		s0.89,0.3,3.42,0.45c2.53,0.15,4.91-1.04,8.63-2.23c3.72-1.19,6.55-2.53,8.18-2.83c1.64-0.3,2.97,2.38,4.31,3.42
		c1.34,1.04,4.31,1.93,5.35,4.02c1.04,2.08,2.98,5.06,6.1,6.99c3.13,1.93,3.27,4.46,4.91,7.29c1.64,2.83-0.59,6.84-2.23,8.18
		c-1.15,0.94-1.64,3.71-1.83,5.28h-9.45h-28.37H1479.85L1479.85,290.67z M1484.64,262.13c-0.18,0.72-2.87,1.97-3.41,1.97
		c-0.54,0-2.42-0.81-3.68-1.17c-1.25-0.36,0.72-4.13,0.72-4.13l3.86,0.45c0,0,1.34-0.09,2.15,0.9
		C1485.09,261.15,1484.82,261.42,1484.64,262.13L1484.64,262.13z"/>
	<path class="st1" d="M2220.94,493.27c-0.2-0.05-0.37-0.01-0.57-0.05c0.05-1-0.38-1.86-0.27-2.86c-1.3-0.48,0.81-2.25-0.77-2.97
		c-0.15-0.89,0.83-1.26,0.77-2.04c-0.03-0.4-1.53-1.56-1.85-2.01c-0.26-0.37-0.76-0.09-1.01-0.72c-0.02-0.06,0.35-1.16,0.38-1.37
		c0.14-1.21,0.61-1.75,0.85-2.75c0.49-2-1.97-2.52-2.5-4.09c-0.47-1.41,1.22-4.68-1.26-5.18c0.11-1.75-0.14-2.82-0.24-4.6
		c-0.09-1.45-0.86-2.77-1-4.07c-0.06-0.57,0.41-1.51,0.37-2.27c-0.05-0.8-0.25-1.59-0.42-2.4c-0.05-0.24-0.56-0.55-0.58-0.73
		c-0.02-0.27,0.34-0.82,0.31-1.02c-0.1-0.82,0-1.24-0.36-2.04l0.62-0.15c-2.75-0.56-1.66,2.9-1.93,3.94
		c-0.4,1.51-0.56,3.41-1.15,4.98c-0.61,1.6-1.55,3.04-1.74,4.62c-0.18,1.48-0.88,3.8-0.01,5.11c-1.58,0.77,0.16,2.02-0.01,3.08
		c-0.02,0.14-1.06,0.72-1.18,1.06c-0.15,0.41,0.13,1.3-0.03,1.76c-0.08,0.22-0.9,0.08-1.03,0.46c-0.14,0.41,0.28,0.65,0.18,1.03
		c-0.16,0.62-0.08,1.22-0.27,1.85c-0.26,0.86-0.41,2.75-0.97,3.33c1.81,1.39-0.27,4.4-0.44,6.14c-0.23,2.31,1.71,4.67,0.91,6.35
		c0.12,0.06,0.37-0.06,0.53,0.02c-0.06,0.23-0.09,0.74-0.1,0.98c0.74,0.21,1.07,1.4,1.42,2.23c0.36-0.04,0.84,0.1,1.2,0.05
		c-0.16,0.28-0.09,0.66-0.37,0.97c0.16,0.07,0.45-0.05,0.57,0.06c0.22,0.98,1.45,1.5,2.14,2.16c0.46,0.44,0.92,0.92,1.45,1.39
		c-0.11,1.56-0.64,5.85-1.21,6.97c1.21,0.03,2.94-0.12,4.22-0.18c-0.11-0.53-0.62-2.68-0.86-3.16c0.24-1.32-0.26-2.7,0.01-3.99
		c0.07-0.34-0.13-0.71-0.17-1.1c0.26-0.28,0.56-0.53,0.95-0.75c0.94-0.53,3.61-0.79,3.44-1.89c0.61-1.48,0.74-3.05,2.24-4.28
		C2220.92,494.58,2220.89,493.89,2220.94,493.27L2220.94,493.27z"/>
	<path class="st1" d="M2287.67,366.18c-0.44-1.03-0.44-1.68-0.37-2.34c0.07-0.66-0.95-3.59-1.46-4.69c-0.51-1.1,0.73-1.24,0.07-2.12
		c-0.66-0.88,0-1.24,0.22-2.05c0.22-0.81-0.15-2.93-0.95-3.44c-0.8-0.51-0.88,0.07-2.12,0.07s-1.54-1.98-1.54-2.71
		c0-0.73,0.59-1.32,0.59-2.34c0-1.02,0.37-2.05-0.66-2.71c-1.02-0.66-1.61,0-2.27,0c-0.66,0-1.24,0.88-1.39,1.76
		c-0.15,0.88,0.81,2.71,0.58,3.44c-0.22,0.73-0.73-0.37-1.32-0.88c-0.59-0.51-1.39,0.59-1.61,0.51c-0.22-0.07,0.15-0.8-0.22-1.39
		c-0.36-0.59-0.51-1.39-0.44-2.05c0.07-0.66-0.22-1.39-1.39-1.68c-1.17-0.29-0.44-0.66-0.88-1.25c-0.44-0.59-0.66,0-1.54,0
		c-0.88,0-0.29-0.88-0.29-1.61c0-0.73,0.73-1.03,0.66-1.76c-0.07-0.73,0.07-1.9-0.59-2.56c-0.66-0.66-1.39-0.95-2.27-1.32
		c-0.88-0.37-1.32,1.24-1.68,2.2c-0.37,0.95,0.15,1.54,0.59,2.27c0.44,0.73-0.22,1.32-0.88,1.1c-0.66-0.22-0.59-0.66-0.88-1.32
		c-0.29-0.66-0.37-2.35-0.22-3.37c0.15-1.02-0.44-2.56-0.66-4.03c-0.22-1.46,0-2.78,0.37-4.32c0.37-1.54,0.22-0.51,0.73-0.95
		c0.51-0.44,5.2-3.81,5.56-3.95c0.37-0.15-0.22-0.81-0.37-1.02c-0.14-0.22-3.15,2.2-3.15,1.68c0-0.51,0-1.47-1.46-1.47
		s-0.8,1.76-1.24,2.05c-0.44,0.29-1.24,0.66-2.2,0.88c-0.95,0.22-1.46-0.36-2.64-0.07c-1.17,0.29,0.66,2.64,1.03,2.34
		c0.37-0.29,1.54-0.15,2.05,0.07c0.51,0.22-0.15,1.46-0.95,2.85c-0.8,1.39-0.66,2.34-0.95,4.54c-0.29,2.2,1.1,7.83,1.17,9.01
		c0.07,1.17,0.36,3.07-0.07,2.42c-0.44-0.66-0.44-0.88-1.17-1.1c-0.73-0.22-1.25-0.22-1.83,1.32c-0.59,1.54,0.15,2.2,0.59,2.34
		c0.44,0.15,0.07,0.95-0.22,1.54c-0.29,0.59-0.81,0.51-1.32,0.29c-0.51-0.22-0.29-1.54,0-1.83c0.29-0.29,0.29-0.88,0.14-2.27
		c-0.14-1.39-0.22-1.69-1.24-1.9c-1.03-0.22-0.8,0-2.64,1.1c-1.83,1.1-1.1,3.66-0.51,3.81c0.59,0.15,0.44-1.32,0.73-1.17
		c0.29,0.15,0.15,1.17,0.29,1.76c0.15,0.59-0.81,1.32-2.34,1.39c-1.53,0.07-1.03,1.25-1.1,2.71c-0.07,1.46-0.81,2.85-1.39,4.76
		c-0.58,1.9-0.15,3.88-0.88,4.76c-0.73,0.88,0.29,1.25-0.29,2.05c-0.59,0.81-0.81,2.12,0.07,2.27c0.88,0.15,1.03-0.37,0.88-0.95
		c-0.15-0.59,0.07-1.46,0.22-1.69c0.15-0.22,0.51,0.51,0.81,0.95c0.29,0.44,0.07,0.66-0.51,2.64c-0.59,1.98-0.07,2.63-0.07,4.39
		c0,1.76-0.51,6.95-0.22,7.25c0.29,0.3,0.81,0.37,1.46,0.88c0.66,0.51,1.54,0.59,2.27,0.59c0.38,0,0.46,0.9,0.47,1.84h-2.87v1h-0.93
		v1.99h-3.37v1.74h0.85l0.3,3.21h0.65v0.33l0.81,0.21v7.74h-0.59v3.22h1.37l-3.47,73.43h-1.08v1.55h-2.16v3.24h-2.9v12.72
		l-6.89,0.99v5.33l-9.46,1.35v5.53h-48.49v32.2h77.36h31.55h77.36v-32.2h-48.49v-5.53l-9.46-1.35v-5.33l-6.89-0.99v-12.72h-2.9
		v-3.24h-2.16v-1.55h-1.08l-3.47-73.43h1.37v-3.22h-0.59v-7.74l0.82-0.21v-0.33h0.65l0.3-3.21h0.85v-1.74h-3.36v-1.99h-0.93v-1
		h-5.12v-1.4h-0.4c0.19-0.59,0.38-1.27,0.48-1.91c0.29-1.76,1.83-4.25,1.98-4.98c0.15-0.73-0.51-2.71-0.59-3.73
		c-0.07-1.03,1.1-3,1.17-4.1c0.07-1.1,0.44-2.64,0.8-2.42c0.37,0.22,0.07,1.24,0.22,2.2c0.15,0.95-0.29,0.95-0.22,2.05
		c0.07,1.1,1.83-0.44,2.2-1.03C2288.41,367.79,2288.11,367.21,2287.67,366.18L2287.67,366.18z M2260.67,382.29
		c0.13-0.38,0.26-0.66,0.35-0.66c0.29,0,0-0.66,0.29-0.59c0.29,0.08,0.81-0.14,1.24-0.95c0.44-0.8,0.66,0.07,1.24-0.73
		c0.59-0.81-0.29-3.29,0.07-3.37c0.36-0.07,0.44,1.1,1.1,2.42c0.66,1.32,1.32-0.22,1.54-0.29c0.22-0.07,0,0.37,0,1.17
		c0,0.8-0.29,0.88-1.69,1.54c-0.7,0.33-1.33,0.95-1.78,1.47H2260.67L2260.67,382.29z M2273.93,382.29
		c-0.08-0.13-0.17-0.26-0.24-0.37c-0.59-0.88-1.17-1.54-1.46-2.42c-0.29-0.88,0.44-0.51,1.32-0.44c0.88,0.07,1.9-0.22,1.9-0.22
		c0,0-0.15-4.17-0.15-5.13c0-0.95-1.32-5.56-1.32-5.56s0.07-0.29,0.59-0.73c0.51-0.44,0.51-2.27,0.66-3.88
		c0.15-1.61-0.36-2.93-0.22-3.51c0.15-0.59,0.59-1.32,0.66-1.54c0.08-0.22,0.66,0.88,1.17,1.46c0.51,0.59,0,1.32-0.73,3.15
		c-0.73,1.83-0.07,5.05,0.15,6.22c0.22,1.17,0,3.59,0,5.49c0,1.9,0.44,2.49,0.95,3.81c0.35,0.91,0.57,2.52,0.64,3.66H2273.93
		L2273.93,382.29z M2262.42,363.25c-0.07,0.22-0.95-1.83-1.39-2.64c-0.44-0.8-0.22-1.83-0.22-1.83s1.24,0.81,1.9,1.03
		C2263.37,360.03,2262.49,363.03,2262.42,363.25L2262.42,363.25L2262.42,363.25z M2273.62,353.44c-0.22-0.15-0.51-1.32-0.15-1.9
		c0.37-0.59,0.29-1.76,0.29-1.76s0.37,1.69,0.51,2.42C2274.42,352.93,2273.84,353.59,2273.62,353.44L2273.62,353.44z"/>
	<path class="st1" d="M2334.33,493.27c-0.2-0.05-0.37-0.01-0.57-0.05c0.05-1-0.38-1.86-0.27-2.86c-1.3-0.48,0.81-2.25-0.77-2.97
		c-0.15-0.89,0.83-1.26,0.77-2.04c-0.03-0.4-1.53-1.56-1.85-2.01c-0.26-0.37-0.76-0.09-1.01-0.72c-0.02-0.06,0.35-1.16,0.38-1.37
		c0.14-1.21,0.61-1.75,0.85-2.75c0.49-2-1.97-2.52-2.5-4.09c-0.47-1.41,1.22-4.68-1.26-5.18c0.11-1.75-0.14-2.82-0.24-4.6
		c-0.09-1.45-0.86-2.77-1-4.07c-0.06-0.57,0.41-1.51,0.37-2.27c-0.05-0.8-0.25-1.59-0.42-2.4c-0.05-0.24-0.57-0.55-0.58-0.73
		c-0.02-0.27,0.34-0.82,0.31-1.02c-0.11-0.82,0-1.24-0.36-2.04l0.63-0.15c-2.75-0.56-1.66,2.9-1.93,3.94
		c-0.4,1.51-0.56,3.41-1.15,4.98c-0.61,1.6-1.55,3.04-1.75,4.62c-0.18,1.48-0.88,3.8-0.01,5.11c-1.58,0.77,0.16,2.02-0.01,3.08
		c-0.02,0.14-1.06,0.72-1.18,1.06c-0.15,0.41,0.13,1.3-0.03,1.76c-0.08,0.22-0.9,0.08-1.03,0.46c-0.14,0.41,0.28,0.65,0.18,1.03
		c-0.16,0.62-0.08,1.22-0.27,1.85c-0.26,0.86-0.4,2.75-0.97,3.33c1.81,1.39-0.27,4.4-0.45,6.14c-0.23,2.31,1.71,4.67,0.91,6.35
		c0.12,0.06,0.37-0.06,0.53,0.02c-0.06,0.23-0.09,0.74-0.1,0.98c0.74,0.21,1.07,1.4,1.42,2.23c0.35-0.04,0.84,0.1,1.19,0.05
		c-0.16,0.28-0.09,0.66-0.37,0.97c0.17,0.07,0.45-0.05,0.58,0.06c0.22,0.98,1.45,1.5,2.14,2.16c0.46,0.44,0.92,0.92,1.45,1.39
		c-0.11,1.56-0.64,5.85-1.21,6.97c1.21,0.03,2.94-0.12,4.23-0.18c-0.11-0.53-0.62-2.68-0.86-3.16c0.24-1.32-0.26-2.7,0.01-3.99
		c0.07-0.34-0.13-0.71-0.17-1.1c0.26-0.28,0.56-0.53,0.95-0.75c0.94-0.53,3.61-0.79,3.44-1.89c0.61-1.48,0.74-3.05,2.24-4.28
		C2334.31,494.58,2334.28,493.89,2334.33,493.27L2334.33,493.27z"/>
	<path class="st1" d="M22.35,391.16h0.68h41c0.13-0.45,0.36-1.07,0.76-1.56c0.7-0.87,1.13-1.48,0.55-2.14
		c-0.59-0.65-0.9-1.16-1.17-1.78c-0.27-0.62-0.04-0.76-0.55-2.14c-0.51-1.38-0.7-2.17,0.12-2.1c0.82,0.07,0.55,0.29,1.13,0.58
		c0.59,0.29,1.41-0.25,0.78-1.34c-0.62-1.09-1.09-1.52,1.01-1.67c2.11-0.14,2.73,0.44,2.62,1.49c-0.12,1.05-0.9,1.23-0.51,1.74
		c0.39,0.51,0.08,1.19,0.98,1.59c0.9,0.4,1.05,0.47,0.51,1.85c-0.55,1.38-0.82,1.45-0.62,2.86c0.2,1.41,0.47,1.88,0.74,2.25
		c0.08,0.11,0.13,0.24,0.16,0.36h12.48v-48.32h-0.79v-3.25h0.79v-6.07l-3.86-2.16v-0.65h-0.66v-2.79h-0.91v-0.62h-1.08v-0.7
		l0.37-0.11v-1.18c0-1.98,1.75-3.61,3.89-3.61h1.61v-22.75l-1.48-0.83v-0.86h-0.75v-0.7l6.04-1.73v-1.12
		c0-7.52,5.92-13.82,13.65-15.08v-1.78h0.87c-0.09-1.42-0.29-4.89-0.3-5.79c0-1.14,0.11-3.82,0.11-3.82c0,0-2.67-0.52-2.67-2.27
		c0-1.75,0-2.68,0.89-3.51c0.89-0.83,2.67-1.24,3.23-0.52c0.56,0.72,1-0.11,1.89,0.52c0.89,0.62,0.33,1.55,1.34,1.86
		c1,0.31,2.23,1.03,2.78,0c0.56-1.03,0.22-3.61,1.67-3.92c1.45-0.31,0.67-1.76,2.23-1.45c1.56,0.31,2.89,0,3.45-1.75
		c0.56-1.75,2.23-2.68,2.34-2.99c0.1-0.27-0.15-12.33-0.21-15.19c-0.41,0.41-0.9,0.84-0.9,0.84c0,0-3.67,4.95-4.01,4.96
		c-0.33,0-1.11-0.93-0.56-1.44c0.48-0.45,4.37-4.9,5.41-6.1c0-0.13-0.01-0.28-0.01-0.43c-0.41-0.17-1.2-0.47-1.84-0.39
		c-0.89,0.1-2.11,1.86-2.78,1.44c-0.67-0.41,1.22-1.34,1.89-2.17c0.55-0.68,2.17-0.31,2.71-0.16c0-1.11,0.03-2.11,0.18-2.11
		c0.33,0,1.33,1.03,1.11,1.45c-0.22,0.41-0.67,0.72-0.22,1.96c0.44,1.24-0.22,1.65-0.33,2.58c-0.11,0.93,0.22,10.32,0.56,10.32
		c0.33,0,1.45-1.96,2.78-1.45c1.34,0.52,2.45-0.72,2.67,0.1c0.22,0.83-1.78,1.03-0.33,2.58c1.45,1.55,1.33,2.48,0.89,2.48
		c-0.45,0-1.89-1.34-2.11-1.03c-0.22,0.31,0.45,1.44,0.89,1.96c0.45,0.52,1.78,0.41,3.23,0.72c1.45,0.31,2.56,1.03,2.34,2.99
		c-0.22,1.96-1.56,2.58-1.56,2.58c0,0,3.34,0.1,2.56,1.55c-0.78,1.45-3.34,1.96-3.34,1.96c0,0-0.12,0.79-0.09,1.33
		c2.11,0.7,6.24,2.15,6.99,3.01c1,1.14,1,3.41-1.45,4.34c-0.81,0.31-1.46,0.51-1.98,0.67c-0.01,0.18-0.05,0.4-0.13,0.67
		c-0.34,1.14-0.77,2.64-1.05,3.62h0.59v1.78c7.73,1.27,13.65,7.56,13.65,15.08v1.12l6.04,1.73v0.7h-0.75v0.86l-1.48,0.83V321h9.33
		v-1.35c0-10.82,9.54-19.67,21.2-19.67h5.96v-0.96l-4.19-5.98v-1.29h-1.42v-3.87h18.09l15.43-1.67l23.87-2.58v-1.34
		c0-0.52,0.32-0.98,0.79-1.21l0.26-10.8l0.1-4.16c-0.47-0.13-0.82-0.53-0.82-1c0-0.57,0.51-1.04,1.14-1.04
		c0.63,0,1.14,0.47,1.14,1.04c0,0.47-0.34,0.87-0.82,1l0.1,4.16l0.25,10.8c0.47,0.23,0.79,0.69,0.79,1.21v1.34l23.87,2.58
		l15.43,1.67h18.09v3.87h-1.42v1.29l-4.19,5.98v0.96h5.96c11.66,0,21.2,8.85,21.2,19.67V321h9.33v-22.04l-1.48-0.83v-0.86h-0.75
		v-0.7l6.04-1.73v-1.12c0-7.52,5.92-13.82,13.65-15.08v-1.78h2.07l-0.65-0.21c0.13-0.18-0.01-1.14,0.07-2.38
		c-4.14-0.69-5.45-3.63-4.4-5.47c0.76-1.34,4.19-2.01,6.27-2.29c-0.01-0.06-0.02-0.12-0.04-0.18c-0.56-2.58,0.11-4.13,0.11-4.13
		l1.67-2.17c0,0-1.67,0.31-1.89-0.93c-0.22-1.24,0.45-0.72,2-1.14c1.56-0.41,1.67-1.55,1.67-1.86c0-0.31-1.22-0.52-1.22-1.86
		c0-1.34,0.78-2.17,1.11-1.14c0.33,1.03,0.56,1.96,1.34,1.24c0.78-0.72,1.23-1.96,2-1.96c0.78,0,1.78-1.24,1.45-1.24
		c-0.33,0-1.56,1.03-1.22-0.93c0.33-1.96-0.67-2.48,0.33-3.1c1-0.62,1.89-1.86,2.56-0.83c0.67,1.03,6.57-9.4,6.57-9.39
		c0,0-1.56-2.38,0.45-1.96c2,0.41,3,1.03,2.34,1.96c-0.67,0.93-1.67,0.1-1.89,0.41c-0.22,0.31-2.78,6.19-2.78,6.19
		c0,0-1.34,2.27-1.34,4.23c0,1.96,0,3.82,0,3.82c0,0,1.89,1.65,3,2.06c1.11,0.41,3,0.41,2.23,1.76c-0.78,1.34-1.11,1.55-1,2.48
		c0.11,0.93-0.45,1.75-1.34,1.65c-0.89-0.1-1.78-0.72-1.78-0.72l1.45,1.96c0,0,1.22-1.34,2.23,1.14c1,2.48,1.22,3.82,1.22,3.82
		l2.89-3.51c0,0-0.89-1.76,0.78-1.44c1.67,0.31,2.56-0.62,4.12-0.1c1.56,0.52,1.89,0.82,1.89,1.75c0,0.93-1.56,1.34-1.67,2.79
		c-0.11,1.44,0,1.34-0.67,1.44c-0.67,0.1-1.22-0.31-1.22,0c0,0.31-0.33,2.99,0.11,4.34c0.45,1.34-0.11,3.41-0.22,4.96
		c-0.02,0.29-0.07,0.61-0.14,0.93h1.29v1.78c7.73,1.27,13.65,7.56,13.65,15.08v1.12l6.04,1.73v0.7h-0.75v0.86l-1.48,0.83v22.75h1.61
		c2.14,0,3.89,1.62,3.89,3.61v1.18l0.37,0.11v0.7h-1.08v0.62h-0.91v2.79h-0.66v0.65l-3.86,2.16v6.07h0.79v3.25h-0.79v48.32h12.48
		c0.03-0.12,0.08-0.26,0.16-0.36c0.27-0.36,0.55-0.83,0.74-2.25c0.2-1.41-0.08-1.48-0.62-2.86c-0.55-1.38-0.39-1.45,0.51-1.85
		c0.9-0.4,0.59-1.09,0.98-1.59c0.39-0.51-0.39-0.69-0.51-1.74c-0.12-1.05,0.51-1.63,2.61-1.49c2.11,0.14,1.64,0.58,1.02,1.67
		c-0.62,1.09,0.2,1.63,0.78,1.34c0.59-0.29,0.31-0.51,1.13-0.58c0.82-0.07,0.62,0.72,0.12,2.1c-0.51,1.38-0.27,1.52-0.55,2.14
		c-0.27,0.62-0.59,1.12-1.17,1.78c-0.59,0.65-0.16,1.27,0.55,2.14c0.4,0.49,0.63,1.11,0.76,1.56h41h0.68h1.43v1.82h-1.43v7.72h16.4
		v1.32h-2.31v1.1h-1.13l-0.83,3.02h-1.01v2.47h-2.97l-3.13,3.02h-2.73v10.5h2.07v1.32h-0.74l-0.95,3.49h-0.39v2.46l4.27,0.17
		l0.05,1.01l-1.14,0.57c0,0,2.27,1.49,1.14,3.25c-0.67,1.03-1.45,1.16-2.03,1.07v87.56l2.62,3.02v48.02h-2.62h-5.72h-5.72h-21.9
		H244.33h-15.15H51.11H29.2h-5.72h-5.72h-2.62v-48.02l2.62-3.02v-87.56c-0.58,0.08-1.36-0.04-2.03-1.07
		c-1.14-1.76,1.14-3.25,1.14-3.25l-1.14-0.57l0.05-1.01l4.27-0.17v-2.46h-0.39l-0.95-3.49h-0.74v-1.32h2.07v-10.5h-2.73l-3.13-3.02
		h-2.97v-2.47h-1.01l-0.83-3.02H8.26v-1.1H5.95v-1.32h16.4v-7.72h-1.43v-1.82H22.35L22.35,391.16z M369.62,276.87h1.28
		c0.13-1.22,0.51-4.67-0.15-4.75c-0.78-0.1-1.67-0.72-1.56,0.72C369.28,273.97,369.77,275.78,369.62,276.87L369.62,276.87z
		 M342.93,272.12c-0.73-1.26-1.26-3.51,4.52-4.3c-0.01,1.31-0.64,1.86-1.41,3.68c-0.2,0.46-0.33,0.93-0.43,1.38
		C344.32,272.86,343.26,272.69,342.93,272.12L342.93,272.12z M102.35,276.87h1.95v-0.01c0-1.34,0.67-4.65,0.11-4.95
		c-0.56-0.31-1.89-2.07-2.11-0.1C102.14,273.21,102.27,275.62,102.35,276.87L102.35,276.87z M129.48,271.54
		c-0.36-0.24-0.81-0.53-1.25-1.18c-0.71-1.05-1.06-2.81-1.27-4.04c1.06,0.21,2.31,0.47,3.05,0.84c1.45,0.72,2.34,0.93,2.78,2.38
		C133.09,270.51,130.99,271.19,129.48,271.54L129.48,271.54z M417.69,394.78c-0.21,0.08-0.35,0.24-0.35,0.43v3.54
		c0,0.26,0.28,0.47,0.63,0.47h0.68c0.35,0,0.63-0.21,0.63-0.47v-3.54c0-0.19-0.14-0.35-0.35-0.43v-0.42
		c0.21-0.08,0.35-0.24,0.35-0.43v-0.97c0-0.26-0.28-0.47-0.63-0.47h-0.68c-0.35,0-0.63,0.21-0.63,0.47v0.97
		c0,0.19,0.14,0.35,0.35,0.43V394.78L417.69,394.78z M414.64,394.78c-0.21,0.08-0.35,0.24-0.35,0.43v3.54
		c0,0.26,0.28,0.47,0.63,0.47h0.68c0.35,0,0.63-0.21,0.63-0.47v-3.54c0-0.19-0.14-0.35-0.35-0.43v-0.42
		c0.21-0.08,0.35-0.24,0.35-0.43v-0.97c0-0.26-0.28-0.47-0.63-0.47h-0.68c-0.35,0-0.63,0.21-0.63,0.47v0.97
		c0,0.19,0.14,0.35,0.35,0.43V394.78L414.64,394.78z M411.59,394.78c-0.21,0.08-0.35,0.24-0.35,0.43v3.54
		c0,0.26,0.28,0.47,0.63,0.47h0.68c0.35,0,0.63-0.21,0.63-0.47v-3.54c0-0.19-0.14-0.35-0.35-0.43v-0.42
		c0.21-0.08,0.35-0.24,0.35-0.43v-0.97c0-0.26-0.28-0.47-0.63-0.47h-0.68c-0.35,0-0.63,0.21-0.63,0.47v0.97
		c0,0.19,0.14,0.35,0.35,0.43V394.78L411.59,394.78z M408.54,394.7c-0.21,0.08-0.35,0.24-0.35,0.43v3.53c0,0.26,0.28,0.48,0.63,0.48
		h0.68c0.35,0,0.63-0.21,0.63-0.48v-3.53c0-0.19-0.14-0.35-0.35-0.43v-0.42c0.21-0.08,0.35-0.24,0.35-0.43v-0.97
		c0-0.26-0.28-0.47-0.63-0.47h-0.68c-0.35,0-0.63,0.21-0.63,0.47v0.97c0,0.19,0.14,0.35,0.35,0.43V394.7L408.54,394.7z
		 M405.49,394.7c-0.21,0.08-0.35,0.24-0.35,0.43v3.53c0,0.26,0.28,0.48,0.63,0.48h0.68c0.35,0,0.63-0.21,0.63-0.48v-3.53
		c0-0.19-0.14-0.35-0.35-0.43v-0.42c0.21-0.08,0.35-0.24,0.35-0.43v-0.97c0-0.26-0.28-0.47-0.63-0.47h-0.68
		c-0.35,0-0.63,0.21-0.63,0.47v0.97c0,0.19,0.14,0.35,0.35,0.43V394.7L405.49,394.7z M55.82,394.78c0.21,0.08,0.35,0.24,0.35,0.43
		v3.54c0,0.26-0.28,0.47-0.63,0.47h-0.68c-0.35,0-0.63-0.21-0.63-0.47v-3.54c0-0.19,0.14-0.35,0.35-0.43v-0.42
		c-0.21-0.08-0.35-0.24-0.35-0.43v-0.97c0-0.26,0.28-0.47,0.63-0.47h0.68c0.35,0,0.63,0.21,0.63,0.47v0.97
		c0,0.19-0.14,0.35-0.35,0.43V394.78L55.82,394.78z M58.87,394.78c0.21,0.08,0.35,0.24,0.35,0.43v3.54c0,0.26-0.28,0.47-0.63,0.47
		h-0.68c-0.35,0-0.63-0.21-0.63-0.47v-3.54c0-0.19,0.14-0.35,0.35-0.43v-0.42c-0.21-0.08-0.35-0.24-0.35-0.43v-0.97
		c0-0.26,0.28-0.47,0.63-0.47h0.68c0.35,0,0.63,0.21,0.63,0.47v0.97c0,0.19-0.14,0.35-0.35,0.43V394.78L58.87,394.78z M61.92,394.78
		c0.21,0.08,0.35,0.24,0.35,0.43v3.54c0,0.26-0.28,0.47-0.63,0.47h-0.68c-0.35,0-0.63-0.21-0.63-0.47v-3.54
		c0-0.19,0.14-0.35,0.35-0.43v-0.42c-0.21-0.08-0.35-0.24-0.35-0.43v-0.97c0-0.26,0.28-0.47,0.63-0.47h0.68
		c0.35,0,0.63,0.21,0.63,0.47v0.97c0,0.19-0.14,0.35-0.35,0.43V394.78L61.92,394.78z M64.97,394.7c0.21,0.08,0.35,0.24,0.35,0.43
		v3.53c0,0.26-0.28,0.48-0.63,0.48h-0.68c-0.35,0-0.63-0.21-0.63-0.48v-3.53c0-0.19,0.14-0.35,0.35-0.43v-0.42
		c-0.21-0.08-0.35-0.24-0.35-0.43v-0.97c0-0.26,0.28-0.47,0.63-0.47h0.68c0.35,0,0.63,0.21,0.63,0.47v0.97
		c0,0.19-0.14,0.35-0.35,0.43V394.7L64.97,394.7z M68.02,394.7c0.21,0.08,0.35,0.24,0.35,0.43v3.53c0,0.26-0.28,0.48-0.63,0.48
		h-0.68c-0.35,0-0.63-0.21-0.63-0.48v-3.53c0-0.19,0.14-0.35,0.35-0.43v-0.42c-0.21-0.08-0.35-0.24-0.35-0.43v-0.97
		c0-0.26,0.28-0.47,0.63-0.47h0.68c0.35,0,0.63,0.21,0.63,0.47v0.97c0,0.19-0.14,0.35-0.35,0.43V394.7L68.02,394.7z"/>
	<polygon class="st1" points="805.53,481.29 901.85,481.29 901.85,530.89 805.53,530.89 805.53,481.29 	"/>
	<polygon class="st1" points="0.5,597.23 2835.15,597.23 2835.15,510.22 0.5,510.22 0.5,597.23 	"/>
	<polygon class="st1" points="0.5,527.53 2835.15,527.53 2835.15,699.32 0.5,699.32 0.5,527.53 	"/>
</g>
<g>
	<path class="st1" d="M3282.33,378.24h-0.13v-1.7h0.18v-0.58h0.16v-0.74l-0.98-0.99h-0.74l-0.98,0.99v0.74h0.16v0.58h0.18v1.7
		h-11.97l-3.18-10.38h0.67v-0.85h0.91v-0.67l1.11-0.45v-0.65h-0.29v-0.83h-1.51l-9.99-2.84v-0.49c0-0.38-0.29-0.69-0.65-0.69h-0.34
		v-53.75l-0.49-0.86h-0.31l-0.49,0.86v53.75h-0.34c-0.36,0-0.65,0.31-0.65,0.69v0.49l-9.99,2.84h-1.51v0.83h-0.29v0.65l1.11,0.45
		v0.67h0.91v0.85h0.67l-3.18,10.38h-11.97v-1.7h0.18v-0.58h0.16v-0.74l-0.98-0.99h-0.74l-0.98,0.99v0.74h0.16v0.58h0.18v1.7h-0.13
		l-5.71,16.58h-11.18v-6.43h-0.17v-0.41l0.6-0.18v-0.52l-1.18-0.43h-2.99l-1.18,0.43v0.52l0.6,0.18v0.41h-0.17v6.43h-4.72v-8.98
		h-0.22v-0.53l0.77-0.23v-0.67l-1.5-0.54h-3.8l-1.5,0.54v0.67l0.77,0.23v0.53h-0.22v8.98h-6.44v-6.43h-0.17v-0.41l0.6-0.18v-0.52
		l-1.18-0.43h-2.99l-1.18,0.43v0.52l0.6,0.18v0.41h-0.17v6.43h-44.16v-8.98h-0.22v-0.53l0.77-0.23v-0.67l-1.5-0.54h-3.8l-1.5,0.54
		v0.67l0.77,0.23v0.53h-0.22v8.98h-28.94l-6.49-3.39l-0.11-1.3l-0.21-2.35l-0.21,2.35l-0.11,1.3l-17.83,9.32l-16.58,8.66h-3.53
		v148.9h187.01h15.24h187.01v-148.9h-3.53l-16.58-8.66l-17.83-9.32l-0.11-1.3l-0.21-2.35l-0.21,2.35l-0.11,1.3l-6.49,3.39h-28.94
		v-8.98h-0.22v-0.53l0.77-0.23v-0.67l-1.5-0.54h-3.8l-1.5,0.54v0.67l0.77,0.23v0.53h-0.22v8.98h-44.16v-6.43h-0.17v-0.41l0.6-0.18
		v-0.52l-1.18-0.43h-2.99l-1.18,0.43v0.52l0.6,0.18v0.41h-0.17v6.43h-6.44v-8.98h-0.22v-0.53l0.77-0.23v-0.67l-1.5-0.54h-3.8
		l-1.5,0.54v0.67l0.77,0.23v0.53h-0.22v8.98h-4.72v-6.43h-0.17v-0.41l0.6-0.18v-0.52l-1.18-0.43h-2.99l-1.18,0.43v0.52l0.6,0.18
		v0.41h-0.17v6.43h-11.18L3282.33,378.24L3282.33,378.24z"/>
	<path class="st1" d="M4051.06,349.95v1.52h-0.97v1.45h1.76v1.94l-12,19.34v7.87H3930.7v-7.87l-12-19.34v-1.94h1.76v-1.45h-0.97
		v-1.52h8.79v-7.6h-1.12v-1.82h1.55v-1.07l3.5-2.7h10.98v-4.04h-1.12v-1.82h1.55v-1.07l3.5-2.7h0.79v-15.49l-3.02-1.81v-3.2h1.11
		v-7.99l-2.05-1.23v-3.2h1.79v-0.77h3.34v-3.61h-1.12v-2.08h2.18v-0.67c0-0.49,0.4-0.89,0.89-0.89h0.13l0.55-1.44
		c-1.38-0.62-2.32-1.79-2.32-3.13c0-1.53,1.21-2.83,2.93-3.35v-1.02c-0.33-0.34-0.53-0.79-0.53-1.27c0-0.49,0.2-0.93,0.53-1.27
		v-0.33c0-0.54,0.44-0.98,0.98-0.98h1.33c0.54,0,0.98,0.44,0.98,0.98v0.33c0.33,0.34,0.53,0.78,0.53,1.27c0,0.49-0.2,0.93-0.53,1.27
		v1.02c1.71,0.52,2.93,1.83,2.93,3.35c0,1.34-0.93,2.51-2.32,3.13l0.55,1.44h0.12c0.49,0,0.89,0.4,0.89,0.89v0.67h2.18v0.82h1.97
		v-6.77h3.1v-4.47h1.72v-0.29h2.84v-2.62h-0.45v-1.46l5.16-3.22v-13.89l-1.9-1.54v-0.31h-0.46v-1.42h0.84v-0.31h1.32v-7.01h1.5v0.82
		h0.55l0.93,1.28c0.67-2.2,2.27-4,4.36-4.97v-2.19l0.78-0.38l0.1-5.18l-0.88-0.25v-0.61l0.9-0.25l0.6-31.04l1.77-1.93h0.12h0.87
		h0.12l1.76,1.93l0.6,31.04l0.9,0.25v0.61l-0.88,0.25l0.1,5.18l0.78,0.38v2.19c2.08,0.97,3.69,2.77,4.36,4.97l0.93-1.28h0.55v-0.82
		h1.49v7.01h1.33v0.31h0.84v1.42h-0.46v0.31l-1.9,1.54v13.89l5.16,3.22v1.46h-0.45v2.62h2.84v0.29h1.72v4.47h3.09v6.77h1.97v-0.82
		h2.18v-0.67c0-0.49,0.4-0.89,0.89-0.89h0.13l0.55-1.44c-1.38-0.62-2.32-1.79-2.32-3.13c0-1.53,1.21-2.83,2.93-3.35v-1.02
		c-0.33-0.34-0.53-0.79-0.53-1.27c0-0.49,0.2-0.93,0.53-1.27v-0.33c0-0.54,0.44-0.98,0.98-0.98h1.33c0.54,0,0.98,0.44,0.98,0.98
		v0.33c0.33,0.34,0.53,0.78,0.53,1.27c0,0.49-0.2,0.93-0.53,1.27v1.02c1.71,0.52,2.93,1.83,2.93,3.35c0,1.34-0.93,2.51-2.32,3.13
		l0.55,1.44h0.13c0.49,0,0.89,0.4,0.89,0.89v0.67h2.18v2.08h-1.12v3.61h3.34v0.77h1.79v3.2l-2.05,1.23v7.99h1.11v3.2l-3.02,1.81
		v15.49h0.79l3.5,2.7v1.07h1.55v1.82h-1.12v4.04h10.98l3.5,2.7v1.07h1.55v1.82h-1.12v7.6H4051.06L4051.06,349.95z M3982.07,256.7
		c0.86,0,1.57,0.71,1.57,1.57v8.78h-3.14v-8.78C3980.49,257.41,3981.2,256.7,3982.07,256.7L3982.07,256.7L3982.07,256.7z
		 M3988.49,256.7c0.86,0,1.57,0.71,1.57,1.57v8.78h-3.14v-8.78C3986.92,257.41,3987.63,256.7,3988.49,256.7L3988.49,256.7
		L3988.49,256.7z M3987.73,309.64v5.44h-4.9v-5.44H3987.73L3987.73,309.64z M3987.73,316.32v10.16h-4.9v-10.16H3987.73
		L3987.73,316.32z M4003.67,309.64v5.44h-4.9v-5.44H4003.67L4003.67,309.64z M4003.67,316.32v10.16h-4.9v-10.16H4003.67
		L4003.67,316.32z M3971.78,309.64v5.44h-4.9v-5.44H3971.78L3971.78,309.64z M3971.78,316.32v10.16h-4.9v-10.16H3971.78
		L3971.78,316.32z"/>
	<path class="st1" d="M3985.52,202.8v-27.97c0.2-0.06,0.35-0.2,0.35-0.36c0-0.16-0.14-0.3-0.35-0.36v-0.07
		c0.21-0.08,0.36-0.28,0.36-0.51c0-0.31-0.27-0.56-0.59-0.56c-0.33,0-0.59,0.25-0.59,0.56c0,0.23,0.15,0.42,0.36,0.51v0.07
		c-0.21,0.06-0.34,0.2-0.34,0.36c0,0.16,0.14,0.29,0.34,0.36v0.01c-3.48,0.31-3.78,5.52-7.46,5.52c0,1.77,0,2.51,0,4.28
		c4.98-1.25,4.9-5.02,7.46-4.58v22.73H3985.52L3985.52,202.8z"/>
	<polygon class="st1" points="3899.71,364.29 3905.65,364.29 3936.47,364.29 3989.52,364.29 4067.31,364.29 4076.58,364.29 
		4078.97,364.29 4078.97,365.39 4076.58,365.39 4076.58,367.38 4115.46,389.04 4119.54,388.88 4138.2,399.27 4138.2,401.7 
		4156.7,412 4156.7,412.22 4159.15,413.54 4159.15,414.11 4156.7,414.64 4156.7,422.01 4162.92,427.49 4162.92,428.41 
		4161.15,429.04 4161.15,429.57 4156.7,431.14 4156.7,527.41 4076.58,527.41 4011.78,527.41 3989.52,527.41 3941.24,527.41 
		3936.47,527.41 3899.71,527.41 3848.35,527.41 3848.35,427.98 3844.55,426.81 3844.55,426.28 3842.53,425.65 3842.53,424.73 
		3848.35,420.24 3848.35,413.71 3847.39,413.42 3847.39,412.49 3850.83,409.85 3860.2,401.7 3860.2,399.27 3872.17,388.88 
		3874.78,389.04 3899.71,367.38 3899.71,365.39 3898.17,365.39 3898.17,364.29 3899.71,364.29 	"/>
	<path class="st1" d="M3460.23,278.05v-1.94c0.05-0.1,0.08-0.22,0.08-0.35c0-0.08-0.01-0.15-0.03-0.22c0.51-0.34,0.84-0.9,0.84-1.54
		c0-0.54-0.24-1.4-0.63-2.1v-1.53c0.43-0.18,0.71-0.45,0.71-0.76c0-0.38-0.44-0.71-1.07-0.88v-2.29c0.34-0.27,0.56-0.67,0.56-1.12
		c0-0.46-0.23-1.22-0.58-1.78c0.01-0.05,0.02-0.1,0.02-0.16c0-0.19-0.1-0.37-0.27-0.49v-1.15c0.38-0.09,0.62-0.26,0.62-0.46
		c0-0.23-0.36-0.43-0.87-0.51v-1.76c1.15-0.22,2.03-1.23,2.03-2.44c0-1.37-1.11-2.49-2.49-2.49c-1.37,0-2.49,1.11-2.49,2.49
		c0,1.21,0.87,2.23,2.03,2.44v1.76c-0.51,0.08-0.87,0.28-0.87,0.51c0,0.2,0.25,0.36,0.63,0.46v1.15c-0.17,0.13-0.27,0.3-0.27,0.49
		c0,0.05,0.01,0.11,0.02,0.16c-0.35,0.56-0.58,1.32-0.58,1.78c0,0.45,0.22,0.86,0.56,1.13v2.29c-0.64,0.17-1.07,0.5-1.07,0.88
		c0,0.3,0.27,0.58,0.71,0.76v1.53c-0.39,0.7-0.63,1.56-0.63,2.1c0,0.64,0.33,1.2,0.85,1.54c-0.02,0.07-0.04,0.14-0.04,0.22
		c0,0.12,0.03,0.24,0.08,0.35v1.94c-0.24,0.37-0.52,0.86-0.7,1.37c-0.36,1.05-1.54,1.28-2.99,3.48c-1.23,1.87-0.59,4.65-0.36,5.46
		c-28.14,0.61-53.05,12.43-68.91,30.46c-6.46,7.34-13.34,16.8-20.45,24.72h-23.33l-6.44,1.5v1.58h1.46v1.49l-4.1,0.31v1.57h0.99
		v1.32h2.87v24.71l-1.52,0.29v0.43h-7.74v2.13h1.3v2.19h0.96v0.7h2.16v11.88c-4.95,1.44-9.22,4.13-12.31,7.64
		c-2,2.27-4.14,5.24-6.34,7.62l-5.31,1.66v1.22h-2.58v2.65h1.4v47.01l-7.09,2.22v1.22h-2.58v2.65h1.4v45.99h20.09h29.81h264.42
		h29.13h20.77v-45.99h1.4v-2.65h-2.58v-1.22l-7.09-2.22v-47.01h1.39v-2.65h-2.58v-1.22l-5.31-1.66c-2.21-2.38-4.35-5.35-6.35-7.62
		c-2.29-2.61-5.24-4.77-8.64-6.29V285.44c1.6-0.22,2.65-0.59,2.65-1.02c0-0.38-0.85-0.73-2.18-0.95l3.37-4.84v-0.63h1.88v-2.79
		l2.93-4.2v-0.49l0.87-5.52c0.82-0.4,1.27-0.84,1.27-1.3v-13.12c0-1.46-4.5-2.69-10.8-3.16v-57.6c0.71-0.18,1.13-0.41,1.13-0.65
		c0-0.31-0.64-0.58-1.69-0.78l-6.14-28.28l-4.84-22.27c0.1-0.19,0.15-0.41,0.15-0.63c0-0.42-0.19-1.08-0.48-1.62v-1.17
		c0.33-0.14,0.54-0.35,0.54-0.59c0-0.29-0.33-0.55-0.82-0.68v-1.77c0.26-0.21,0.43-0.52,0.43-0.86c0-0.36-0.17-0.94-0.45-1.37
		c0.01-0.04,0.02-0.08,0.02-0.12c0-0.15-0.08-0.28-0.21-0.38v-0.88c0.29-0.07,0.48-0.21,0.48-0.35c0-0.18-0.28-0.33-0.67-0.39v-1.35
		c0.89-0.17,1.56-0.94,1.56-1.88c0-1.06-0.86-1.91-1.91-1.91c-1.06,0-1.91,0.86-1.91,1.91c0,0.94,0.67,1.72,1.56,1.88v1.35
		c-0.39,0.06-0.67,0.21-0.67,0.39c0,0.15,0.19,0.28,0.48,0.35v0.88c-0.13,0.1-0.21,0.23-0.21,0.38c0,0.04,0,0.08,0.02,0.12
		c-0.27,0.43-0.45,1.02-0.45,1.37c0,0.35,0.17,0.66,0.43,0.87v1.76c-0.49,0.13-0.83,0.39-0.83,0.68c0,0.23,0.21,0.45,0.55,0.59v1.17
		c-0.3,0.54-0.48,1.2-0.48,1.62c0,0.23,0.06,0.44,0.15,0.63l-4.84,22.27l-6.14,28.28c-1.04,0.2-1.69,0.47-1.69,0.78
		c0,0.25,0.42,0.47,1.13,0.65v57.6c-6.29,0.46-10.8,1.7-10.8,3.16v13.12c0,0.46,0.45,0.9,1.27,1.3l0.88,5.52v0.49l2.93,4.2v2.79
		h1.88v0.63l3.37,4.84c-1.33,0.23-2.18,0.57-2.18,0.95c0,0.42,1.05,0.8,2.65,1.02v127.52h-2.61v1.49h-16.86v-32.67h2.15v-0.7h0.96
		v-2.19h1.3v-2.13h-7.74v-0.43l-1.52-0.29v-24.71h2.86v-1.32h0.99v-1.57l-4.1-0.31v-1.49h1.46v-1.58l-6.44-1.5h-23.33
		c-7.1-7.92-13.99-17.38-20.44-24.72c-15.86-18.04-40.77-29.86-68.91-30.46c0.22-0.8,0.86-3.59-0.36-5.46
		c-1.45-2.2-2.63-2.43-2.99-3.48C3460.75,278.9,3460.47,278.41,3460.23,278.05L3460.23,278.05z M3619.42,122.33
		c0.65,0,1.18,0.53,1.18,1.19c0,0.65-0.53,1.18-1.18,1.18c-0.66,0-1.19-0.53-1.19-1.18
		C3618.23,122.86,3618.76,122.33,3619.42,122.33L3619.42,122.33z M3355.76,356.47v15.85l-7.94,1.5v-6.71
		C3347.82,362.1,3351.18,357.84,3355.76,356.47L3355.76,356.47z M3562.55,356.47v15.85l7.94,1.5v-6.71
		C3570.49,362.1,3567.13,357.84,3562.55,356.47L3562.55,356.47z M3459.16,254.67c0.85,0,1.54,0.69,1.54,1.54
		c0,0.85-0.69,1.54-1.54,1.54c-0.85,0-1.54-0.69-1.54-1.54C3457.62,255.36,3458.31,254.67,3459.16,254.67L3459.16,254.67z"/>
	<path class="st1" d="M4726.09,330.47l-0.35,15.39l-0.1,4.56h-0.24c-1.32,0-2.41,1.1-2.41,2.45v0.96h2.57l-0.1,4.59l-1.33,0.25v0.47
		l1.31,0.34l-0.18,7.91l-2.34,1.38v0.97c-3.26,0.48-5.8,3.57-5.8,7.28v2.29h-15.76c-2.16-5.7-7.49-10.01-14.04-11.14v-1.06
		l-2.34-1.38l-0.18-7.91l1.31-0.34V357l-1.33-0.25l-0.29-12.55l-0.35-15.39h-0.42l-0.35,15.39l-0.29,12.55l-1.33,0.25v0.47l1.3,0.34
		l-0.18,7.91l-2.34,1.38v1.06c-6.55,1.12-11.88,5.44-14.04,11.14h-15.76v-2.29c0-3.71-2.53-6.79-5.8-7.28v-0.97l-2.34-1.38
		l-0.18-7.91l1.31-0.34v-0.47l-1.33-0.25l-0.1-4.59h2.56v-0.96c0-1.35-1.08-2.45-2.41-2.45h-0.24l-0.1-4.56l-0.35-15.39h-0.42
		l-0.35,15.39l-0.1,4.56h-0.24c-1.32,0-2.41,1.1-2.41,2.45v0.96h2.57l-0.1,4.59l-1.33,0.25v0.47l1.31,0.34l-0.18,7.91l-2.34,1.38
		v0.97c-3.26,0.48-5.8,3.57-5.8,7.28v2.29h-1.11v1.17h1.11v5.77h-0.66v3.86c-1.52,1.25-2.78,3.61-3.51,6.59l-2.23,0.71l-0.7-8.39
		h-0.84l0.15,8.83l-0.22,0.07v6.44l1.19,0.4v4.14h-3.92v1.45h0.68v1.55h1.25v0.39l1.99,3.55v10.5h-5.66l-2.04-4.56h-31.52h-9.51
		h-58.96l-2.04,4.56h-2.76v-1.67h0.69v-0.93h-0.69v-3.91l1.99-3.55v-0.39h1.25v-1.55h0.68v-1.45h-4.69v-3.92
		c0-6.51-4.83-11.84-10.75-11.89v-1.31h1.09v-0.93h-3.01v-3.05h1.53v-0.86h-13.96h-13.33l-0.23-9.96l-0.35-15.39h-0.42l-0.35,15.39
		l-0.23,9.96h-13.33h-13.96v0.86h1.53v3.05h-3.01v0.93h1.09v1.31c-5.92,0.04-10.75,5.38-10.75,11.89v3.92h-4.69v1.45h0.68v1.55h1.25
		v0.39l1.99,3.55v3.91h-0.69v0.93h0.69v36.72h-4.64v1.46h0.68v1.55h1.24v0.39l1.99,3.55v20.3l-0.81,0.56v3.35l-2.3,0.81v0.54h0.91
		v0.67l1.39,1.98v63.86h0.81c167.73,0,335.46,0,503.2,0h0.81v-63.86l1.39-1.98v-0.67h0.91v-0.54l-2.3-0.81v-3.35l-0.81-0.56v-20.3
		l1.99-3.55v-0.39h1.24v-1.55h0.68v-1.46h-4.64v-36.72h0.69v-0.93h-0.69v-3.91l1.99-3.55v-0.39h1.24v-1.55h0.68v-1.45h-4.69v-3.92
		c0-6.51-4.83-11.84-10.75-11.89v-1.31h1.09v-0.93h-3.01v-3.05h1.53v-0.86h-13.96h-13.33l-0.23-9.96l-0.35-15.39h-0.42l-0.35,15.39
		l-0.23,9.96h-13.33h-13.96v0.86h1.53v3.05h-3.01v0.93h1.09v1.31c-5.92,0.04-10.76,5.37-10.76,11.89v3.92h-4.69v1.45h0.68v1.55h1.24
		v0.39l1.99,3.55v3.91h-0.69v0.93h0.69v1.67h-2.76l-2.04-4.56h-58.96h-9.51h-31.52l-2.04,4.56h-5.66v-10.5l1.99-3.55v-0.39h1.24
		v-1.55h0.68v-1.45h-3.92v-4.14l1.19-0.4v-6.44l-0.21-0.07l0.15-8.83h-0.85l-0.69,8.39l-2.23-0.71c-0.74-2.98-1.99-5.35-3.51-6.59
		v-3.86h-0.66v-5.77h1.11v-1.17h-1.11v-2.29c0-3.71-2.53-6.79-5.8-7.28v-0.97l-2.34-1.38l-0.18-7.91l1.31-0.34v-0.47l-1.33-0.25
		l-0.1-4.59h2.57v-0.96c0-1.35-1.08-2.45-2.41-2.45h-0.24l-0.1-4.56l-0.35-15.39H4726.09L4726.09,330.47z"/>
	<path class="st1" d="M2820.09,206.66l0.48-1.25c-0.18-0.12-0.28-0.26-0.28-0.41c0-0.1,0.05-0.21,0.15-0.3
		c-0.32-0.39-0.51-0.88-0.51-1.42c0-0.9,0.53-1.67,1.31-2.06c-0.01-0.04-0.01-0.07-0.01-0.11c0-0.23,0.16-0.43,0.41-0.57
		c-0.37-0.22-0.61-0.58-0.61-1c0-0.17,0.04-0.34,0.12-0.49c-0.24-0.19-0.58-0.37-0.93-0.21c-0.62,0.29-0.96,0.6-0.43,1.01
		c0.52,0.41-0.29,0.84-0.5,0.58c-0.22-0.26-0.17-1.27,0.58-1.78c0.47-0.32,1.1-0.1,1.51,0.1c0.08-0.08,0.17-0.15,0.28-0.21v-6.42
		h-4.19l-0.15,0.31c-0.02,0.04-0.06,0.05-0.08,0.02l-0.21-0.29c-0.03-0.04-0.03-0.1-0.01-0.14l0.28-0.59l-0.28-0.59
		c-0.02-0.04-0.02-0.11,0.01-0.14l0.21-0.29c0.03-0.03,0.06-0.02,0.08,0.02l0.15,0.31h4.19v-4.91l-0.31-0.15
		c-0.05-0.02-0.05-0.06-0.02-0.08l0.29-0.21c0.03-0.02,0.1-0.03,0.14-0.01l0.59,0.27l0.59-0.27c0.04-0.02,0.11-0.02,0.14,0.01
		l0.29,0.21c0.03,0.03,0.03,0.06-0.02,0.08l-0.31,0.15v4.91h4.19l0.15-0.31c0.02-0.04,0.06-0.05,0.08-0.02l0.21,0.29
		c0.03,0.03,0.03,0.1,0.01,0.14l-0.28,0.59l0.28,0.59c0.02,0.04,0.02,0.11-0.01,0.14l-0.21,0.29c-0.02,0.03-0.06,0.03-0.08-0.02
		l-0.15-0.31h-4.19v6.34c0.17,0.07,0.32,0.17,0.45,0.29c0.4-0.2,1.03-0.42,1.51-0.1c0.74,0.5,0.79,1.51,0.58,1.78
		c-0.22,0.26-1.03-0.17-0.5-0.58c0.53-0.41,0.19-0.72-0.43-1.01c-0.34-0.16-0.69,0.01-0.93,0.21c0.08,0.15,0.12,0.31,0.12,0.49
		c0,0.42-0.24,0.78-0.61,1c0.25,0.14,0.41,0.34,0.41,0.57c0,0.06-0.01,0.13-0.04,0.19c0.7,0.4,1.17,1.14,1.17,1.98
		c0,0.53-0.19,1.02-0.51,1.42c0.09,0.09,0.15,0.19,0.15,0.3c0,0.15-0.1,0.29-0.28,0.41l0.48,1.25c3.12,0.22,6.09,0.91,8.82,1.97
		l0.43-0.99c0.05-0.13,0.2-0.18,0.33-0.13l0.14,0.06c0.12,0.05,0.19,0.2,0.13,0.32l-0.42,0.98c6.45,2.68,11.49,7.52,13.89,13.45
		c5.85,2.07,10,6.3,10.54,11.27h-0.48v0.36l-2.02,1.64v5.73c0.29,0.08,0.48,0.23,0.48,0.41c0,0.15-0.13,0.28-0.34,0.36v1.94
		l-0.55,0.48v14.06h0.33v0.37h-0.24l0.85,1.66v0.42h0.39v4.94l3.2,0.85l-0.48,1.23l-0.8-0.08l-0.52,0.99v2.61l1.27,0.34v2.27
		l3.03,0.8l-0.48,1.23l-0.8-0.08l-2.23,4.27v1.68l6.54,2.79l-0.48,1.23l-0.8-0.08l-0.05,0.09h0.14v1.71h-1.03l-0.78,1.5v2.73h0.54
		v1.21h-0.54v2.87h0.89v1.09h-0.46v0.6l-0.44,0.51v34.36c2.68,0.87,4.75,5.81,4.8,11.82l0,0v0.06v0.16v0.2v2.35h1.4v0.38l-1.4,1.43
		v2.67l0.83,0.53l0.97,3.25l3.68,1.69v0.51h-1.41v1.64h-0.82v0.3h-0.77v0.28l-0.73,1.13v2.12l0.44,0.29v0.38h-0.44v4.02h0.57v0.45
		h-0.57v5.9h0.63v0.24l-0.63,0.26v3.32h13.2c0-1.35,0.06-3.65,0.42-4.55c0.52-1.31,1.46-2.66,1.46-3.37c0-0.71-0.15-1.35-0.15-1.35
		s-0.79-1.28-0.79-2.14c0-0.86,0.11-0.98,0.23-1.24c0.11-0.27,0.38-4.61,0.38-4.61s-1.24-0.49-0.34-0.75
		c0.9-0.26,1.88-0.41,2.25,0.04c0.37,0.45-0.23,0.71-0.23,0.71s-0.34,3.79-0.26,4.13c0.07,0.34,1.31,0.19,1.2,0.53
		c-0.11,0.34,0.37,1.27-0.11,1.39c-0.49,0.11-0.9,0.15-0.9,0.15s-0.26,1.09,0.04,1.46c0.3,0.37,0.56,0.86,0.56,1.46
		c0,0.6,1.09,2.66,1.5,4.58c0.29,1.32,0.57,2.83,0.67,3.57h0.59c2.2,0,4.78,6.03,5.76,13.47c0.06,0.48,0.12,0.97,0.17,1.44
		l3.14,1.44v0.51h-1.41v1.64h-0.83v0.3h-0.78v0.28l-1.81,2.8v1.29l0.44,0.29v0.38h-0.44v4.02h0.58v0.45h-0.58v5.9h0.63v0.24
		l-0.63,0.26v17.89l9.22,4.23v0.51h-1.41V437h-0.82v0.3h-0.78v0.28l-1.06,1.64v2.52h0.32v0.86h-0.32v15.51l4.52,1v0.51h-1.41v1.64
		h-0.47v6.65l12.24,2.71v0.51h-1.41v1.64h-0.83v0.3h-0.77v0.28l-1.25,1.94v41.86h-83.34h-20.08h-234.71h-9.06h-115.63h-6.69h-5.59
		v-33.59h-0.95v-0.88h0.44v-1.16l0.35-0.6v-3.28h-0.79c-0.04-0.38-0.05-0.78-0.05-1.19c0-3.35,1.27-6.06,2.84-6.06l13.64-7.53
		c2.44-3.76,6.34-6.2,10.74-6.2c0.49,0,0.97,0.03,1.44,0.09v-13.41h-2v-0.88h0.44v-1.16l0.35-0.6v-3.27h-0.79
		c-0.04-0.39-0.05-0.78-0.05-1.19c0-3.35,1.27-6.07,2.84-6.07l3.32-1.83c3.3-7.04,10.86-12.31,20.06-13.65v-1.38h-1.41v-0.51
		l10.02-4.59h-0.45v-0.3h-0.82v-1.64h-1.41v-0.51l6.29-2.89v-4.33h-0.63v-0.4l2.67-1.75v-3.2h0.74v-11.89h-0.96v-0.88h0.44v-1.16
		l0.35-0.6v-3.28h-0.79c-0.04-0.38-0.05-0.78-0.05-1.18c0-3.35,1.27-6.07,2.84-6.07l5.41-2.99c0.87-1.9,1.86-3.73,2.94-5.5v0h0.01
		l0.16-0.26v-0.17l0.13-0.22v-1.21h-0.29c-0.02-0.14-0.02-0.29-0.02-0.43c0-1.23,0.47-2.24,1.05-2.24l3.73-2.06
		c9.38-11.08,23.21-18.1,38.64-18.16l-0.88-4.42v-2.03h0.28v-2.52h-0.28v-0.76l-1-0.84v-0.39h-0.7v-1.07l-1.24-0.46v-0.43l8.54-2.64
		v-1.59h0.47v-3.58l-1.27-0.47v-0.42l1.88-0.8v-3.2l0.6-0.32v-1.67l0.32-0.12v-12.49l-0.32-0.38v-0.43
		c-0.17-0.13-0.35-0.32-0.48-0.61c-0.21-0.43-0.25-0.43-0.18-0.91c0.07-0.48,0.28-0.5,0.28-0.5s-0.32,0.07-0.44-0.57
		c-0.07-0.4,0.43-0.64,0.83-0.8v-4.6h-1.9c-0.05-0.49-0.07-1-0.07-1.52c0-3.49,1.05-6.32,2.36-6.32l5.99-4.09
		c3.35-24.64,27.7-43.95,57.72-45.15l0.75-1.96c-0.22-0.15-0.35-0.32-0.35-0.51c0-0.13,0.07-0.26,0.18-0.37
		c-0.4-0.49-0.63-1.1-0.63-1.77c0-1.12,0.66-2.08,1.63-2.56c-0.01-0.04-0.02-0.09-0.02-0.14c0-0.28,0.2-0.53,0.51-0.7
		c-0.45-0.27-0.75-0.72-0.75-1.24c0-0.22,0.05-0.42,0.15-0.61c-0.3-0.24-0.73-0.46-1.16-0.26c-0.78,0.37-1.19,0.75-0.54,1.26
		c0.65,0.5-0.36,1.05-0.63,0.72c-0.27-0.33-0.21-1.58,0.72-2.21c0.59-0.4,1.38-0.12,1.88,0.13c0.1-0.1,0.22-0.19,0.34-0.27v-8h-5.22
		l-0.18,0.39c-0.03,0.05-0.07,0.06-0.1,0.02l-0.27-0.36c-0.03-0.04-0.04-0.12-0.01-0.18l0.34-0.73l-0.34-0.73
		c-0.03-0.05-0.02-0.13,0.01-0.17l0.27-0.36c0.03-0.04,0.08-0.03,0.1,0.02l0.18,0.39h5.22v-6.11l-0.39-0.18
		c-0.05-0.03-0.06-0.07-0.02-0.1l0.36-0.27c0.04-0.03,0.12-0.04,0.18-0.01l0.73,0.34l0.73-0.34c0.05-0.03,0.13-0.02,0.17,0.01
		l0.36,0.27c0.04,0.03,0.03,0.08-0.02,0.1l-0.39,0.18v6.11h5.21l0.19-0.39c0.03-0.05,0.07-0.07,0.1-0.02l0.27,0.36
		c0.03,0.04,0.04,0.12,0.01,0.17l-0.34,0.73l0.34,0.73c0.02,0.06,0.02,0.13-0.01,0.18l-0.27,0.36c-0.03,0.04-0.08,0.03-0.1-0.02
		l-0.19-0.39h-5.21v7.9c0.21,0.09,0.4,0.22,0.55,0.37c0.5-0.26,1.29-0.53,1.88-0.13c0.93,0.63,0.99,1.89,0.72,2.21
		c-0.27,0.33-1.28-0.21-0.63-0.72c0.65-0.5,0.24-0.89-0.54-1.26c-0.43-0.2-0.86,0.02-1.16,0.26c0.09,0.19,0.15,0.39,0.15,0.61
		c0,0.52-0.3,0.97-0.76,1.24c0.32,0.17,0.51,0.42,0.51,0.7c0,0.08-0.02,0.16-0.04,0.23c0.87,0.5,1.45,1.42,1.45,2.46
		c0,0.67-0.24,1.28-0.63,1.77c0.12,0.11,0.18,0.24,0.18,0.37c0,0.19-0.13,0.36-0.35,0.51l0.75,1.96
		c30.03,1.19,54.37,20.51,57.73,45.15l5.98,4.09c1.3,0,2.36,2.83,2.36,6.32c0,0.52-0.03,1.03-0.07,1.52h-1.9v4.6
		c0.4,0.16,0.9,0.4,0.83,0.8c-0.11,0.64-0.44,0.57-0.44,0.57s0.21,0.03,0.28,0.5c0.07,0.48,0.02,0.48-0.18,0.91
		c-0.14,0.3-0.32,0.48-0.49,0.61v0.43l-0.32,0.38v12.49l0.32,0.12v1.67l0.6,0.32v3.2l1.88,0.8v0.42l-1.28,0.47v3.58h0.47v1.59
		l8.54,2.64v0.43l-1.24,0.46v1.07h-0.7v0.39l-1,0.84v0.76h-0.28v2.52h0.28v2.03l-0.04,0.2h80.11v-32.44l-0.44-0.51v-0.6h-0.46v-1.09
		h0.89v-2.87h-0.54v-1.21h0.54v-2.73l-0.78-1.5h-1.03v-1.71h0.14l-0.05-0.09l-0.8,0.08l-0.48-1.23l6.54-2.79v-1.68l-2.23-4.27
		l-0.8,0.08l-0.48-1.23l3.03-0.8v-2.27l1.27-0.34v-2.61l-0.51-0.99l-0.8,0.08l-0.48-1.23l3.2-0.85v-4.94h0.39v-0.42l0.86-1.66h-0.24
		v-0.37h0.34V244.5l-0.55-0.48v-1.94c-0.21-0.09-0.34-0.22-0.34-0.36c0-0.18,0.2-0.33,0.49-0.41v-5.73l-2.02-1.64v-0.36h-0.48
		c0.54-4.98,4.7-9.2,10.54-11.27c2.4-5.92,7.44-10.77,13.89-13.45l-0.42-0.98c-0.05-0.12,0-0.27,0.13-0.32l0.14-0.06
		c0.12-0.05,0.27,0,0.32,0.13l0.43,0.99C2814,207.56,2816.97,206.88,2820.09,206.66L2820.09,206.66z M2801.34,233.49
		c2.61-0.68,4.75,1.81,4.75,5.53v19.94l-9.5,2.46v-19.94C2796.59,237.77,2798.72,234.17,2801.34,233.49L2801.34,233.49
		L2801.34,233.49z M2843.32,233.49c-2.61-0.68-4.75,1.81-4.75,5.53v19.94l9.5,2.46v-19.94
		C2848.07,237.77,2845.93,234.17,2843.32,233.49L2843.32,233.49L2843.32,233.49z M2822.33,229.82c4.06,0,7.38,3.32,7.38,7.38v21.76
		h-14.76V237.2C2814.95,233.14,2818.27,229.82,2822.33,229.82L2822.33,229.82L2822.33,229.82z"/>
	<path class="st1" d="M4226.76,262.28c-3.47,0-6.35,4.21-6.94,9.77c-0.95-0.45-2-0.7-3.09-0.7c-4.43,0-8.03,4.09-8.03,9.13
		c0,0.52,0.04,1.02,0.11,1.52h-11.18v2.34h2.34v4.49h1.58v1.53l5.98,9.1v9.85h-0.29l-0.77,6.21h-0.67v0.77h0.62v26.85h-35.14
		l-24.17,9.17v1.81h2.02l4.01,8.2h-0.91v1.71h0.72l0.59,8.82h-0.79v1.32h1.13V514.6c284.87,0-17.72,0,266.62,0V374.17h1.13v-1.32
		h-0.78l0.59-8.82h0.72v-1.71h-0.9l4.01-8.2h2.02v-1.81l-24.17-9.17h-35.14v-26.85h0.62v-0.77h-0.67l-0.77-6.21h-0.29v-9.85
		l5.98-9.1v-1.53h1.57v-4.49h2.34V282h-11.18c0.07-0.5,0.11-1,0.11-1.52c0-5.04-3.59-9.13-8.03-9.13c-1.1,0-2.14,0.25-3.09,0.7
		c-0.6-5.56-3.48-9.77-6.94-9.77c-1.02,0-1.99,0.37-2.87,1.03v-1.91c1.4-0.31,2.34-0.89,2.34-1.55c0-0.41-0.37-0.79-0.98-1.09
		c0.08-0.06,0.12-0.13,0.12-0.2c0-0.18-0.28-0.33-0.67-0.38v-3.98c0-0.41-0.33-0.74-0.74-0.74h-0.07v-20.73
		c0.29-0.07,0.49-0.2,0.49-0.35c0-0.15-0.2-0.28-0.49-0.35v-0.89c0.4-0.15,0.69-0.43,0.76-0.75c1.13-0.22,1.88-0.62,1.88-1.07
		c0-0.13-0.07-0.27-0.2-0.39c0.87-0.33,1.4-0.78,1.4-1.28c0-0.38-0.31-0.73-0.84-1.02c1.83-2.07,2.26-7.05,1.38-11.21
		c-1.06-5.03-5.71-7.31-8.28-8.54c-1.87-0.89-3.47-2.82-4.21-3.82c0.04-0.31,0.03-0.78-0.27-1.23c-0.33-0.5-0.72-1.48-0.97-2.14
		c0.19-0.1,0.3-0.22,0.3-0.35c0-0.12-0.1-0.24-0.28-0.34l-0.85-4.1l-0.17-0.82c0.19-0.08,0.31-0.18,0.31-0.29
		c0-0.03-0.01-0.05-0.02-0.07c0.65-0.36,1.09-1.04,1.09-1.82c0-0.84-0.5-1.56-1.23-1.89c-0.01-0.24-0.11-0.46-0.26-0.62v-2.59
		c1.21-0.28,2.12-1.32,2.23-2.58h-0.42c-0.34,0.74-1,1.3-1.81,1.5v-4.45l2.22,1.02v-1.34l-2.22-1.02v-7.87h5.58v-1.34h-5.58v-2.38
		h2.98V167h-2.98v-1.94H4333V167h-2.98v1.34h2.98v2.38h-5.58v1.34h5.58v7.26l-2.22-1.02v1.34l2.22,1.02v5.07
		c-0.81-0.2-1.47-0.76-1.81-1.5h-0.42c0.11,1.26,1.03,2.29,2.23,2.58v2.63c-0.13,0.16-0.21,0.36-0.22,0.58
		c-0.73,0.33-1.23,1.05-1.23,1.89c0,0.78,0.44,1.46,1.09,1.82c-0.01,0.02-0.02,0.05-0.02,0.07c0,0.11,0.12,0.22,0.31,0.29
		l-0.17,0.82l-0.84,4.1c-0.18,0.1-0.28,0.22-0.28,0.34c0,0.13,0.11,0.25,0.3,0.35c-0.25,0.65-0.65,1.64-0.97,2.14
		c-0.3,0.45-0.31,0.92-0.27,1.23c-0.63,0.85-1.89,2.38-3.4,3.36l-2.55-3.4h-2.06c0-5.44-1.51-9.84-3.36-9.84
		c-0.47,0-0.92,0.28-1.32,0.79l-19.7-59.09v-3.46c1.4-0.31,2.34-0.89,2.34-1.55c0-0.41-0.36-0.79-0.98-1.1
		c0.08-0.06,0.12-0.12,0.12-0.19c0-0.18-0.28-0.33-0.67-0.39v-3.97c0-0.41-0.33-0.74-0.74-0.74h-0.07v-20.73
		c0.3-0.07,0.49-0.2,0.49-0.35c0-0.15-0.2-0.28-0.49-0.35v-0.89c0.4-0.15,0.69-0.43,0.76-0.74c1.13-0.23,1.88-0.62,1.88-1.07
		c0-0.14-0.07-0.27-0.2-0.39c0.86-0.33,1.4-0.78,1.4-1.28c0-0.38-0.31-0.73-0.84-1.02c1.83-2.07,2.26-7.05,1.38-11.21
		c-1.06-5.03-5.7-7.31-8.29-8.54c-1.87-0.89-3.47-2.82-4.21-3.82c0.05-0.31,0.03-0.78-0.26-1.23c-0.32-0.5-0.72-1.48-0.97-2.14
		c0.19-0.1,0.3-0.22,0.3-0.35c0-0.12-0.1-0.24-0.28-0.34l-0.85-4.1l-0.17-0.82c0.19-0.07,0.31-0.18,0.31-0.29
		c0-0.03-0.01-0.05-0.02-0.07c0.65-0.36,1.09-1.04,1.09-1.82c0-0.84-0.5-1.56-1.23-1.89c-0.01-0.24-0.11-0.46-0.26-0.62v-2.59
		c1.21-0.28,2.12-1.32,2.23-2.58h-0.42c-0.34,0.74-1.01,1.3-1.81,1.5v-4.45l2.22,1.02v-1.34l-2.22-1.02v-7.87h5.58v-1.34h-5.58
		v-2.38h2.98v-1.34h-2.98v-1.93h-1.34v1.93h-2.98v1.34h2.98v2.38h-5.58v1.34h5.58v7.26l-2.22-1.02v1.34l2.22,1.02v5.07
		c-0.8-0.2-1.47-0.76-1.81-1.5h-0.42c0.11,1.26,1.02,2.3,2.23,2.58v2.63c-0.13,0.16-0.21,0.36-0.22,0.58
		c-0.73,0.33-1.23,1.05-1.23,1.89c0,0.78,0.44,1.46,1.09,1.82c-0.01,0.02-0.02,0.05-0.02,0.07c0,0.11,0.12,0.22,0.31,0.29
		l-0.17,0.82l-0.85,4.1c-0.18,0.1-0.28,0.22-0.28,0.34c0,0.13,0.11,0.25,0.3,0.35c-0.25,0.65-0.65,1.63-0.97,2.14
		c-0.3,0.45-0.31,0.92-0.27,1.23c-0.74,1-2.34,2.93-4.21,3.82c-2.58,1.23-7.23,3.51-8.28,8.54c-0.88,4.17-0.45,9.14,1.38,11.21
		c-0.53,0.29-0.84,0.64-0.84,1.02c0,0.5,0.54,0.95,1.4,1.28c-0.13,0.12-0.2,0.26-0.2,0.39c0,0.45,0.75,0.85,1.88,1.07
		c0.07,0.32,0.36,0.59,0.76,0.74v0.89c-0.3,0.07-0.49,0.2-0.49,0.35c0,0.15,0.2,0.28,0.49,0.35v20.73h-0.07
		c-0.41,0-0.74,0.33-0.74,0.74v3.97c-0.39,0.06-0.67,0.21-0.67,0.39c0,0.07,0.05,0.14,0.12,0.19c-0.61,0.3-0.98,0.69-0.98,1.1
		c0,0.66,0.94,1.24,2.34,1.55v3.18l-19.7,59.09c-0.41-0.51-0.85-0.79-1.32-0.79c-1.86,0-3.37,4.41-3.37,9.85h-2.06l-2.69,3.59
		c-1.45-0.99-2.65-2.45-3.26-3.27c0.04-0.31,0.03-0.78-0.27-1.23c-0.32-0.5-0.72-1.48-0.97-2.14c0.19-0.1,0.3-0.22,0.3-0.35
		c0-0.12-0.1-0.24-0.28-0.34l-0.84-4.1l-0.17-0.82c0.19-0.08,0.31-0.18,0.31-0.29c0-0.03-0.01-0.05-0.02-0.07
		c0.65-0.36,1.09-1.04,1.09-1.82c0-0.84-0.5-1.56-1.23-1.89c-0.02-0.24-0.11-0.46-0.26-0.62v-2.59c1.21-0.28,2.12-1.32,2.23-2.58
		h-0.42c-0.34,0.74-1,1.3-1.81,1.5v-4.45l2.22,1.02v-1.34l-2.22-1.02v-7.87h5.58v-1.34h-5.58v-2.38h2.98V167h-2.98v-1.94h-1.34V167
		h-2.98v1.34h2.98v2.38h-5.58v1.34h5.58v7.26l-2.22-1.02v1.34l2.22,1.02v5.07c-0.8-0.2-1.47-0.76-1.81-1.5h-0.42
		c0.11,1.26,1.02,2.29,2.23,2.58v2.63c-0.13,0.16-0.21,0.36-0.22,0.58c-0.73,0.33-1.23,1.05-1.23,1.89c0,0.78,0.44,1.46,1.09,1.82
		c-0.01,0.02-0.02,0.05-0.02,0.07c0,0.11,0.12,0.22,0.31,0.29l-0.17,0.82l-0.85,4.1c-0.18,0.1-0.28,0.22-0.28,0.34
		c0,0.13,0.11,0.25,0.3,0.35c-0.25,0.65-0.65,1.64-0.97,2.14c-0.29,0.45-0.31,0.92-0.26,1.23c-0.74,1-2.34,2.93-4.21,3.82
		c-2.58,1.23-7.23,3.51-8.28,8.54c-0.88,4.17-0.45,9.14,1.38,11.21c-0.53,0.29-0.84,0.64-0.84,1.02c0,0.5,0.54,0.95,1.4,1.28
		c-0.13,0.12-0.2,0.26-0.2,0.39c0,0.45,0.75,0.85,1.89,1.07c0.07,0.32,0.36,0.59,0.76,0.75v0.89c-0.29,0.07-0.49,0.2-0.49,0.35
		c0,0.15,0.2,0.28,0.49,0.35v20.73h-0.07c-0.41,0-0.74,0.33-0.74,0.74v3.98c-0.39,0.06-0.67,0.21-0.67,0.38
		c0,0.07,0.04,0.14,0.12,0.2c-0.62,0.3-0.98,0.68-0.98,1.09c0,0.66,0.94,1.23,2.34,1.55v1.91
		C4228.75,262.65,4227.78,262.28,4226.76,262.28L4226.76,262.28z"/>
	<polygon class="st1" points="4939.43,597.84 2419.57,597.84 2419.57,510.82 4939.43,510.82 4939.43,597.84 	"/>
	<path class="st1" d="M4534.63,194.76c-4,1.28-6.08,0-5.28,1.76c0.8,1.76,4.8,3.84,7.2,4.8c2.4,0.96,1.28,0.8,3.52,1.44
		c2.24,0.64,4.8-1.6,4.8-0.32c0,1.28,1.76,4.64-1.12,5.28c-2.88,0.64-4.64,0.32-7.52-0.48c-2.88-0.8-3.52-0.64-4.64-0.16
		c-1.12,0.48,1.6,2.24,3.04,3.53c1.44,1.28,1.76,1.76,4.16,1.28c2.4-0.48,4.32-0.96,4.8,0.48c0.48,1.44,2.24,8.8,2.24,10.56
		c0,1.76-1.6,3.68,1.28,4.96c2.88,1.28,4.32,2.4,5.44,2.72c1.12,0.32,4-0.32,4-0.32c0,0,0.48,0.32-0.16,2.72
		c-0.64,2.4,0.48,5.6,0.32,7.36c-0.16,1.76,0.64,4.8,1.76,6.56c1.12,1.76,1.12,2.24-0.64,3.68c-1.76,1.44-2.56,4.64-0.64,7.2
		c1.92,2.56,4,5.76,2.72,8c-1.28,2.24,0.16,2.56,0.96,4.64c0.8,2.08,1.92,2.72,1.12,5.92c-0.8,3.2-2.24,5.44-2.4,6.56
		c-0.16,1.12,0.64,1.92,0.16,3.2c-0.48,1.28-1.92,1.28-1.92,3.36c0,1.6,2.74,3.86,4.01,4.82h-0.89l-6.23,3.96v3.86h1.38l0.83,2.51
		l3.85,7.51v169.55h-2.95l-1.47,0.76l-1.02,6.76h-1.03v28.23h11.79h6.17h11.8v-28.23h-1.03l-1.02-6.76l-1.47-0.76h-2.96V312.18
		l3.85-7.51l0.83-2.51h1.38v-3.86l-5.75-3.66l2.69-6.72c0,0-2.24-0.96-0.8-2.72c1.44-1.76,0.48-0.48,0.48-3.04
		c0-2.56-1.12-3.52-0.96-4c0.16-0.48,1.76-0.16,0.64-3.36c-1.12-3.2-2.08-8.01-1.12-9.45c0.96-1.44,0.48-7.84,0.96-7.84
		c0.48,0,1.92-0.64,0.48-4.48c-1.44-3.84-2.4-9.28-1.92-12.17c0.48-2.88-0.48-1.44,0.96-4.32c1.44-2.88-1.12-1.76-1.28-3.36
		c-0.16-1.6-1.28-2.4,0.48-2.4c1.76,0,7.52,0.16,9.28-3.04c1.76-3.2,3.36-8,3.36-8l1.92,0.64c0,0-0.8,1.6,2.24,1.44
		c3.04-0.16,3.68-0.8,4-1.76c0.32-0.96,6.88-1.76,7.84-2.88c0.96-1.12,0.48-3.68-3.36-3.36c-2.88-2.08-10.09-1.12-10.25,1.76
		c-3.36-3.52-4.64-4.48-6.88-5.76c-2.24-1.28-4-2.72-4.48-6.08c-0.48-3.36-4.32-4.48-6.4-3.68c-2.08,0.8-3.36,0.48-2.56-1.76
		c0.8-2.24,0.32-2.4,0.8-4c0.48-1.6,0.8-4.33,0.32-5.44c-0.48-1.12,0.32-1.6-0.48-3.2c-0.8-1.6-1.44-2.72-1.44-4.48
		c0-1.76-0.32-2.88-1.6-2.24c-1.28,0.64-1.92-1.12-3.52-0.16c-1.6,0.96-1.28,0.8-2.56,0.16c-1.28-0.64-1.12,1.6-1.12,2.72
		c0,1.12-0.8,3.52-1.6,5.28c-0.8,1.76-1.12,5.92-0.8,7.36c0.32,1.44,0.48,1.6,1.28,3.2c0.8,1.6,1.44,1.92,1.44,1.92
		s-1.44,1.6-3.2,1.6c-1.76,0-3.84-0.64-5.44,1.6c-1.6,2.24-5.29,5.44-5.44,4.48c-0.16-0.96,0.48-1.44-0.64-2.08
		c-1.12-0.64,0.16-3.84,0.32-6.56c0.16-2.72,0.48-2.4-0.48-3.84c-0.96-1.44,0.16-2.24-1.76-2.24c-1.92,0-2.56,1.12-2.4,2.08
		c0.16,0.96-1.12,1.6-3.84,0.16C4538.31,193.16,4538.63,193.48,4534.63,194.76L4534.63,194.76z M4597.51,216.45
		c-1.58-0.08-2.45-0.47,0.24-1.26c2.7-0.79,4.75-1.03,5.78-0.24c0,0,2.3,0.63,0.32,1.5c-1.98,0.87-4.04,1.51-4.75,1.11
		C4598.38,217.17,4599.09,216.53,4597.51,216.45L4597.51,216.45z"/>
	<path class="st1" d="M3709.03,262.09c-1.49,2.98,1.34,0.6,0.59,3.72c-0.74,3.13-0.45,6.69,0.45,5.8c0.89-0.89,2.23-5.06,3.57-6.55
		c1.34-1.49,0-2.38,1.49-4.91c1.49-2.53-0.15-4.32,1.04-6.4c1.19-2.08,0.89-1.19,2.38-5.65c1.49-4.46,3.72-7.59,3.87-7.88
		c0.15-0.3,0.89,5.65,1.19,8.78c0.3,3.12,1.04,5.95-0.15,8.33c-1.19,2.38-1.79,3.72-2.97,5.21c-1.19,1.49-0.6,6.1-0.6,9.52
		c0,3.42-0.75,10.56-1.34,12.5c-0.59,1.93,0.3,4.02,1.64,5.65c0.32,0.38,0.91,0.7,1.63,0.96h-5.04v4h0.28
		c-0.36,2.72-2.9,4.94-6.23,5.56h-5.95v0.97h-3.22v2.22h-6.75v1.45h1.05l1.38,4.21h2.65v4.66h3.46l4.3,13.08h-0.83v1.44
		c-6.55,1.74-12.76,3.41-12.76,3.41c0.06,0.44,3.25,5.54,0.65,5.68c-2.6,0.15-4.12-0.29-4.54,0.87c-0.42,1.17-2.71,1.46-3.36,2.04
		c-0.65,0.58-0.69,0.29-0.39,3.5c0.3,3.2-0.87,4.23-0.6,5.1c0.27,0.87,3.91,0.87,1.55,2.77c-2.36,1.89-3.46,1.31-4.11,2.92
		c-0.65,1.6-2.15,2.33-1.93,3.93c0.22,1.6,1.57,2.92,1.57,2.92c0,0-2.48,2.04-1.16,4.23c1.32,2.19,1.84,2.77,1.84,2.77
		s-1.13,2.33-1.37,4.81c-0.24,2.47,1.22,3.5,0.55,4.95c-0.67,1.46-3.13,2.62-2.39,3.79c0.75,1.17,2.28,1.75,1.01,2.04
		c-1.27,0.29-1.28,2.79-0.56,3.82c0.5,0.7,4.69,4.62,7.65,7.25h-1.2c-1.21,0-2.21,0.99-2.21,2.21l0,0c0,0.62,0.26,1.18,0.68,1.58
		h-2.6v5.38h0.78c0.23,0.86,0.5,2.33-0.04,3.17c-0.79,1.25-0.28,2.77,0.79,4.07c0.81,0.98-0.46,2.56-1.14,3.29h-0.82v1.23h-2.01
		v6.55l-10.54,2.66v4.22h-2.8v20.45h-4.56v17.86h-38.03v59.19h253.13v-59.19h-38.03v-17.86h-4.56v-20.45h-2.8v-4.22l-10.54-2.66
		v-6.55h-2.01v-1.23h-0.82c-0.68-0.73-1.95-2.31-1.14-3.29c1.07-1.3,1.58-2.83,0.79-4.07c-0.54-0.84-0.27-2.31-0.04-3.17h0.78v-5.38
		h-2.6c0.42-0.4,0.68-0.96,0.68-1.58l0,0c0-1.22-0.99-2.21-2.21-2.21h-1.24l-0.01-0.06c0,0,0.23-0.45-2.04-0.9
		c-2.26-0.45-3.38-3.17-3.38-3.17c-0.01-0.93,0.16-2.02,0.91-2.85c1.46-1.61,1.46-3.64,2.04-4.95c0.58-1.32,1.46-2.19,1.89-1.9
		c0.44,0.29,1.16-0.14,1.75-1.75c0.58-1.6,0.87-3.06,1.16-2.62c0.29,0.44,4.95,10.05,4.95,10.05l3.06,2.19c0,0-1.75-4.08-2.04-4.66
		c-0.29-0.59-5.39-10.05-5.39-10.49c0-0.44,0.29-3.79-0.58-5.25c-0.87-1.46-1.75-4.52-0.73-5.1c1.02-0.58,3.06-1.31,1.75-2.91
		c-1.31-1.61-1.31-1.31-0.58-2.33c0.73-1.02,0.58-3.21,1.46-3.79c0.87-0.58,2.77-2.62,2.77-2.62l2.04-2.77c0,0,1.9,1.46,3.35,1.02
		c1.46-0.44,6.85-2.04,7.87-2.19c1.02-0.15,2.77-2.04,2.48-3.35c1.75-1.02,0.58-1.46-0.44-1.46c-0.58-3.94,0.29-10.78,0.29-10.78
		l-1.46-2.92c0,0-1.17,2.77-1.17,3.21c0,0.44,0.73,11.08,0.73,11.08c0,0-1.6,0.73-1.75,1.46c-0.15,0.73-0.29,1.17-1.31,1.17
		c-1.02,0-4.81,1.17-5.97,0.44c-1.17-0.73-2.77-4.08-2.33-4.08c0.44,0,2.19-1.17,2.77-2.48c0.58-1.31,2.19-2.19,0.73-2.77
		c-1.46-0.58-2.19-2.48-3.21-2.62c-1.02-0.15-2.62-0.29-3.35,0.44c-0.73,0.73-1.17,1.75-0.73,2.62c0.43,0.87,2.33,1.89,0.29,2.48
		c-2.04,0.58-4.37-0.14-4.37-1.6c0-1.46-0.29-4.66-1.17-6.85c-0.88-2.19-9.91-6.12-11.51-6.56c-1.6-0.44-6.26-0.73-6.26,0
		c0,0.73,4.22,6.85,4.81,7.58c0.58,0.73-0.73,1.31-1.46,2.19c-0.73,0.87,0.44,2.33,1.6,2.77c1.16,0.44,3.93,0.87,3.79,2.04
		c-0.15,1.16-3.35,0.58-4.23,0.58c-0.87,0-2.04-0.58-2.18-1.46c-0.15-0.88-1.31-0.73-2.04-1.89c-0.49-0.79-1.38-3.88-2.04-5.82h0.95
		v-4.57h-0.83l4.3-13.08h3.46v-4.66h2.65l1.39-4.21h1.05v-1.45h-6.75v-2.22h-3.22v-0.97h-5.95c-3.33-0.62-5.87-2.84-6.23-5.56h0.28
		v-4h-1.85c-0.68-1.31-1.82-3.1-2.6-4.29c-1.19-1.78-2.43-6.35-0.2-12.74c2.23-6.4,3.12-9.67,3.57-11.01
		c0.45-1.34,0.89-4.61,1.49-4.76c0.6-0.15,4.46-1.93,7.14-12.79c2.68-10.86,5.95-15.03,6.55-17.7c0.6-2.68,0.45-5.06,2.38-5.06
		c1.93,0,2.82,1.04,4.16,1.19c1.34,0.15,0.74,0.45,2.83,0.74c2.08,0.3,0.74-0.74,2.08,0.3c1.34,1.04,4.91,2.82,6.4,1.93
		c1.49-0.89,3.27-4.02,1.19-5.8c-2.08-1.79-2.98-3.43-4.02-4.32c-1.04-0.89-0.89-2.53-2.23-3.72c-1.34-1.19-2.08-3.28-2.68-4.61
		c-0.6-1.34-1.04-2.08-1.04-2.08s0.89-3.57-0.15-3.42c-1.04,0.15-1.79,1.64-1.94,1.19c-0.15-0.45,0.75-4.32-0.15-2.98
		c-0.89,1.34-1.34,3.27-4.31,4.61c-2.98,1.34-3.72,1.64-7.89,4.31c-4.16,2.68-7.59,5.06-9.82,7.29c-2.23,2.23-9.08,8.33-9.08,8.33
		s-2.38-4.17-4.31-4.76c-1.94-0.6-3.27-3.42-4.46-4.76c-1.19-1.34-3.12-5.36-3.27-7.14c-0.15-1.78-3.13-5.65-3.13-5.65l0.15-2.53
		c0,0,1.64,1.78,2.08-1.04c0.45-2.83,3.12-3.57,1.78-4.91c-1.34-1.34-2.68-1.34-2.38-1.79c0.29-0.45,2.82-3.27-1.04-3.57
		c-3.87-0.3-8.18,1.49-8.78,2.83c-0.59,1.34,2.23,2.97,1.78,4.46c-0.45,1.49-0.45,1.93-1.64,2.83c-1.19,0.89-2.23,1.49-2.53,5.06
		c-0.3,3.57-1.79,5.8-0.89,8.18c0.89,2.38,2.38,4.46,1.49,6.84c-0.9,2.38-1.19,2.98-2.38,5.06c-1.19,2.08-1.49,3.87-1.49,3.87
		c0,0-6.69,0-11.45,1.04c-4.76,1.04-8.03,2.23-8.03,2.23s-5.36-4.61-9.97-1.93c-4.61,2.68-5.51,3.42-7.44,13.69
		C3708.14,254.06,3710.52,259.12,3709.03,262.09L3709.03,262.09z M3774.87,291.17h-9.23h-28.37h-9.45
		c-0.19-1.57-0.68-4.34-1.83-5.28c-1.64-1.34-3.87-5.36-2.23-8.18c1.64-2.83,1.78-5.36,4.91-7.29c3.12-1.94,5.06-4.91,6.1-6.99
		c1.04-2.08,4.02-2.98,5.35-4.02c1.34-1.04,2.68-3.72,4.31-3.42c1.64,0.3,4.46,1.64,8.18,2.83c3.72,1.19,6.1,2.38,8.63,2.23
		c2.53-0.15,3.42-0.45,3.42-0.45s-0.45,4.16,0,5.95c0.45,1.79,3.57,2.97,3.72,2.53c0.15-0.45,0-2.23,1.04-1.64
		c1.04,0.6,1.04,1.04,3.42,0.89c2.38-0.15,4.31-3.87,4.31-3.13c0,0.74-1.04,9.52-1.78,13.69c-0.75,4.17-1.04,2.83-1.04,7.14
		C3774.34,288.03,3774.53,289.8,3774.87,291.17L3774.87,291.17z M3770.08,262.63c-0.18-0.72-0.45-0.99,0.36-1.97
		c0.81-0.98,2.15-0.9,2.15-0.9l3.86-0.45c0,0,1.97,3.77,0.72,4.13c-1.26,0.36-3.14,1.16-3.68,1.16
		C3772.95,264.61,3770.26,263.35,3770.08,262.63L3770.08,262.63z"/>
	<path class="st1" d="M3033.78,493.77c0.2-0.05,0.37-0.01,0.57-0.05c-0.05-1,0.38-1.86,0.27-2.86c1.3-0.48-0.81-2.25,0.77-2.97
		c0.15-0.89-0.83-1.26-0.77-2.04c0.03-0.4,1.53-1.56,1.85-2.01c0.26-0.37,0.76-0.09,1.01-0.72c0.02-0.06-0.35-1.16-0.38-1.37
		c-0.14-1.21-0.61-1.75-0.85-2.75c-0.49-2,1.97-2.52,2.5-4.09c0.47-1.41-1.22-4.68,1.26-5.18c-0.11-1.75,0.14-2.82,0.24-4.6
		c0.09-1.45,0.86-2.77,1-4.07c0.06-0.57-0.41-1.51-0.37-2.27c0.05-0.8,0.25-1.59,0.42-2.4c0.05-0.24,0.56-0.55,0.58-0.73
		c0.02-0.27-0.34-0.82-0.31-1.02c0.1-0.82,0-1.24,0.36-2.04l-0.62-0.15c2.75-0.56,1.66,2.9,1.93,3.94c0.4,1.51,0.56,3.41,1.15,4.98
		c0.61,1.6,1.55,3.04,1.74,4.62c0.18,1.48,0.88,3.8,0.01,5.11c1.58,0.77-0.16,2.02,0.01,3.08c0.02,0.14,1.06,0.72,1.18,1.06
		c0.15,0.41-0.13,1.3,0.03,1.76c0.08,0.22,0.9,0.08,1.03,0.46c0.14,0.41-0.28,0.65-0.18,1.03c0.16,0.62,0.08,1.22,0.27,1.85
		c0.26,0.86,0.41,2.75,0.97,3.33c-1.81,1.39,0.27,4.4,0.45,6.14c0.23,2.31-1.71,4.67-0.91,6.35c-0.12,0.06-0.37-0.06-0.53,0.02
		c0.06,0.23,0.09,0.74,0.1,0.98c-0.74,0.21-1.07,1.4-1.42,2.23c-0.36-0.04-0.84,0.1-1.2,0.05c0.16,0.28,0.09,0.66,0.37,0.97
		c-0.16,0.07-0.45-0.05-0.57,0.06c-0.22,0.98-1.45,1.5-2.14,2.16c-0.46,0.44-0.92,0.92-1.45,1.39c0.11,1.56,0.64,5.85,1.21,6.97
		c-1.21,0.03-2.94-0.12-4.23-0.18c0.11-0.53,0.62-2.68,0.86-3.16c-0.24-1.32,0.26-2.7-0.01-3.99c-0.07-0.34,0.13-0.71,0.17-1.1
		c-0.26-0.28-0.56-0.53-0.95-0.75c-0.94-0.53-3.61-0.79-3.44-1.89c-0.61-1.48-0.74-3.05-2.24-4.28
		C3033.8,495.08,3033.83,494.39,3033.78,493.77L3033.78,493.77z"/>
	<path class="st1" d="M2967.04,366.68c-0.44,1.02-0.73,1.61-0.36,2.2c0.36,0.59,2.12,2.12,2.2,1.03c0.07-1.1-0.37-1.1-0.22-2.05
		c0.15-0.95-0.15-1.98,0.22-2.2c0.37-0.22,0.73,1.32,0.8,2.42c0.07,1.1,1.24,3.07,1.17,4.1c-0.07,1.02-0.73,3-0.59,3.73
		c0.15,0.73,1.68,3.22,1.98,4.98c0.11,0.64,0.29,1.32,0.48,1.91h-0.4v1.4h-5.12v1h-0.93v1.99h-3.36v1.74h0.85l0.3,3.21h0.65v0.33
		l0.82,0.21v7.74h-0.59v3.22h1.37l-3.47,73.43h-1.08v1.55h-2.16v3.24h-2.9v12.72l-6.89,0.99v5.33l-9.46,1.35v5.53h-48.49v32.2h77.36
		h31.55h77.36v-32.2h-48.49v-5.53l-9.46-1.35v-5.33l-6.89-0.99v-12.72h-2.9v-3.24h-2.16v-1.55h-1.08l-3.47-73.43h1.37v-3.22h-0.59
		v-7.74l0.81-0.21v-0.33h0.65l0.3-3.21h0.85v-1.74h-3.37v-1.99h-0.93v-1h-2.87c0-0.94,0.09-1.84,0.47-1.84
		c0.73,0,1.61-0.07,2.27-0.59c0.66-0.51,1.17-0.59,1.46-0.88c0.29-0.29-0.22-5.49-0.22-7.25c0-1.76,0.51-2.42-0.07-4.39
		c-0.59-1.98-0.81-2.2-0.51-2.64c0.29-0.44,0.66-1.17,0.81-0.95c0.15,0.22,0.37,1.1,0.22,1.69c-0.15,0.59,0,1.1,0.88,0.95
		c0.88-0.14,0.66-1.46,0.07-2.27c-0.59-0.81,0.44-1.17-0.29-2.05c-0.73-0.88-0.29-2.85-0.88-4.76c-0.59-1.9-1.32-3.29-1.39-4.76
		c-0.07-1.46,0.44-2.64-1.1-2.71c-1.54-0.07-2.49-0.81-2.34-1.39c0.15-0.59,0-1.61,0.29-1.76c0.29-0.15,0.14,1.32,0.73,1.17
		c0.59-0.15,1.32-2.71-0.51-3.81c-1.83-1.1-1.61-1.32-2.64-1.1c-1.02,0.22-1.1,0.51-1.24,1.9c-0.15,1.39-0.15,1.98,0.14,2.27
		c0.29,0.29,0.51,1.61,0,1.83c-0.51,0.22-1.02,0.29-1.32-0.29c-0.29-0.58-0.66-1.39-0.22-1.54c0.44-0.15,1.17-0.81,0.59-2.34
		c-0.59-1.54-1.1-1.54-1.83-1.32c-0.73,0.22-0.73,0.44-1.17,1.1c-0.44,0.66-0.15-1.24-0.07-2.42c0.07-1.17,1.46-6.81,1.17-9.01
		c-0.29-2.2-0.15-3.15-0.95-4.54c-0.81-1.39-1.47-2.63-0.95-2.85c0.51-0.22,1.68-0.37,2.05-0.07c0.37,0.29,2.2-2.05,1.03-2.34
		c-1.17-0.29-1.69,0.29-2.64,0.07c-0.95-0.22-1.76-0.59-2.2-0.88c-0.44-0.29,0.22-2.05-1.24-2.05c-1.46,0-1.47,0.95-1.46,1.47
		c0,0.51-3-1.9-3.15-1.68c-0.15,0.22-0.73,0.88-0.37,1.02c0.37,0.15,5.05,3.51,5.56,3.95c0.51,0.44,0.37-0.59,0.73,0.95
		c0.37,1.54,0.59,2.85,0.37,4.32c-0.22,1.47-0.81,3-0.66,4.03c0.15,1.02,0.07,2.71-0.22,3.37c-0.29,0.66-0.22,1.1-0.88,1.32
		c-0.66,0.22-1.32-0.37-0.88-1.1c0.44-0.73,0.95-1.32,0.59-2.27c-0.37-0.95-0.81-2.56-1.68-2.2c-0.88,0.37-1.61,0.66-2.27,1.32
		c-0.66,0.66-0.51,1.83-0.59,2.56c-0.07,0.73,0.66,1.02,0.66,1.76c0,0.73,0.58,1.61-0.29,1.61c-0.88,0-1.1-0.59-1.54,0
		c-0.44,0.59,0.29,0.95-0.88,1.25c-1.17,0.29-1.47,1.02-1.39,1.68c0.07,0.66-0.07,1.46-0.44,2.05c-0.37,0.59,0,1.32-0.22,1.39
		c-0.22,0.07-1.03-1.02-1.61-0.51c-0.59,0.51-1.1,1.61-1.32,0.88c-0.22-0.73,0.73-2.56,0.58-3.44c-0.15-0.88-0.73-1.76-1.39-1.76
		c-0.66,0-1.25-0.66-2.27,0c-1.02,0.66-0.66,1.69-0.66,2.71c0,1.03,0.59,1.61,0.59,2.34c0,0.73-0.29,2.71-1.54,2.71
		s-1.32-0.59-2.12-0.07c-0.8,0.51-1.17,2.64-0.95,3.44c0.22,0.8,0.88,1.17,0.22,2.05c-0.66,0.88,0.59,1.03,0.07,2.12
		c-0.51,1.1-1.54,4.03-1.46,4.69C2967.48,365,2967.48,365.66,2967.04,366.68L2967.04,366.68z M2994.05,382.79h-2.38
		c-0.45-0.52-1.08-1.14-1.78-1.47c-1.39-0.66-1.69-0.73-1.69-1.54c0-0.81-0.22-1.25,0-1.17s0.88,1.61,1.54,0.29
		c0.66-1.32,0.73-2.49,1.1-2.42c0.37,0.07-0.51,2.56,0.07,3.37c0.59,0.8,0.81-0.07,1.24,0.73c0.44,0.81,0.95,1.03,1.24,0.95
		c0.29-0.07,0,0.59,0.29,0.59C2993.79,382.13,2993.91,382.41,2994.05,382.79L2994.05,382.79z M2980.79,382.79h-3.91
		c0.07-1.15,0.29-2.76,0.64-3.66c0.51-1.32,0.95-1.9,0.95-3.81c0-1.9-0.22-4.32,0-5.49c0.22-1.17,0.88-4.39,0.15-6.22
		c-0.73-1.83-1.25-2.56-0.73-3.15c0.51-0.59,1.1-1.68,1.17-1.46c0.07,0.22,0.51,0.95,0.66,1.54c0.15,0.59-0.37,1.9-0.22,3.52
		c0.14,1.61,0.14,3.44,0.66,3.88c0.51,0.44,0.59,0.73,0.59,0.73s-1.32,4.61-1.32,5.56c0,0.95-0.15,5.13-0.15,5.13
		c0,0,1.02,0.29,1.9,0.22c0.88-0.07,1.61-0.44,1.32,0.44c-0.29,0.88-0.88,1.53-1.46,2.42
		C2980.95,382.53,2980.87,382.66,2980.79,382.79L2980.79,382.79z M2992.3,363.75L2992.3,363.75c-0.07-0.22-0.95-3.22-0.29-3.44
		c0.66-0.22,1.9-1.03,1.9-1.03s0.22,1.03-0.22,1.83C2993.25,361.92,2992.38,363.97,2992.3,363.75L2992.3,363.75z M2981.1,353.94
		c-0.22,0.15-0.8-0.51-0.66-1.25c0.15-0.73,0.51-2.42,0.51-2.42s-0.07,1.17,0.29,1.76C2981.61,352.62,2981.32,353.8,2981.1,353.94
		L2981.1,353.94z"/>
	<path class="st1" d="M2920.39,493.77c0.2-0.05,0.37-0.01,0.57-0.05c-0.05-1,0.38-1.86,0.27-2.86c1.3-0.48-0.81-2.25,0.77-2.97
		c0.15-0.89-0.83-1.26-0.77-2.04c0.03-0.4,1.53-1.56,1.85-2.01c0.26-0.37,0.76-0.09,1.01-0.72c0.02-0.06-0.35-1.16-0.38-1.37
		c-0.14-1.21-0.61-1.75-0.85-2.75c-0.49-2,1.97-2.52,2.5-4.09c0.47-1.41-1.22-4.68,1.26-5.18c-0.11-1.75,0.14-2.82,0.24-4.6
		c0.09-1.45,0.86-2.77,1-4.07c0.06-0.57-0.41-1.51-0.37-2.27c0.05-0.8,0.25-1.59,0.42-2.4c0.05-0.24,0.57-0.55,0.58-0.73
		c0.02-0.27-0.34-0.82-0.31-1.02c0.11-0.82,0-1.24,0.36-2.04l-0.63-0.15c2.75-0.56,1.66,2.9,1.93,3.94c0.4,1.51,0.56,3.41,1.15,4.98
		c0.61,1.6,1.55,3.04,1.75,4.62c0.18,1.48,0.88,3.8,0.01,5.11c1.58,0.77-0.16,2.02,0.01,3.08c0.02,0.14,1.06,0.72,1.18,1.06
		c0.15,0.41-0.13,1.3,0.03,1.76c0.08,0.22,0.9,0.08,1.03,0.46c0.14,0.41-0.28,0.65-0.18,1.03c0.16,0.62,0.08,1.22,0.27,1.85
		c0.26,0.86,0.4,2.75,0.97,3.33c-1.81,1.39,0.27,4.4,0.45,6.14c0.23,2.31-1.71,4.67-0.91,6.35c-0.12,0.06-0.37-0.06-0.53,0.02
		c0.06,0.23,0.09,0.74,0.1,0.98c-0.74,0.21-1.07,1.4-1.42,2.23c-0.35-0.04-0.84,0.1-1.19,0.05c0.16,0.28,0.09,0.66,0.37,0.97
		c-0.17,0.07-0.45-0.05-0.58,0.06c-0.22,0.98-1.45,1.5-2.14,2.16c-0.46,0.44-0.92,0.92-1.45,1.39c0.11,1.56,0.64,5.85,1.21,6.97
		c-1.21,0.03-2.94-0.12-4.23-0.18c0.11-0.53,0.62-2.68,0.86-3.16c-0.24-1.32,0.26-2.7-0.01-3.99c-0.07-0.34,0.13-0.71,0.17-1.1
		c-0.26-0.28-0.56-0.53-0.95-0.75c-0.94-0.53-3.61-0.79-3.44-1.89c-0.61-1.48-0.74-3.05-2.24-4.28
		C2920.4,495.08,2920.44,494.39,2920.39,493.77L2920.39,493.77z"/>
	<polygon class="st1" points="4449.19,481.79 4352.87,481.79 4352.87,531.39 4449.19,531.39 4449.19,481.79 	"/>
	<polygon class="st1" points="4936.31,597.73 2419.57,597.73 2419.57,510.72 4936.31,510.72 4936.31,597.73 	"/>
	<polygon class="st1" points="4939.43,528.03 2419.57,528.03 2419.57,699.82 4939.43,699.82 4939.43,528.03 	"/>
</g>
</svg>
