<?xml version="1.0" encoding="UTF-8"?>
<svg id="uuid-b4903554-b62b-480b-bbe0-241551c7ed85" data-name="Layer 1" xmlns="http://www.w3.org/2000/svg" viewBox="0 0 3000.99 1501.01">
  <defs>
    <style>
      .uuid-69cd952e-cfdd-4f80-bf71-87d72bd5821a {
        fill: none;
        stroke: #fff;
        stroke-miterlimit: 10;
      }

      .uuid-ab73cd18-5bfd-4213-b85d-fe51755212e7 {
        fill: #fff;
      }

      .uuid-ab73cd18-5bfd-4213-b85d-fe51755212e7, .uuid-740dbe69-873f-41d3-b65c-7fe636019eab {
        stroke-width: 0px;
      }

      .uuid-740dbe69-873f-41d3-b65c-7fe636019eab {
        fill: #231f20;
        fill-rule: evenodd;
      }
    </style>
  </defs>
  <rect class="uuid-69cd952e-cfdd-4f80-bf71-87d72bd5821a" x=".5" y=".5" width="2999.99" height="1500.01"/>
  <g>
    <path class="uuid-740dbe69-873f-41d3-b65c-7fe636019eab" d="m2055.07,864.98h.13v-1.7h-.18v-.58h-.16v-.74l.98-.99h.74l.98.99v.74h-.16v.58h-.18v1.7h11.97l3.18-10.38h-.67v-.85h-.91v-.67l-1.11-.45v-.65h.29v-.83h1.51l9.99-2.84v-.49c0-.38.29-.69.65-.69h.34v-53.75l.49-.86h.31l.49.86v53.75h.34c.36,0,.65.31.65.69v.49l9.99,2.84h1.51v.83h.29v.65l-1.11.45v.67h-.91v.85h-.67l3.18,10.38h11.97v-1.7h-.18v-.58h-.16v-.74l.98-.99h.74l.98.99v.74h-.16v.58h-.18v1.7h.13l5.71,16.58h11.18v-6.43h.17v-.41l-.6-.18v-.52l1.18-.43h2.99l1.18.43v.52l-.6.18v.41h.17v6.43h4.72v-8.98h.22v-.53l-.77-.23v-.67l1.5-.54h3.8l1.5.54v.67l-.77.23v.53h.22v8.98h6.44v-6.43h.17v-.41l-.6-.18v-.52l1.18-.43h2.99l1.18.43v.52l-.6.18v.41h.17v6.43h44.16v-8.98h.22v-.53l-.77-.23v-.67l1.5-.54h3.8l1.5.54v.67l-.77.23v.53h.22v8.98h28.94l6.49-3.39.11-1.3.21-2.35.21,2.35.11,1.3,17.83,9.32,16.58,8.66h3.53v148.9h-389.27v-148.9h3.53l16.58-8.66,17.83-9.32.11-1.3.21-2.35.21,2.35.11,1.3,6.49,3.39h28.94v-8.98h.22v-.53l-.77-.23v-.67l1.5-.54h3.8l1.5.54v.67l-.77.23v.53h.22v8.98h44.16v-6.43h.17v-.41l-.6-.18v-.52l1.18-.43h2.99l1.18.43v.52l-.6.18v.41h.17v6.43h6.44v-8.98h.22v-.53l-.77-.23v-.67l1.5-.54h3.8l1.5.54v.67l-.77.23v.53h.22v8.98h4.72v-6.43h.17v-.41l-.6-.18v-.52l1.18-.43h2.99l1.18.43v.52l-.6.18v.41h.17v6.43h11.18l5.71-16.58h0Z"/>
    <path class="uuid-740dbe69-873f-41d3-b65c-7fe636019eab" d="m1286.33,836.69h8.79v-7.6h-1.12v-1.82h1.55v-1.07l3.5-2.7h10.98v-4.04h-1.12v-1.82h1.55v-1.07l3.5-2.7h.79v-15.49l-3.02-1.81v-3.2h1.11v-7.99l-2.05-1.23v-3.2h1.79v-.77h3.34v-3.61h-1.12v-2.08h2.18v-.67c0-.49.4-.89.89-.89h.13l.55-1.44c-1.38-.62-2.32-1.79-2.32-3.13,0-1.53,1.21-2.83,2.93-3.35v-1.02c-.33-.34-.53-.79-.53-1.27s.2-.93.53-1.27v-.33c0-.54.44-.98.98-.98h1.33c.54,0,.98.44.98.98v.33c.33.34.53.78.53,1.27s-.2.93-.53,1.27v1.02c1.71.52,2.93,1.83,2.93,3.35,0,1.34-.93,2.51-2.32,3.13l.55,1.44h.13c.49,0,.89.4.89.89v.67h2.18v.82h1.97v-6.77h3.09v-4.47h1.72v-.29h2.84v-2.62h-.45v-1.46l5.16-3.22v-13.89l-1.9-1.54v-.31h-.46v-1.42h.84v-.31h1.33v-7.01h1.49v.82h.55l.93,1.28c.67-2.2,2.27-4,4.36-4.97v-2.19l.78-.38.1-5.18-.88-.25v-.61l.9-.25.6-31.04,1.76-1.93h1.11l1.77,1.93.6,31.04.9.25v.61l-.88.25.1,5.18.78.38v2.19c2.09.97,3.69,2.77,4.36,4.97l.93-1.28h.55v-.82h1.5v7.01h1.32v.31h.84v1.42h-.46v.31l-1.9,1.54v13.89l5.16,3.22v1.46h-.45v2.62h2.84v.29h1.72v4.47h3.1v6.77h1.97v-.82h2.18v-.67c0-.49.4-.89.89-.89h.12l.55-1.44c-1.38-.62-2.32-1.79-2.32-3.13,0-1.53,1.22-2.83,2.93-3.35v-1.02c-.33-.34-.53-.79-.53-1.27s.2-.93.53-1.27v-.33c0-.54.44-.98.98-.98h1.33c.54,0,.98.44.98.98v.33c.33.34.53.78.53,1.27s-.2.93-.53,1.27v1.02c1.71.52,2.93,1.83,2.93,3.35,0,1.34-.93,2.51-2.32,3.13l.55,1.44h.13c.49,0,.89.4.89.89v.67h2.18v2.08h-1.12v3.61h3.34v.77h1.79v3.2l-2.05,1.23v7.99h1.11v3.2l-3.02,1.81v15.49h.79l3.5,2.7v1.07h1.55v1.82h-1.12v4.04h10.98l3.5,2.7v1.07h1.55v1.82h-1.12v7.6h8.79v1.52h-.97v1.45h1.76v1.94l-12,19.34v7.87h-109.15v-7.87l-12-19.34v-1.94h1.76v-1.45h-.97v-1.52h0Zm69-93.25h0c.86,0,1.57.71,1.57,1.57v8.78h-3.14v-8.78c0-.86.71-1.57,1.57-1.57h0Zm-6.42,0h0c.86,0,1.57.71,1.57,1.57v8.78h-3.14v-8.78c0-.86.71-1.57,1.57-1.57h0Zm.76,52.94h4.9v5.44h-4.9v-5.44h0Zm0,6.68h4.9v10.16h-4.9v-10.16h0Zm-15.94-6.68h4.9v5.44h-4.9v-5.44h0Zm0,6.68h4.9v10.16h-4.9v-10.16h0Zm31.89-6.68h4.9v5.44h-4.9v-5.44h0Zm0,6.68h4.9v10.16h-4.9v-10.16h0Z"/>
    <path class="uuid-740dbe69-873f-41d3-b65c-7fe636019eab" d="m1351.87,689.55v-27.97c-.2-.06-.35-.2-.35-.36s.14-.3.35-.36v-.07c-.21-.08-.36-.28-.36-.51,0-.31.27-.56.59-.56s.59.25.59.56c0,.23-.15.42-.36.51v.07c.21.06.34.2.34.36s-.14.29-.34.36h0c3.48.32,3.78,5.54,7.46,5.54v4.28c-4.98-1.25-4.9-5.02-7.46-4.58v22.73h-.47Z"/>
    <polygon class="uuid-740dbe69-873f-41d3-b65c-7fe636019eab" points="1437.69 851.04 1431.74 851.04 1400.92 851.04 1347.88 851.04 1270.08 851.04 1260.81 851.04 1258.42 851.04 1258.42 852.13 1260.81 852.13 1260.81 854.12 1221.93 875.78 1217.85 875.63 1199.19 886.02 1199.19 888.44 1180.69 898.75 1180.69 898.97 1178.24 900.29 1178.24 900.85 1180.69 901.38 1180.69 908.76 1174.47 914.23 1174.47 915.16 1176.24 915.78 1176.24 916.32 1180.69 917.89 1180.69 1014.16 1260.81 1014.16 1325.61 1014.16 1347.88 1014.16 1396.15 1014.16 1400.92 1014.16 1437.69 1014.16 1489.04 1014.16 1489.04 914.73 1492.84 913.55 1492.84 913.02 1494.87 912.39 1494.87 911.47 1489.04 906.99 1489.04 900.46 1490 900.16 1490 899.24 1486.56 896.59 1477.19 888.44 1477.19 886.02 1465.23 875.63 1462.61 875.78 1437.69 854.12 1437.69 852.13 1439.22 852.13 1439.22 851.04 1437.69 851.04 1437.69 851.04"/>
    <path class="uuid-740dbe69-873f-41d3-b65c-7fe636019eab" d="m1877.16,764.79c-.24.37-.52.86-.7,1.37-.36,1.05-1.54,1.28-2.99,3.48-1.22,1.87-.58,4.65-.36,5.46-28.15.61-53.05,12.43-68.91,30.46-6.46,7.34-13.34,16.8-20.44,24.72h-23.33l-6.44,1.5v1.58h1.46v1.49l-4.1.31v1.57h.99v1.32h2.86v24.71l-1.52.29v.43h-7.74v2.13h1.3v2.19h.96v.7h2.15v32.67h-16.86v-1.49h-2.61v-127.52c1.6-.22,2.65-.59,2.65-1.02,0-.38-.85-.73-2.18-.95l3.37-4.84v-.63h1.88v-2.79l2.93-4.2v-.49l.88-5.52c.82-.4,1.27-.84,1.27-1.3v-13.12c0-1.46-4.51-2.69-10.8-3.16v-57.6c.71-.18,1.13-.41,1.13-.65,0-.31-.64-.58-1.69-.78l-6.14-28.28-4.84-22.27c.1-.19.15-.41.15-.63,0-.42-.19-1.08-.48-1.62v-1.17c.33-.14.55-.35.55-.59,0-.29-.33-.55-.83-.68v-1.76c.26-.21.43-.52.43-.87s-.17-.94-.45-1.37c.01-.04.02-.08.02-.12,0-.15-.08-.28-.21-.38v-.88c.29-.07.48-.21.48-.35,0-.18-.28-.33-.67-.39v-1.35c.89-.17,1.56-.94,1.56-1.88,0-1.06-.86-1.91-1.91-1.91s-1.91.86-1.91,1.91c0,.94.67,1.72,1.56,1.88v1.35c-.39.06-.67.21-.67.39,0,.15.19.28.48.35v.88c-.13.1-.21.23-.21.38,0,.04,0,.08.02.12-.27.43-.45,1.02-.45,1.37s.17.66.43.86v1.77c-.49.13-.82.39-.82.68,0,.23.21.45.54.59v1.17c-.3.54-.48,1.2-.48,1.62,0,.23.05.44.15.63l-4.84,22.27-6.14,28.28c-1.05.2-1.69.47-1.69.78,0,.24.42.47,1.13.65v57.6c-6.29.46-10.8,1.7-10.8,3.16v13.12c0,.46.45.9,1.27,1.3l.87,5.52v.49l2.93,4.2v2.79h1.88v.63l3.37,4.84c-1.33.23-2.18.57-2.18.95,0,.42,1.05.8,2.65,1.02v109.57c-3.39,1.53-6.34,3.68-8.64,6.29-2,2.27-4.14,5.24-6.35,7.62l-5.31,1.66v1.22h-2.58v2.65h1.39v47.01l-7.09,2.22v1.22h-2.58v2.65h1.4v45.99h364.23v-45.99h1.4v-2.65h-2.58v-1.22l-7.09-2.22v-47.01h1.4v-2.65h-2.58v-1.22l-5.31-1.66c-2.2-2.38-4.34-5.35-6.34-7.62-3.09-3.51-7.36-6.2-12.31-7.64v-11.88h2.16v-.7h.96v-2.19h1.3v-2.13h-7.74v-.43l-1.52-.29v-24.71h2.87v-1.32h.99v-1.57l-4.1-.31v-1.49h1.46v-1.58l-6.44-1.5h-23.33c-7.1-7.92-13.99-17.38-20.45-24.72-15.86-18.04-40.76-29.86-68.91-30.46.22-.8.86-3.59-.36-5.46-1.44-2.2-2.63-2.43-2.99-3.48-.18-.52-.46-1.01-.7-1.37v-1.94c.05-.1.08-.22.08-.35,0-.08-.01-.15-.04-.22.51-.34.85-.9.85-1.54,0-.54-.24-1.4-.63-2.1v-1.53c.43-.18.71-.45.71-.76,0-.38-.43-.71-1.07-.88v-2.29c.34-.27.56-.67.56-1.13s-.23-1.22-.58-1.78c.02-.05.02-.1.02-.16,0-.19-.1-.37-.27-.49v-1.15c.38-.09.63-.26.63-.46,0-.23-.36-.43-.87-.51v-1.76c1.15-.22,2.03-1.23,2.03-2.44,0-1.37-1.11-2.49-2.49-2.49s-2.49,1.11-2.49,2.49c0,1.21.87,2.23,2.03,2.44v1.76c-.51.08-.87.28-.87.51,0,.2.25.36.62.46v1.15c-.16.13-.27.3-.27.49,0,.05,0,.11.02.16-.36.56-.58,1.32-.58,1.78s.22.86.56,1.12v2.29c-.64.17-1.07.5-1.07.88,0,.3.27.58.71.76v1.53c-.39.7-.63,1.56-.63,2.1,0,.63.34,1.2.84,1.54-.02.07-.03.14-.03.22,0,.12.03.24.08.35v1.94h0Zm-159.18-155.71c.65,0,1.19.53,1.19,1.19s-.53,1.18-1.19,1.18-1.18-.53-1.18-1.18.53-1.19,1.18-1.19h0Zm263.66,234.14c4.58,1.37,7.94,5.64,7.94,10.65v6.71l-7.94-1.5v-15.85h0Zm-206.79,0c-4.58,1.37-7.94,5.64-7.94,10.65v6.71l7.94-1.5v-15.85h0Zm103.4-101.8c.85,0,1.54.69,1.54,1.54s-.69,1.54-1.54,1.54-1.54-.69-1.54-1.54.69-1.54,1.54-1.54h0Z"/>
    <path class="uuid-740dbe69-873f-41d3-b65c-7fe636019eab" d="m611.31,817.21l.35,15.39.1,4.56h.24c1.32,0,2.41,1.1,2.41,2.45v.96h-2.57l.1,4.59,1.33.24v.47l-1.31.34.18,7.91,2.34,1.38v.97c3.26.48,5.8,3.57,5.8,7.28v2.29h15.76c2.16-5.7,7.49-10.01,14.04-11.14v-1.06l2.34-1.38.18-7.91-1.31-.34v-.47l1.33-.25.29-12.55.35-15.39h.42l.35,15.39.29,12.55,1.33.25v.47l-1.3.34.18,7.91,2.34,1.38v1.06c6.55,1.12,11.88,5.44,14.04,11.14h15.76v-2.29c0-3.71,2.53-6.79,5.8-7.28v-.97l2.34-1.38.18-7.91-1.31-.34v-.47l1.33-.24.1-4.59h-2.56v-.96c0-1.35,1.08-2.45,2.41-2.45h.24l.1-4.56.35-15.39h.42l.35,15.39.1,4.56h.24c1.32,0,2.41,1.1,2.41,2.45v.96h-2.57l.1,4.59,1.33.24v.47l-1.31.34.18,7.91,2.34,1.38v.97c3.26.48,5.8,3.57,5.8,7.28v2.29h1.11v1.17h-1.11v5.77h.66v3.86c1.52,1.25,2.78,3.61,3.51,6.59l2.23.71.7-8.39h.84l-.15,8.83.22.07v6.44l-1.19.4v4.14h3.92v1.45h-.68v1.55h-1.25v.39l-1.99,3.55v10.5h5.66l2.04-4.56h99.99l2.04,4.56h2.76v-1.67h-.69v-.93h.69v-3.91l-1.99-3.55v-.39h-1.25v-1.55h-.68v-1.45h4.69v-3.92c0-6.51,4.83-11.84,10.75-11.89v-1.31h-1.09v-.93h3.01v-3.05h-1.53v-.86h27.29l.23-9.96.35-15.39h.42l.35,15.39.23,9.96h27.29v.86h-1.53v3.05h3.01v.93h-1.09v1.31c5.92.04,10.75,5.38,10.75,11.89v3.92h4.69v1.45h-.68v1.55h-1.25v.39l-1.99,3.55v3.91h.69v.93h-.69v36.72h4.64v1.46h-.68v1.55h-1.24v.39l-1.99,3.55v20.3l.81.56v3.35l2.3.81v.54h-.91v.67l-1.39,1.98v63.86h-504.81v-63.86l-1.39-1.98v-.67h-.91v-.54l2.3-.81v-3.35l.81-.56v-20.3l-1.99-3.55v-.39h-1.24v-1.55h-.68v-1.46h4.64v-36.72h-.69v-.93h.69v-3.91l-1.99-3.55v-.39h-1.24v-1.55h-.68v-1.45h4.69v-3.92c0-6.51,4.83-11.84,10.75-11.89v-1.31h-1.09v-.93h3.01v-3.05h-1.53v-.86h27.29l.23-9.96.35-15.39h.42l.35,15.39.23,9.96h27.29v.86h-1.53v3.05h3.01v.93h-1.09v1.31c5.92.04,10.76,5.37,10.76,11.89v3.92h4.69v1.45h-.68v1.55h-1.24v.39l-1.99,3.55v3.91h.69v.93h-.69v1.67h2.76l2.04-4.56h99.99l2.04,4.56h5.66v-10.5l-1.99-3.55v-.39h-1.24v-1.55h-.68v-1.45h3.92v-4.14l-1.19-.4v-6.44l.21-.07-.15-8.83h.85l.69,8.39,2.23-.71c.74-2.98,1.99-5.35,3.51-6.59v-3.86h.66v-5.77h-1.11v-1.17h1.11v-2.29c0-3.71,2.53-6.79,5.8-7.28v-.97l2.34-1.38.18-7.91-1.31-.34v-.47l1.33-.24.1-4.59h-2.57v-.96c0-1.35,1.08-2.45,2.41-2.45h.24l.1-4.56.35-15.39h.42Z"/>
    <path class="uuid-740dbe69-873f-41d3-b65c-7fe636019eab" d="m2517.3,693.4c3.12.22,6.09.91,8.82,1.97l.43-.99c.05-.13.2-.18.32-.13l.14.06c.13.05.18.2.13.32l-.42.98c6.45,2.68,11.49,7.52,13.89,13.45,5.85,2.07,10,6.3,10.54,11.27h-.48v.36l-2.02,1.64v5.73c.29.08.49.23.49.41,0,.15-.13.28-.34.36v1.94l-.55.48v14.06h.34v.37h-.24l.86,1.66v.42h.39v4.94l3.2.85-.48,1.23-.8-.08-.51.99v2.61l1.27.34v2.27l3.03.8-.48,1.23-.8-.08-2.23,4.27v1.68l6.54,2.79-.48,1.23-.8-.08-.05.09h.14v1.71h-1.03l-.78,1.5v2.73h.54v1.21h-.54v2.87h.89v1.09h-.46v.6l-.44.51v32.44h80.11l-.04-.2v-2.03h.28v-2.52h-.28v-.76l-.99-.84v-.39h-.7v-1.07l-1.24-.46v-.43l8.54-2.64v-1.59h.47v-3.58l-1.28-.47v-.42l1.88-.8v-3.2l.6-.32v-1.67l.32-.12v-12.49l-.32-.38v-.43c-.16-.13-.35-.32-.49-.61-.21-.43-.25-.43-.18-.91.07-.48.28-.5.28-.5,0,0-.32.07-.44-.57-.07-.4.43-.64.83-.8v-4.6h-1.9c-.05-.49-.07-1-.07-1.52,0-3.49,1.06-6.32,2.36-6.32l5.98-4.09c3.35-24.64,27.7-43.95,57.73-45.15l.75-1.96c-.22-.15-.35-.32-.35-.51,0-.13.06-.26.18-.37-.39-.49-.63-1.1-.63-1.77,0-1.05.58-1.96,1.45-2.46-.03-.08-.04-.15-.04-.23,0-.28.2-.53.51-.7-.45-.27-.76-.72-.76-1.24,0-.22.05-.42.15-.61-.3-.24-.73-.46-1.16-.26-.78.37-1.19.75-.54,1.26.66.5-.36,1.05-.63.72-.27-.33-.21-1.58.72-2.21.59-.4,1.38-.12,1.88.13.15-.15.34-.28.55-.37v-7.9h-5.21l-.19.39c-.03.05-.07.06-.1.02l-.27-.36s-.04-.12-.01-.18l.34-.73-.34-.73c-.02-.05-.02-.13.01-.17l.27-.36s.08-.03.1.02l.19.39h5.21v-6.11l-.39-.18c-.05-.03-.06-.07-.02-.1l.36-.27s.12-.04.17,0l.73.34.73-.34c.05-.03.13-.02.18,0l.36.27s.03.08-.02.1l-.39.18v6.11h5.22l.18-.39c.03-.05.07-.07.1-.02l.27.36s.04.12,0,.17l-.34.73.34.73c.03.06.02.13,0,.18l-.27.36s-.08.03-.1-.02l-.18-.39h-5.22v8c.13.08.24.17.34.27.5-.26,1.29-.53,1.88-.13.93.63.99,1.89.72,2.21-.27.33-1.28-.21-.63-.72.65-.5.24-.89-.54-1.26-.43-.2-.86.02-1.16.26.09.19.15.39.15.61,0,.52-.3.97-.75,1.24.32.17.51.42.51.7,0,.05,0,.09-.02.14.97.48,1.63,1.44,1.63,2.56,0,.67-.23,1.28-.63,1.77.11.11.18.24.18.37,0,.19-.13.36-.35.51l.75,1.96c30.03,1.19,54.37,20.51,57.72,45.15l5.99,4.09c1.3,0,2.36,2.83,2.36,6.32,0,.52-.02,1.03-.07,1.52h-1.9v4.6c.4.16.9.4.83.8-.12.64-.44.57-.44.57,0,0,.21.03.28.5.07.48.02.48-.18.91-.14.3-.32.48-.48.61v.43l-.32.38v12.49l.32.12v1.67l.6.32v3.2l1.88.8v.42l-1.27.47v3.58h.47v1.59l8.54,2.64v.43l-1.24.46v1.07h-.7v.39l-1,.84v.76h-.28v2.52h.28v2.03l-.88,4.42c15.43.06,29.26,7.08,38.64,18.16l3.73,2.06c.58,0,1.05,1,1.05,2.24,0,.15,0,.3-.02.43h-.29v1.21l.13.22v.17l.16.26h0c1.08,1.77,2.06,3.61,2.94,5.51l5.41,2.99c1.57,0,2.84,2.72,2.84,6.07,0,.41-.02.8-.05,1.18h-.79v3.28l.35.6v1.16h.44v.88h-.96v11.89h.74v3.2l2.67,1.75v.4h-.63v4.33l6.29,2.89v.51h-1.41v1.64h-.82v.3h-.45l10.02,4.59v.51h-1.41v1.38c9.2,1.34,16.76,6.61,20.06,13.65l3.32,1.83c1.57,0,2.84,2.72,2.84,6.07,0,.41-.02.8-.05,1.19h-.79v3.27l.35.6v1.16h.44v.88h-2v13.41c.48-.06.95-.09,1.44-.09,4.4,0,8.3,2.44,10.74,6.2l13.64,7.53c1.57,0,2.84,2.72,2.84,6.06,0,.41-.02.8-.05,1.19h-.79v3.28l.35.6v1.16h.44v.88h-.95v33.59h-475.11v-41.86l-1.25-1.94v-.28h-.77v-.3h-.83v-1.64h-1.41v-.51l12.24-2.71v-6.65h-.47v-1.64h-1.41v-.51l4.52-1v-15.51h-.32v-.86h.32v-2.52l-1.06-1.64v-.28h-.78v-.3h-.82v-1.64h-1.41v-.51l9.22-4.23v-17.89l-.63-.26v-.24h.63v-5.9h-.58v-.45h.58v-4.02h-.44v-.38l.44-.29v-1.29l-1.81-2.8v-.28h-.78v-.3h-.83v-1.64h-1.41v-.51l3.14-1.44c.05-.47.1-.95.17-1.44.99-7.44,3.57-13.47,5.76-13.47h.59c.1-.74.38-2.25.67-3.57.41-1.91,1.5-3.98,1.5-4.58s.26-1.09.56-1.46c.3-.38.04-1.46.04-1.46,0,0-.41-.04-.9-.15-.49-.11,0-1.05-.11-1.39-.11-.34,1.13-.19,1.2-.53.08-.34-.26-4.13-.26-4.13,0,0-.6-.26-.23-.71.38-.45,1.35-.3,2.25-.04.9.26-.34.75-.34.75,0,0,.26,4.35.38,4.61.11.26.23.37.23,1.24s-.79,2.14-.79,2.14c0,0-.15.64-.15,1.35s.94,2.06,1.46,3.37c.36.9.42,3.19.42,4.55h13.2v-3.32l-.63-.26v-.24h.63v-5.9h-.57v-.45h.57v-4.02h-.44v-.38l.44-.29v-2.12l-.73-1.13v-.28h-.77v-.3h-.82v-1.64h-1.41v-.51l3.68-1.69.97-3.25.83-.53v-2.67l-1.4-1.43v-.38h1.4v-2.77h0c.05-6.01,2.12-10.95,4.8-11.82v-34.36l-.44-.51v-.6h-.46v-1.09h.89v-2.87h-.54v-1.21h.54v-2.73l-.78-1.5h-1.03v-1.71h.14l-.05-.09-.8.08-.48-1.23,6.54-2.79v-1.68l-2.23-4.27-.8.08-.48-1.23,3.03-.8v-2.27l1.27-.34v-2.61l-.52-.99-.8.08-.48-1.23,3.2-.85v-4.94h.39v-.42l.85-1.66h-.24v-.37h.33v-14.06l-.55-.48v-1.94c-.21-.09-.34-.22-.34-.36,0-.18.2-.33.48-.41v-5.73l-2.02-1.64v-.36h-.47c.54-4.98,4.7-9.2,10.54-11.27,2.4-5.92,7.44-10.77,13.89-13.45l-.42-.98c-.06-.12,0-.27.13-.32l.14-.06c.13-.05.27,0,.33.13l.43.99c2.73-1.06,5.7-1.75,8.82-1.97l.48-1.25c-.18-.12-.28-.26-.28-.41,0-.1.05-.21.15-.3-.32-.39-.51-.88-.51-1.42,0-.84.47-1.58,1.17-1.98-.02-.06-.04-.12-.04-.19,0-.23.16-.43.41-.57-.37-.22-.61-.58-.61-.99,0-.17.04-.34.12-.49-.24-.19-.58-.37-.93-.21-.62.29-.96.6-.43,1.01.53.41-.29.84-.5.58-.21-.26-.17-1.27.58-1.78.47-.32,1.1-.1,1.51.1.12-.12.27-.22.45-.29v-6.34h-4.19l-.15.31s-.06.05-.08.02l-.21-.29s-.03-.1-.01-.14l.28-.59-.28-.59s-.02-.11.01-.14l.21-.29s.06-.02.08.02l.15.31h4.19v-4.91l-.31-.15s-.05-.06-.02-.08l.29-.21s.1-.03.14,0l.59.27.59-.27s.1-.02.14,0l.29.21s.03.06-.02.08l-.31.15v4.91h4.19l.15-.31s.06-.05.08-.02l.21.29s.03.1,0,.14l-.27.59.27.59s.02.11,0,.14l-.21.29s-.06.03-.08-.02l-.15-.31h-4.19v6.42c.1.06.2.13.28.21.4-.2,1.04-.42,1.51-.1.74.5.79,1.51.58,1.78-.22.26-1.03-.17-.5-.58.53-.41.19-.72-.43-1.01-.34-.16-.69.01-.93.21.08.15.12.31.12.49,0,.42-.24.78-.61.99.25.14.41.34.41.57,0,.04,0,.07-.01.11.78.38,1.31,1.16,1.31,2.06,0,.53-.19,1.02-.51,1.42.09.09.15.19.15.3,0,.15-.1.29-.28.41l.48,1.25h0Zm18.75,26.84h0c2.61.68,4.75,4.28,4.75,8v19.94l-9.5-2.46v-19.94c0-3.72,2.14-6.21,4.75-5.53h0Zm-41.98,0h0c-2.61.68-4.75,4.28-4.75,8v19.94l9.5-2.46v-19.94c0-3.72-2.14-6.21-4.75-5.53h0Zm20.99-3.67h0c4.06,0,7.38,3.32,7.38,7.38v21.76h-14.76v-21.76c0-4.06,3.32-7.38,7.38-7.38h0Z"/>
    <path class="uuid-740dbe69-873f-41d3-b65c-7fe636019eab" d="m1110.63,749.03c3.47,0,6.35,4.21,6.94,9.77.95-.45,2-.7,3.09-.7,4.43,0,8.03,4.09,8.03,9.13,0,.52-.04,1.02-.11,1.52h11.18v2.34h-2.34v4.49h-1.58v1.53l-5.98,9.1v9.85h.29l.77,6.21h.67v.77h-.62v26.85h35.14l24.17,9.17v1.81h-2.02l-4.01,8.2h.91v1.71h-.72l-.59,8.82h.79v1.32h-1.13v140.43c-284.87,0,17.72,0-266.62,0v-140.43h-1.13v-1.32h.78l-.59-8.82h-.72v-1.71h.9l-4.01-8.2h-2.02v-1.81l24.17-9.17h35.14v-26.85h-.63v-.77h.67l.77-6.21h.29v-9.85l-5.98-9.1v-1.53h-1.57v-4.49h-2.34v-2.34h11.18c-.07-.5-.11-1-.11-1.52,0-5.04,3.59-9.13,8.03-9.13,1.1,0,2.14.25,3.09.7.6-5.56,3.48-9.77,6.94-9.77,1.02,0,1.99.37,2.87,1.03v-1.91c-1.4-.31-2.34-.89-2.34-1.55,0-.41.37-.79.98-1.09-.08-.06-.12-.13-.12-.2,0-.18.28-.33.67-.38v-3.98c0-.41.33-.74.74-.74h.07v-20.73c-.29-.07-.49-.2-.49-.35s.2-.28.49-.35v-.89c-.4-.15-.69-.43-.76-.75-1.13-.22-1.88-.62-1.88-1.07,0-.13.07-.27.2-.39-.87-.33-1.4-.78-1.4-1.28,0-.38.31-.73.84-1.02-1.83-2.07-2.26-7.05-1.38-11.21,1.06-5.03,5.71-7.31,8.28-8.54,1.87-.89,3.47-2.82,4.21-3.82-.04-.31-.03-.78.27-1.23.33-.5.72-1.48.97-2.14-.19-.1-.3-.22-.3-.35s.1-.24.28-.34l.85-4.1.17-.82c-.19-.08-.31-.18-.31-.29,0-.03,0-.05.02-.07-.65-.36-1.09-1.04-1.09-1.82,0-.84.5-1.56,1.23-1.89.01-.24.11-.46.26-.62v-2.59c-1.21-.28-2.12-1.32-2.23-2.58h.42c.34.74,1,1.3,1.81,1.5v-4.45l-2.22,1.02v-1.34l2.22-1.02v-7.87h-5.58v-1.34h5.58v-2.38h-2.98v-1.34h2.98v-1.94h1.34v1.94h2.98v1.34h-2.98v2.38h5.58v1.34h-5.58v7.26l2.22-1.02v1.34l-2.22,1.02v5.07c.81-.2,1.47-.76,1.81-1.5h.42c-.11,1.26-1.03,2.29-2.23,2.58v2.63c.13.16.21.36.22.58.73.33,1.23,1.05,1.23,1.89,0,.78-.44,1.46-1.09,1.82.01.02.02.05.02.07,0,.11-.12.22-.31.29l.17.82.84,4.1c.18.1.28.22.28.34s-.11.25-.3.35c.25.65.65,1.64.97,2.14.3.45.31.92.27,1.23.63.85,1.89,2.38,3.4,3.36l2.55-3.4h2.06c0-5.44,1.51-9.84,3.36-9.84.47,0,.92.28,1.32.79l19.7-59.09v-3.46c-1.4-.31-2.34-.89-2.34-1.55,0-.41.36-.79.98-1.1-.08-.06-.12-.12-.12-.19,0-.18.28-.33.67-.39v-3.97c0-.41.33-.74.74-.74h.07v-20.73c-.3-.07-.49-.2-.49-.35s.2-.28.49-.35v-.89c-.4-.15-.69-.43-.76-.74-1.13-.23-1.89-.62-1.89-1.07,0-.14.07-.27.2-.39-.86-.33-1.4-.78-1.4-1.28,0-.38.31-.73.84-1.02-1.83-2.07-2.26-7.05-1.38-11.21,1.06-5.03,5.7-7.31,8.29-8.54,1.87-.89,3.47-2.82,4.21-3.82-.05-.31-.03-.78.26-1.23.32-.5.72-1.48.97-2.14-.19-.1-.3-.22-.3-.35s.1-.24.28-.34l.85-4.1.17-.82c-.19-.07-.31-.18-.31-.29,0-.03,0-.05.02-.07-.65-.36-1.09-1.04-1.09-1.82,0-.84.5-1.56,1.23-1.89.01-.24.11-.46.26-.62v-2.59c-1.21-.28-2.12-1.32-2.23-2.58h.42c.34.74,1.01,1.3,1.81,1.5v-4.45l-2.22,1.02v-1.34l2.22-1.02v-7.87h-5.58v-1.34h5.58v-2.38h-2.98v-1.34h2.98v-1.93h1.34v1.93h2.98v1.34h-2.98v2.38h5.58v1.34h-5.58v7.26l2.22-1.02v1.34l-2.22,1.02v5.07c.81-.2,1.47-.76,1.81-1.5h.42c-.11,1.26-1.02,2.3-2.23,2.58v2.63c.13.16.21.36.22.58.73.33,1.23,1.05,1.23,1.89,0,.78-.44,1.46-1.09,1.82.01.02.02.05.02.07,0,.11-.12.22-.31.29l.17.82.85,4.1c.18.1.28.22.28.34s-.11.25-.3.35c.25.65.65,1.63.97,2.14.3.45.31.92.27,1.23.74,1,2.34,2.93,4.21,3.82,2.58,1.23,7.23,3.51,8.28,8.54.88,4.17.45,9.14-1.38,11.21.53.29.84.64.84,1.02,0,.5-.54.95-1.4,1.28.13.12.2.26.2.39,0,.45-.75.85-1.88,1.07-.07.32-.36.59-.76.74v.89c.3.07.49.2.49.35s-.2.28-.49.35v20.73h.07c.41,0,.74.33.74.74v3.97c.39.06.67.21.67.39,0,.07-.05.14-.12.19.62.3.98.69.98,1.1,0,.66-.94,1.24-2.34,1.55v3.18l19.7,59.09c.41-.51.85-.79,1.32-.79,1.86,0,3.37,4.41,3.37,9.85h2.06l2.69,3.59c1.45-.99,2.65-2.45,3.26-3.27-.04-.31-.03-.78.27-1.23.32-.5.72-1.48.97-2.14-.19-.1-.3-.22-.3-.35s.1-.24.28-.34l.84-4.1.17-.82c-.19-.08-.31-.18-.31-.29,0-.03,0-.05.02-.07-.65-.36-1.09-1.04-1.09-1.82,0-.84.5-1.56,1.23-1.89.02-.24.11-.46.26-.62v-2.59c-1.2-.28-2.12-1.32-2.23-2.58h.42c.34.74,1,1.3,1.81,1.5v-4.45l-2.22,1.02v-1.34l2.22-1.02v-7.87h-5.58v-1.34h5.58v-2.38h-2.98v-1.34h2.98v-1.94h1.34v1.94h2.98v1.34h-2.98v2.38h5.58v1.34h-5.58v7.26l2.22-1.02v1.34l-2.22,1.02v5.07c.81-.2,1.47-.76,1.81-1.5h.42c-.11,1.26-1.02,2.29-2.23,2.58v2.63c.13.16.21.36.22.58.73.33,1.23,1.05,1.23,1.89,0,.78-.44,1.46-1.09,1.82,0,.02.02.05.02.07,0,.11-.12.22-.31.29l.17.82.85,4.1c.18.1.28.22.28.34s-.11.25-.3.35c.25.65.65,1.64.97,2.14.29.45.31.92.26,1.23.74,1,2.34,2.93,4.22,3.82,2.58,1.23,7.23,3.51,8.28,8.54.87,4.17.45,9.14-1.38,11.21.53.29.84.64.84,1.02,0,.5-.54.95-1.4,1.28.13.12.2.26.2.39,0,.45-.75.85-1.89,1.07-.07.32-.36.59-.76.75v.89c.29.07.49.2.49.35s-.2.28-.49.35v20.73h.07c.41,0,.74.33.74.74v3.98c.39.06.67.21.67.38,0,.07-.04.14-.12.2.62.3.98.68.98,1.09,0,.66-.94,1.23-2.34,1.55v1.91c.88-.66,1.85-1.03,2.87-1.03h0Z"/>
    <polygon class="uuid-740dbe69-873f-41d3-b65c-7fe636019eab" points="83.17 1084.58 2917.82 1084.58 2917.82 997.56 83.17 997.56 83.17 1084.58 83.17 1084.58"/>
    <path class="uuid-740dbe69-873f-41d3-b65c-7fe636019eab" d="m802.76,681.51c-4-1.28-3.68-1.6-6.4-.16-2.72,1.44-4,.8-3.84-.16.16-.96-.48-2.08-2.4-2.08-1.92,0-.8.8-1.76,2.24-.96,1.44-.64,1.12-.48,3.84.16,2.72,1.44,5.92.32,6.56-1.12.64-.48,1.12-.64,2.08-.16.96-3.84-2.24-5.44-4.48-1.6-2.24-3.68-1.6-5.44-1.6s-3.2-1.6-3.2-1.6c0,0,.64-.32,1.44-1.92.8-1.6.96-1.76,1.28-3.2.32-1.44,0-5.6-.8-7.36-.8-1.76-1.6-4.16-1.6-5.28s.16-3.36-1.12-2.72c-1.28.64-.96.8-2.56-.16-1.6-.96-2.24.8-3.52.16-1.28-.64-1.6.48-1.6,2.24,0,1.76-.64,2.88-1.44,4.48-.8,1.6,0,2.08-.48,3.2-.48,1.12-.16,3.84.32,5.44.48,1.6,0,1.76.8,4,.8,2.24-.48,2.56-2.56,1.76-2.08-.8-5.92.32-6.4,3.68-.48,3.36-2.24,4.8-4.48,6.08-2.24,1.28-3.52,2.24-6.88,5.76-.16-2.88-7.36-3.84-10.25-1.76-3.84-.32-4.32,2.24-3.36,3.36.96,1.12,7.52,1.92,7.84,2.88.32.96.96,1.6,4,1.76,3.04.16,2.24-1.44,2.24-1.44l1.92-.64s1.6,4.8,3.36,8c1.76,3.2,7.52,3.04,9.28,3.04s.64.8.48,2.4c-.16,1.6-2.72.48-1.28,3.36,1.44,2.88.48,1.44.96,4.32.48,2.88-.48,8.33-1.92,12.17-1.44,3.84,0,4.48.48,4.48.48,0,0,6.4.96,7.84.96,1.44,0,6.24-1.12,9.45-1.12,3.2.48,2.88.64,3.36.16.48-.96,1.44-.96,4s-.96,1.28.48,3.04c1.44,1.76-.8,2.72-.8,2.72l2.69,6.72-5.75,3.66v3.86h1.38l.83,2.51,3.85,7.51v169.55h-2.96l-1.47.76-1.02,6.76h-1.03v28.23h29.76v-28.23h-1.03l-1.02-6.76-1.47-.76h-2.95v-169.55l3.85-7.51.83-2.51h1.38v-3.86l-6.23-3.96h-.89c1.27-.96,4.01-3.22,4.01-4.82,0-2.08-1.44-2.08-1.92-3.36-.48-1.28.32-2.08.16-3.2-.16-1.12-1.6-3.36-2.4-6.56-.8-3.2.32-3.84,1.12-5.92.8-2.08,2.24-2.4.96-4.64-1.28-2.24.8-5.44,2.72-8,1.92-2.56,1.12-5.76-.64-7.2-1.76-1.44-1.76-1.92-.64-3.68,1.12-1.76,1.92-4.8,1.76-6.56-.16-1.76.96-4.96.32-7.36-.64-2.4-.16-2.72-.16-2.72,0,0,2.88.64,4,.32,1.12-.32,2.56-1.44,5.44-2.72,2.88-1.28,1.28-3.2,1.28-4.96,0-1.76,1.76-9.12,2.24-10.56.48-1.44,2.4-.96,4.8-.48,2.4.48,2.72,0,4.16-1.28,1.44-1.28,4.16-3.04,3.04-3.52-1.12-.48-1.76-.64-4.64.16-2.88.8-4.64,1.12-7.52.48-2.88-.64-1.12-4-1.12-5.28s2.56.96,4.8.32c2.24-.64,1.12-.48,3.52-1.44,2.4-.96,6.4-3.04,7.2-4.8.8-1.76-1.28-.48-5.28-1.76h0Zm-62.88,21.68c-1.58.08-.87.72-1.58,1.11-.71.39-2.77-.24-4.75-1.11-1.98-.87.32-1.5.32-1.5,1.03-.79,3.09-.55,5.78.24,2.69.79,1.82,1.19.24,1.26h0Z"/>
    <path class="uuid-740dbe69-873f-41d3-b65c-7fe636019eab" d="m1628.36,748.84c-1.49-2.97.89-8.03-1.04-18.3-1.93-10.27-2.83-11.01-7.44-13.69-4.61-2.68-9.97,1.93-9.97,1.93,0,0-3.27-1.19-8.03-2.23-4.76-1.04-11.45-1.04-11.45-1.04,0,0-.3-1.79-1.49-3.87-1.19-2.08-1.49-2.68-2.38-5.06-.89-2.38.6-4.46,1.49-6.84.9-2.38-.59-4.61-.89-8.18-.29-3.57-1.34-4.17-2.53-5.06-1.19-.89-1.19-1.34-1.64-2.83-.44-1.49,2.38-3.12,1.78-4.46-.6-1.34-4.91-3.12-8.78-2.83-3.87.3-1.34,3.12-1.04,3.57.3.45-1.04.45-2.38,1.79-1.34,1.34,1.34,2.08,1.78,4.91.44,2.82,2.08,1.04,2.08,1.04l.15,2.53s-2.98,3.87-3.13,5.65c-.15,1.79-2.08,5.8-3.27,7.14-1.19,1.34-2.53,4.16-4.46,4.76-1.93.59-4.31,4.76-4.31,4.76,0,0-6.84-6.1-9.08-8.33-2.23-2.23-5.65-4.61-9.82-7.29-4.16-2.68-4.91-2.98-7.89-4.31-2.97-1.34-3.42-3.27-4.31-4.61-.89-1.34,0,2.53-.15,2.98-.15.45-.89-1.04-1.94-1.19-1.04-.15-.15,3.42-.15,3.42,0,0-.45.74-1.04,2.08-.6,1.34-1.34,3.42-2.68,4.61-1.34,1.19-1.19,2.83-2.23,3.72-1.04.89-1.93,2.53-4.02,4.32-2.08,1.78-.3,4.91,1.19,5.8,1.49.89,5.06-.89,6.4-1.93,1.34-1.04,0,0,2.08-.3,2.08-.3,1.49-.6,2.83-.74,1.34-.15,2.23-1.19,4.16-1.19s1.79,2.38,2.38,5.06c.6,2.68,3.87,6.84,6.55,17.7,2.68,10.86,6.55,12.64,7.14,12.79.6.15,1.04,3.42,1.49,4.76.45,1.34,1.34,4.61,3.57,11.01,2.23,6.4.99,10.96-.2,12.74-.79,1.18-1.93,2.98-2.6,4.29h-1.85v4h.28c-.36,2.72-2.9,4.94-6.23,5.56h-5.95v.97h-3.22v2.22h-6.75v1.45h1.05l1.38,4.21h2.65v4.66h3.46l4.3,13.08h-.83v4.57h.95c-.66,1.94-1.55,5.04-2.04,5.82-.73,1.16-1.89,1.02-2.04,1.89-.15.87-1.31,1.46-2.18,1.46-.88,0-4.08.58-4.23-.58-.14-1.17,2.63-1.6,3.79-2.04,1.17-.44,2.33-1.89,1.6-2.77-.73-.87-2.04-1.46-1.46-2.19.58-.73,4.81-6.85,4.81-7.58,0-.73-4.66-.44-6.26,0-1.6.44-10.64,4.37-11.51,6.56-.88,2.19-1.17,5.39-1.17,6.85s-2.33,2.18-4.37,1.6c-2.04-.58-.14-1.6.29-2.48.44-.87,0-1.89-.73-2.62-.73-.73-2.33-.59-3.35-.44-1.02.14-1.75,2.04-3.21,2.62-1.46.58.15,1.46.73,2.77.58,1.31,2.33,2.48,2.77,2.48s-1.16,3.35-2.33,4.08c-1.16.73-4.95-.44-5.97-.44-1.02,0-1.16-.44-1.31-1.17-.14-.73-1.75-1.46-1.75-1.46,0,0,.73-10.64.73-11.07s-1.17-3.21-1.17-3.21l-1.46,2.92s.87,6.85.29,10.78c-1.02,0-2.19.44-.44,1.46-.29,1.31,1.46,3.21,2.48,3.35,1.02.15,6.41,1.75,7.87,2.19,1.46.44,3.35-1.02,3.35-1.02l2.04,2.77s1.9,2.04,2.77,2.62c.87.58.73,2.77,1.46,3.79.73,1.02.73.73-.58,2.33-1.31,1.6.73,2.33,1.75,2.91,1.02.58.15,3.64-.73,5.1-.87,1.46-.58,4.81-.58,5.25s-5.1,9.91-5.39,10.49c-.29.58-2.04,4.66-2.04,4.66l3.06-2.19s4.66-9.62,4.95-10.05c.29-.44.58,1.02,1.16,2.62.59,1.6,1.31,2.04,1.75,1.75.44-.29,1.31.58,1.89,1.9.58,1.31.58,3.35,2.04,4.95.75.82.92,1.92.91,2.85,0,0-1.12,2.72-3.38,3.17-2.26.45-2.04.9-2.04.9v.06h-1.25c-1.21,0-2.21.99-2.21,2.21h0c0,.62.26,1.18.68,1.58h-2.6v5.38h.78c.23.86.5,2.33-.04,3.17-.79,1.25-.28,2.77.79,4.07.81.98-.46,2.56-1.14,3.29h-.82v1.23h-2.01v6.55l-10.54,2.66v4.22h-2.8v20.45h-4.56v17.86h-38.03v59.19h253.13v-59.19h-38.03v-17.86h-4.56v-20.45h-2.8v-4.22l-10.55-2.66v-6.55h-2.01v-1.23h-.82c-.68-.73-1.94-2.31-1.14-3.29,1.08-1.3,1.58-2.83.79-4.07-.54-.84-.27-2.31-.04-3.17h.78v-5.38h-2.6c.42-.4.68-.96.68-1.58h0c0-1.22-.99-2.21-2.21-2.21h-1.2c2.96-2.63,7.15-6.54,7.65-7.25.72-1.02.72-3.53-.56-3.82-1.27-.29.27-.88,1.01-2.04.75-1.17-1.71-2.33-2.39-3.79-.67-1.46.78-2.48.55-4.95-.24-2.48-1.37-4.81-1.37-4.81,0,0,.52-.58,1.84-2.77,1.33-2.19-1.16-4.23-1.16-4.23,0,0,1.35-1.31,1.57-2.92.22-1.6-1.28-2.33-1.93-3.93-.65-1.61-1.75-1.02-4.11-2.92-2.36-1.9,1.29-1.9,1.55-2.77.27-.87-.9-1.9-.6-5.1.3-3.21.26-2.92-.39-3.5-.65-.58-2.94-.88-3.36-2.04-.42-1.17-1.94-.73-4.54-.87-2.6-.14.59-5.25.65-5.68,0,0-6.2-1.67-12.76-3.41v-1.44h-.83l4.3-13.08h3.46v-4.66h2.65l1.38-4.21h1.05v-1.45h-6.75v-2.22h-3.22v-.97h-5.95c-3.33-.62-5.87-2.84-6.23-5.56h.28v-4h-5.04c.72-.26,1.31-.58,1.63-.96,1.34-1.64,2.23-3.72,1.64-5.65-.59-1.94-1.34-9.07-1.34-12.5s.59-8.03-.6-9.52c-1.19-1.49-1.78-2.83-2.97-5.21-1.19-2.38-.45-5.21-.15-8.33.3-3.13,1.04-9.08,1.19-8.78.15.3,2.38,3.42,3.87,7.88,1.49,4.46,1.19,3.57,2.38,5.65,1.19,2.08-.45,3.87,1.04,6.4,1.49,2.53.15,3.42,1.49,4.91,1.34,1.49,2.68,5.65,3.57,6.55.89.89,1.19-2.68.45-5.8-.74-3.12,2.08-.74.6-3.72h0Zm-65.83,29.08c.33-1.37.52-3.14.52-5.13,0-4.31-.3-2.98-1.04-7.14-.74-4.17-1.78-12.94-1.78-13.69,0-.75,1.93,2.97,4.31,3.13,2.38.15,2.38-.3,3.42-.89,1.04-.6.89,1.19,1.04,1.64.15.45,3.27-.74,3.72-2.53.45-1.79,0-5.95,0-5.95,0,0,.89.3,3.42.45,2.53.15,4.91-1.04,8.63-2.23,3.72-1.19,6.55-2.53,8.18-2.83,1.64-.3,2.97,2.38,4.31,3.42,1.34,1.04,4.31,1.93,5.35,4.02,1.04,2.08,2.98,5.06,6.1,6.99,3.13,1.93,3.27,4.46,4.91,7.29,1.64,2.83-.59,6.84-2.23,8.18-1.15.94-1.64,3.71-1.83,5.28h-47.05Zm4.79-28.54c-.18.72-2.87,1.97-3.41,1.97s-2.42-.81-3.68-1.16c-1.25-.36.72-4.13.72-4.13l3.86.45s1.34-.09,2.15.9c.81.99.54,1.26.36,1.97h0Z"/>
    <path class="uuid-740dbe69-873f-41d3-b65c-7fe636019eab" d="m2303.61,980.51c-.2-.05-.37,0-.57-.05.05-1-.38-1.86-.27-2.86-1.3-.48.81-2.25-.77-2.97-.15-.89.83-1.26.77-2.04-.03-.4-1.53-1.56-1.85-2.01-.26-.37-.76-.09-1.01-.72-.02-.06.35-1.16.38-1.37.14-1.21.61-1.75.85-2.75.49-2-1.97-2.52-2.5-4.09-.47-1.41,1.22-4.68-1.26-5.18.11-1.75-.14-2.82-.24-4.59-.09-1.45-.86-2.77-1-4.07-.06-.57.41-1.51.37-2.27-.05-.8-.25-1.59-.42-2.4-.05-.24-.56-.55-.58-.73-.02-.27.34-.82.31-1.02-.1-.82,0-1.24-.36-2.04l.62-.15c-2.75-.56-1.66,2.9-1.93,3.94-.4,1.51-.56,3.41-1.15,4.98-.61,1.6-1.55,3.04-1.74,4.62-.18,1.48-.88,3.8-.01,5.11-1.58.77.16,2.02,0,3.08-.02.14-1.06.72-1.18,1.06-.15.41.13,1.3-.03,1.76-.08.22-.9.08-1.03.46-.14.41.28.65.18,1.03-.16.62-.08,1.22-.27,1.85-.26.86-.41,2.75-.97,3.33,1.81,1.39-.27,4.4-.44,6.14-.23,2.31,1.71,4.67.91,6.35.12.06.37-.06.53.02-.06.23-.09.74-.1.98.74.21,1.07,1.4,1.42,2.23.36-.04.84.1,1.2.05-.16.28-.09.66-.37.97.16.07.45-.05.57.06.22.98,1.45,1.5,2.14,2.16.46.44.92.92,1.45,1.39-.11,1.56-.64,5.85-1.21,6.97,1.21.03,2.94-.12,4.22-.18-.11-.53-.62-2.68-.86-3.17.24-1.32-.26-2.7,0-3.99.07-.34-.13-.71-.17-1.1.26-.28.56-.53.95-.75.94-.53,3.61-.79,3.44-1.89.61-1.48.74-3.05,2.24-4.28-.28-.54-.31-1.24-.26-1.86h0Z"/>
    <path class="uuid-740dbe69-873f-41d3-b65c-7fe636019eab" d="m2370.35,853.43c-.44-1.03-.44-1.68-.37-2.34.07-.66-.95-3.59-1.46-4.69-.51-1.1.73-1.24.07-2.12-.66-.88,0-1.24.22-2.05.22-.81-.15-2.93-.95-3.44-.8-.51-.88.07-2.12.07s-1.54-1.98-1.54-2.71.59-1.32.59-2.34.37-2.05-.66-2.71c-1.02-.66-1.61,0-2.27,0s-1.24.88-1.39,1.76c-.15.88.81,2.71.58,3.44-.22.73-.73-.37-1.32-.88-.59-.51-1.39.59-1.61.51-.22-.07.15-.8-.22-1.39-.36-.59-.51-1.39-.44-2.05.07-.66-.22-1.39-1.39-1.68-1.17-.29-.44-.66-.88-1.25-.44-.59-.66,0-1.54,0s-.29-.88-.29-1.61.73-1.03.66-1.76c-.07-.73.07-1.9-.59-2.56-.66-.66-1.39-.95-2.27-1.32-.88-.37-1.32,1.24-1.68,2.2-.37.95.15,1.54.59,2.27.44.73-.22,1.32-.88,1.1-.66-.22-.59-.66-.88-1.32-.29-.66-.37-2.35-.22-3.37.15-1.02-.44-2.56-.66-4.03-.22-1.46,0-2.78.37-4.32.37-1.54.22-.51.73-.95.51-.44,5.2-3.81,5.56-3.95.37-.15-.22-.81-.37-1.02-.14-.22-3.15,2.2-3.15,1.68,0-.51,0-1.47-1.46-1.47s-.81,1.76-1.24,2.05c-.44.29-1.24.66-2.2.88-.95.22-1.46-.36-2.64-.07-1.17.29.66,2.64,1.03,2.34.37-.29,1.54-.15,2.05.07.51.22-.15,1.46-.95,2.85-.8,1.39-.66,2.34-.95,4.54-.29,2.2,1.1,7.83,1.17,9.01.07,1.17.36,3.07-.07,2.42-.44-.66-.44-.88-1.17-1.1-.73-.22-1.25-.22-1.83,1.32-.59,1.54.15,2.2.59,2.34.44.15.07.95-.22,1.54-.29.59-.81.51-1.32.29-.51-.22-.29-1.54,0-1.83.29-.29.29-.88.14-2.27-.14-1.39-.22-1.69-1.24-1.9-1.03-.22-.81,0-2.64,1.1-1.83,1.1-1.1,3.66-.51,3.81.59.15.44-1.32.73-1.17.29.15.15,1.17.29,1.76.15.59-.81,1.32-2.34,1.39-1.53.07-1.03,1.25-1.1,2.71-.07,1.46-.81,2.85-1.39,4.76-.58,1.9-.15,3.88-.88,4.76-.73.88.29,1.25-.29,2.05-.59.81-.81,2.12.07,2.27.88.15,1.03-.37.88-.95-.15-.59.07-1.46.22-1.69.15-.22.51.51.81.95.29.44.07.66-.51,2.64-.59,1.98-.07,2.63-.07,4.39s-.51,6.95-.22,7.25c.29.29.81.37,1.46.88.66.51,1.54.59,2.27.59.38,0,.46.9.47,1.84h-2.87v1h-.93v1.99h-3.37v1.74h.85l.3,3.21h.65v.33l.82.21v7.74h-.59v3.22h1.37l-3.47,73.43h-1.08v1.55h-2.16v3.24h-2.9v12.72l-6.89.99v5.33l-9.46,1.35v5.53h-48.49v32.2h186.27v-32.2h-48.49v-5.53l-9.46-1.35v-5.33l-6.89-.99v-12.72h-2.9v-3.24h-2.16v-1.55h-1.08l-3.47-73.43h1.37v-3.22h-.59v-7.74l.82-.21v-.33h.65l.3-3.21h.85v-1.74h-3.36v-1.99h-.93v-1h-5.12v-1.4h-.4c.19-.59.38-1.27.48-1.91.29-1.76,1.83-4.25,1.98-4.98.15-.73-.51-2.71-.59-3.73-.07-1.03,1.1-3,1.17-4.1.07-1.1.44-2.64.8-2.42.37.22.07,1.24.22,2.2.15.95-.29.95-.22,2.05.07,1.1,1.83-.44,2.2-1.03.37-.59.08-1.17-.36-2.2h0Zm-27,16.11c.13-.38.26-.66.35-.66.29,0,0-.66.29-.59.29.08.81-.14,1.24-.95.44-.8.66.07,1.24-.73.59-.81-.29-3.29.07-3.37.36-.07.44,1.1,1.1,2.42.66,1.32,1.32-.22,1.54-.29.22-.07,0,.37,0,1.17,0,.8-.29.88-1.69,1.54-.7.33-1.33.95-1.78,1.47h-2.38Zm13.26,0c-.08-.13-.17-.26-.24-.37-.59-.88-1.17-1.54-1.46-2.41-.29-.88.44-.51,1.32-.44.88.07,1.9-.22,1.9-.22,0,0-.15-4.17-.15-5.13,0-.95-1.32-5.56-1.32-5.56,0,0,.07-.29.59-.73.51-.44.51-2.27.66-3.88.15-1.61-.36-2.93-.22-3.51.15-.59.59-1.32.66-1.54.08-.22.66.88,1.17,1.46.51.59,0,1.32-.73,3.15-.73,1.83-.07,5.05.15,6.22.22,1.17,0,3.59,0,5.49s.44,2.49.95,3.81c.35.91.57,2.52.64,3.66h-3.91Zm-11.51-19.04c-.07.22-.95-1.83-1.39-2.63-.44-.8-.22-1.83-.22-1.83,0,0,1.24.81,1.9,1.03.66.22-.22,3.22-.29,3.44h0Zm11.2-9.81c-.22-.15-.51-1.32-.15-1.9.37-.59.29-1.76.29-1.76,0,0,.37,1.69.51,2.42.15.73-.44,1.39-.66,1.25h0Z"/>
    <path class="uuid-740dbe69-873f-41d3-b65c-7fe636019eab" d="m2417,980.51c-.2-.05-.37,0-.57-.05.05-1-.38-1.86-.27-2.86-1.3-.48.81-2.25-.77-2.97-.15-.89.83-1.26.77-2.04-.03-.4-1.53-1.56-1.85-2.01-.26-.37-.76-.09-1.01-.72-.02-.06.35-1.16.38-1.37.14-1.21.61-1.75.85-2.75.49-2-1.97-2.52-2.5-4.09-.47-1.41,1.22-4.68-1.26-5.18.11-1.75-.14-2.82-.24-4.59-.09-1.45-.86-2.77-1-4.07-.06-.57.41-1.51.37-2.27-.05-.8-.25-1.59-.42-2.4-.05-.24-.57-.55-.58-.73-.02-.27.34-.82.31-1.02-.11-.82,0-1.24-.36-2.04l.63-.15c-2.75-.56-1.66,2.9-1.93,3.94-.4,1.51-.56,3.41-1.15,4.98-.61,1.6-1.55,3.04-1.75,4.62-.18,1.48-.88,3.8,0,5.11-1.58.77.16,2.02,0,3.08-.02.14-1.06.72-1.18,1.06-.15.41.13,1.3-.03,1.76-.08.22-.9.08-1.03.46-.14.41.28.65.18,1.03-.16.62-.08,1.22-.27,1.85-.26.86-.4,2.75-.97,3.33,1.81,1.39-.27,4.4-.45,6.14-.23,2.31,1.71,4.67.91,6.35.12.06.37-.06.53.02-.06.23-.09.74-.1.98.74.21,1.07,1.4,1.42,2.23.35-.04.84.1,1.19.05-.16.28-.09.66-.37.97.17.07.45-.05.58.06.22.98,1.45,1.5,2.14,2.16.46.44.92.92,1.45,1.39-.11,1.56-.64,5.85-1.21,6.97,1.21.03,2.94-.12,4.23-.18-.11-.53-.63-2.68-.86-3.17.24-1.32-.26-2.7,0-3.99.07-.34-.13-.71-.17-1.1.26-.28.56-.53.95-.75.94-.53,3.61-.79,3.44-1.89.61-1.48.74-3.05,2.24-4.28-.28-.54-.31-1.24-.26-1.86h0Z"/>
    <path class="uuid-740dbe69-873f-41d3-b65c-7fe636019eab" d="m105.02,878.41h41.68c.13-.45.36-1.07.76-1.56.7-.87,1.13-1.48.55-2.14-.59-.65-.9-1.16-1.17-1.78-.27-.62-.04-.76-.55-2.14-.51-1.38-.7-2.17.12-2.1.82.07.55.29,1.13.58.59.29,1.41-.25.78-1.34-.62-1.09-1.09-1.52,1.01-1.67,2.11-.14,2.73.44,2.62,1.49-.12,1.05-.9,1.23-.51,1.74.39.51.08,1.19.98,1.59.9.4,1.05.47.51,1.85-.55,1.38-.82,1.45-.63,2.86.2,1.41.47,1.88.74,2.25.08.11.13.24.16.36h12.48v-48.32h-.79v-3.25h.79v-6.07l-3.86-2.16v-.65h-.66v-2.79h-.91v-.62h-1.08v-.7l.37-.11v-1.18c0-1.98,1.75-3.61,3.89-3.61h1.61v-22.75l-1.48-.83v-.86h-.75v-.7l6.04-1.73v-1.12c0-7.52,5.92-13.82,13.65-15.08v-1.78h.87c-.09-1.42-.29-4.89-.3-5.79,0-1.14.11-3.82.11-3.82,0,0-2.67-.52-2.67-2.27,0-1.75,0-2.68.89-3.51.89-.83,2.67-1.24,3.23-.52.56.72,1-.11,1.89.52.89.62.33,1.55,1.34,1.86,1,.31,2.23,1.03,2.78,0,.56-1.03.22-3.61,1.67-3.92,1.45-.31.67-1.76,2.23-1.45,1.56.31,2.89,0,3.45-1.75.56-1.75,2.23-2.68,2.34-2.99.1-.27-.15-12.33-.21-15.19-.41.41-.9.84-.9.84,0,0-3.67,4.95-4.01,4.95-.33,0-1.11-.93-.56-1.44.48-.45,4.37-4.9,5.41-6.1,0-.13,0-.28-.01-.43-.41-.17-1.2-.47-1.84-.39-.89.1-2.11,1.86-2.78,1.44-.67-.41,1.22-1.34,1.89-2.17.55-.68,2.17-.31,2.71-.16,0-1.11.03-2.11.18-2.11.33,0,1.34,1.03,1.11,1.45-.22.41-.67.72-.22,1.96.44,1.24-.22,1.65-.33,2.58-.11.93.22,10.32.56,10.32.33,0,1.45-1.96,2.78-1.45,1.34.52,2.45-.72,2.67.1.22.83-1.78,1.03-.33,2.58,1.45,1.55,1.33,2.48.89,2.48-.45,0-1.89-1.34-2.11-1.03-.22.31.45,1.44.89,1.96.45.52,1.78.41,3.23.72,1.45.31,2.56,1.03,2.34,2.99-.22,1.96-1.56,2.58-1.56,2.58,0,0,3.34.1,2.56,1.55-.78,1.45-3.34,1.96-3.34,1.96,0,0-.12.79-.09,1.33,2.11.7,6.24,2.15,6.99,3.01,1,1.14,1,3.41-1.45,4.34-.81.31-1.46.51-1.98.67-.01.18-.05.4-.13.67-.34,1.14-.77,2.64-1.05,3.62h.59v1.78c7.73,1.27,13.65,7.56,13.65,15.08v1.12l6.04,1.73v.7h-.75v.86l-1.48.83v22.04h9.33v-1.35c0-10.82,9.54-19.67,21.2-19.67h5.96v-.96l-4.19-5.98v-1.29h-1.42v-3.87h18.09l15.43-1.67,23.87-2.58v-1.34c0-.52.32-.98.79-1.21l.26-10.8.1-4.16c-.47-.13-.82-.53-.82-1,0-.57.51-1.04,1.14-1.04s1.14.47,1.14,1.04c0,.47-.34.87-.82,1l.1,4.16.26,10.8c.47.23.79.69.79,1.21v1.34l23.87,2.58,15.43,1.67h18.09v3.87h-1.42v1.29l-4.19,5.98v.96h5.96c11.66,0,21.2,8.85,21.2,19.67v1.35h9.33v-22.04l-1.48-.83v-.86h-.75v-.7l6.04-1.73v-1.12c0-7.52,5.92-13.82,13.65-15.08v-1.78h2.07l-.65-.21c.13-.18,0-1.14.07-2.38-4.14-.69-5.45-3.63-4.4-5.47.76-1.34,4.19-2.01,6.27-2.29-.01-.06-.02-.12-.04-.18-.56-2.58.11-4.13.11-4.13l1.67-2.17s-1.67.31-1.89-.93c-.22-1.24.45-.72,2-1.14,1.56-.41,1.67-1.55,1.67-1.86s-1.22-.52-1.22-1.86c0-1.34.78-2.17,1.11-1.14.33,1.03.56,1.96,1.34,1.24.78-.72,1.23-1.96,2-1.96s1.78-1.24,1.45-1.24-1.56,1.03-1.22-.93c.33-1.96-.67-2.48.33-3.1,1-.62,1.89-1.86,2.56-.83.67,1.03,6.56-9.4,6.56-9.39,0,0-1.56-2.38.45-1.96,2,.41,3,1.03,2.34,1.96-.67.93-1.67.1-1.89.41-.22.31-2.78,6.19-2.78,6.19,0,0-1.34,2.27-1.34,4.23v3.82s1.89,1.65,3,2.06c1.11.41,3,.41,2.23,1.76-.78,1.34-1.11,1.55-1,2.48.11.93-.45,1.75-1.34,1.65-.89-.1-1.78-.72-1.78-.72l1.45,1.96s1.22-1.34,2.23,1.14c1,2.48,1.22,3.82,1.22,3.82l2.89-3.51s-.89-1.76.78-1.44c1.67.31,2.56-.62,4.12-.1,1.56.52,1.89.82,1.89,1.75s-1.56,1.34-1.67,2.79c-.11,1.44,0,1.34-.67,1.44-.67.1-1.22-.31-1.22,0s-.33,2.99.11,4.34c.45,1.34-.11,3.41-.22,4.95-.02.29-.07.61-.14.93h1.29v1.78c7.73,1.27,13.65,7.56,13.65,15.08v1.12l6.04,1.73v.7h-.75v.86l-1.48.83v22.75h1.61c2.14,0,3.89,1.62,3.89,3.61v1.18l.37.11v.7h-1.08v.62h-.91v2.79h-.66v.65l-3.86,2.16v6.07h.79v3.25h-.79v48.32h12.48c.03-.12.08-.26.16-.36.27-.36.55-.83.74-2.25.2-1.41-.08-1.48-.63-2.86-.55-1.38-.39-1.45.51-1.85.9-.4.59-1.09.98-1.59.39-.51-.39-.69-.51-1.74-.12-1.05.51-1.63,2.61-1.49,2.11.14,1.64.58,1.02,1.67-.63,1.09.2,1.63.78,1.34.59-.29.31-.51,1.13-.58.82-.07.62.72.12,2.1-.51,1.38-.27,1.52-.55,2.14-.27.62-.59,1.12-1.17,1.78-.59.65-.16,1.27.55,2.14.4.49.63,1.11.76,1.56h43.11v1.82h-1.43v7.72h16.4v1.32h-2.31v1.1h-1.13l-.83,3.02h-1.01v2.47h-2.97l-3.13,3.02h-2.73v10.5h2.07v1.32h-.74l-.95,3.49h-.39v2.46l4.27.17.05,1.01-1.14.57s2.27,1.49,1.14,3.25c-.67,1.03-1.45,1.16-2.03,1.07v87.56l2.62,3.02v48.02H97.82v-48.02l2.62-3.02v-87.56c-.58.08-1.36-.04-2.03-1.07-1.14-1.76,1.14-3.25,1.14-3.25l-1.14-.57.05-1.01,4.27-.17v-2.46h-.39l-.95-3.49h-.74v-1.32h2.07v-10.5h-2.73l-3.13-3.02h-2.97v-2.47h-1.01l-.83-3.02h-1.13v-1.1h-2.31v-1.32h16.4v-7.72h-1.43v-1.82h1.43Zm347.27-114.29h1.28c.13-1.22.51-4.67-.15-4.75-.78-.1-1.67-.72-1.56.72.09,1.13.58,2.94.42,4.03h0Zm-26.68-4.75c-.73-1.26-1.26-3.51,4.52-4.3,0,1.31-.64,1.86-1.41,3.68-.2.46-.33.93-.43,1.38-1.3-.02-2.36-.2-2.69-.76h0Zm-240.58,4.75h1.95c0-1.35.67-4.65.11-4.96-.56-.31-1.89-2.07-2.11-.1-.16,1.4-.03,3.81.05,5.07h0Zm27.12-5.33c-.36-.24-.81-.53-1.25-1.18-.71-1.05-1.06-2.81-1.27-4.04,1.06.21,2.31.47,3.05.84,1.45.72,2.34.93,2.78,2.38.3.97-1.8,1.66-3.32,2.01h0Zm288.21,123.24c-.21.08-.35.24-.35.43v3.54c0,.26.28.47.63.47h.68c.35,0,.63-.21.63-.47v-3.54c0-.19-.14-.35-.35-.43v-.42c.21-.08.35-.24.35-.43v-.97c0-.26-.28-.47-.63-.47h-.68c-.35,0-.63.21-.63.47v.97c0,.19.14.35.35.43v.42h0Zm-3.05,0c-.21.08-.35.24-.35.43v3.54c0,.26.28.47.63.47h.68c.35,0,.63-.21.63-.47v-3.54c0-.19-.14-.35-.35-.43v-.42c.21-.08.35-.24.35-.43v-.97c0-.26-.28-.47-.63-.47h-.68c-.35,0-.63.21-.63.47v.97c0,.19.14.35.35.43v.42h0Zm-3.05,0c-.21.08-.35.24-.35.43v3.54c0,.26.28.47.63.47h.68c.35,0,.63-.21.63-.47v-3.54c0-.19-.14-.35-.35-.43v-.42c.21-.08.35-.24.35-.43v-.97c0-.26-.28-.47-.63-.47h-.68c-.35,0-.63.21-.63.47v.97c0,.19.14.35.35.43v.42h0Zm-3.05-.08c-.21.08-.35.24-.35.43v3.53c0,.26.28.47.63.47h.68c.35,0,.63-.21.63-.47v-3.53c0-.19-.14-.35-.35-.43v-.42c.21-.08.35-.24.35-.43v-.97c0-.26-.28-.47-.63-.47h-.68c-.35,0-.63.21-.63.47v.97c0,.19.14.35.35.43v.42h0Zm-3.05,0c-.21.08-.35.24-.35.43v3.53c0,.26.28.47.63.47h.68c.35,0,.63-.21.63-.47v-3.53c0-.19-.14-.35-.35-.43v-.42c.21-.08.35-.24.35-.43v-.97c0-.26-.28-.47-.63-.47h-.68c-.35,0-.63.21-.63.47v.97c0,.19.14.35.35.43v.42h0Zm-349.67.08c.21.08.35.24.35.43v3.54c0,.26-.28.47-.63.47h-.68c-.35,0-.63-.21-.63-.47v-3.54c0-.19.14-.35.35-.43v-.42c-.21-.08-.35-.24-.35-.43v-.97c0-.26.28-.47.63-.47h.68c.35,0,.63.21.63.47v.97c0,.19-.14.35-.35.43v.42h0Zm3.05,0c.21.08.35.24.35.43v3.54c0,.26-.28.47-.63.47h-.68c-.35,0-.63-.21-.63-.47v-3.54c0-.19.14-.35.35-.43v-.42c-.21-.08-.35-.24-.35-.43v-.97c0-.26.28-.47.63-.47h.68c.35,0,.63.21.63.47v.97c0,.19-.14.35-.35.43v.42h0Zm3.05,0c.21.08.35.24.35.43v3.54c0,.26-.28.47-.63.47h-.68c-.35,0-.63-.21-.63-.47v-3.54c0-.19.14-.35.35-.43v-.42c-.21-.08-.35-.24-.35-.43v-.97c0-.26.28-.47.63-.47h.68c.35,0,.63.21.63.47v.97c0,.19-.14.35-.35.43v.42h0Zm3.05-.08c.21.08.35.24.35.43v3.53c0,.26-.28.47-.63.47h-.68c-.35,0-.63-.21-.63-.47v-3.53c0-.19.14-.35.35-.43v-.42c-.21-.08-.35-.24-.35-.43v-.97c0-.26.28-.47.63-.47h.68c.35,0,.63.21.63.47v.97c0,.19-.14.35-.35.43v.42h0Zm3.05,0c.21.08.35.24.35.43v3.53c0,.26-.28.47-.63.47h-.68c-.35,0-.63-.21-.63-.47v-3.53c0-.19.14-.35.35-.43v-.42c-.21-.08-.35-.24-.35-.43v-.97c0-.26.28-.47.63-.47h.68c.35,0,.63.21.63.47v.97c0,.19-.14.35-.35.43v.42h0Z"/>
    <polygon class="uuid-740dbe69-873f-41d3-b65c-7fe636019eab" points="888.2 968.54 984.53 968.54 984.53 1018.13 888.2 1018.13 888.2 968.54 888.2 968.54"/>
    <polygon class="uuid-740dbe69-873f-41d3-b65c-7fe636019eab" points="83.17 1084.48 2917.82 1084.48 2917.82 997.46 83.17 997.46 83.17 1084.48 83.17 1084.48"/>
    <polygon class="uuid-740dbe69-873f-41d3-b65c-7fe636019eab" points="83.17 1014.77 2917.82 1014.77 2917.82 1186.57 83.17 1186.57 83.17 1014.77 83.17 1014.77"/>
    <path class="uuid-ab73cd18-5bfd-4213-b85d-fe51755212e7" d="m2603.59,1050.68h-36.53v14.4h32.53c4.58,0,7.72.85,9.42,2.53,1.68,1.7,2.53,4.9,2.53,9.63v5.8c0,4.77-.83,7.98-2.48,9.68-1.67,1.68-4.82,2.53-9.47,2.53h-30.13c-4.7,0-7.88-.85-9.58-2.57-1.68-1.7-2.53-4.92-2.53-9.65v-1.42l8-1.85v8.3h38.43v-15.53h-32.42c-4.68,0-7.87-.85-9.53-2.57-1.65-1.7-2.48-4.92-2.48-9.63v-4.5c0-4.72.83-7.93,2.48-9.63,1.67-1.72,4.85-2.57,9.53-2.57h27.5c4.58,0,7.75.83,9.48,2.52,1.75,1.67,2.62,4.62,2.62,8.82v1.07l-7.37,2.1v-7.47h0Z"/>
    <path class="uuid-ab73cd18-5bfd-4213-b85d-fe51755212e7" d="m2645.54,1088.08h42.72v-37.4h-42.72v37.4h0Zm-8.6-32.22c0-4.7.83-7.9,2.52-9.63,1.68-1.72,4.88-2.58,9.6-2.58h35.68c4.65,0,7.82.85,9.5,2.57,1.68,1.7,2.52,4.92,2.52,9.65v27.18c0,4.77-.83,7.98-2.52,9.68-1.68,1.68-4.85,2.53-9.5,2.53h-35.68c-4.72,0-7.92-.87-9.6-2.58-1.68-1.73-2.52-4.93-2.52-9.63v-27.18h0Z"/>
    <polygon class="uuid-ab73cd18-5bfd-4213-b85d-fe51755212e7" points="2722.93 1095.27 2722.93 1043.65 2772.06 1043.65 2772.06 1050.68 2731.58 1050.68 2731.58 1067.58 2754.68 1067.58 2754.68 1074.47 2731.58 1074.47 2731.58 1095.27 2722.93 1095.27 2722.93 1095.27"/>
    <polygon class="uuid-ab73cd18-5bfd-4213-b85d-fe51755212e7" points="2786.64 1095.27 2786.64 1043.65 2795.29 1043.65 2795.29 1095.27 2786.64 1095.27 2786.64 1095.27"/>
    <path class="uuid-ab73cd18-5bfd-4213-b85d-fe51755212e7" d="m2830.68,1075.98h27.78l-13.92-26.42-13.87,26.42h0Zm-18.7,19.28l28.17-51.62h9.23l28.67,51.62h-9.47l-6.6-12.68h-34.92l-6.58,12.68h-8.5Z"/>
    <path class="uuid-ab73cd18-5bfd-4213-b85d-fe51755212e7" d="m2557.03,1153.27v-3.23c0-1.76-.31-2.98-.94-3.64-.63-.67-1.74-1.01-3.35-1.01h-22.34v12.45h22.34c1.64,0,2.76-.33,3.37-.99.61-.66.91-1.86.91-3.59h0Zm-.34-16.38v-3.88c0-1.27-.27-2.15-.82-2.64-.55-.49-1.59-.74-3.13-.74h-22.34v10.7h22.34c1.49,0,2.51-.26,3.09-.77.58-.51.86-1.4.86-2.68h0Zm-32.78,26.26v-38.71h31.2c2.9,0,5,.59,6.27,1.77,1.29,1.19,1.92,3.1,1.92,5.74v4.5c0,2.07-.51,3.62-1.55,4.65-1.04,1.03-2.66,1.68-4.89,1.95,2.18.26,3.83,1.04,4.96,2.33,1.14,1.27,1.7,3.02,1.7,5.25v4.94c0,2.57-.89,4.47-2.65,5.72-1.77,1.24-4.46,1.86-8.07,1.86h-28.9Z"/>
    <path class="uuid-ab73cd18-5bfd-4213-b85d-fe51755212e7" d="m2584.7,1131.37v26.99h23.23v-26.99h6.07v24.27c0,2.94-.54,4.91-1.63,5.95-1.09,1.04-3.15,1.56-6.17,1.56h-19.7c-3.02,0-5.09-.52-6.18-1.57-1.09-1.05-1.62-3.03-1.62-5.94v-24.27h6Z"/>
    <polygon class="uuid-ab73cd18-5bfd-4213-b85d-fe51755212e7" points="2628.73 1163.16 2628.73 1131.37 2634.73 1131.37 2634.73 1158.36 2659.45 1158.36 2659.45 1163.16 2628.73 1163.16 2628.73 1163.16"/>
    <path class="uuid-ab73cd18-5bfd-4213-b85d-fe51755212e7" d="m2699.23,1136.1h-25.14v22.26h25.14v-8.64h-12.97v-4.33h18.98v10.25c0,2.91-.54,4.89-1.63,5.94-1.09,1.05-3.15,1.57-6.18,1.57h-21.54c-3.02,0-5.09-.52-6.18-1.56-1.09-1.04-1.62-3.01-1.62-5.95v-16.72c0-2.91.55-4.9,1.65-5.96,1.1-1.06,3.15-1.59,6.15-1.59h21.54c2.96,0,5,.52,6.11,1.57,1.13,1.05,1.69,2.9,1.69,5.54v.91l-6,1.02v-4.32h0Z"/>
    <path class="uuid-ab73cd18-5bfd-4213-b85d-fe51755212e7" d="m2713.33,1163.16l18.39-31.79h5.49l18.83,31.79h-6.51l-4.15-7.44h-21.96l-4.07,7.44h-6Zm12.6-12.01h16.87l-8.45-15.12-8.42,15.12h0Z"/>
    <path class="uuid-ab73cd18-5bfd-4213-b85d-fe51755212e7" d="m2788.48,1136.02h-16.93v10.25h16.93c1.34,0,2.24-.23,2.7-.66.46-.44.7-1.29.7-2.56v-3.8c0-1.17-.25-2-.74-2.49-.49-.49-1.37-.74-2.66-.74h0Zm-22.93,27.14v-31.79h25.55c2.37,0,4.08.49,5.11,1.45,1.04.96,1.56,2.53,1.56,4.7v7.1c0,2.15-.52,3.7-1.56,4.66-1.04.95-2.74,1.43-5.11,1.43h-4.2l14.03,12.45h-8.02l-12.67-12.45h-8.68v12.45h-6Z"/>
    <polygon class="uuid-ab73cd18-5bfd-4213-b85d-fe51755212e7" points="2817.34 1163.16 2811.37 1163.16 2811.37 1131.45 2817.34 1131.45 2817.34 1163.16 2817.34 1163.16"/>
    <path class="uuid-ab73cd18-5bfd-4213-b85d-fe51755212e7" d="m2826.72,1163.16l18.39-31.79h5.49l18.82,31.79h-6.51l-4.15-7.44h-21.96l-4.07,7.44h-6Zm12.6-12.01h16.87l-8.45-15.12-8.42,15.12h0Z"/>
  </g>
</svg>