<svg xmlns="http://www.w3.org/2000/svg" xmlns:xlink="http://www.w3.org/1999/xlink" viewBox="0 0 7000 3000">
  <defs>
    <style>
      .cls-1 {
        fill: url(#Linear_Gradient_2);
      }

      .cls-2 {
        fill: url(#Linear_Gradient_1);
      }

      .cls-3 {
        fill: url(#Linear_Gradient_2);
      }

      .cls-4 {
        fill: url(#Linear_Gradient_2);
        stroke: url(#Linear_Gradient_2);
        stroke-miterlimit: 10;
        stroke-width: 0.5px;
      }
    </style>
    <linearGradient id="Linear_Gradient_1" data-name="Linear Gradient 1" x1="5572.28" y1="1460.21" x2="5572.28" y2="3186.41" gradientUnits="userSpaceOnUse">
      <stop offset="0" stop-color="#33348A"/>
      <stop offset="1" stop-color="#0f0029"/>
    </linearGradient>
    <linearGradient id="Linear_Gradient_2" data-name="Linear Gradient 2" x1="5572.28" y1="1342.52" x2="5572.28" y2="3490.36" gradientUnits="userSpaceOnUse">
      <stop offset="0" stop-color="#33348A"/>
      <stop offset="1" stop-color="#0f0029"/>
    </linearGradient>
  </defs>
  <g id="Layer_2" data-name="Layer 2">
    <g id="Layer_1-2" data-name="Layer 1">
      <g>
        <path class="cls-2" d="M2863,3130.87l-65.9-113,24.58-51.37H2768l10.88-83.16-.41-8h22.07V2747.25h-28.25l-3.24-67.37-131.18-17.15L2571.68,2691l-15.07,180.36v-100h-33v104.09h32.64l-7.64,91.11h-50.53l10.26,154.93-65.91-3.13-47.91-151.8-137.88-110.05-135.58,110.05H2093.6v2.72l-25.74,1.26-20.19-4-50.53-9.73-233.07-45.08-117.69,58.89-12,6.59h-76.58v-9.1h-2.61V2318.34l5.75,10.15,36.72-176.69h74l20.61-98.65h84.21v-61.09H1771v-20.3h5.44l-.1-14.23a20.16,20.16,0,0,1-5.55-11.82H1767l8.57-20.29h101.16l8.58,20.29h-4.08a20.19,20.19,0,0,1-5.12,11.3H1876v14.75h3.35v20.3H1876v61.09h93v-29.5h-4.7v-20.19h4.7V1988.6h49.8v14.86h4.71v20.19h-4.71v29.5h30.13l52.62,253.27,41-.74V2278.9h-4.07v-15.58h4.07v-10.88a15.82,15.82,0,0,1-4.28-9.1h-2.83l6.49-15.49h77.52l6.59,15.49h-3.14A15.16,15.16,0,0,1,2219,2252h-.11v11.3h2.51v15.58h-2.51v25.42l87.14-1.56,8.58,11.71-2.3,1.68,12.45,27.2h57l40.38,37.87L2595,2251.6v-40.07h-1.46V2197.2H2595v-10.15a28.23,28.23,0,0,1-1.56-8.36h-1l2.31-14.44,13.7-19.46,13.29,19.46,2.19,14.44h-1a32.28,32.28,0,0,1-1.36,8h0v10.46h.94v14.33h-.94v20.09l41.11-30.86,69.67,54.4v-20.51h2.83v-8.58h28.24v8.58h2.93v47.08l133,103.77h0v12.66h-11.09v2.72h1.15v2.93h.32a11.43,11.43,0,0,1,1.25,3.45h2.51V2416h-4.08v31.8h36.72v-2.83h2.72v-3.13H2935v-86.52h-2.41v-3.56h-6.49l16-76.89h106.18l15.9,76.89h-6.38v3.56h-2.51v86.52h6.28v3.13h2.72v2.83h59.21V2404h-1.26v-5.65h1.26v-.94h12.13v.94h1.26V2404h-1.26v43.73l35.78-76.16,11.61-12.66v-58.79h-2.3v-12.76h2.3v-27.62h62.87v27.62h2.31v.73l6.48-7h1.57l20.3-61.41h128.56v-57h-2.92v-36.51h34.1v36.51h-2.93v57h24.27l20.19,61.41h26.68l62,110,42.58-204.41h117v-20.51a37.77,37.77,0,0,1-4.4-1.46v-6.38h-4.5v-5.86h34.11v5.86h-4.4v6.38a22.66,22.66,0,0,1-4.49,1.46v20.51h74.48V2173H3814v-61.93h2.93v-8.58h28.25v8.58h2.92V2173h-2.92v13.6h59.62l44.57,214.14h-18v9.94h-6.91v2.82h15.8v10.15h-6.8v21l54.92-136,152.42-2.72v-26.89h-4.18v-15.58h4.18v-11a15.87,15.87,0,0,1-4.39-9.1h-2.83l6.59-15.59h77.94l6.59,15.59h-3.14a14.62,14.62,0,0,1-4,8.68h-.11v11.41h2.62v15.58h-2.62v25.53l87.67-1.57,8.58,11.93-2.31,1.56,12.56,27.31h57.33L4422.9,2383h-6.59l-.42,45.82v1.57l3,.32v3.55l-3-.41v18.3l30.44,26.68v-2.2h-1.15v-11.09h1.15v-7.84a21.07,21.07,0,0,1-1.15-6.49h-.73l1.68-11,10.67-15.07,10.14,15.07,1.78,11h-.84a24.47,24.47,0,0,1-1,6.28h0v8.05h.63v11.09h-.63v20.09l2.51,2.19v-92h-6.91V2397h-18L4489,2182.87h127.62v-45.3h-5.44v-11.82h5.44v-8.58h51v-49.58h-5.75a13.33,13.33,0,0,1,0-9.63h1.47v-5.65h-11.09v-12.66h0l178.57-133.9v-40.07h-1.46v-14.33h1.46l-.1-10.15a32.25,32.25,0,0,1-1.47-8.36h-.94l2.3-14.44,13.71-19.46,13.18,19.46,2.3,14.44h-1.05a32.28,32.28,0,0,1-1.36,8.05h0v10.46h.84v14.33h-.84v20.09l41-30.86,69.67,54.4V1888.8h2.93v-8.57h28.25v8.57h2.93v47.08l133,103.77h0v12.66h-11.09V2058h1.36c2.09,3.56,1.88,6.7,0,9.63h-5.75v115.28H5298.4L5343.07,2397h-18V2407h-6.9V2522l34.31-82.64h40.8v-35.05h-5v-10.88h5v-7.95h53.56v7.95h5v10.88h-5v35.05h87.25v-45.72h-1.57v-7h1.57v-1.15h15.17v1.15h1.56v7h-1.56v45.72h25.52l11-26.47h106.28l11,26.47h46.23l15.91,38.5V2351.71h-7.33v-10.77h-19.45l48-230.78h74l20.61-98.65h84.22v-61.09h-5.44v-20.29h5.44l-.11-14.23a20.18,20.18,0,0,1-5.54-11.82h-3.77l8.58-20.3h101.16l8.58,20.3H6070a20.17,20.17,0,0,1-5.13,11.3h-.1v14.75h3.34v20.29h-3.34v61.09h93V1982h-4.71v-20.19h4.71v-14.75h49.79v14.75h4.61V1982h-4.61v29.5h30.13l53.67,258.4h-21.55v12h-8.37v131.7l63.08-39L6407.4,2282h83.48v-17.68h-4.7v-10.25h4.7v-7.53h50.53v7.53h4.71v10.25h-4.71V2282h216.13v-51.36h-1.46V2224h1.46v-1h14.33v1h1.47v6.7h-1.47V2282h49.28l9.93,20.4,33.17-78.77h76.89v-43.42h-5.55v-11.92h5.55v-8.68h58.58v8.68h5.44v11.92h-5.44v43.42h50.11v-3.77h3.66v-4.39H7062v-118h-3.34v-4.92h-8.79l21.76-104.93h144.89l21.86,104.93h-8.79v4.92h-3.34v118h8.47v4.39h3.66v3.77h80.87V2164h-1.68v-7.74h1.68v-1.15h16.63v1.15h1.67V2164h-1.67v59.63h69.46l19.88,47.39,49.79-.84v-26.78h-4.08V2228H7475v-11a15.76,15.76,0,0,1-4.28-9.1h-2.83l6.59-15.48h77.42l6.59,15.48h-3.14a15.13,15.13,0,0,1-3.87,8.68h-.11V2228H7554v15.48h-2.62v25.42l87.14-1.57,8.58,11.72-2.3,1.67,1.47,3.25,24.16-116.44h74l20.61-98.65h84.21v-61.09h-5.44v-20.3h5.44l-.1-14.22a20.18,20.18,0,0,1-5.54-11.83h-3.77l8.58-20.29H7949.5l8.58,20.29H7954a20.21,20.21,0,0,1-5.13,11.3h-.1v14.75h3.34v20.3h-3.34v61.09h93v-29.5h-4.71v-20.19h4.71V2004.3h49.79v14.85h4.71v20.19h-4.71v29.5h30.13l52.62,253.27,28.45-.52V2238.1H8196v-9.93h-18L8222.54,2014h116.95v-20.5a37.63,37.63,0,0,1-4.39-1.46v-6.39h-4.5v-5.85h34.11v5.85h-4.4v6.39a22.75,22.75,0,0,1-4.5,1.46V2014h74.49v-13.59h28.24V2014h59.63l44.57,214.15h-18v9.93h-6.9v126.59l129.93-97.4v-40.06h-1.47v-14.34h1.47v-10.14a28.34,28.34,0,0,1-1.57-8.37h-.94l2.3-14.44,13.7-19.46,13.29,19.46,2.2,14.44h-1a32.19,32.19,0,0,1-1.36,8h0v10.46h.94v14.34h-.94v20.08l41.11-30.86,69.67,54.4v-20.51H8808v-8.57h28.24v8.57h2.93v47.08l133,103.78h0v12.65H8961v2.72h1.15v2.93h.31a11.42,11.42,0,0,1,1.26,3.46h2.51v8.68h-4.08v31.8h36.72v-2.82h2.72v-3.14h6.17V2371h-2.41v-3.55h-6.48l16-76.89h106.18l15.91,76.89h-6.39V2371h-2.51v86.52h6.28v3.14h2.72v2.82h59.21v-43.73H9195v-5.65h1.25v-.94h12.14v.94h1.25v5.65h-1.25v43.73l35.77-76.16,11.62-12.66v-58.79h-2.31v-12.76h2.31v-27.62h62.87v27.62h2.3v.73l6.49-7H9329l20.3-61.4h128.57v-57H9475v-36.51h34.1v36.51h-2.93v57h24.27l20.19,61.4h26.68l12.14,21.55v649.75h-344v.63l-251.07-6.9-30.44-14.34-32.12-15.06-13-9.42-45.51-32.95V2763h-35.88v108.58l-4.29.11V2763h-36.93V2873l-166.85,6V2787h-33v79.82l-4.29-4.82v-75h-32.95v38.7l-19.35-21.34-4-4.29-18.41-.94-19.56-1v-12h-4.08v11.82h-.94l.1-11.82h-24.58v10.56l-88.72-4.6v-6h-24.58v4.7h-.94v-4.7H8330.5v3.45l-129.3-6.59-7.43,3.14h-.21v.1l-3.35,1.47v-1.57h-23.85V2798l-.94.32-21.55,9.31v-21.55h-26.16v22.49h24l-2.09.94h-21.87V2819L8015.93,2863V2736.9H7986v128.15h25l-8.37,3.66-2.51,110.37-137.25-94.47-32.43,26.47-21.24,17.26-79.09,64.55h-99.59v-61.83H7446.31v.94h-492.2l-77.41-48.64-2-1.16-44.15-78.45-12.45-3.25v-26.67h-44v15.27l-4.39-1.15v-14.12h-44.05v2.72l-141.43-36.62-53.25,3.24V2740h-41.84v5.65l-4.4.31v-6h-46.24v8.68l-33.79,2V2740h-44v13.39l-4.39.21V2740h-44v16.32l-35.68,2.09-16.63,1-26.15,1.57L6132,2767.13v-87.56H6102v89.34l-4.29.31v-89.65h-29.92V2771l-73.12,4.4v-95.83h-29.92v97.6l-4.4.32v-97.92h-29.81v110.58l-184,106.81-66.42,38.6H5443.92l-10.46-88.4h14.44v-47.91h-20l-.41-3.46h20.4v-48h-34.63v11.09l-77.83-5.44-12-.84-5.23-.42-244.38-17.05-144.47,86.2v-27.93h-35.57v33.89l-26.15,3.87v-37.76H4832v43.1l-125.95,18.93v-98.65h-40.38v104.72l-4.29.63V2756.77h-44.67v112L4535.67,2881,4498,2882.1l-9,.31-36.93,1.05-510.41,15.48h-1.57l-26.46.84-68.21,2-273.35,46.13-17.16,2.93H3423.75l-90.91,1.57H3172.68v2.82L3075.6,2957l-9.52,9.52H2947.24l-2.62,164.35Zm6134.07-211v-67.06h-32.43v67.06Zm87.45,0v-67.06h-46.86v67.06Zm72.92,0v-67.06h-33.89v67.06Zm33.79,0v-67.06H9160.6v67.06Zm-6266.92-15.7v-67.05H2891.9v67.05Zm87.45,0v-67.05h-46.87v67.05Zm72.92,0v-67.05h-33.9v67.05Zm33.79,0v-67.05h-30.66v67.05Zm5792.4-13.07V2763h-33.16V2891.1ZM9439.81,2877v-96.34h-35.46V2877Zm148.34,0v-96.34h-35.57V2877Zm-7068.78-1.56V2771.32h-32.95v17.15l5.75,86.94Zm318.75,0V2747.25H2805v128.16Zm5006.24-10.36V2736.9h-13.91v128.15Zm34.31,0V2736.9h-29.91v128.15Zm103.05,0V2736.9H7951.8v128.15Zm-4614.67-3.77v-96.35h-35.47v96.35Zm148.34,0v-96.35h-35.57v96.35Zm241.55-7.32v-82.54H3710.7V2854Zm46.24,0V2725.81h-41.95V2854Zm5193.91-4.29v-23.75h-32.43v23.75Zm87.45,0v-23.75h-46.86v23.75Zm72.92,0v-23.75h-33.89v23.75Zm33.79,0v-23.75H9160.6v23.75Zm-7561.61-.31V2721.21h-19v22.07h4.92v37.45h-4.92v68.63Zm34.21,0V2721.21H1634v128.15Zm107.75,0V2721.21h-29.82v128.15Zm34.31,0V2721.21H1776v128.15Zm103,0V2721.21H1879v128.15Zm34.21,0V2721.21h-29.92v128.15Zm3539.36-2.2v-47.91h-31.17v47.91Zm65,0v-47.91h-31.28v47.91Zm38,0v-47.91h-34.63v47.91Zm72.81,0v-47.91h-34.63v47.91Zm34.63,0v-47.91h-31.28v47.91Zm1305.88-.31v-91.54h-43.94v91.54Zm48.64,0v-91.54h-44.25v91.54Zm119.37,0v-91.54h-64.13v91.54Zm99.48,0v-91.54H7220v91.54Zm46.24,0v-91.54h-41.95v91.54Zm-3359.84-1.68v-19.25h-11v19.25Zm83.16,0v-19.25H3956v19.25Zm79.72,0v-19.25h-24.06v.21h-.84v-.21h-53.87v19.25Zm25.11,0v-19.25H4118.9v19.25Zm139.65,0v-72h-23.74v72Zm25.63,0v-72h-24.68v72Zm113.82,0v-72h-24.69v72Zm24.69,0v-72H4420.7v72ZM2071.1,2842v-19.14H2045V2842Zm46.35,0v-19.14H2093.6V2842Zm25,0v-19.14H2120.8V2842Zm138.93,0v-71.66h-23.65V2842Zm25.52,0v-71.66h-24.58V2842Zm113.3,0v-71.66h-24.59V2842Zm5,0v-71.66H2421V2842Zm499.11-8.05v-23.75H2891.9V2834Zm87.45,0v-23.75h-46.87V2834Zm72.92,0v-23.75h-33.9V2834Zm33.79,0v-23.75h-30.66V2834Zm834.18-11.4v-25.84h-11v25.84Zm27.82,0v-25.84H3956v25.84Zm55.34,0v-25.84h-54.39v25.84Zm54.82,0v-25.84h-53.87v25.84Zm24.9,0v-25.84h-24.06v25.84Zm25.11,0v-25.84H4118.9v25.84Zm-2069.56-3v-25.73H2045v25.73Zm46.35,0v-25.73H2093.6v25.73Zm25,0v-25.73H2120.8v25.73Zm3676-11.82V2679.57h-29.92v128.15Zm34.21,0V2679.57h-29.81v128.15Zm1597.23-1.15v-19.14h-3.56v19.14Zm25,0v-19.14h-21.65v19.14Zm138.93,0v-71.66h-23.54v71.66Zm16.73,0v-71.66h-15.79v71.66Zm106.08,0V2736.9H7728v69.67Zm-3783.94-10.78V2773.2h-11v22.59Zm27.82,0V2773.2H3956v22.59Zm55.34,0V2773.2h-54.39v22.59Zm54.82,0V2773.2h-53.87v22.59Zm24.9,0V2773.2h-24.06v22.59Zm25.11,0V2773.2H4118.9v22.59Zm1341.86,0v-48h-31.17v48Zm65,0v-48h-31.28v48Zm38,0v-48h-34.63v48Zm72.81,0v-48h-34.63v48Zm34.63,0v-48h-31.28v48Zm-3621.8-2.92v-22.5H2045v22.5Zm46.35,0v-22.5H2093.6v22.5Zm25,0v-22.5H2120.8v22.5Zm2725.16-3.77v-32.33H4832v32.33Zm61.72,0v-32.33h-35.57v32.33Zm2520.54-5v-25.74h-3.56v25.74Zm25,0v-25.74h-21.65v25.74Zm669-1.36v-23.23h-26.16v23.23Zm46.34,0v-2.93h-4.71v-20.3h-19.14v23.23Zm25,0v-2.93h-21.65v2.93Zm138.93,0v-2.93H8330.5v2.93Zm25.52,0v-2.93h-24.58v2.93Zm113.3,0v-2.93h-24.58v2.93Zm4.92,0v-2.93h-4.08v2.93Zm131.5-.11V2763h-70.2v19.66Zm696.92-6.38v-27.41h-32.95v27.41Zm37.35,0v-27.41H9330.7v27.41Zm76.16,0v-27.41h-35.46v27.41Zm148.34,0v-27.41h-35.57v27.41Zm-5635.48-6.38v-23.43h-11v23.43Zm83.16,0v-23.43H3956v23.43Zm54.82,0v-.42h.84v.42h24.06v-23.43h-78.77v23.43Zm50,0v-23.43H4118.9v23.43Zm139.65,0v-23.43h-23.74v23.43Zm25.63,0v-23.43h-24.68v23.43Zm113.82,0v-23.43h-24.69v23.43Zm24.69,0v-23.43H4420.7v23.43Zm2325.23-.42V2740h-44.05v29.39Zm48.43,0V2740h-44v29.39ZM3756.94,2767v-41.22H3710.7V2767Zm-1685.84,0V2743.8H2045V2767Zm46.35,0V2743.8H2093.6V2767Zm25,0V2743.8H2120.8V2767Zm138.93,0V2743.8h-23.65V2767Zm25.52,0V2743.8h-24.58V2767Zm113.3,0V2743.8h-24.59V2767Zm5,0V2743.8H2421V2767Zm131.39-.11v-19.67h-70.19v19.67Zm696.93-6.38v-27.41h-32.95v27.41Zm37.35,0v-27.41h-33v27.41Zm76.16,0v-27.41h-35.47v27.41Zm148.34,0v-27.41h-35.57v27.41Zm3934.48-3.14v-22.49h-3.56v22.49Zm25,0v-22.49h-21.65v22.49ZM6998.78,2751v-32.43h-43.94V2751Zm48.64,0v-32.43h-44.25V2751Zm119.37,0v-32.43h-64.13V2751Zm99.48,0v-32.43H7220V2751Zm46.24,0v-32.43h-41.95V2751Zm137.36-19.46v-23.22h-3.56v23.22Zm25,0v-23.22h-21.65v23.22Zm138.93,0v-23.22h-23.54v23.22Zm16.73,0v-23.22h-15.79v23.22Zm1366.56-1.25v-66.75h-32.43v45.2h1.88c2,3.45,1.88,6.69,0,9.52h-1.88v12Zm87.45,0v-66.75h-46.86v66.75Zm72.92,0v-66.75h-33.89v66.75Zm33.79,0v-66.75H9160.6v66.75Zm-6266.92-15.69v-66.75H2891.9v45.2h1.88c2,3.45,1.88,6.69,0,9.52h-1.88v12Zm87.45,0v-66.75h-46.87v66.75Zm72.92,0v-66.75h-33.9v66.75Zm33.79,0v-66.75h-30.66v66.75Zm2329.41-4.4v-49.69h-34.63v49.69Zm34.62,0v-49.69h-31.17v49.69Zm65,0v-49.69h-31.28v49.69Zm38,0v-49.69h-34.63v49.69Zm72.81,0v-49.69h-34.63v49.69Zm34.63,0v-49.69h-31.28v49.69Zm3268.62-10.46v-36.2h-4.92v22.5h1.26Zm-776-10.57V2667h-19.14v22.17Zm-5296.74-5.12v-36.2h-4.92v22.49h1.26Zm5465.38-2.72V2615H8330.5v66.33Zm16.21,0V2615h-15.27v66.33Zm9.31,0V2615h-5v66.33Zm-4427-5.55v-22.28h-11v6.91h7.64v15.37Zm83.16,0v-22.28H3956v22.28Zm79.72,0v-22.28h-78.77v22.28Zm25.11,0v-22.28H4118.9v22.28Zm139.65,0v-74.58h-23.74v74.58Zm25.63,0v-74.58h-24.68v74.58Zm113.82,0v-74.58h-24.69v74.58Zm24.69,0v-74.58H4420.7v74.58Zm-2327-2.3v-22.18H2093.6v22.18Zm25,0v-22.18H2120.8v22.18Zm138.93,0v-74.17h-23.65v74.17Zm25.52,0v-74.17h-24.58v74.17Zm113.3,0v-74.17h-24.59v74.17Zm10.14,0,.84-3.14h.73v-71H2421v74.17Zm5755.16-9.83v-23.54h-19.14v.42h9.1v23.12Zm776-3.35v-24h-4.92v24Zm35.57,0v-24h-32.43v24Zm87.45,0v-24h-46.86v24Zm72.92,0v-24h-33.89v24Zm33.79,0v-24H9160.6v24Zm-3743.35-3.14v-46.34h-34.63v46.34Zm34.62,0v-46.34h-31.17v46.34Zm65,0v-46.34h-31.28v46.34Zm38,0v-46.34h-34.63v46.34Zm72.81,0v-46.34h-34.63v46.34Zm34.63,0v-46.34h-31.28v46.34Zm-2103.55-5.54V2447.75h-4.61v15.69h-12.65v188.2Zm363.32-1.47v-23.74h-21.76v23.74Zm27.82,0v-23.74H3956v23.74Zm55.34,0v-23.74h-54.39v23.74Zm54.82,0v-23.74h-53.87v23.74Zm24.9,0v-23.74h-24.06v23.74Zm25.11,0v-23.74H4118.9v23.74Zm5185.64-.41V2521.61h-32.95v128.15Zm37.35,0V2521.61H9330.7v128.15Zm76.16,0v-92.59h-35.46v92.59Zm148.34,0v-92.59h-35.57v92.59ZM2117.45,2648v-23.54H2093.6v.42h9.1V2648Zm25,0v-23.54H2120.8V2648Zm746.31-3.35v-24h-4.92v24Zm35.57,0v-24H2891.9v24Zm87.45,0v-24h-46.87v24Zm72.92,0v-24h-33.9v24Zm33.79,0v-24h-30.66v24Zm5067-5.44V2615h-19.14v24.17ZM7449.87,2638v-22.18h-3.56V2638Zm25,0v-22.18h-21.65V2638Zm138.93,0v-74.17h-23.54V2638Zm25.52,0v-74.17h-24.58V2638Zm952.81-2.51v-104.2h-32.95v104.2Zm37.25,0V2507.27h-33v19.67h0v4.39h0v104.2Zm61.82,0V2507.27h-30.75v128.26Zm39.44,0V2507.27h-35.15v128.26Zm102.52,0v-104.2h-36.93v104.2Zm40.17,0V2507.27h-35.88v19.67h.1v4.39h-.1v104.2Zm37.56,0V2507.27h-33.16v128.26Zm-5657.35-1.47V2505.91h-32.95v128.15Zm37.35,0V2505.91h-33v128.15Zm76.16,0v-92.58h-35.47v92.58Zm148.34,0v-92.58h-35.57v92.58Zm4650-4.08v-15h-20v15Zm-4212.75-4.39v-24.37h-21.76v24.37Zm27.82,0v-24.37H3956v24.37Zm55.34,0v-24.37h-54.39v24.37Zm54.82,0v-24.37h-53.87v24.37Zm24.9,0v-24.37h-24.06v24.37Zm25.11,0v-24.37H4118.9v24.37Zm-2023.21-2.09v-24.17H2093.6v24.17Zm25,0v-24.17H2120.8v24.17Zm376.92-3.66v-104.2h-32.95v104.2Zm37.24,0V2491.58h-33v19.67h0v4.39h0v104.2Zm61.83,0V2491.58h-30.76v128.26Zm39.44,0V2491.58h-35.15v128.26Zm102.52,0v-104.2h-36.93v104.2Zm40.17,0V2491.58h-35.88v19.67h.1v4.39h-.1v104.2Zm37.55,0V2491.58H2805v128.26Zm-745.47-5.55v-15h-20v15Zm4263.6-.63v-93.1h-44v93.1Zm48.43,0v-93.1h-44v93.1Zm80,0v-93.1h-46.24v93.1Zm46.24,0v-93.1h-41.84v93.1Zm238.73,0v-93.1h-44.05v93.1Zm48.43,0v-93.1h-44v93.1Zm631.76-1V2589h-3.56v23.64Zm25,0V2589h-21.65v23.64Zm710.63-.94V2591h-40.06v20.72Zm168.64,0v-12.87H8330.5v12.87Zm16.21,0v-12.87h-15.27v12.87Zm9.31,0V2591h-5v20.72Zm-4427-13.81v-20.72h-21.76v20.72Zm83.16,0v-20.72H3956v20.72Zm79.72,0v-20.72h-78.77v20.72Zm25.11,0v-20.72H4118.9v20.72Zm139.65,0v-20.72h-23.74v20.72Zm25.63,0v-20.72h-24.68v20.72Zm113.82,0v-20.72h-24.69v20.72Zm24.69,0v-20.72H4420.7v20.72Zm-2327-1.89v-20.71h-44.78V2596Zm25,0v-20.71H2120.8V2596Zm138.93,0v-20.71h-23.65V2596Zm25.52,0v-20.71h-24.58V2596Zm113.3,0v-20.71h-24.59V2596Zm11.71,0v-20.71H2421V2596Zm5922.23-1.56V2591H8330.5v3.46Zm16.21,0V2591h-15.27v3.46ZM6998.78,2588v-91.11h-43.94V2588Zm48.64,0v-91.11h-44.25V2588Zm119.37,0v-91.11h-64.13V2588Zm99.48,0v-91.11H7220V2588Zm46.24,0v-91.11h-41.95V2588Zm137.36,0v-24.16h-3.56V2588Zm25,0v-24.16h-21.65V2588Zm261.74-14.12v-10H7728v10ZM4661,2566.17V2438h-44.25v128.15Zm502.66,0v-92.48h-36.72v92.48Zm2286.21-5.65v-20.71h-3.56v20.71Zm25,0v-20.71h-21.65v20.71Zm138.93,0v-20.71h-23.54v20.71Zm25.52,0v-20.71h-24.58v20.71Zm97.29,0v-20.71H7728v20.71Zm-6107-2.3v-94.78h-6.38v15.69H1610.6v79.09Zm34.21,0V2430.07H1634V2458l3,5.44h-3v94.78Zm7776-5.34v-31.27h-35.46v31.27Zm148.34,0v-31.27h-35.57v31.27Zm-5635.48-12.34Zm493.66,0Zm23,0Zm-1102.3-3.35v-31.28h-35.47v31.28Zm148.34,0v-31.28h-35.57v31.28Zm241.55-3.76v-87H3710.7v87Zm46.24,0V2405.28h-41.95v128.15Zm4788.95-6.49v-19.67h-32.95v19.67Zm241,0v-19.67h-36.93v19.67Zm-3014.73-10.36V2388.43h-29.92v128.15Zm34.21,0V2388.43h-29.81v128.15Zm503.61-.31v-30.86h-44v30.86Zm48.43,0v-30.86h-44v30.86Zm80,0v-30.86h-46.24v30.86Zm46.24,0v-30.86h-41.84v30.86Zm238.73,0v-30.86h-44.05v30.86Zm48.43,0v-30.86h-44v30.86Zm-4298.74-5v-19.67h-32.95v19.67Zm241,0v-19.67h-36.93v19.67Zm5084-1.47v-6.27h-4.5v6.27Zm34.31,0V2381.63h-29.91v121.46l.52.42h-.52v6.27Zm103.05,0V2381.63h-44v128.15Zm48.43,0V2381.63H7986v128.15Zm-185.79-10.56V2381.63h-29.81v91.43Zm-6072.76-5.13V2365.94h-29.82v128.15Zm34.31,0V2365.94H1776v128.15Zm103,0V2365.94h-44v128.15Zm48.44,0V2365.94h-44.15v128.15Zm5041.39-1.57v-32.74h-43.94v32.74Zm48.64,0v-32.74h-44.25v32.74Zm119.37,0v-32.74h-64.13v32.74Zm99.48,0v-32.74H7220v32.74Zm46.24,0v-32.74h-41.95v32.74ZM5163.66,2469.3V2438h-36.72v31.28Zm-2731.75-4.6v-51.26h-5.85a13.23,13.23,0,0,1,0-9.63h1.46v-5.65h-11l-.32,29.61v1.57l3.14.31v3.45l-3.14-.31V2451Zm2024.68-7.22v-6.28h-11a22.4,22.4,0,0,0,1.26,6.28Zm10.88-6.28H4457v6.28h9.21A26.63,26.63,0,0,0,4467.47,2451.2Zm1492.92,1.26V2324.31h-29.81v128.15Zm34.32,0V2324.31h-29.92v128.15Zm103,0V2324.31h-44v128.15Zm48.44,0V2324.31H6102v128.15Zm-4516.55-2.2v-20.19h-11.4Zm2127.3-8.26v-36.72H3710.7V2442Zm-167.59-10.57v-20.71h-6.8v-9.94h-10.46Zm-1172.71-46,4.29-3.24h-4.29Zm6000-26.36V2232.67h-42v85.78h4.19l8.58,11.71-2.31,1.68,12.45,27.2Zm-92.47-39.65,46.23-.84v-44.77h-46.23Zm-3664.79-7.95-30.13-23.64a45.25,45.25,0,0,0-12.45,23.64Zm2.19,0,.84-.73v.73h5.33v-4.92Zm495.34-16.63a43.33,43.33,0,0,0-6.59-7.85l-30.33,23.75v.73h43.72A46.43,46.43,0,0,0,5156.86,2294.81Zm-496.49,15v-35.25a44.68,44.68,0,0,0-24.06,7.53,49.26,49.26,0,0,0-5.75,4.4Zm2-1.56,5.33-4.19v-29.08a45.38,45.38,0,0,0-5.33-.42Zm457.58,0,28.87-22.6a45.79,45.79,0,0,0-28.87-11.09Zm3587.27-.11,10.88-9.41-13.29-11.41-24.37,20.82Zm21.86,0-9.73-8.37.94-.73-10.67,9.1Zm22.18,0-8.79-7.53-8.68,7.53Zm29.71,0-23.75-20-13.49,11.4,9.93,8.58Zm-49.48-.1,9.83-8.37-9.83-8.48Zm-1.57-1.36v-15.9l.52-.42-9.83,8.37Zm12.55-8.06,13.5-11.51-24.48-20.71v22.7Zm-23.85-.31,11.3-9.63V2266l-23.85,20.29,13.28,11.3Zm-6084.17-5.86,10.88-9.42-13.28-11.4-24.38,20.82Zm21.87,0-9.73-8.37.94-.73-10.67,9.1Zm22.18,0-8.79-7.53-8.68,7.53Zm29.71,0-23.75-20-13.5,11.4,9.94,8.58Zm-49.49-.11,9.84-8.36-9.84-8.48Zm6616.13-.73V2278.8h-14.55v12.76Zm19.66,0V2278.8h-14.43v12.76Zm19.88,0V2278.8h-14.44v12.76Zm-583-.52-2-1.67.84.73.21.21Zm-6074.23-.11V2275l.53-.42-9.84,8.37Zm12.56-8,13.49-11.51-24.48-20.71v22.7Zm-23.85-.31,11.29-9.63v-22.6l-23.85,20.3,13.29,11.3Zm556.22-6.7v-12.76h-14.54v12.76Zm19.67,0v-12.76H3207.3v12.76Zm19.88,0v-12.76h-14.44v12.76Zm-583-.52-2-1.68.84.74.21.2Zm5711.74-6v-36.71h-46.23v36.71Zm-4191.2-17.26v-8.68H4138a15.68,15.68,0,0,0,4.81,8.68Zm40.8-8.68h-39.12v8.68h34.31A16.38,16.38,0,0,0,4220,2243.44ZM2180.74,2252v-8.68h-40.9a15.72,15.72,0,0,0,4.81,8.68Zm40.59-8.68h-38.92V2252h34.11A15.72,15.72,0,0,0,2221.33,2243.34Zm5291.83-26.79v-8.68h-40.91a15.76,15.76,0,0,0,4.82,8.68Zm40.59-8.68h-38.92v8.68h34.11A15.74,15.74,0,0,0,7553.75,2207.87Zm1127.3-5.44v-8h-14.22a26.84,26.84,0,0,0,1.67,8Zm14.13-8h-13.5v8h11.82A30.32,30.32,0,0,0,8695.18,2194.38Zm-6086.89-7.64v-8h-14.23a26.91,26.91,0,0,0,1.68,8Zm14.12-8h-13.49v8h11.82A30.41,30.41,0,0,0,2622.41,2178.69Zm2451.6,4.18v-37.14h-33.16v37.14H5074Zm-318.86,0v-13.08H4722.2v13.08Zm37.35,0v-37.14h-33v19.67h0v4.39h0v13.08Zm61.72,0v-37.14h-30.76v37.14Zm39.54,0v-37.14h-35.15v37.14Zm102.42,0v-13.08h-36.83v13.08Zm40.27,0v-37.14h-35.88v19.67h0v4.39h0v13.08Zm-281.3-17.47v-19.67H4722.2v19.67Zm241,0v-19.67h-36.83v19.67ZM7899,1972.7v-11.3h-53.35a21.27,21.27,0,0,0,6.17,11.3Zm52.93-11.3h-50.73v11.3h44.56A21.27,21.27,0,0,0,7951.9,1961.4ZM1826.21,1957v-11.3h-53.36A21.33,21.33,0,0,0,1779,1957Zm52.93-11.3H1828.4V1957H1873A21.31,21.31,0,0,0,1879.14,1945.71Zm2991.19.84,10.88-9.42-13.29-11.4-24.48,20.82Zm21.86,0-9.73-8.37.84-.73-10.67,9.1Zm22.18,0-8.79-7.53-8.78,7.53Zm29.61,0-23.75-20-13.39,11.4,9.94,8.58Zm-49.49-.11-1.46-1.35v-15.91l.42-.41-9.83,8.36Zm0,0,9.94-8.36-9.94-8.48Zm11.09-9.41,13.5-11.51-24.59-20.71v22.7Zm-23.85-.31,11.3-9.63V1904.5l-24,20.29,13.39,11.3Zm12.66-7.22-1.88-1.68.83.74.11.21ZM6015,1915.38v-11.3h-53.35a21,21,0,0,0,6.17,11.3Zm52.93-11.3H6017.2v11.3h44.56A20.89,20.89,0,0,0,6067.93,1904.08Zm-1223.75-63.19v-8.05h-14.34a30.41,30.41,0,0,0,1.68,8.05Zm14.12-8.05h-13.6v8.05h11.93A30.82,30.82,0,0,0,4858.3,1832.84Z"/>
        <path class="cls-3" d="M1567.29,3391.25v-29.61h-12.13V3202.42h12.13V3085.26h-12.13v-5.44h12.13V3041h-12.13V2822.47l22.17,24.79,75.11-132.85h33.48l25.53-77.52H1742v-71.77h-3.66V2519.2h42.89v45.92h-3.66v71.77H1939.5l25.53,77.52h2l8.16,8.78v-.94h2.93v-34.83h79.2v34.83h2.82v16h-2.82v74.06l14.64,15.9,45.09,95.93h-9.42v19.78h-15.9v14.12l63.19-49.27-.11-44.78h2.83v-8.26h26.88V2864h2.72v19.46l66.22-51.68,39.13,29.29v-19h-.94v-13.7h.94v-9.94h0a29.52,29.52,0,0,1-1.36-7.64h-1.05l2.2-13.7,12.66-18.52,13,18.52,2.2,13.7h-.94a30.62,30.62,0,0,1-1.36,8l-.11,9.62h1.36V2842h-1.36v38l169.79,127.42h0V2845.7h-7v-10h-18.2l45-216.65h129.2v-45.93h-5.44v-11.82h5.44v-8.68h58.68v8.68h5.44v11.82h-5.44V2619h164.66l46.66,216.65h-18.31v10h-6.9v31.38h-26.89V3006.8h26.89V2980h-20.71l92.06-221.47h66.11v-56.91H3106v56.91h141.75v-41.84l24.69,2.4v39.44h41.32l17.89-43h172.82l17.78,43h75.11l43,103.57,33.06-29V2800.4h-1.15v-18.1h1.15V2769h-.11a40.68,40.68,0,0,1-1.67-10.14h-1.36l2.82-18.1,16.74-24.48,17.26,24.48,2.93,18.1h-1.25a35.49,35.49,0,0,1-1.89,10.67v12.76h1.78v18.1h-1.78V2804l49.8-43.51v-29.92l-5.13.52v-5.75l5.13-.53v-2.61l-.63-74.9h-10.88l68.21-63.92h93.63l20.6-44.67-3.87-2.62,14-19.46,143.43,2.62v-41.74H4077v-25.53h4.29v-18.62H4081a25.93,25.93,0,0,1-6.49-14.33h-5.12l10.87-25.42h127.32l10.77,25.42h-4.6a25.23,25.23,0,0,1-7.11,15v18h6.8v25.53h-6.8v43.94l249.29,4.49,68.21,168.85h16.42a46.38,46.38,0,0,1,30.55,0h117.48v-22.28h-6v-12.87h6v-9.42h63.5v9.42h6v12.87h-6v22.28h105.13l4.08,4.5,38.19-183.7h93.21l25.84-124.18h106.07v-77.1h-6.8v-25.42h6.8v-11.71h125.43v11.71h4.29v25.42h-4.29v77.1h117.17v-37.24h-5.86V2328.7h5.86v-18.62h62.66v18.62h6v25.42h-6v37.24h38l67.68,325.35h-27.3v15.17H5497.9V2891.2H5549v-17.68a26.3,26.3,0,0,1-3.76-1.25v-5.44h-3.88v-5.13h29.4v5.13h-3.87v5.44a26.41,26.41,0,0,1-3.77,1.25v15.17l90.81-215.92h87.45v-75.11h-2.09v-9.73h2.09v-1.46h20.93v1.46h2.19v9.73h-2.19v75.11h101.89V2668h4.6v-5.34h10.67V2513.86h-4.18v-6.17h-11.09l27.51-132.12h182.45l27.51,132.12h-11.09v6.17h-4.18v53.25h30.13l58.37-84,597-3.25,37.25,29.82v4.08H6823v9h-13.91v43.83l164.13,224.18v-16.42h3.87v-47.18h107.23v47.18h4v21.76h-4v73.44h4.6l12-57.85h129.2v-45.93h-5.44v-11.92h5.44v-8.69h58.58v8.69h5.55v11.92h-5.55v45.93h164.77l12.45,57.85h111.2v-5.65h-9.52v-14.12c12.45-5.86,24.69-6,36.62,0v14.12h-9.52v5.65h13.49l84.11,120.93,70.82-55.24v-44.77h2.72v-8.27h26.89v8.27h2.72v19.46l66.22-51.68,39.12,29.29v-19h-.94v-13.7h.94v-9.94h0a28.74,28.74,0,0,1-1.36-7.64h-1l2.19-13.7L7913.3,2805l13,18.52,2.2,13.7h-.94a30.54,30.54,0,0,1-1.36,8l-.11,9.63h1.36v13.7h-1.36v38l59.63,44.77v-78.67h-9.31V2859H7952l60.46-290.61h93.11l25.84-124.28H8237.5v-77H8363v77h117.06V2407h62.77v37.14h37.87l67.79,325.34h-27.3v15.28h-10.47V2815h114v-45.82h-5.44V2757.3h5.44v-8.69h58.69v8.69h5.44v11.92h-5.44V2815h164.66l22.07,102.73,64.34-133h62.14v-64.75h-1.88v-8.37h1.88v-1.36h18v1.36h1.89v8.37h-1.89v64.75H9387v-22.28h-6v-13h6v-9.42h63.6v9.42h5.86v13h-5.86v22.28h105.14l33.69,37.66V3041h-30.24v38.81h30.24v5.44h-30.24v117.16h30.24v159.22h-30.24v29.61H9516.7v-29.61h-58.27v29.61h-5.54v-29.61h-52.73v29.61H9155v-29.61H9099.4v29.61H9094v-29.61h-55.55v29.61H8447.56V3285.49H8410v105.76h-5.54V3285.49H8366.9v105.76h-92.16V3285.49h-37.66v105.76h-5.44V3285.49H8194v105.76h-98.13V3285.49H8081.2v19.25h.63l5.76,21.55H8091a12,12,0,0,1,0,9.1h-3.45v55.86h-58.27v-13.49h-14.23v13.49H7803.88v-13.49h-35.05v13.49h-4.08v-13.49h-34.1v13.49h-4.19v-13.49h-31.59v13.49H7543.81v-33.79h-51.68l-.31,33.79H7007.57v-33.79h-62.25v33.79H6001.4V3342.5h-47.18v48.75h-66.95V3342.5H5829v48.75h-5.44V3342.5h-52.73v48.75H5602.2V3356h-22.91v35.25h-3.77V3356h-39.85v35.25h-201V3232.66H5297v158.59h-5.44V3232.66h-37.66v158.59h-92.16V3232.66h-37.66v158.59h-5.44V3232.66H5081v158.59H4977.24v-77.1h-31.9v77.1h-5.55v-77.1h-18.1v77.1h-5.44v-77.1h-14v77.1h-84v-77.1H4760v77.1h-5.44v-77.1h-52.83v77.1H4456.48v-19.56H4401v19.56h-5.55v-19.56h-17.15v19.56h-1.57v-19.56h-36.72v19.56h-68.84v-19.56h-23.33v19.56h-5.44v-19.56h-35.67v19.56H4017.21V3285.49H3978.4v105.76h-1.57V3285.49h-40.27v105.76H3790.62V3285.49h-40.38v105.76h-1.46V3285.49H3710v105.76H3505.76v-47.91H3455v47.91h-5.55v-47.91H3393.3v47.91h-62v-47.91H3275v47.91h-5.44v-47.91h-50.84v47.91h-54.82v-47.91h-50.74v47.91h-5.44v-47.91h-56.28v47.91H2421V3374.2h-31.28v17.05h-4.18V3374.2h-31.28v17.05h-158.7v-40h-35v40h-4.19v-40h-34.1v40h-4.08v-40h-26.47v40H1870.25v-67.58h-44.78v67.58H1641.36v-29.61h-2.72v29.61ZM2421,3370v-18.72h-66.74V3370Zm1821.41-3.76V3324h-35.67v42.27Zm28.77,0V3324h-23.33v42.27Zm105.56,0V3324h-36.72v42.27Zm18.72,0V3324h-17.15v42.27Zm61,0V3324H4401v42.27Zm2551.09-13.5v-32.11h-62.25v32.11Zm536.24,0v-32.11h-51.47l-.21,32.11Zm-4436.1-15v-77.93h-56.28v77.93Zm56.18,0v-77.93h-50.74v77.93Zm105.66,0v-77.93h-50.84v77.93Zm61.72,0v-77.93H3275v77.93Zm118.21,0v-77.93H3393.3v77.93Zm56.28,0v-77.93H3455v77.93Zm2317.8-.83v-40.8h-52.73V3337Zm63.71,0v-40.8H5829V3337Zm114.13,0v-40.8h-47.18V3337Zm-3319.57-7.75V3199.6h-45.19v129.61Zm45.2,0V3199.6h-40.8v129.61Zm163.4,0v-92.58h-36v92.58Zm1352-6.8v-36.92h-35.67v36.92Zm28.77,0v-36.92h-23.33v36.92Zm105.56,0v-8.26h-36.72v8.26Zm18.72,0v-8.26h-17.15v8.26Zm61,0v-8.26H4401v8.26Zm-2586.23-4.28V3283.6h-44.78v34.53Zm92.79,0V3283.6h-41.53v34.53Zm47,0V3283.6h-41.53v34.53Zm2366.76-9.52v-23.12h-36.72v23.12Zm18.72,0v-23.12h-17.15v23.12Zm61,0v-23.12H4401v23.12Zm298,0v-36.93h-52.83v36.93Zm63.71,0v-36.93H4760v36.93Zm98,0v-36.93h-14v36.93Zm23.54,0v-36.93h-18.1v36.93Zm37.45,0v-36.93h-31.9v36.93Zm-1228.46-28.67v-38.18H3710v38.18Zm41.84,0v-38.18h-40.38v38.18Zm186.21,0v-38.18h-40.27v38.18Zm40.38,0v-38.18H3978.4v38.18Zm225.23,0v-38.18h-35.67v38.18Zm28.77,0v-38.18h-23.33v38.18Zm105.56,0v-8.26h-36.72v8.26Zm18.72,0v-8.26h-17.15v8.26Zm61,0v-8.26H4401v8.26Zm1966.61-6V3091.33h-32v34.94H6423v5.44h-31.91V3274Zm58.17,0V3091.33h-52.73V3274Zm212.05,0V3131.71H6635V3274Zm58.27,0V3091.33h-52.73V3274Zm974.88-17.37V3134.74h-31.59v121.87Zm38.29,0v-99h-.1v-4.18h.1v-18.73h-34.1v121.87Zm39.13,0v-99h-35.05v99Zm95.82,0V3134.74h-33.47v121.87Zm33.37,0V3134.74h-29.29v121.87Zm-5042.64-24.37V3199.6h-36v32.64Zm-772.25-2.09V3108.27h-26.47v121.88Zm38.18,0v-99h0V3127h0v-18.73h-34.1v121.88Zm39.23,0v-99h-35v99Zm95.83,0V3108.27h-33.48v121.88Zm33.37,0V3108.27H2295.5v121.88Zm60.78,0v-99h0V3127h0v-18.73h-31.28v121.88Zm35.46,0v-99h-31.28v99Zm4586.54-4.29V3104.72h-62.25v121.14Zm73.54,0V3104.72h-10v121.14Zm462.7,0V3104.72h-62.24v121.14Zm1226.27-23V3073.12h-45.19v129.72Zm45.19,0V3073.12h-40.8v129.72Zm154.31,0V3073.12h-26.79v129.72Zm124.38-.42V3085.26h-55.55v117.16Zm61,0V3085.26H9099.4v117.16Zm297.94,0V3085.26h-52.73v117.16Zm63.81,0V3085.26h-58.27v117.16Zm-1531-2.82v-64.86h-23.12v64.86Zm-710.21-.1v-94.78h-45.19v94.78Zm-4167.77-.74V3118h-56.28v80.76Zm56.18,0V3118h-50.74v80.76Zm105.66,0V3118h-50.84v80.76Zm61.72,0V3118H3275v80.76Zm118.21,0V3118H3393.3v80.76Zm56.28,0V3118H3455v80.76Zm2069.76-8.58v-75h-39.85v75Zm26.68,0V3079.71h-22.91v110.47Zm-3960.84-31.27v-73.65h-2.72v73.65Zm228.89,0V3042.26h-44.78v116.65Zm92.79,0V2997.38h-41.53v161.53Zm47,0V2997.38h-41.53v161.53Zm5793.87-5.44v-18.73h-35.05v18.73Zm-1980.32-21.76V3017h-52.73v114.76Zm63.71,0V3017H5829v114.76Zm114.13,0V3017h-47.18v114.76Zm219.79,0v-40.38H6171.4v40.38ZM2195.59,3127v-18.73h-35V3127Zm225.44,0v-18.73h-31.28V3127Zm1327.75-.73v-122H3710v122Zm41.84,0v-122h-40.38v122Zm186.21,0v-122h-40.27v122Zm40.38,0v-122H3978.4v122Zm225.23,0v-36.51h-35.67v36.51Zm28.77,0v-36.51h-23.33v36.51Zm1889.2,0v-34.94h-47.28v34.94Zm532.9,0v-34.94H6635v34.94Zm-3585.6-13.81v-75.22h-56.28v75.22Zm56.18,0v-75.22h-50.74v75.22Zm105.66,0v-75.22h-50.84v75.22Zm61.72,0v-75.22H3275v75.22Zm118.21,0v-75.22H3393.3v75.22Zm56.28,0v-75.22H3455v75.22Zm871,0v-22.7h-36.72v22.7Zm18.72,0v-22.7h-17.15v22.7Zm61,0v-22.7H4401v22.7Zm298,0V2995.29h-52.83v117.17Zm63.71,0V2995.29H4760v117.17Zm54.61,0V2995.29h-12.13v117.17Zm702.68-1.05v-31.7h-39.85v31.7Zm1432-11.3v-30.33h-62.25v30.33Zm73.54,0v-30.33h-10v30.33Zm194.37,0v-30.33h-45.19v30.33Zm268.33,0v-30.33h-62.24v30.33Zm-5056.24-10.67v-70.09H2477v5.44h1.36a11.91,11.91,0,0,1,0,9.1h-5.44v55.55Zm409.24,0V3006.8h-15.48v82.64Zm1345.63-5.12v-38.81h-35.67v38.81Zm28.77,0v-38.81h-23.33v38.81Zm105.56,0v-38.81h-36.72v38.81Zm18.72,0v-38.81h-17.15v38.81Zm61,0v-38.81H4401v38.81Zm3639.37-4.08v-34.32h-10.57v5.34h1.36a11.86,11.86,0,0,1,0,9.1h-5.44v19.88Zm-6454.49-.42v-37.56h-2.72v37.56Zm7452.6,0V3041h-55.55v38.81Zm61,0V3041H9099.4v38.81Zm297.94,0V3041h-52.73v38.81Zm63.81,0V3041h-58.27v38.81Zm-5274.26-35.88v-39.65h-35.67v39.65Zm28.77,0v-39.65h-23.33v39.65Zm105.56,0v-39.65h-36.72v39.65Zm18.72,0v-39.65h-17.15v39.65Zm61,0v-39.65H4401v39.65Zm-2586.23-7.12v-39.44h-44.78v39.44Zm6225.6-2.93V2918.82h-37.66v86.83l37.66,28.24Zm-1935.44-2.09V3017h-47.28v14.85Zm60.78,0V3017H6171.4v14.85Zm201.9,0V2916.73h-8.47v19.87h-23.54v95.2Zm58.17,0V2849.15h-52.73v45.09l9.52,22.49h-9.52V3031.8Zm212.05,0V2892.25H6635V3031.8Zm58.27,0V2849.15h-52.73V3031.8Zm-1835.33-4.29v-32.22h-14v32.22Zm23.54,0v-32.22h-18.1v32.22Zm37.45,0v-32.22h-31.9v32.22Zm846.32-16v-41.22h-52.73v41.22Zm63.71,0v-41.22H5829v41.22Zm114.13,0v-41.22h-47.18v41.22Zm159,0v-41.22h-47.28v41.22Zm60.78,0v-41.22H6171.4v41.22Zm-3539.36-4.71V2877.08h-45.19V3006.8Zm45.2,0V2877.08h-40.8V3006.8Zm5325.72-5.23v-82.75h-37.66v54.5Zm178.89-2.09V2838.06H8194v161.42Zm43.1,0V2838.06h-37.66v161.42Zm129.72,0V2838.06H8349v161.42Zm61,0V2838.06H8410v161.42Zm-4716.67-.74v-34H3710v34Zm41.84,0v-34h-40.38v34Zm186.21,0v-34h-40.27v34Zm40.38,0v-34H3978.4v34Zm225.23,0v-34h-35.67v34Zm28.77,0v-34h-23.33v34Zm105.56,0v-3.45h-36.72v3.45Zm18.72,0v-3.45h-17.15v3.45Zm61,0v-3.45H4401v3.45Zm-79.71-9v-25h-36.72v25Zm18.72,0v-25h-17.15v25Zm61,0v-25H4401v25Zm298,0v-38.81h-52.83v38.81Zm63.71,0v-38.81H4760v38.81Zm54.61,0v-38.81h-12.13v38.81Zm43.41,0v-38.81h-14v38.81Zm23.54,0v-38.81h-18.1v38.81Zm37.45,0v-38.81h-31.9v38.81Zm141.44-43V2785.23H5081v100l31.8,19.67h-19.35v20H5081v21.86Zm43.1,0V2785.23h-37.66v161.52Zm129.82,0V2785.23h-55.54v161.52Zm61,0V2785.23H5297v161.52Zm2491.77-1.46,9.52-8.06-12.76-10.88-22.6,18.94Zm18.94,0-8.27-7.12-8.37,7.12Zm23,0-10.15-8.58.84.73-9.2,7.85Zm27.72,0-23.22-19.67-12.66,10.77,10.46,8.9Zm-48.43,0,10.25-8.9-9.31-7.95.52.42V2944Zm0,0v-16.11l-9.42,8.05Zm902.39-.21-30.45-23.85a45.1,45.1,0,0,0-12.65,23.85Zm2.19,0,.95-.74v.74h44.14a46.39,46.39,0,0,0-6.8-16.74,50.15,50.15,0,0,0-6.69-8Zm-1.15-1.68v-35.67a45.81,45.81,0,0,0-24.37,7.64,40.28,40.28,0,0,0-5.76,4.5Zm2.1-1.57,29.08-22.8a45.75,45.75,0,0,0-29.08-11.3Zm-916.1-5.54,10.57-9v-21.65l-23.33,19.67Zm22-.84,12.76-10.88-22.7-19.25v21.55Zm-11.4-6.27.94-.74.1-.21.84-.62Zm-5629.52-10.36,9.52-8.06-12.76-10.88-22.6,18.94Zm18.93,0-8.26-7.11-8.37,7.11Zm23,0-10.15-8.68.84.73-9.21,8Zm27.72,0-23.22-19.67-12.66,10.78,10.46,8.89Zm-48.43,0,10.25-8.89-9.31-7.95.52.42v15.16Zm-.11,0v-16.11l-9.31,8.05Zm-10.46-9,10.57-9-.11-21.66-23.33,19.67Zm22-.83,12.76-10.88-22.7-19.25v21.55Zm1404.74-4v-.1h-15.28v.1Zm580.39,0v-.1H3706.93v.1Zm-1996.53-2.3.94-.73.1-.21.84-.63Zm4436-15.9v-37.66H6635v37.66Zm-270.22-5.65v-32H6409.6Zm554-11.61v-73.44h-27v14.54h-17.36v58.9Zm935.76-24.69v-7.64H7900a26.6,26.6,0,0,0,1.57,7.64Zm14.13-7.64h-13.5v7.64h11.93A26.94,26.94,0,0,0,7927,2837.22ZM2304.6,2818.39v-7.64h-12.87a26.6,26.6,0,0,0,1.57,7.64Zm14.12-7.64h-13.49v7.64h11.92A26.6,26.6,0,0,0,2318.72,2810.75ZM3689.46,2769v-10.14h-17.05a32.3,32.3,0,0,0,2.09,10.14Zm18.62-10.14h-17.89V2769H3706A35.38,35.38,0,0,0,3708.08,2758.87Zm3301.37-4.19v-21.76h-24.69v21.76Zm33.68,0v-21.76h-24.68v21.76Zm33.9,0v-21.76h-24.69v21.76ZM2679.74,2749l-30.55-23.85a45.64,45.64,0,0,0-12.55,23.85Zm2.2,0,.83-.73v.73H2727a44.87,44.87,0,0,0-6.91-16.73,38,38,0,0,0-6.69-8Zm-1.15-1.67v-35.67a45.83,45.83,0,0,0-24.38,7.63,40.92,40.92,0,0,0-5.75,4.5Zm2-1.57L2712,2723a45.83,45.83,0,0,0-29.19-11.29Zm-681-38.08V2691.6h-18.31v16.11Zm25,0V2691.6h-18.2v16.11Zm24.9,0V2691.6h-18.31v16.11Zm4042.44-108.48,3.87-5.55v-20h-11.61v25.53Zm14.75-21.13,3-4.4h-3ZM4141.07,2433.31V2419h-63.91c.94,5.54,3.76,10.15,7.84,14.33Zm70.1-14.33H4143.9v14.33h59.42C4207.4,2429.13,4210.22,2424.52,4211.17,2419Z"/>
      </g>
      <g id="Layer_2-2" data-name="Layer 2-2">
        <g id="Layer_1-2-2" data-name="Layer 1-2-2">
          <path class="cls-4" d="M614.36.25h78.77l12.31,3.29C754.14,18.37,796.55,41.86,826.09,86a210.25,210.25,0,0,1,37.16,124.33,94.51,94.51,0,0,0,7.59,49.08,125.94,125.94,0,0,1,0,125c-6.43,12.22-9.84,22.31,0,34.14a42.37,42.37,0,0,1,7.51,18.77,465.61,465.61,0,0,1,8,76.4c4.47,65.64,4.06,131.27,21.79,194.8a102.64,102.64,0,0,1-7.62,70.23,189.65,189.65,0,0,0-20.76,76.55c-4.21,112.88,7.48,225.4,6.44,338.28a488.88,488.88,0,0,0,5.4,102,40,40,0,0,1,0,14.06c-5,27.82-9.47,55.91-15.75,83.49a309.63,309.63,0,0,0-4.07,126.14,22.37,22.37,0,0,1-6.31,21.68,41,41,0,0,0-10.89,30c-3.14,46.36,5.79,91.94,8.13,138,1.72,31.11,3,63.8,24.29,91.11a115.25,115.25,0,0,0,23.25,27,73.7,73.7,0,0,1,18.89,20.76c16.14,24-3.41,42.8-8.9,63.53-2.49,9.73-17.58,14.32-13.1,26.27s16.78,13.11,24.29,21.65l1.15,1a428.11,428.11,0,0,0,52.53,37.28c10.76,5.79,15.09,11.3,14.56,22.34v14.08c0,28.48,0,28.74,29.27,28.48,32.63,0,65.64-1.31,97.67-2a22.45,22.45,0,0,1,22.72,14.29c8.39,14.83,3.94,29.66,5.78,44.25,2.76,21.27,6.43,42.53,8.66,63.92,2.49,23.9,3.14,25.09,27.7,25.09h160.69c7.38,0,12.4,1.33,15.6,4.51,5.57,5.48,4.8,14.44,4.74,16-2.73,63.5,127.3,216.83,127.3,216.83,8.51,10,62.78,93.72,171.36,261,76.49,117.89,71.54,115.34,155.06,244.8,80.31,124.56,122,189.19,179.52,269.32,48.28,67.24,118.93,161,212.2,269.3-43.39,16.43-122,41.52-191,32.8-8-1-28.26-4-52.67-8.9-41.94-8.66-72.63-18.62-92.74-24.58-158.61-46.89-306.61-35.42-586-3,0,0-944.82,109.94-1114.91-2.22-1.49-1-11.36-16.61-29.66-16a119.44,119.44,0,0,1-60.65-14.29,133.94,133.94,0,0,0-62.08-23.37c-16.43-.66-22.18-10.24-22.71-27.32-1-31.23,5.93-61.57,6.28-91.94,0-56.17-1.15-112.23-2-168.43C8,2962.54,7.49,2781.93,3.43,2601.43c-2.64-115.4,1-231-3-346.44-.92-27.17,0-28,26.25-32a210.66,210.66,0,0,1,33-2.05h135.6c20.23,0,24.17-3.56,26.25-23.37,3-39.39,5.51-77.47,7.89-116.17a21.53,21.53,0,0,1,12.21-19.84c20.77-11.87,44.49-11.54,66.56-17.8,12.19-3.29,21.92-1.72,24.79,13.11.8,4.09,3.29,8.28,8.66,7s5-5.13,5.13-8.9v-29.74c0-18.78,2.49-21,20.76-21.27,24.18,0,48.32-.8,72.49,0a29.88,29.88,0,0,0,29.12-13.79,109.48,109.48,0,0,1,30.08-28.23,22.7,22.7,0,0,0,10.88-14.69c4.33-24.82,4.33-24.67,28-27.7,5.25,0,13.14.92,13.14-7s-7-8.89-12.49-12.07A162.35,162.35,0,0,0,473,1883.79c-29.16-2-60.92-2.64-80.76,27-4.83,7.21-8.9,5.37-13.11,0a23.43,23.43,0,0,1-6.82-18.53c1.57-20.35,16.93-29.28,31.61-37.94,32.84-19.27,70.24-27.7,105-42.53,3.68-1.57,9.73-1.83,8.9-7.08s-7.35-4.33-11.86-4-11.45,1.6-17.2,2.11-10.77,2.22-14.59-3,0-9.85,3-14.06a12.31,12.31,0,0,0,3.14-10.23,16.14,16.14,0,0,1,9.08-19.54,18.66,18.66,0,0,0,7.86-20.5,115.19,115.19,0,0,1,6.05-63.38,40.64,40.64,0,0,0,0-34.52c-5.1-14.83-18.51-23-27.55-36.75,9.46,0,13.14,5.94,19.42,7.86,8.13,2.76,14.18,4.48,13.14-8.39s0-24.56-1.18-37.16a132.25,132.25,0,0,0-22.46-68.51,13.14,13.14,0,0,1-.8-16.55c4.1,4.6,7.36,8.54,11,12.1,6.7,5.93,13.14,5.49,15.36-3.83,3.94-22.57,9.73-45.94,1.19-68.39a414.62,414.62,0,0,1-15.37-47.78,33.4,33.4,0,0,1,10,17.47,53.76,53.76,0,0,0,13.14,22.57c2.64,2.76,8.12,5.52,8.54,0,1.3-13.14,13.11-22.18,12.07-37.81a99.37,99.37,0,0,1,10-49.35,111.37,111.37,0,0,0-3-114.6,12.22,12.22,0,0,1-2.11-13.14,31.35,31.35,0,0,0-2.61-26.25c-10.38,11.3-22.33,21.41-22.86,37a461,461,0,0,0-2.23,73,135.27,135.27,0,0,1-21.38,90.73c-4.6,5.1-3.29,15.86-9.58,17-14.18,2.64-12.34,13.14-12.49,21.53v80.35a109,109,0,0,1-8.89,42.79c-3,7.36-7.48,10.24-11.16,1.43-7.62-17.8-17.79-34.76-14.83-55.38,2-13.13,15.37-26.27,3.8-41a29,29,0,0,1,2.23-4,37.73,37.73,0,0,0,6.85-23.72,402.65,402.65,0,0,0-4.87-78.78,681,681,0,0,0-23.1-106.77,177.92,177.92,0,0,0-18.39-46.74,888.67,888.67,0,0,1-45.29-87,44.53,44.53,0,0,1-3.41-36.48,186.68,186.68,0,0,0,8.9-74.15c0-74.56,0-149.12,5.93-223.15,3-39.38,1.31-77.85,10.77-116.17-14.45,16.67-15.25,40.69-30.46,58.66a32.58,32.58,0,0,1,0-30.69c2.34-5.93,6.17-11,8.66-16.82,1.57-3.79,3-9.31-1.31-11.57s-7.35,3-9.07,6.32a138.83,138.83,0,0,0-16.79,60.12v41.11c-4.48-38-6.7-75.9-8.54-113.95,0-2,1.3-8.69,3.29-5.4,6.29,10.38,8.13,1.84,9.7-1.84a19.36,19.36,0,0,1,11.86-11.68A15.33,15.33,0,0,0,359.15,601q4.46-24.65,8.9-49.5A877.63,877.63,0,0,1,401,410.6c6.7-19.31,17.47-40.3,42.29-41.22,16.52,0,31.77-6.32,47.9-7.63,10.11-.92,11.57-7.47,7-16s-8.28-17.05-13.14-25.06a214.47,214.47,0,0,1-35.53-134.32A198.72,198.72,0,0,1,497.27,68.23,223.1,223.1,0,0,1,614.36.25ZM643.51,252c-9.34,2.64-13.13,10.26-17.79,16.82-9.58,13.13-8.9,31.64-24.56,40.57-3.56,2.07-5.93,6.43-10.76,4.83s-6.17-6.94-6.29-11.68a54,54,0,0,1,.38-13.5,120.35,120.35,0,0,0,3.68-48.31c-.8-4.87,0-11,3.8-13.14,15.75-7.09,13.14-21.65,16-34.91a16.24,16.24,0,0,0-11.15,7.36c-24.94,29.66-32.18,118.13-12.34,151.25,1.31,2.08,3.41,5,5.25,5.11,4,0,4-4.07,5-6.83,4.33-11.86,5.39-27,13.13-34.52C627.5,297.46,627.88,271.21,643.51,252ZM584.43,746.54l4,1.19c2-4.75,3.68-9.58,5.75-14.33a259.72,259.72,0,0,1,22.72-51.57c5.93-7.89,6.32-13.14,0-20.5s-5.93-13.91,2.23-21c14.82-13.13,12.21-24.55-5.64-31.64-3.53-1.31-7.35-3-9.85.8s0,6.7,3.3,9.31,9.58,2.64,9.19,8.9c-4.48,4.18-13.14-4.6-13.14,2.34s-7.24,18.12,0,25.48c12.22,12.22,8,24.56,3,37.55ZM490.3,1844.64c-36.36,3.14-71.92,8.89-102.38,31.49a26.24,26.24,0,0,0-10.38,25.33C409.57,1866.67,455,1866.55,490.3,1844.64ZM432,1148.88h-4.21c2.64,27.32,3,55.14,15.78,80.35a295.31,295.31,0,0,1,34,109.08,92.65,92.65,0,0,0-13.14-82.83,167,167,0,0,1-28.89-75.57c-.8-10.62-2.11-21.15-3.56-31.77Zm798.37,2275.83,293.8,8.16ZM402.93,551.6c5.78-49.62,10.38-99.24,18.77-148.47C401.83,450.31,402.93,500.73,402.93,551.6ZM741.86,427c-5.75,7.51,0,17.47-3.68,19.31-19,8.39-6.94,22.45-7.35,34,0,3.41,1.18,7.59,5.93,7.74a7.93,7.93,0,0,0,7.89-6.44c3.88-17.76,8.6-35.08-2.7-54.66ZM387,866.66A1328.34,1328.34,0,0,0,395,665Q391.07,766.23,387,866.66Z"/>
        </g>
      </g>
    </g>
  </g>
</svg>
