<?xml version="1.0" encoding="utf-8"?>
<!-- Generator: Adobe Illustrator 26.0.0, SVG Export Plug-In . SVG Version: 6.00 Build 0)  -->
<svg version="1.1" id="Layer_1" xmlns="http://www.w3.org/2000/svg" xmlns:xlink="http://www.w3.org/1999/xlink" x="0px" y="0px"
	 viewBox="0 0 5000 2200" style="enable-background:new 0 0 5000 2200;" xml:space="preserve">
<style type="text/css">
	.st0{fill:#8986C0;}
	.st1{fill:#9491C7;}
	.st2{fill:#6363AA;}
	.st3{fill:#50529F;}
	.st4{fill:#5858A3;}
	.st5{fill:#3C4093;}
	.st6{fill:#5657A2;}
	.st7{fill:#B0ADD7;}
	.st8{fill:#B5B2D9;}
	.st9{fill:#C3C0E1;}
	.st10{fill:#D6D5EC;}
	.st11{fill:#CDCAE7;}
	.st12{fill:#716FB2;}
	.st13{fill:#7371B3;}
	.st14{fill:#B9B6DC;}
	.st15{fill:#BFBCDF;}
	.st16{fill:#D2D1EA;}
	.st17{fill:#E3E1F2;}
	.st18{fill:#CBC8E6;}
	.st19{fill:#ACA9D5;}
	.st20{fill:#C9C6E4;}
	.st21{fill:#6766AC;}
	.st22{fill:#7D7AB9;}
	.st23{fill:#9C99CB;}
	.st24{fill:#33348A;}
	.st25{fill:#AAA7D4;}
	.st26{fill:#6564AB;}
</style>
<g>
	<rect x="1160.17" y="1656.64" class="st0" width="415.15" height="259.42"/>
	<rect x="1214.67" y="1395.7" class="st1" width="306.15" height="260.93"/>
	<rect x="1258.22" y="1204.57" class="st0" width="219.05" height="191.13"/>
	<path class="st2" d="M1431.38,959.69c-6.79-28.87-32.69-50.36-63.63-50.36c-30.94,0-56.84,21.5-63.63,50.36H1431.38z"/>
	<g>
		<path class="st2" d="M1367.75,909.33v-88.99V909.33z"/>
		<rect x="1365.83" y="820.34" class="st2" width="3.83" height="88.99"/>
	</g>
	<g>
		<path class="st2" d="M1347.58,851.27h40.32H1347.58z"/>
		<rect x="1347.58" y="849.36" class="st2" width="40.32" height="3.83"/>
	</g>
	<polygon class="st1" points="1367.75,1025.96 1292.39,1063.77 1292.39,1204.57 1443.1,1204.57 1443.1,1063.77 	"/>
	<polygon class="st0" points="1367.75,1025.96 1424.57,1054.48 1429.36,1056.88 1429.36,959.69 1306.13,959.69 1306.13,1056.72 
		1310.92,1054.48 	"/>
	<path class="st3" d="M1367.75,1088.28c-9.91,0-17.94,8.03-17.94,17.94v61.36h35.88v-61.36
		C1385.68,1096.31,1377.65,1088.28,1367.75,1088.28z"/>
	<g>
		<rect x="1304.81" y="1235.01" class="st3" width="43.32" height="111.29"/>
		<rect x="1387.36" y="1235.01" class="st3" width="43.32" height="111.29"/>
	</g>
	<g>
		<rect x="1433.72" y="1440.21" class="st3" width="58.07" height="147.29"/>
		<rect x="1243.7" y="1440.21" class="st3" width="58.07" height="147.29"/>
	</g>
	<rect x="1330.09" y="1693.54" class="st3" width="75.31" height="181.77"/>
	<rect x="1340.42" y="1426.9" class="st3" width="54.65" height="185.93"/>
	<g>
		<rect x="1292.86" y="957.78" class="st2" width="149.76" height="3.83"/>
	</g>
	<g>
		<rect x="1226.79" y="1202.66" class="st2" width="281.91" height="3.83"/>
	</g>
	<g>
		<rect x="1182.74" y="1393.79" class="st2" width="370.01" height="3.83"/>
	</g>
	<g>
		<rect x="1137" y="1654.72" class="st2" width="461.49" height="3.83"/>
	</g>
	<g>
		<polygon class="st2" points="1459.52,1074.16 1367.75,1028.11 1275.97,1074.16 1274.25,1070.73 1367.75,1023.82 1461.24,1070.73 
					"/>
	</g>
</g>
<g>
	<g>
		<polygon class="st2" points="367.62,1568.18 325.92,1568.18 284.21,1568.18 211.8,1587.4 211.8,1723.89 325.92,1723.89 
			440.03,1723.89 440.03,1587.4 		"/>
		<polygon class="st0" points="284.21,1567.93 325.92,1567.93 367.62,1567.93 415.75,1580.71 422,1580.71 422,1444.22 361.03,1425 
			325.92,1425 290.8,1425 229.83,1444.22 229.83,1580.71 236.08,1580.71 		"/>
		<rect x="198.89" y="1824.5" class="st4" width="254.17" height="11.12"/>
		<rect x="202.22" y="1723.89" class="st0" width="247.51" height="11.12"/>
		<path class="st2" d="M206.96,1835.62v369.72h19.6v-85.45c0-54.9,44.51-99.41,99.41-99.41c54.9,0,99.41,44.51,99.41,99.41v85.45
			h19.6v-369.72H206.96z"/>
		<g>
			<path class="st5" d="M288.48,1863.98c-10.19,0-18.92,6.2-22.64,15.03v77.47h45.28v-77.47
				C307.4,1870.18,298.67,1863.98,288.48,1863.98z"/>
			<g>
				<path class="st6" d="M311.62,1956.98h-46.28l0.04-78.17c3.92-9.31,12.99-15.33,23.1-15.33c10.11,0,19.18,6.02,23.1,15.33
					l0.04,0.19V1956.98z M266.34,1955.98h44.28v-76.87c-3.79-8.89-12.47-14.63-22.14-14.63c-9.67,0-18.35,5.74-22.14,14.63V1955.98z
					"/>
			</g>
		</g>
		<g>
			<path class="st5" d="M378.4,1863.98c-10.19,0-18.92,6.2-22.64,15.03v77.47h45.28v-77.47
				C397.32,1870.18,388.58,1863.98,378.4,1863.98z"/>
			<g>
				<path class="st6" d="M401.54,1956.98h-46.28l0.04-78.17c3.92-9.31,12.99-15.33,23.1-15.33c10.11,0,19.18,6.02,23.1,15.33
					l0.04,0.19V1956.98z M356.26,1955.98h44.28v-76.87c-3.79-8.89-12.47-14.63-22.14-14.63c-9.67,0-18.35,5.74-22.14,14.63V1955.98z
					"/>
			</g>
		</g>
		<g>
			<g>
				<path class="st5" d="M239.99,1835.62v193.7V1835.62z"/>
				<rect x="239.49" y="1835.62" class="st6" width="1" height="193.7"/>
			</g>
			<g>
				<rect x="238.34" y="1835.62" class="st5" width="3.31" height="193.7"/>
				<path class="st6" d="M242.15,2029.81h-4.31v-194.7h4.31V2029.81z M238.84,2028.81h2.31v-192.7h-2.31V2028.81z"/>
			</g>
		</g>
		<g>
			<g>
				<path class="st5" d="M262.06,2043.75v-74.67V2043.75z"/>
				<rect x="261.56" y="1969.08" class="st6" width="1" height="74.67"/>
			</g>
			<g>
				<rect x="260.41" y="1969.08" class="st5" width="3.31" height="69.1"/>
				<path class="st6" d="M264.22,2038.69h-4.31v-70.1h4.31V2038.69z M260.91,2037.69h2.31v-68.1h-2.31V2037.69z"/>
			</g>
		</g>
		<g>
			<g>
				<path class="st5" d="M311.12,2020.47v-56.09V2020.47z"/>
				<rect x="310.62" y="1964.39" class="st6" width="1" height="56.09"/>
			</g>
			<g>
				<rect x="309.47" y="1964.39" class="st5" width="3.31" height="56.09"/>
				<path class="st6" d="M313.28,2020.97h-4.31v-57.09h4.31V2020.97z M309.97,2019.97h2.31v-55.09h-2.31V2019.97z"/>
			</g>
		</g>
		<g>
			<g>
				<rect x="352.31" y="1969.08" class="st5" width="3.31" height="51.39"/>
				<path class="st6" d="M356.12,2020.97h-4.31v-52.39h4.31V2020.97z M352.81,2019.97h2.31v-50.39h-2.31V2019.97z"/>
			</g>
		</g>
		<g>
			<g>
				<path class="st5" d="M401.87,2055.68v-94.72V2055.68z"/>
				<rect x="401.37" y="1960.97" class="st6" width="1" height="94.72"/>
			</g>
			<g>
				<rect x="400.21" y="1960.97" class="st5" width="3.31" height="88.52"/>
				<path class="st6" d="M404.02,2049.99h-4.31v-89.52h4.31V2049.99z M400.71,2048.99h2.31v-87.52h-2.31V2048.99z"/>
			</g>
		</g>
		<g>
			<g>
				<path class="st5" d="M265.84,1837.52v22.64V1837.52z"/>
				<rect x="265.34" y="1837.52" class="st6" width="1" height="22.64"/>
			</g>
			<g>
				<rect x="264.19" y="1837.52" class="st5" width="3.31" height="22.64"/>
				<path class="st6" d="M267.99,1860.65h-4.31v-23.64h4.31V1860.65z M264.69,1859.65h2.31v-21.64h-2.31V1859.65z"/>
			</g>
		</g>
		<g>
			<g>
				<path class="st5" d="M315.6,1837.52v22.64V1837.52z"/>
				<rect x="315.1" y="1837.52" class="st6" width="1" height="22.64"/>
			</g>
			<g>
				<rect x="313.95" y="1837.52" class="st5" width="3.31" height="22.64"/>
				<path class="st6" d="M317.76,1860.65h-4.31v-23.64h4.31V1860.65z M314.45,1859.65h2.31v-21.64h-2.31V1859.65z"/>
			</g>
		</g>
		<g>
			<g>
				<path class="st5" d="M355.76,1837.52v20.08V1837.52z"/>
				<rect x="355.26" y="1837.52" class="st6" width="1" height="20.08"/>
			</g>
			<g>
				<rect x="354.1" y="1837.52" class="st5" width="3.31" height="20.08"/>
				<path class="st6" d="M357.91,1858.09h-4.31v-21.08h4.31V1858.09z M354.6,1857.09h2.31v-19.08h-2.31V1857.09z"/>
			</g>
		</g>
		<g>
			<g>
				<path class="st5" d="M401.87,1837.52v26.47V1837.52z"/>
				<rect x="401.37" y="1837.52" class="st6" width="1" height="26.47"/>
			</g>
			<g>
				<rect x="400.21" y="1837.52" class="st5" width="3.31" height="26.47"/>
				<path class="st6" d="M404.02,1864.48h-4.31v-27.47h4.31V1864.48z M400.71,1863.48h2.31v-25.47h-2.31V1863.48z"/>
			</g>
		</g>
		<rect x="206.96" y="1735.01" class="st0" width="239.78" height="89.49"/>
		<g>
			<path class="st5" d="M257.41,1745.72c-4.66,0-8.43,3.77-8.43,8.43v59.64h16.86v-59.64
				C265.84,1749.49,262.07,1745.72,257.41,1745.72z"/>
			<g>
				<path class="st6" d="M266.34,1814.29h-17.86v-60.14c0-4.92,4.01-8.93,8.93-8.93c4.92,0,8.93,4.01,8.93,8.93V1814.29z
					 M249.48,1813.29h15.86v-59.14c0-4.37-3.56-7.93-7.93-7.93c-4.37,0-7.93,3.56-7.93,7.93V1813.29z"/>
			</g>
		</g>
		<g>
			<path class="st5" d="M325.92,1745.72c-4.65,0-8.43,3.77-8.43,8.43v59.64h16.86v-59.64
				C334.34,1749.49,330.57,1745.72,325.92,1745.72z"/>
			<g>
				<path class="st6" d="M334.84,1814.29h-17.86v-60.14c0-4.92,4.01-8.93,8.93-8.93c4.92,0,8.93,4.01,8.93,8.93V1814.29z
					 M317.99,1813.29h15.86v-59.14c0-4.37-3.56-7.93-7.93-7.93c-4.37,0-7.93,3.56-7.93,7.93V1813.29z"/>
			</g>
		</g>
		<g>
			<path class="st5" d="M325.92,1601.21c-4.65,0-8.43,3.77-8.43,8.43v73.88h16.86v-73.88
				C334.34,1604.98,330.57,1601.21,325.92,1601.21z"/>
			<g>
				<path class="st6" d="M334.84,1684.02h-17.86v-74.38c0-4.92,4.01-8.93,8.93-8.93c4.92,0,8.93,4.01,8.93,8.93V1684.02z
					 M317.99,1683.02h15.86v-73.38c0-4.37-3.56-7.93-7.93-7.93c-4.37,0-7.93,3.56-7.93,7.93V1683.02z"/>
			</g>
		</g>
		<g>
			<path class="st5" d="M325.92,1458.31c-10.64,0-19.27,8.62-19.27,19.27v56.17h38.53v-56.17
				C345.18,1466.93,336.56,1458.31,325.92,1458.31z"/>
			<g>
				<path class="st6" d="M345.68,1534.25h-39.53v-56.67c0-10.9,8.87-19.77,19.77-19.77c10.9,0,19.76,8.87,19.76,19.77V1534.25z
					 M307.15,1533.25h37.53v-55.67c0-10.35-8.42-18.77-18.76-18.77c-10.35,0-18.77,8.42-18.77,18.77V1533.25z"/>
			</g>
		</g>
		<g>
			<path class="st5" d="M248.72,1605.33c-3.75,0.9-6.79,4.92-6.79,8.97v74.91l13.58-3.3v-74.25
				C255.51,1607.26,252.48,1604.43,248.72,1605.33z"/>
			<g>
				<path class="st6" d="M241.43,1689.85v-75.54c0-4.26,3.22-8.5,7.17-9.46c0.5-0.12,1-0.18,1.49-0.18c3.43,0,5.91,2.94,5.91,6.99
					v74.65L241.43,1689.85z M250.1,1605.67c-0.41,0-0.83,0.05-1.26,0.15c-3.53,0.85-6.41,4.66-6.41,8.48v74.27l12.58-3.06v-73.86
					C255.01,1608.18,252.95,1605.67,250.1,1605.67z"/>
			</g>
		</g>
		<g>
			<path class="st5" d="M254.87,1469.69c-7.14,1.72-12.93,9.37-12.93,17.09v60.63l25.87-6.29v-59.38
				C267.8,1473.36,262.01,1467.97,254.87,1469.69z"/>
			<g>
				<path class="st6" d="M241.43,1548.04v-61.26c0-7.92,5.97-15.8,13.32-17.57c0.92-0.22,1.84-0.33,2.73-0.33
					c6.27,0,10.82,5.41,10.82,12.86v59.77L241.43,1548.04z M257.49,1469.87c-0.82,0-1.66,0.1-2.5,0.31
					c-6.92,1.67-12.55,9.12-12.55,16.6v59.99l24.87-6.05v-58.99C267.3,1474.86,263.17,1469.87,257.49,1469.87z"/>
			</g>
		</g>
		<g>
			<path class="st5" d="M395.79,1469.69c7.14,1.72,12.93,9.37,12.93,17.09v60.63l-25.87-6.29v-59.38
				C382.86,1473.36,388.65,1467.97,395.79,1469.69z"/>
			<g>
				<path class="st6" d="M409.23,1548.04l-26.87-6.54v-59.77c0-7.45,4.55-12.86,10.82-12.86c0.89,0,1.81,0.11,2.73,0.33
					c7.34,1.77,13.32,9.65,13.32,17.57V1548.04z M383.36,1540.72l24.87,6.05v-59.99c0-7.49-5.63-14.93-12.55-16.6
					c-0.84-0.2-1.68-0.31-2.5-0.31c-5.69,0-9.82,4.99-9.82,11.86V1540.72z"/>
			</g>
		</g>
		<g>
			<path class="st5" d="M404.88,1605.33c3.75,0.9,6.79,4.92,6.79,8.97v74.91l-13.58-3.3v-74.25
				C398.09,1607.26,401.13,1604.43,404.88,1605.33z"/>
			<g>
				<path class="st6" d="M412.17,1689.85l-14.58-3.54v-74.65c0-4.05,2.49-6.99,5.92-6.99c0.49,0,0.99,0.06,1.49,0.18
					c3.95,0.95,7.17,5.2,7.17,9.46V1689.85z M398.59,1685.52l12.58,3.06v-74.27c0-3.83-2.87-7.63-6.41-8.48
					c-0.42-0.1-0.85-0.15-1.26-0.15c-2.85,0-4.92,2.52-4.92,5.99V1685.52z"/>
			</g>
		</g>
		<g>
			<path class="st5" d="M394.42,1745.72c-4.65,0-8.43,3.77-8.43,8.43v59.64h16.86v-59.64
				C402.85,1749.49,399.07,1745.72,394.42,1745.72z"/>
			<g>
				<path class="st6" d="M403.35,1814.29h-17.86v-60.14c0-4.92,4-8.93,8.93-8.93c4.92,0,8.93,4.01,8.93,8.93V1814.29z
					 M386.49,1813.29h15.86v-59.14c0-4.37-3.56-7.93-7.93-7.93c-4.37,0-7.93,3.56-7.93,7.93V1813.29z"/>
			</g>
		</g>
		<g>
			<g>
				<path class="st5" d="M231.61,1824.5v-17.05V1824.5z"/>
				<rect x="231.11" y="1807.45" class="st6" width="1" height="17.05"/>
			</g>
			<g>
				<rect x="229.95" y="1807.45" class="st5" width="3.31" height="17.05"/>
				<path class="st6" d="M233.76,1825h-4.31v-18.05h4.31V1825z M230.45,1824h2.31v-16.05h-2.31V1824z"/>
			</g>
		</g>
		<g>
			<g>
				<g>
					<path class="st5" d="M303.75,1757.38v-22.37V1757.38z"/>
					<rect x="303.25" y="1735.01" class="st6" width="1" height="22.37"/>
				</g>
				<g>
					<rect x="303.2" y="1735.01" class="st5" width="1.1" height="22.37"/>
					<path class="st6" d="M304.8,1757.88h-2.1v-23.37h2.1V1757.88z M303.7,1756.88h0.1v-21.37h-0.1V1756.88z"/>
				</g>
			</g>
			<rect x="302.09" y="1735.01" class="st0" width="3.31" height="22.37"/>
		</g>
		<g>
			<path class="st0" d="M350.42,1735.01v38.35V1735.01z"/>
			<g>
				<g>
					<rect x="348.77" y="1735.01" class="st5" width="3.31" height="38.35"/>
					<path class="st6" d="M352.58,1773.85h-4.31v-39.35h4.31V1773.85z M349.27,1772.85h2.31v-37.35h-2.31V1772.85z"/>
				</g>
				<g>
					<path class="st5" d="M352.63,1773.9h-4.41v-39.45h4.41V1773.9z M349.32,1772.8h2.21v-37.25h-2.21V1772.8z"/>
					<path class="st6" d="M353.13,1774.4h-5.41v-40.45h5.41V1774.4z M348.72,1773.4h3.41v-38.45h-3.41V1773.4z M352.03,1773.3h-3.21
						v-38.25h3.21V1773.3z M349.82,1772.3h1.21v-36.25h-1.21V1772.3z"/>
				</g>
			</g>
		</g>
		<g>
			<g>
				<path class="st5" d="M372.95,1824.5v-13.48V1824.5z"/>
				<rect x="372.45" y="1811.02" class="st6" width="1" height="13.48"/>
			</g>
			<g>
				<rect x="371.29" y="1811.02" class="st5" width="3.31" height="13.48"/>
				<path class="st6" d="M375.1,1825h-4.31v-14.48h4.31V1825z M371.79,1824h2.31v-12.48h-2.31V1824z"/>
			</g>
		</g>
		<g>
			<g>
				<path class="st5" d="M423.54,1824.5v-24.7V1824.5z"/>
				<rect x="423.04" y="1799.8" class="st6" width="1" height="24.7"/>
			</g>
			<g>
				<rect x="421.89" y="1799.8" class="st5" width="3.31" height="24.7"/>
				<path class="st6" d="M425.7,1825h-4.31v-25.7h4.31V1825z M422.39,1824h2.31v-23.7h-2.31V1824z"/>
			</g>
		</g>
		<g>
			<g>
				<path class="st5" d="M284.21,1568.18v134.86V1568.18z"/>
				<rect x="283.71" y="1568.18" class="st6" width="1" height="134.86"/>
			</g>
			<g>
				<rect x="282.55" y="1568.18" class="st5" width="3.31" height="134.86"/>
				<path class="st6" d="M286.36,1703.54h-4.31v-135.86h4.31V1703.54z M283.05,1702.54h2.31v-133.86h-2.31V1702.54z"/>
			</g>
		</g>
		<g>
			<g>
				<path class="st5" d="M368.98,1568.54v52.52V1568.54z"/>
				<rect x="368.48" y="1568.54" class="st6" width="1" height="52.52"/>
			</g>
			<g>
				<rect x="367.33" y="1568.54" class="st5" width="3.31" height="52.52"/>
				<path class="st6" d="M371.14,1621.56h-4.31v-53.52h4.31V1621.56z M367.83,1620.56h2.31v-51.52h-2.31V1620.56z"/>
			</g>
		</g>
		<g>
			<g>
				<path class="st5" d="M286.55,1535.5v-109.71V1535.5z"/>
				<rect x="286.05" y="1425.79" class="st6" width="1" height="109.71"/>
			</g>
			<g>
				<rect x="284.9" y="1425.79" class="st5" width="3.31" height="109.71"/>
				<path class="st6" d="M288.71,1536h-4.31v-110.71h4.31V1536z M285.4,1535h2.31v-108.71h-2.31V1535z"/>
			</g>
		</g>
		<g>
			<g>
				<path class="st5" d="M367.29,1539.78v-111.32V1539.78z"/>
				<rect x="366.79" y="1428.45" class="st6" width="1" height="111.32"/>
			</g>
			<g>
				<rect x="365.63" y="1428.45" class="st5" width="3.31" height="111.32"/>
				<path class="st6" d="M369.44,1540.28h-4.31v-112.32h4.31V1540.28z M366.13,1539.28h2.31v-110.32h-2.31V1539.28z"/>
			</g>
		</g>
		<path class="st2" d="M290.8,1425h35.12h35.12l60.9,19.2c0.02-0.84,0.06-1.67,0.06-2.51c0-52.55-43.02-95.14-96.08-95.14
			c-53.06,0-96.08,42.6-96.08,95.14c0,0.84,0.04,1.67,0.06,2.51L290.8,1425z"/>
		<g>
			<polygon class="st0" points="421.2,1436.21 361.04,1415.83 286.82,1414.7 230.81,1434.2 229.72,1431.08 286.29,1411.38 
				361.61,1412.53 361.85,1412.61 422.27,1433.08 			"/>
		</g>
		<g>
			<path class="st0" d="M324.17,1346.55v-62.97V1346.55z"/>
			<rect x="322.67" y="1283.58" class="st0" width="3" height="62.97"/>
		</g>
		<g>
			<g>
				<path class="st5" d="M301.78,2205.33v-180.86V2205.33z"/>
				<rect x="301.28" y="2024.48" class="st6" width="1" height="180.86"/>
			</g>
			<g>
				<rect x="300.12" y="2024.48" class="st5" width="3.31" height="180.86"/>
				<path class="st6" d="M303.93,2205.83h-4.31v-181.86h4.31V2205.83z M300.62,2204.83h2.31v-179.86h-2.31V2204.83z"/>
			</g>
		</g>
		<g>
			<g>
				<path class="st5" d="M355.76,2205.33v-180.86V2205.33z"/>
				<rect x="355.26" y="2024.48" class="st6" width="1" height="180.86"/>
			</g>
			<g>
				<rect x="354.1" y="2024.48" class="st5" width="3.31" height="180.86"/>
				<path class="st6" d="M357.91,2205.83h-4.31v-181.86h4.31V2205.83z M354.6,2204.83h2.31v-179.86h-2.31V2204.83z"/>
			</g>
		</g>
		<g>
			<g>
				<path class="st5" d="M301.78,2184.66h53.98H301.78z"/>
				<rect x="301.78" y="2184.16" class="st6" width="53.98" height="1"/>
			</g>
			<g>
				<rect x="301.78" y="2183.01" class="st5" width="53.98" height="3.31"/>
				<path class="st6" d="M356.26,2186.82h-54.98v-4.31h54.98V2186.82z M302.28,2185.82h52.98v-2.31h-52.98V2185.82z"/>
			</g>
		</g>
		<g>
			<g>
				<path class="st5" d="M301.78,2160.83h53.98H301.78z"/>
				<rect x="301.78" y="2160.33" class="st6" width="53.98" height="1"/>
			</g>
			<g>
				<rect x="301.78" y="2159.18" class="st5" width="53.98" height="3.31"/>
				<path class="st6" d="M356.26,2162.99h-54.98v-4.31h54.98V2162.99z M302.28,2161.99h52.98v-2.31h-52.98V2161.99z"/>
			</g>
		</g>
		<g>
			<g>
				<path class="st5" d="M301.78,2137h53.98H301.78z"/>
				<rect x="301.78" y="2136.5" class="st6" width="53.98" height="1"/>
			</g>
			<g>
				<rect x="301.78" y="2135.34" class="st5" width="53.98" height="3.31"/>
				<path class="st6" d="M356.26,2139.15h-54.98v-4.31h54.98V2139.15z M302.28,2138.15h52.98v-2.31h-52.98V2138.15z"/>
			</g>
		</g>
		<g>
			<g>
				<path class="st5" d="M301.78,2113.17h53.98H301.78z"/>
				<rect x="301.78" y="2112.67" class="st6" width="53.98" height="1"/>
			</g>
			<g>
				<rect x="301.78" y="2111.51" class="st5" width="53.98" height="3.31"/>
				<path class="st6" d="M356.26,2115.32h-54.98v-4.31h54.98V2115.32z M302.28,2114.32h52.98v-2.31h-52.98V2114.32z"/>
			</g>
		</g>
		<g>
			<g>
				<path class="st5" d="M301.78,2089.34h53.98H301.78z"/>
				<rect x="301.78" y="2088.84" class="st6" width="53.98" height="1"/>
			</g>
			<g>
				<rect x="301.78" y="2087.68" class="st5" width="53.98" height="3.31"/>
				<path class="st6" d="M356.26,2091.49h-54.98v-4.31h54.98V2091.49z M302.28,2090.49h52.98v-2.31h-52.98V2090.49z"/>
			</g>
		</g>
		<g>
			<g>
				<path class="st5" d="M301.78,2065.5h53.98H301.78z"/>
				<rect x="301.78" y="2065" class="st6" width="53.98" height="1"/>
			</g>
			<g>
				<rect x="301.78" y="2063.85" class="st5" width="53.98" height="3.31"/>
				<path class="st6" d="M356.26,2067.66h-54.98v-4.31h54.98V2067.66z M302.28,2066.66h52.98v-2.31h-52.98V2066.66z"/>
			</g>
		</g>
		<g>
			<rect x="444.99" y="1860.15" class="st2" width="364.72" height="50.08"/>
			<rect x="444.99" y="1910.23" class="st7" width="364.72" height="295.1"/>
		</g>
	</g>
	<g>
		<path class="st0" d="M303.75,1308.67h41.43H303.75z"/>
		<rect x="303.75" y="1307.17" class="st0" width="41.43" height="3"/>
	</g>
</g>
<g>
	<rect x="1525.31" y="1645.02" class="st0" width="921.88" height="17.36"/>
	<rect x="1525.31" y="1714.57" class="st0" width="921.88" height="17.36"/>
	<rect x="1525.31" y="1881.6" class="st8" width="921.88" height="21.28"/>
	<rect x="1525.31" y="1662.38" class="st9" width="921.88" height="52.2"/>
	<path class="st9" d="M1610.16,1731.93h-25.38c-3.5,0-6.35,2.84-6.35,6.35c0,3.5,2.84,6.34,6.35,6.34c0.88,0,1.72-0.18,2.49-0.5
		v137.43h10.2h10.2v-137.43c0.77,0.33,1.6,0.5,2.49,0.5c3.5,0,6.34-2.84,6.34-6.34C1616.5,1734.77,1613.66,1731.93,1610.16,1731.93z
		"/>
	<path class="st9" d="M1630.31,1271.47h-33.46c-4.62,0-8.36,3.75-8.36,8.37c0,4.62,3.75,8.36,8.36,8.36c1.16,0,2.27-0.24,3.28-0.67
		v258.63h13.45h13.45v-258.63c1,0.43,2.11,0.67,3.28,0.67c4.62,0,8.36-3.75,8.36-8.36
		C1638.68,1275.22,1634.93,1271.47,1630.31,1271.47z"/>
	<path class="st9" d="M1922.45,1731.93h-25.38c-3.5,0-6.34,2.84-6.34,6.35c0,3.5,2.84,6.34,6.34,6.34c0.88,0,1.72-0.18,2.49-0.5
		v137.43h10.21h10.21v-137.43c0.76,0.33,1.6,0.5,2.48,0.5c3.51,0,6.35-2.84,6.35-6.34
		C1928.8,1734.77,1925.96,1731.93,1922.45,1731.93z"/>
	<path class="st9" d="M2007.25,1731.93h-25.38c-3.5,0-6.35,2.84-6.35,6.35c0,3.5,2.84,6.34,6.35,6.34c0.88,0,1.72-0.18,2.49-0.5
		v137.43h10.2h10.2v-137.43c0.76,0.33,1.6,0.5,2.49,0.5c3.5,0,6.34-2.84,6.34-6.34C2013.59,1734.77,2010.75,1731.93,2007.25,1731.93
		z"/>
	<path class="st9" d="M2086.53,1731.93h-25.38c-3.51,0-6.35,2.84-6.35,6.35c0,3.5,2.84,6.34,6.35,6.34c0.88,0,1.72-0.18,2.49-0.5
		v137.43h10.2h10.2v-137.43c0.76,0.33,1.6,0.5,2.49,0.5c3.5,0,6.34-2.84,6.34-6.34C2092.87,1734.77,2090.03,1731.93,2086.53,1731.93
		z"/>
	<path class="st9" d="M2168.56,1731.93h-25.38c-3.5,0-6.34,2.84-6.34,6.35c0,3.5,2.84,6.34,6.34,6.34c0.88,0,1.72-0.18,2.49-0.5
		v137.43h10.2h10.2v-137.43c0.76,0.33,1.6,0.5,2.48,0.5c3.51,0,6.35-2.84,6.35-6.34
		C2174.91,1734.77,2172.07,1731.93,2168.56,1731.93z"/>
	<path class="st9" d="M2314.03,1731.93h-25.38c-3.5,0-6.34,2.84-6.34,6.35c0,3.5,2.84,6.34,6.34,6.34c0.88,0,1.72-0.18,2.49-0.5
		v137.43h10.2h10.2v-137.43c0.76,0.33,1.6,0.5,2.49,0.5c3.5,0,6.34-2.84,6.34-6.34C2320.37,1734.77,2317.53,1731.93,2314.03,1731.93
		z"/>
	<path class="st9" d="M2398.83,1731.93h-25.38c-3.5,0-6.35,2.84-6.35,6.35c0,3.5,2.84,6.34,6.35,6.34c0.88,0,1.72-0.18,2.49-0.5
		v137.43h10.2h10.21v-137.43c0.76,0.33,1.6,0.5,2.49,0.5c3.5,0,6.34-2.84,6.34-6.34
		C2405.17,1734.77,2402.33,1731.93,2398.83,1731.93z"/>
	<rect x="1730.05" y="1731.93" class="st10" width="88.68" height="149.61"/>
	<rect x="2192.84" y="1731.93" class="st10" width="67.78" height="149.61"/>
	<rect x="1591.58" y="1546.17" class="st10" width="44.02" height="8.68"/>
	<rect x="1584.21" y="1598.98" class="st10" width="58.76" height="8.68"/>
	<path class="st9" d="M1631.81,1554.85h-18.04h-0.36h-18.04c0,25.87-6.09,44.13-6.09,44.13h24.13h0.36h24.13
		C1637.9,1598.98,1631.81,1580.72,1631.81,1554.85z"/>
	<path class="st9" d="M1738.79,1271.47h-33.46c-4.62,0-8.36,3.75-8.36,8.37c0,4.62,3.74,8.36,8.36,8.36c1.16,0,2.27-0.24,3.28-0.67
		v258.63h13.45h13.45v-258.63c1.01,0.43,2.11,0.67,3.28,0.67c4.62,0,8.36-3.75,8.36-8.36
		C1747.15,1275.22,1743.41,1271.47,1738.79,1271.47z"/>
	<rect x="1700.05" y="1546.17" class="st10" width="44.02" height="8.68"/>
	<rect x="1692.68" y="1598.98" class="st10" width="58.76" height="8.68"/>
	<path class="st9" d="M1740.28,1554.85h-18.05h-0.36h-18.04c0,25.87-6.09,44.13-6.09,44.13h24.13h0.36h24.13
		C1746.37,1598.98,1740.28,1580.72,1740.28,1554.85z"/>
	<path class="st9" d="M2046.85,1271.47h-33.46c-4.62,0-8.36,3.75-8.36,8.37c0,4.62,3.74,8.36,8.36,8.36c1.17,0,2.27-0.24,3.28-0.67
		v258.63h13.45h13.45v-258.63c1.01,0.43,2.11,0.67,3.28,0.67c4.62,0,8.36-3.75,8.36-8.36
		C2055.22,1275.22,2051.47,1271.47,2046.85,1271.47z"/>
	<rect x="2008.11" y="1546.17" class="st10" width="44.02" height="8.68"/>
	<rect x="2000.75" y="1598.98" class="st10" width="58.76" height="8.68"/>
	<path class="st9" d="M2048.35,1554.85h-18.05h-0.36h-18.04c0,25.87-6.09,44.13-6.09,44.13h24.13h0.36h24.13
		C2054.44,1598.98,2048.35,1580.72,2048.35,1554.85z"/>
	<path class="st9" d="M2162.26,1271.47h-33.46c-4.62,0-8.36,3.75-8.36,8.37c0,4.62,3.75,8.36,8.36,8.36c1.16,0,2.27-0.24,3.28-0.67
		v258.63h13.45h13.45v-258.63c1,0.43,2.11,0.67,3.28,0.67c4.62,0,8.36-3.75,8.36-8.36
		C2170.62,1275.22,2166.88,1271.47,2162.26,1271.47z"/>
	<rect x="2123.52" y="1546.17" class="st10" width="44.02" height="8.68"/>
	<rect x="2116.15" y="1598.98" class="st10" width="58.76" height="8.68"/>
	<path class="st9" d="M2163.76,1554.85h-18.05h-0.36h-18.05c0,25.87-6.09,44.13-6.09,44.13h24.13h0.36h24.13
		C2169.84,1598.98,2163.76,1580.72,2163.76,1554.85z"/>
	<path class="st9" d="M2272.83,1271.47h-33.46c-4.62,0-8.36,3.75-8.36,8.37c0,4.62,3.74,8.36,8.36,8.36c1.17,0,2.27-0.24,3.28-0.67
		v258.63h13.45h13.45v-258.63c1.01,0.43,2.11,0.67,3.28,0.67c4.62,0,8.36-3.75,8.36-8.36
		C2281.2,1275.22,2277.45,1271.47,2272.83,1271.47z"/>
	<rect x="2234.1" y="1546.17" class="st10" width="44.02" height="8.68"/>
	<rect x="2226.73" y="1598.98" class="st10" width="58.76" height="8.68"/>
	<path class="st9" d="M2274.33,1554.85h-18.04h-0.36h-18.05c0,25.87-6.09,44.13-6.09,44.13h24.14h0.36h24.13
		C2280.42,1598.98,2274.33,1580.72,2274.33,1554.85z"/>
	<rect x="1525.31" y="1607.66" class="st9" width="767.04" height="37.36"/>
	<rect x="1866.11" y="1437.78" class="st0" width="86.69" height="169.88"/>
	<rect x="1585.68" y="1224.09" class="st0" width="167.57" height="47.39"/>
	<rect x="1989.37" y="1224.09" class="st0" width="300.41" height="47.39"/>
	<path class="st9" d="M2046.85,887.9h-33.46c-4.62,0-8.36,3.74-8.36,8.36c0,4.62,3.74,8.36,8.36,8.36c1.17,0,2.27-0.24,3.28-0.67
		v258.63h13.45h13.45V903.96c1.01,0.43,2.11,0.67,3.28,0.67c4.62,0,8.36-3.75,8.36-8.36C2055.22,891.64,2051.47,887.9,2046.85,887.9
		z"/>
	<rect x="2008.11" y="1162.59" class="st10" width="44.02" height="8.68"/>
	<rect x="2000.75" y="1215.41" class="st10" width="58.76" height="8.68"/>
	<path class="st9" d="M2048.35,1171.27h-18.05h-0.36h-18.04c0,25.87-6.09,44.13-6.09,44.13h24.13h0.36h24.13
		C2054.44,1215.41,2048.35,1197.14,2048.35,1171.27z"/>
	<path class="st9" d="M2162.26,887.9h-33.46c-4.62,0-8.36,3.74-8.36,8.36c0,4.62,3.75,8.36,8.36,8.36c1.16,0,2.27-0.24,3.28-0.67
		v258.63h13.45h13.45V903.96c1,0.43,2.11,0.67,3.28,0.67c4.62,0,8.36-3.75,8.36-8.36C2170.62,891.64,2166.88,887.9,2162.26,887.9z"
		/>
	<rect x="2123.52" y="1162.59" class="st10" width="44.02" height="8.68"/>
	<rect x="2116.15" y="1215.41" class="st10" width="58.76" height="8.68"/>
	<path class="st9" d="M2163.76,1171.27h-18.05h-0.36h-18.05c0,25.87-6.09,44.13-6.09,44.13h24.13h0.36h24.13
		C2169.84,1215.41,2163.76,1197.14,2163.76,1171.27z"/>
	<path class="st9" d="M2272.83,887.9h-33.46c-4.62,0-8.36,3.74-8.36,8.36c0,4.62,3.74,8.36,8.36,8.36c1.17,0,2.27-0.24,3.28-0.67
		v258.63h13.45h13.45V903.96c1.01,0.43,2.11,0.67,3.28,0.67c4.62,0,8.36-3.75,8.36-8.36C2281.2,891.64,2277.45,887.9,2272.83,887.9z
		"/>
	<rect x="2234.1" y="1162.59" class="st10" width="44.02" height="8.68"/>
	<rect x="2226.73" y="1215.41" class="st10" width="58.76" height="8.68"/>
	<path class="st9" d="M2274.33,1171.27h-18.04h-0.36h-18.05c0,25.87-6.09,44.13-6.09,44.13h24.14h0.36h24.13
		C2280.42,1215.41,2274.33,1197.14,2274.33,1171.27z"/>
	<rect x="2005.03" y="840.51" class="st0" width="284.75" height="47.39"/>
</g>
<g>
	<rect x="3349.74" y="1360.72" class="st9" width="75" height="89.53"/>
	<rect x="3283.13" y="1247.15" class="st9" width="205.97" height="12.35"/>
	<rect x="3283.13" y="1348.37" class="st8" width="205.97" height="12.35"/>
	<rect x="3295.49" y="1450.25" class="st5" width="181.24" height="12.35"/>
	<rect x="3311.17" y="1462.6" class="st10" width="49.96" height="278.93"/>
	<rect x="3361.13" y="1462.6" class="st11" width="49.96" height="278.93"/>
	<rect x="3411.09" y="1462.6" class="st10" width="49.96" height="278.93"/>
	<g>
		<g>
			<path class="st12" d="M3386.11,1246.82V1059.5V1246.82z"/>
		</g>
		<g>
			<rect x="3385.02" y="1059.5" class="st12" width="2.19" height="187.32"/>
		</g>
	</g>
	<g>
		<path class="st13" d="M3304.53,1259.5v88.87V1259.5z"/>
		<rect x="3302.89" y="1259.5" class="st13" width="3.28" height="88.87"/>
	</g>
	<g>
		<path class="st13" d="M3359.56,1259.5v88.87V1259.5z"/>
		<rect x="3357.92" y="1259.5" class="st13" width="3.28" height="88.87"/>
	</g>
	<g>
		<path class="st13" d="M3414.6,1348.37v-88.87V1348.37z"/>
		<rect x="3412.96" y="1259.5" class="st13" width="3.28" height="88.87"/>
	</g>
	<g>
		<path class="st13" d="M3469.64,1259.5v88.87V1259.5z"/>
		<rect x="3468" y="1259.5" class="st13" width="3.28" height="88.87"/>
	</g>
	<path class="st13" d="M3414.59,1274.72c0,0,2.6,4.71,9.04,1.52c6.45-3.18,11.78-10.55,18.45-10.55c6.67,0,12,7.36,18.45,10.55
		c6.45,3.18,9.04-1.52,9.04-1.52v-15.23h-54.98V1274.72z"/>
	<path class="st13" d="M3359.56,1274.72c0,0,2.6,4.71,9.04,1.52c6.45-3.18,11.78-10.55,18.45-10.55c6.67,0,12,7.36,18.45,10.55
		c6.45,3.18,9.04-1.52,9.04-1.52v-15.23h-54.98V1274.72z"/>
	<path class="st13" d="M3304.53,1274.72c0,0,2.59,4.71,9.04,1.52c6.45-3.18,11.78-10.55,18.45-10.55c6.67,0,12,7.36,18.45,10.55
		c6.45,3.18,9.04-1.52,9.04-1.52v-15.23h-54.98V1274.72z"/>
	<rect x="3297.69" y="1360.72" class="st14" width="52.05" height="89.53"/>
	<rect x="3424.68" y="1360.72" class="st14" width="52.05" height="89.53"/>
	<rect x="3314.12" y="1374.33" class="st5" width="15.87" height="36.2"/>
	<rect x="3440.81" y="1374.33" class="st5" width="15.87" height="36.2"/>
	<path class="st5" d="M3366.19,1500.27v-7.79c0-11,8.92-19.92,19.93-19.92c11,0,19.92,8.92,19.92,19.92v7.79h5.06v-37.67h-49.96
		v37.67H3366.19z"/>
	<path class="st5" d="M3316.23,1500.27v-7.79c0-11,8.92-19.92,19.93-19.92c11,0,19.92,8.92,19.92,19.92v7.79h5.06v-37.67h-49.96
		v37.67H3316.23z"/>
	<path class="st5" d="M3416.15,1500.27v-7.79c0-11,8.92-19.92,19.93-19.92s19.92,8.92,19.92,19.92v7.79h5.06v-37.67h-49.96v37.67
		H3416.15z"/>
	<rect x="3291.5" y="1741.53" class="st15" width="189.23" height="113.35"/>
	<rect x="3362.56" y="1791.08" class="st5" width="47.1" height="63.79"/>
	<polygon class="st14" points="3429.72,1222.97 3386.11,1122.66 3342.5,1222.97 3288.83,1247.15 3339.52,1247.15 3386.11,1247.15 
		3483.4,1247.15 	"/>
</g>
<polygon class="st0" points="490.1,2204.38 1473.71,1902.96 2310.18,1902.96 2863.07,2204.38 478.79,2205.33 "/>
<g>
	<polygon class="st16" points="482.57,2205.33 1628.54,2084.25 1628.54,1787.53 482.57,1787.53 	"/>
	<rect x="871.98" y="1919.2" class="st8" width="142.21" height="190.32"/>
	<polygon class="st9" points="482.57,1787.07 685.47,1787.07 685.47,1753.87 	"/>
	<rect x="1301.74" y="1744.8" class="st17" width="278.57" height="42.73"/>
	<path class="st9" d="M1542.16,1713.21c-37.98,0-101.15,0-101.15,0s-63.16,0-101.14,0c-37.98,0-45.18,31.58-45.18,31.58h146.32
		h146.32C1587.34,1744.8,1580.14,1713.21,1542.16,1713.21z"/>
	<rect x="993.6" y="1744.8" class="st17" width="278.56" height="42.73"/>
	<path class="st9" d="M1234.03,1713.21c-37.98,0-101.14,0-101.14,0s-63.17,0-101.15,0c-37.98,0-45.18,31.58-45.18,31.58h146.32
		h146.32C1279.21,1744.8,1272.01,1713.21,1234.03,1713.21z"/>
	<rect x="685.47" y="1744.8" class="st17" width="278.56" height="42.73"/>
	<path class="st9" d="M925.9,1713.21c-37.98,0-101.14,0-101.14,0s-63.17,0-101.15,0c-37.98,0-45.18,31.58-45.18,31.58h146.32h146.32
		C971.07,1744.8,963.88,1713.21,925.9,1713.21z"/>
	<rect x="737.14" y="1475.06" class="st10" width="75.39" height="238.16"/>
	<rect x="745.8" y="1286.36" class="st10" width="58.07" height="106.7"/>
	<rect x="733.05" y="1462.27" class="st18" width="83.56" height="12.79"/>
	<rect x="729.2" y="1449.48" class="st10" width="91.27" height="12.79"/>
	<rect x="726.03" y="1436.69" class="st18" width="97.61" height="12.79"/>
	<rect x="721.68" y="1393.06" class="st1" width="106.32" height="43.63"/>
	<polygon class="st1" points="774.84,1141.84 745.8,1286.36 774.84,1286.36 774.84,1286.36 803.87,1286.36 	"/>
	<path class="st3" d="M1190.01,1807.77c0,0-17.83,4.36-17.83,22.39v41.9h17.83h17.83v-41.9
		C1207.84,1812.13,1190.01,1807.77,1190.01,1807.77z"/>
	<path class="st9" d="M943.09,1967.15c0,0-39.49,9.66-39.49,49.57v92.8h39.49h39.48v-92.8
		C982.58,1976.81,943.09,1967.15,943.09,1967.15z"/>
	<path class="st3" d="M943.09,1807.77c0,0-17.83,4.36-17.83,22.39v47.91h17.83h17.83v-47.91
		C960.92,1812.13,943.09,1807.77,943.09,1807.77z"/>
	<rect x="1143.26" y="1954.6" class="st3" width="43.82" height="87.24"/>
	<path class="st0" d="M1165.16,1935.7c-10.44,0-18.91,8.47-18.91,18.91h37.82C1184.07,1944.16,1175.61,1935.7,1165.16,1935.7z"/>
	<path class="st3" d="M1448.72,1807.77c0,0-17.83,4.36-17.83,22.39v41.9h17.83h17.83v-41.9
		C1466.55,1812.13,1448.72,1807.77,1448.72,1807.77z"/>
	<rect x="1401.97" y="1954.6" class="st3" width="43.82" height="87.24"/>
	<path class="st0" d="M1423.88,1935.7c-10.44,0-18.91,8.47-18.91,18.91h37.82C1442.78,1944.16,1434.32,1935.7,1423.88,1935.7z"/>
	<polygon class="st9" points="965.51,1878.07 943.09,1878.07 920.68,1878.07 830.23,1908.05 830.23,1919.2 943.09,1919.2 
		1055.96,1919.2 1055.96,1908.05 	"/>
	<rect x="917.06" y="2027.29" class="st5" width="52.07" height="82.23"/>
	<path class="st3" d="M789.53,1366.37c0-8.11-6.58-14.7-14.7-14.7c-8.12,0-14.7,6.58-14.7,14.7v0l0,0v26.69h29.4V1366.37
		L789.53,1366.37L789.53,1366.37z"/>
	<g>
		<path class="st3" d="M735.63,1286.36h78.4H735.63z"/>
		<rect x="735.63" y="1284.47" class="st3" width="78.4" height="3.77"/>
	</g>
	<polygon class="st9" points="763.96,2175.6 871.98,2109.52 1014.2,2109.52 1064.4,2142.56 	"/>
	<g>
		<g>
			<polygon class="st19" points="482.57,1844.7 515.39,1844.7 539.08,1844.7 			"/>
			<rect x="482.57" y="1842.81" class="st19" width="56.5" height="3.77"/>
		</g>
		<g>
			<path class="st19" d="M514.36,1871.08v-26.38V1871.08z"/>
			<rect x="512.47" y="1844.7" class="st19" width="3.77" height="26.38"/>
		</g>
		<g>
			<path class="st19" d="M556.11,1863.6v-18.9V1863.6z"/>
			<rect x="554.22" y="1844.7" class="st19" width="3.77" height="18.9"/>
		</g>
		<g>
			<path class="st19" d="M594.75,1863.6v-18.9V1863.6z"/>
			<rect x="592.86" y="1844.7" class="st19" width="3.77" height="18.9"/>
		</g>
		<g>
			<path class="st19" d="M633.38,1863.6v-18.9V1863.6z"/>
			<rect x="631.5" y="1844.7" class="st19" width="3.77" height="18.9"/>
		</g>
		<g>
			<path class="st19" d="M514.36,1863.6H663.3H514.36z"/>
			<rect x="514.36" y="1861.71" class="st19" width="148.94" height="3.77"/>
		</g>
	</g>
	<g>
		<g>
			<path class="st19" d="M523.91,1993.78v-18.9V1993.78z"/>
			<rect x="522.03" y="1974.88" class="st19" width="3.77" height="18.9"/>
		</g>
		<g>
			<path class="st19" d="M562.55,1993.78v-18.9V1993.78z"/>
			<rect x="560.66" y="1974.88" class="st19" width="3.77" height="18.9"/>
		</g>
		<g>
			<path class="st19" d="M601.18,1993.78v-18.9V1993.78z"/>
			<rect x="599.3" y="1974.88" class="st19" width="3.77" height="18.9"/>
		</g>
		<g>
			<path class="st19" d="M482.16,1993.78H631.1H482.16z"/>
			<rect x="482.16" y="1991.9" class="st19" width="148.94" height="3.77"/>
		</g>
		<g>
			<path class="st19" d="M546.55,1974.88H695.5H546.55z"/>
			<rect x="546.55" y="1972.99" class="st19" width="148.94" height="3.77"/>
		</g>
	</g>
	<g>
		<g>
			<path class="st19" d="M523.91,2092.23v-18.9V2092.23z"/>
			<rect x="522.03" y="2073.33" class="st19" width="3.77" height="18.9"/>
		</g>
		<g>
			<path class="st19" d="M562.55,2092.23v-18.9V2092.23z"/>
			<rect x="560.66" y="2073.33" class="st19" width="3.77" height="18.9"/>
		</g>
		<g>
			<path class="st19" d="M601.18,2092.23v-18.9V2092.23z"/>
			<rect x="599.3" y="2073.33" class="st19" width="3.77" height="18.9"/>
		</g>
		<g>
			<path class="st19" d="M482.16,2092.23H631.1H482.16z"/>
			<rect x="482.16" y="2090.34" class="st19" width="148.94" height="3.77"/>
		</g>
		<g>
			<path class="st19" d="M546.55,2073.33h97.24H546.55z"/>
			<rect x="546.55" y="2071.44" class="st19" width="97.24" height="3.77"/>
		</g>
	</g>
	<g>
		<g>
			<path class="st19" d="M1508.31,1898.64v18.9V1898.64z"/>
			<rect x="1506.42" y="1898.64" class="st19" width="3.77" height="18.9"/>
		</g>
		<g>
			<path class="st19" d="M1546.94,1898.64v18.9V1898.64z"/>
			<rect x="1545.06" y="1898.64" class="st19" width="3.77" height="18.9"/>
		</g>
		<g>
			<path class="st19" d="M1585.58,1898.64v18.9V1898.64z"/>
			<rect x="1583.7" y="1898.64" class="st19" width="3.77" height="18.9"/>
		</g>
		<g>
			<path class="st19" d="M1466.55,1898.64h148.94H1466.55z"/>
			<rect x="1466.55" y="1896.75" class="st19" width="148.94" height="3.77"/>
		</g>
		<g>
			<path class="st19" d="M1530.95,1917.54h97.24H1530.95z"/>
			<rect x="1530.95" y="1915.66" class="st19" width="97.24" height="3.77"/>
		</g>
	</g>
	<g>
		<g>
			<path class="st19" d="M1546.94,2000.2v18.9V2000.2z"/>
			<rect x="1545.06" y="2000.2" class="st19" width="3.77" height="18.9"/>
		</g>
		<g>
			<path class="st19" d="M1585.58,2000.2v18.9V2000.2z"/>
			<rect x="1583.7" y="2000.2" class="st19" width="3.77" height="18.9"/>
		</g>
		<g>
			<path class="st19" d="M1504.63,2000.2h110.87H1504.63z"/>
			<rect x="1504.63" y="1998.32" class="st19" width="110.87" height="3.77"/>
		</g>
		<g>
			<path class="st19" d="M1530.95,2019.11h97.24H1530.95z"/>
			<rect x="1530.95" y="2017.22" class="st19" width="97.24" height="3.77"/>
		</g>
	</g>
</g>
<polygon class="st10" points="1549.5,2205.01 2179.52,1988.67 3212.9,1988.67 3303.73,2205.33 "/>
<polygon class="st20" points="3963.23,2204.38 3470,1854.88 3290.15,1854.88 3054.15,2205.33 "/>
<g>
	<polygon class="st0" points="4045.41,1873.86 4045.41,2151.76 4356.47,2151.76 4356.47,2204.1 4454.48,2204.1 4454.48,1873.86 	"/>
	<rect x="3437.6" y="1873.86" class="st0" width="482.8" height="330.24"/>
	<polygon class="st7" points="4045.41,2204.1 3920.4,2204.1 3920.4,1606.73 4045.41,1606.73 4045.41,1699.59 	"/>
	<g>
		<rect x="3959.5" y="1511.88" class="st21" width="17.44" height="94.85"/>
		<rect x="3988.87" y="1511.88" class="st21" width="17.44" height="94.85"/>
	</g>
	<polygon class="st21" points="4045.41,1690.28 4056.57,1690.28 4067.42,1606.73 4045.41,1606.73 	"/>
	<polygon class="st21" points="3920.4,1690.28 3909.24,1690.28 3898.39,1606.73 3920.4,1606.73 	"/>
	<g>
		<path class="st5" d="M3952.28,1606.73v83.55V1606.73z"/>
		<rect x="3950.6" y="1606.73" class="st5" width="3.37" height="83.55"/>
	</g>
	<g>
		<path class="st5" d="M3972.7,1606.73v83.55V1606.73z"/>
		<rect x="3971.01" y="1606.73" class="st5" width="3.37" height="83.55"/>
	</g>
	<g>
		<path class="st5" d="M3993.11,1606.73v83.55V1606.73z"/>
		<rect x="3991.43" y="1606.73" class="st5" width="3.37" height="83.55"/>
	</g>
	<g>
		<path class="st5" d="M4013.53,1606.73v83.55V1606.73z"/>
		<rect x="4011.84" y="1606.73" class="st5" width="3.37" height="83.55"/>
	</g>
	<g>
		<rect x="3937.59" y="1709.66" class="st5" width="17.15" height="15.18"/>
		<rect x="3974.62" y="1709.66" class="st5" width="17.15" height="15.18"/>
		<rect x="4011.65" y="1709.66" class="st5" width="17.16" height="15.18"/>
	</g>
	<g>
		<rect x="3937.59" y="1742.5" class="st5" width="17.15" height="15.18"/>
		<rect x="3974.62" y="1742.5" class="st5" width="17.15" height="15.18"/>
		<rect x="4011.65" y="1742.5" class="st5" width="17.16" height="15.18"/>
	</g>
	<g>
		<rect x="3937.59" y="1775.34" class="st5" width="17.15" height="15.18"/>
		<rect x="3974.62" y="1775.34" class="st5" width="17.15" height="15.18"/>
		<rect x="4011.65" y="1775.34" class="st5" width="17.16" height="15.18"/>
	</g>
	<g>
		<rect x="3937.59" y="1808.18" class="st5" width="17.15" height="15.18"/>
		<rect x="3974.62" y="1808.18" class="st5" width="17.15" height="15.18"/>
		<rect x="4011.65" y="1808.18" class="st5" width="17.16" height="15.18"/>
	</g>
	<g>
		<rect x="3937.59" y="1841.02" class="st5" width="17.15" height="15.18"/>
		<rect x="3974.62" y="1841.02" class="st5" width="17.15" height="15.18"/>
		<rect x="4011.65" y="1841.02" class="st5" width="17.16" height="15.18"/>
	</g>
	<g>
		<rect x="3937.59" y="1873.86" class="st5" width="17.15" height="15.18"/>
		<rect x="3974.62" y="1873.86" class="st5" width="17.15" height="15.18"/>
		<rect x="4011.65" y="1873.86" class="st5" width="17.16" height="15.18"/>
	</g>
	<g>
		<rect x="3937.59" y="1906.7" class="st5" width="17.15" height="15.18"/>
		<rect x="3974.62" y="1906.7" class="st5" width="17.15" height="15.18"/>
		<rect x="4011.65" y="1906.7" class="st5" width="17.16" height="15.18"/>
	</g>
	<g>
		<rect x="3937.59" y="1939.54" class="st5" width="17.15" height="15.18"/>
		<rect x="3974.62" y="1939.54" class="st5" width="17.15" height="15.18"/>
		<rect x="4011.65" y="1939.54" class="st5" width="17.16" height="15.18"/>
	</g>
	<g>
		<rect x="3937.59" y="1972.38" class="st5" width="17.15" height="15.18"/>
		<rect x="3974.62" y="1972.38" class="st5" width="17.15" height="15.18"/>
		<rect x="4011.65" y="1972.38" class="st5" width="17.16" height="15.18"/>
	</g>
	<g>
		<rect x="3937.59" y="2005.22" class="st5" width="17.15" height="15.18"/>
		<rect x="3974.62" y="2005.22" class="st5" width="17.15" height="15.18"/>
		<rect x="4011.65" y="2005.22" class="st5" width="17.16" height="15.18"/>
	</g>
	<g>
		<rect x="3937.59" y="2038.06" class="st5" width="17.15" height="15.18"/>
		<rect x="3974.62" y="2038.06" class="st5" width="17.15" height="15.18"/>
		<rect x="4011.65" y="2038.06" class="st5" width="17.16" height="15.18"/>
	</g>
	<g>
		<rect x="3937.59" y="2070.9" class="st5" width="17.15" height="15.18"/>
		<rect x="3974.62" y="2070.9" class="st5" width="17.15" height="15.18"/>
		<rect x="4011.65" y="2070.9" class="st5" width="17.16" height="15.18"/>
	</g>
	<g>
		<rect x="3937.59" y="2103.73" class="st5" width="17.15" height="15.18"/>
		<rect x="3974.62" y="2103.73" class="st5" width="17.15" height="15.18"/>
		<rect x="4011.65" y="2103.73" class="st5" width="17.16" height="15.18"/>
	</g>
	<g>
		<rect x="3937.59" y="2136.57" class="st5" width="17.15" height="15.18"/>
		<rect x="3974.62" y="2136.57" class="st5" width="17.15" height="15.18"/>
		<rect x="4011.65" y="2136.57" class="st5" width="17.16" height="15.18"/>
	</g>
	<polygon class="st21" points="4454.48,1873.86 4045.41,1873.86 4045.41,1822.44 4406.42,1822.44 	"/>
	<rect x="4067.42" y="1873.86" class="st5" width="16.16" height="33.93"/>
	<rect x="4092.87" y="1873.86" class="st5" width="16.16" height="33.93"/>
	<g>
		<rect x="3856.78" y="1873.86" class="st5" width="16.16" height="33.93"/>
		<rect x="3882.23" y="1873.86" class="st5" width="16.16" height="33.93"/>
	</g>
	<g>
		<rect x="3792.61" y="1873.86" class="st5" width="16.16" height="33.93"/>
		<rect x="3818.06" y="1873.86" class="st5" width="16.16" height="33.93"/>
	</g>
	<g>
		<rect x="3728.43" y="1873.86" class="st5" width="16.16" height="33.93"/>
		<rect x="3753.89" y="1873.86" class="st5" width="16.16" height="33.93"/>
	</g>
	<g>
		<rect x="3664.26" y="1873.86" class="st5" width="16.16" height="33.93"/>
		<rect x="3689.71" y="1873.86" class="st5" width="16.16" height="33.93"/>
	</g>
	<g>
		<rect x="3600.09" y="1873.86" class="st5" width="16.16" height="33.93"/>
		<rect x="3625.54" y="1873.86" class="st5" width="16.16" height="33.93"/>
	</g>
	<g>
		<rect x="3535.92" y="1873.86" class="st5" width="16.16" height="33.93"/>
		<rect x="3561.37" y="1873.86" class="st5" width="16.16" height="33.93"/>
	</g>
	<g>
		<rect x="3471.75" y="1873.86" class="st5" width="16.16" height="33.93"/>
		<rect x="3497.2" y="1873.86" class="st5" width="16.16" height="33.93"/>
	</g>
	<rect x="4139.79" y="1873.86" class="st5" width="16.16" height="33.93"/>
	<rect x="4165.24" y="1873.86" class="st5" width="16.16" height="33.93"/>
	<rect x="4212.16" y="1873.86" class="st5" width="16.16" height="33.93"/>
	<rect x="4237.61" y="1873.86" class="st5" width="16.16" height="33.93"/>
	<rect x="4284.53" y="1873.86" class="st5" width="16.16" height="33.93"/>
	<rect x="4309.98" y="1873.86" class="st5" width="16.16" height="33.93"/>
	<rect x="4359.36" y="1873.86" class="st5" width="16.16" height="33.93"/>
	<rect x="4384.81" y="1873.86" class="st5" width="16.16" height="33.93"/>
	<polygon class="st21" points="3437.6,1873.86 3920.4,1873.86 3920.4,1822.44 3485.65,1822.44 	"/>
	<rect x="4093.67" y="2151.76" class="st21" width="11.07" height="52.34"/>
	<rect x="4162.42" y="2151.76" class="st21" width="11.07" height="52.34"/>
	<rect x="4231.17" y="2151.76" class="st21" width="11.07" height="52.34"/>
	<rect x="4299.92" y="2151.76" class="st21" width="11.07" height="52.34"/>
	<rect x="4067.42" y="1972.38" class="st5" width="15.11" height="32.84"/>
	<rect x="4067.42" y="2022.56" class="st5" width="15.11" height="55.93"/>
	<rect x="4097.18" y="1972.38" class="st5" width="15.11" height="32.84"/>
	<rect x="4097.18" y="2022.56" class="st5" width="15.11" height="55.93"/>
	<rect x="4126.95" y="1972.38" class="st5" width="15.11" height="32.84"/>
	<rect x="4126.95" y="2022.56" class="st5" width="15.11" height="55.93"/>
	<rect x="4156.71" y="1972.38" class="st5" width="15.11" height="32.84"/>
	<rect x="4156.71" y="2022.56" class="st5" width="15.11" height="55.93"/>
	<rect x="4186.48" y="1972.38" class="st5" width="15.11" height="32.84"/>
	<rect x="4186.48" y="2022.56" class="st5" width="15.11" height="55.93"/>
	<rect x="4216.24" y="1972.38" class="st5" width="15.11" height="32.84"/>
	<rect x="4216.24" y="2022.56" class="st5" width="15.11" height="55.93"/>
	<rect x="4246" y="1972.38" class="st5" width="15.11" height="32.84"/>
	<rect x="4246" y="2022.56" class="st5" width="15.11" height="55.93"/>
	<rect x="4275.77" y="1972.38" class="st5" width="15.11" height="32.84"/>
	<rect x="4275.77" y="2022.56" class="st5" width="15.11" height="55.93"/>
	<rect x="4305.53" y="1972.38" class="st5" width="15.11" height="32.84"/>
	<rect x="4305.53" y="2022.56" class="st5" width="15.11" height="55.93"/>
	<rect x="4335.29" y="1972.38" class="st5" width="15.11" height="32.84"/>
	<rect x="4335.29" y="2022.56" class="st5" width="15.11" height="55.93"/>
	<rect x="4365.06" y="1972.38" class="st5" width="15.11" height="32.84"/>
	<rect x="4365.06" y="2022.56" class="st5" width="15.11" height="55.93"/>
	<rect x="4394.82" y="1972.38" class="st5" width="15.11" height="32.84"/>
	<rect x="4394.82" y="2022.56" class="st5" width="15.11" height="55.93"/>
	<g>
		<rect x="3471.75" y="1939.54" class="st5" width="16.16" height="22.85"/>
		<rect x="3509.06" y="1939.54" class="st5" width="16.16" height="22.85"/>
		<rect x="3546.38" y="1939.54" class="st5" width="16.16" height="22.85"/>
		<rect x="3583.7" y="1939.54" class="st5" width="16.16" height="22.85"/>
		<rect x="3621.01" y="1939.54" class="st5" width="16.16" height="22.85"/>
		<rect x="3658.33" y="1939.54" class="st5" width="16.16" height="22.85"/>
		<rect x="3695.64" y="1939.54" class="st5" width="16.16" height="22.85"/>
		<rect x="3732.96" y="1939.54" class="st5" width="16.16" height="22.85"/>
		<rect x="3770.28" y="1939.54" class="st5" width="16.16" height="22.85"/>
		<rect x="3807.6" y="1939.54" class="st5" width="16.16" height="22.85"/>
		<rect x="3844.91" y="1939.54" class="st5" width="16.16" height="22.85"/>
		<rect x="3882.23" y="1939.54" class="st5" width="16.16" height="22.85"/>
	</g>
	<g>
		<rect x="3471.75" y="1987.56" class="st5" width="16.16" height="22.84"/>
		<rect x="3509.06" y="1987.56" class="st5" width="16.16" height="22.84"/>
		<rect x="3546.38" y="1987.56" class="st5" width="16.16" height="22.84"/>
		<rect x="3583.7" y="1987.56" class="st5" width="16.16" height="22.84"/>
		<rect x="3621.01" y="1987.56" class="st5" width="16.16" height="22.84"/>
		<rect x="3658.33" y="1987.56" class="st5" width="16.16" height="22.84"/>
		<rect x="3695.64" y="1987.56" class="st5" width="16.16" height="22.84"/>
		<rect x="3732.96" y="1987.56" class="st5" width="16.16" height="22.84"/>
		<rect x="3770.28" y="1987.56" class="st5" width="16.16" height="22.84"/>
		<rect x="3807.6" y="1987.56" class="st5" width="16.16" height="22.84"/>
		<rect x="3844.91" y="1987.56" class="st5" width="16.16" height="22.84"/>
		<rect x="3882.23" y="1987.56" class="st5" width="16.16" height="22.84"/>
	</g>
	<g>
		<rect x="3471.75" y="2035.58" class="st5" width="16.16" height="22.85"/>
		<rect x="3509.06" y="2035.58" class="st5" width="16.16" height="22.85"/>
		<rect x="3546.38" y="2035.58" class="st5" width="16.16" height="22.85"/>
		<rect x="3583.7" y="2035.58" class="st5" width="16.16" height="22.85"/>
		<rect x="3621.01" y="2035.58" class="st5" width="16.16" height="22.85"/>
		<rect x="3658.33" y="2035.58" class="st5" width="16.16" height="22.85"/>
		<rect x="3695.64" y="2035.58" class="st5" width="16.16" height="22.85"/>
		<rect x="3732.96" y="2035.58" class="st5" width="16.16" height="22.85"/>
		<rect x="3770.28" y="2035.58" class="st5" width="16.16" height="22.85"/>
		<rect x="3807.6" y="2035.58" class="st5" width="16.16" height="22.85"/>
		<rect x="3844.91" y="2035.58" class="st5" width="16.16" height="22.85"/>
		<rect x="3882.23" y="2035.58" class="st5" width="16.16" height="22.85"/>
	</g>
	<g>
		<rect x="3471.75" y="2083.6" class="st5" width="16.16" height="22.84"/>
		<rect x="3509.06" y="2083.6" class="st5" width="16.16" height="22.84"/>
		<rect x="3546.38" y="2083.6" class="st5" width="16.16" height="22.84"/>
		<rect x="3583.7" y="2083.6" class="st5" width="16.16" height="22.84"/>
		<rect x="3621.01" y="2083.6" class="st5" width="16.16" height="22.84"/>
		<rect x="3658.33" y="2083.6" class="st5" width="16.16" height="22.84"/>
		<rect x="3695.64" y="2083.6" class="st5" width="16.16" height="22.84"/>
		<rect x="3732.96" y="2083.6" class="st5" width="16.16" height="22.84"/>
		<rect x="3770.28" y="2083.6" class="st5" width="16.16" height="22.84"/>
		<rect x="3807.6" y="2083.6" class="st5" width="16.16" height="22.84"/>
		<rect x="3844.91" y="2083.6" class="st5" width="16.16" height="22.84"/>
		<rect x="3882.23" y="2083.6" class="st5" width="16.16" height="22.84"/>
	</g>
	<rect x="3966.55" y="1500.49" class="st21" width="31.04" height="11.39"/>
	<g>
		<path class="st5" d="M3982.07,1500.49v-61V1500.49z"/>
		<rect x="3980.39" y="1439.49" class="st5" width="3.37" height="61"/>
	</g>
</g>
<g>
	<g>
		<rect x="4419.77" y="2112.45" class="st0" width="547.66" height="8.41"/>
	</g>
	<g>
		<rect x="4419.77" y="2120.86" class="st22" width="547.66" height="14.91"/>
	</g>
	<g>
		<rect x="4454.4" y="2135.76" class="st9" width="18.51" height="69.08"/>
		<rect x="4546.38" y="2135.76" class="st9" width="18.5" height="69.08"/>
		<rect x="4638.36" y="2135.76" class="st9" width="18.51" height="69.08"/>
		<rect x="4730.34" y="2135.76" class="st9" width="18.51" height="69.08"/>
		<rect x="4822.32" y="2135.76" class="st9" width="18.51" height="69.08"/>
		<rect x="4914.3" y="2135.76" class="st9" width="18.51" height="69.08"/>
	</g>
	<g>
		<rect x="4454.4" y="1919.67" class="st9" width="18.51" height="192.77"/>
		<rect x="4546.38" y="1919.67" class="st9" width="18.5" height="192.77"/>
		<rect x="4638.36" y="1919.67" class="st9" width="18.51" height="192.77"/>
		<rect x="4730.34" y="1919.67" class="st9" width="18.51" height="192.77"/>
		<rect x="4822.32" y="1919.67" class="st9" width="18.51" height="192.77"/>
		<rect x="4914.3" y="1919.67" class="st9" width="18.51" height="192.77"/>
	</g>
	<path class="st9" d="M4448.82,1919.67h29.91H4448.82z"/>
	<g>
		<rect x="4459.18" y="1925.41" class="st22" width="9.58" height="12.39"/>
	</g>
	<g>
		<path class="st22" d="M4463.97,1930.55v-53.29V1930.55z"/>
		<rect x="4462.87" y="1877.26" class="st22" width="2.22" height="53.29"/>
	</g>
	<path class="st9" d="M4540.68,1919.67h29.91H4540.68z"/>
	<g>
		<rect x="4551.04" y="1925.41" class="st22" width="9.58" height="12.39"/>
	</g>
	<g>
		<path class="st22" d="M4555.83,1930.55v-53.29V1930.55z"/>
		<rect x="4554.73" y="1877.26" class="st22" width="2.22" height="53.29"/>
	</g>
	<path class="st9" d="M4632.66,1919.67h29.91H4632.66z"/>
	<g>
		<rect x="4643.03" y="1925.41" class="st22" width="9.58" height="12.39"/>
	</g>
	<g>
		<path class="st22" d="M4647.81,1930.55v-53.29V1930.55z"/>
		<rect x="4646.71" y="1877.26" class="st22" width="2.22" height="53.29"/>
	</g>
	<path class="st9" d="M4724.64,1919.67h29.91H4724.64z"/>
	<g>
		<rect x="4735.01" y="1925.41" class="st22" width="9.58" height="12.39"/>
	</g>
	<g>
		<path class="st22" d="M4739.8,1930.55v-53.29V1930.55z"/>
		<rect x="4738.69" y="1877.26" class="st22" width="2.22" height="53.29"/>
	</g>
	<path class="st9" d="M4816.62,1919.67h29.91H4816.62z"/>
	<g>
		<rect x="4826.99" y="1925.41" class="st22" width="9.58" height="12.39"/>
	</g>
	<g>
		<path class="st22" d="M4831.78,1930.55v-53.29V1930.55z"/>
		<rect x="4830.67" y="1877.26" class="st22" width="2.22" height="53.29"/>
	</g>
	<path class="st9" d="M4908.6,1919.67h29.91H4908.6z"/>
	<g>
		<rect x="4918.97" y="1925.41" class="st22" width="9.58" height="12.39"/>
	</g>
	<g>
		<path class="st22" d="M4923.76,1930.55v-53.29V1930.55z"/>
		<rect x="4922.65" y="1877.26" class="st22" width="2.22" height="53.29"/>
	</g>
</g>
<g>
	<path class="st12" d="M3313.61,1568.55v-25.8c-2.89-0.96-5.83-2.09-8.8-3.48c-36.42-16.94-87.08-58.44-151.53-58.44
		c-28.45,0-54.21,8.09-77.24,18.58c-3.4-0.58-9.02-1.52-16.44-2.75v-13.04h3.77c0.55,0,1-0.45,1-1v-1.36c0-0.56-0.45-1-1-1h-2.37
		v-19.93h2.55c0-5.82-4.32-10.63-9.93-11.4v-3.93c0-0.96-0.77-1.73-1.73-1.73c-0.96,0-1.74,0.78-1.74,1.73v3.98
		c-5.46,0.9-9.63,5.64-9.63,11.36h2.54v19.93h-2.37c-0.55,0-1,0.45-1,1v1.36c0,0.55,0.45,1,1,1h3.77v10.54
		c-44.38-7.31-122.83-19.92-189.61-29.05c-0.71-1.17-1.42-2.34-2.13-3.51c-24.64-40.78-54.23-39.81-74.77-39.81
		c-20.53,0-50.13-0.97-74.77,39.81c-1.41,2.34-2.83,4.67-4.25,6.99c-63.11,8.62-134.81,20.02-178.72,27.19v-12.16h3.77
		c0.55,0,1-0.45,1-1v-1.36c0-0.56-0.45-1-1-1h-2.37v-19.93h2.55c0-5.82-4.32-10.63-9.94-11.4v-3.93c0-0.96-0.78-1.73-1.73-1.73
		c-0.96,0-1.73,0.78-1.73,1.73v3.98c-5.47,0.9-9.64,5.64-9.64,11.36h2.55v19.93h-2.37c-0.55,0-1,0.45-1,1v1.36c0,0.55,0.45,1,1,1
		h3.77v14.36l4.56-0.47c-12.31,2.02-21.53,3.57-26.51,4.4c-24.38-11.68-51.92-21.08-82.59-21.08c-64.46,0-115.11,41.5-151.53,58.44
		h-8.8c0,0,0,0,0,3.48v25.8h-12.92v192.96v11.31h6.73l41.52,87.44v96.4v10.16h-9.45v21.6h1003.55v-21.6h8.65v-10.16v-96.4
		l41.52-87.44h6.73v-11.31v-192.96H3313.61z"/>
	<rect x="2275.52" y="1772.89" class="st0" width="296.27" height="183.85"/>
	<rect x="2275.52" y="1956.74" class="st23" width="296.27" height="10.16"/>
	<rect x="2227.26" y="1568.63" class="st0" width="344.52" height="204.27"/>
	<rect x="2227.26" y="1761.59" class="st5" width="344.52" height="11.3"/>
	<rect x="2571.79" y="1761.59" class="st5" width="410.22" height="11.3"/>
	<rect x="2311.54" y="1809.68" class="st5" width="46.28" height="94.11"/>
	<g>
		<path class="st3" d="M2311.54,1839.7h46.28H2311.54z"/>
		<rect x="2311.54" y="1838.07" class="st3" width="46.28" height="3.24"/>
	</g>
	<g>
		<path class="st3" d="M2311.54,1869.4h46.28H2311.54z"/>
		<rect x="2311.54" y="1867.78" class="st3" width="46.28" height="3.24"/>
	</g>
	<g>
		<path class="st3" d="M2334.68,1809.68v94.11V1809.68z"/>
		<rect x="2333.06" y="1809.68" class="st3" width="3.24" height="94.11"/>
	</g>
	<rect x="2400.52" y="1809.68" class="st5" width="46.27" height="94.11"/>
	<g>
		<path class="st3" d="M2400.52,1839.7h46.27H2400.52z"/>
		<rect x="2400.52" y="1838.07" class="st3" width="46.27" height="3.24"/>
	</g>
	<g>
		<path class="st3" d="M2400.52,1869.4h46.27H2400.52z"/>
		<rect x="2400.52" y="1867.78" class="st3" width="46.27" height="3.24"/>
	</g>
	<g>
		<path class="st3" d="M2423.65,1809.68v94.11V1809.68z"/>
		<rect x="2422.03" y="1809.68" class="st3" width="3.24" height="94.11"/>
	</g>
	<rect x="2489.49" y="1809.68" class="st5" width="46.28" height="94.11"/>
	<g>
		<path class="st3" d="M2489.49,1839.7h46.28H2489.49z"/>
		<rect x="2489.49" y="1838.07" class="st3" width="46.28" height="3.24"/>
	</g>
	<g>
		<path class="st3" d="M2489.49,1869.4h46.28H2489.49z"/>
		<rect x="2489.49" y="1867.78" class="st3" width="46.28" height="3.24"/>
	</g>
	<g>
		<path class="st3" d="M2512.62,1809.68v94.11V1809.68z"/>
		<rect x="2511" y="1809.68" class="st3" width="3.24" height="94.11"/>
	</g>
	<rect x="2501.77" y="1611.15" class="st5" width="46.28" height="101.09"/>
	<g>
		<path class="st3" d="M2501.77,1643.4h46.28H2501.77z"/>
		<rect x="2501.77" y="1641.77" class="st3" width="46.28" height="3.24"/>
	</g>
	<g>
		<path class="st3" d="M2501.77,1675.3h46.28H2501.77z"/>
		<rect x="2501.77" y="1673.68" class="st3" width="46.28" height="3.24"/>
	</g>
	<g>
		<path class="st3" d="M2524.91,1611.15v101.09V1611.15z"/>
		<rect x="2523.28" y="1611.15" class="st3" width="3.24" height="101.09"/>
	</g>
	<rect x="2420.97" y="1611.15" class="st5" width="46.28" height="101.09"/>
	<g>
		<path class="st3" d="M2420.97,1643.4h46.28H2420.97z"/>
		<rect x="2420.97" y="1641.77" class="st3" width="46.28" height="3.24"/>
	</g>
	<g>
		<path class="st3" d="M2420.97,1675.3h46.28H2420.97z"/>
		<rect x="2420.97" y="1673.68" class="st3" width="46.28" height="3.24"/>
	</g>
	<g>
		<path class="st3" d="M2444.12,1611.15v101.09V1611.15z"/>
		<rect x="2442.49" y="1611.15" class="st3" width="3.24" height="101.09"/>
	</g>
	<rect x="2340.18" y="1611.15" class="st5" width="46.28" height="101.09"/>
	<g>
		<path class="st3" d="M2340.18,1643.4h46.28H2340.18z"/>
		<rect x="2340.18" y="1641.77" class="st3" width="46.28" height="3.24"/>
	</g>
	<g>
		<path class="st3" d="M2340.18,1675.3h46.28H2340.18z"/>
		<rect x="2340.18" y="1673.68" class="st3" width="46.28" height="3.24"/>
	</g>
	<g>
		<path class="st3" d="M2363.32,1611.15v101.09V1611.15z"/>
		<rect x="2361.7" y="1611.15" class="st3" width="3.24" height="101.09"/>
	</g>
	<rect x="2259.39" y="1611.15" class="st5" width="46.28" height="101.09"/>
	<g>
		<path class="st3" d="M2259.39,1643.4h46.28H2259.39z"/>
		<rect x="2259.39" y="1641.77" class="st3" width="46.28" height="3.24"/>
	</g>
	<g>
		<path class="st3" d="M2259.39,1675.3h46.28H2259.39z"/>
		<rect x="2259.39" y="1673.68" class="st3" width="46.28" height="3.24"/>
	</g>
	<g>
		<path class="st3" d="M2282.53,1611.15v101.09V1611.15z"/>
		<rect x="2280.91" y="1611.15" class="st3" width="3.24" height="101.09"/>
	</g>
	<rect x="2375.32" y="1772.89" class="st5" width="6.88" height="30.84"/>
	<rect x="2467.25" y="1772.89" class="st5" width="6.88" height="30.84"/>
	<g>
		<path class="st14" d="M2215.13,1550.05c-20.32,0-34.51-7.48-35.39-7.96l2.97-5.49c0.3,0.16,30.48,15.96,64.96-0.08
			c8.93-4.15,18.94-9.93,29.54-16.04c32.99-19.02,74.04-42.69,123.31-42.69c49.27,0,90.32,23.67,123.31,42.69
			c10.6,6.11,20.61,11.89,29.54,16.04c34.49,16.04,64.66,0.24,64.96,0.08l2.96,5.49c-1.33,0.72-33.14,17.48-70.55,0.08
			c-9.17-4.27-19.3-10.11-30.03-16.29c-32.34-18.65-72.59-41.86-120.19-41.86c-47.6,0-87.85,23.21-120.2,41.86
			c-10.72,6.18-20.85,12.02-30.02,16.29C2237.61,1548.08,2225.56,1550.05,2215.13,1550.05z"/>
	</g>
	<path class="st0" d="M2491.15,1534.65c-28.67-19.81-43.51-35.81-86.48-35.81c-42.97,0-57.82,16-86.48,35.81
		c-23.44,16.2-34.5,18.53-34.5,18.53h120.98h120.98C2525.65,1553.18,2514.6,1550.85,2491.15,1534.65z"/>
	<rect x="2982" y="1772.89" class="st0" width="296.27" height="183.85"/>
	<rect x="2982" y="1956.74" class="st23" width="296.27" height="10.16"/>
	<rect x="2982" y="1568.63" class="st0" width="344.52" height="204.27"/>
	<rect x="2982" y="1761.59" class="st5" width="344.52" height="11.3"/>
	<rect x="3195.97" y="1809.68" class="st5" width="46.28" height="94.11"/>
	<g>
		<path class="st3" d="M3242.24,1839.7h-46.28H3242.24z"/>
		<rect x="3195.97" y="1838.07" class="st3" width="46.28" height="3.24"/>
	</g>
	<g>
		<path class="st3" d="M3242.24,1869.4h-46.28H3242.24z"/>
		<rect x="3195.97" y="1867.78" class="st3" width="46.28" height="3.24"/>
	</g>
	<g>
		<path class="st3" d="M3219.11,1809.68v94.11V1809.68z"/>
		<rect x="3217.49" y="1809.68" class="st3" width="3.24" height="94.11"/>
	</g>
	<rect x="3107" y="1809.68" class="st5" width="46.28" height="94.11"/>
	<g>
		<path class="st3" d="M3153.27,1839.7H3107H3153.27z"/>
		<rect x="3107" y="1838.07" class="st3" width="46.28" height="3.24"/>
	</g>
	<g>
		<path class="st3" d="M3153.27,1869.4H3107H3153.27z"/>
		<rect x="3107" y="1867.78" class="st3" width="46.28" height="3.24"/>
	</g>
	<g>
		<path class="st3" d="M3130.13,1809.68v94.11V1809.68z"/>
		<rect x="3128.51" y="1809.68" class="st3" width="3.24" height="94.11"/>
	</g>
	<rect x="3018.02" y="1809.68" class="st5" width="46.27" height="94.11"/>
	<g>
		<path class="st3" d="M3064.29,1839.7h-46.27H3064.29z"/>
		<rect x="3018.02" y="1838.07" class="st3" width="46.27" height="3.24"/>
	</g>
	<g>
		<path class="st3" d="M3064.29,1869.4h-46.27H3064.29z"/>
		<rect x="3018.02" y="1867.78" class="st3" width="46.27" height="3.24"/>
	</g>
	<g>
		<path class="st3" d="M3041.16,1809.68v94.11V1809.68z"/>
		<rect x="3039.53" y="1809.68" class="st3" width="3.24" height="94.11"/>
	</g>
	<rect x="3005.74" y="1611.15" class="st5" width="46.27" height="101.09"/>
	<g>
		<path class="st24" d="M3052.01,1643.4h-46.27H3052.01z"/>
		<rect x="3005.74" y="1641.72" class="st3" width="46.27" height="3.35"/>
	</g>
	<g>
		<path class="st24" d="M3052.01,1675.3h-46.27H3052.01z"/>
		<rect x="3005.74" y="1673.63" class="st3" width="46.27" height="3.35"/>
	</g>
	<g>
		<path class="st24" d="M3028.88,1611.15v101.09V1611.15z"/>
		<rect x="3027.21" y="1611.15" class="st3" width="3.35" height="101.09"/>
	</g>
	<rect x="3086.54" y="1611.15" class="st5" width="46.27" height="101.09"/>
	<g>
		<path class="st24" d="M3132.81,1643.4h-46.27H3132.81z"/>
		<rect x="3086.54" y="1641.72" class="st3" width="46.27" height="3.35"/>
	</g>
	<g>
		<path class="st24" d="M3132.81,1675.3h-46.27H3132.81z"/>
		<rect x="3086.54" y="1673.63" class="st3" width="46.27" height="3.35"/>
	</g>
	<g>
		<path class="st24" d="M3109.67,1611.15v101.09V1611.15z"/>
		<rect x="3108" y="1611.15" class="st3" width="3.35" height="101.09"/>
	</g>
	<rect x="3167.33" y="1611.15" class="st5" width="46.27" height="101.09"/>
	<g>
		<path class="st24" d="M3213.6,1643.4h-46.27H3213.6z"/>
		<rect x="3167.33" y="1641.72" class="st3" width="46.27" height="3.35"/>
	</g>
	<g>
		<path class="st24" d="M3213.6,1675.3h-46.27H3213.6z"/>
		<rect x="3167.33" y="1673.63" class="st3" width="46.27" height="3.35"/>
	</g>
	<g>
		<path class="st24" d="M3190.46,1611.15v101.09V1611.15z"/>
		<rect x="3188.79" y="1611.15" class="st3" width="3.35" height="101.09"/>
	</g>
	<rect x="3248.12" y="1611.15" class="st5" width="46.28" height="101.09"/>
	<g>
		<path class="st24" d="M3294.39,1643.4h-46.28H3294.39z"/>
		<rect x="3248.12" y="1641.72" class="st3" width="46.28" height="3.35"/>
	</g>
	<g>
		<path class="st24" d="M3294.39,1675.3h-46.28H3294.39z"/>
		<rect x="3248.12" y="1673.63" class="st3" width="46.28" height="3.35"/>
	</g>
	<g>
		<path class="st24" d="M3271.26,1611.15v101.09V1611.15z"/>
		<rect x="3269.58" y="1611.15" class="st3" width="3.35" height="101.09"/>
	</g>
	<rect x="3171.58" y="1772.89" class="st5" width="6.88" height="30.84"/>
	<rect x="3079.66" y="1772.89" class="st5" width="6.88" height="30.84"/>
	<g>
		<path class="st14" d="M3338.65,1550.05c-10.43,0-22.47-1.97-35.17-7.88c-9.17-4.27-19.3-10.11-30.02-16.29
			c-32.34-18.65-72.59-41.86-120.19-41.86c-47.6,0-87.85,23.21-120.2,41.86c-10.72,6.18-20.85,12.02-30.02,16.29
			c-37.41,17.4-69.22,0.64-70.56-0.08l2.96-5.49c0.3,0.16,30.48,15.96,64.96-0.08c8.93-4.15,18.94-9.92,29.54-16.04
			c32.99-19.02,74.04-42.7,123.31-42.7c49.27,0,90.32,23.67,123.31,42.7c10.6,6.11,20.61,11.89,29.54,16.04
			c34.49,16.04,64.67,0.24,64.97,0.08l2.96,5.49C3373.16,1542.57,3358.97,1550.05,3338.65,1550.05z"/>
	</g>
	<path class="st0" d="M3062.63,1534.65c28.67-19.81,43.51-35.81,86.48-35.81c42.97,0,57.81,16,86.48,35.81
		c23.45,16.2,34.5,18.53,34.5,18.53h-120.98h-120.98C3028.13,1553.18,3039.19,1550.85,3062.63,1534.65z"/>
	<g>
		<g>
			<path class="st5" d="M2811.71,1728.74c-15.46,0.35-30.93,0.35-46.39,0c0-36.73,0-73.46,0-110.19c15.46-0.25,30.93-0.25,46.39,0
				C2811.71,1655.27,2811.71,1692,2811.71,1728.74z"/>
			<g>
				<path class="st3" d="M2765.33,1653.69c15.46-0.05,30.93-0.05,46.39,0H2765.33z"/>
				<path class="st3" d="M2811.71,1655.31c-15.39-0.05-30.99-0.05-46.38,0l-0.01-3.24c15.39-0.05,31.01-0.05,46.4,0L2811.71,1655.31
					z"/>
			</g>
			<g>
				<path class="st3" d="M2765.33,1688.47c15.46,0.14,30.93,0.14,46.39,0H2765.33z"/>
				<path class="st3" d="M2788.52,1690.19c-7.75,0-15.51-0.03-23.21-0.1l0.03-3.24c15.38,0.14,30.98,0.14,46.36,0l0.03,3.24
					C2804.03,1690.15,2796.28,1690.19,2788.52,1690.19z"/>
			</g>
			<g>
				<path class="st3" d="M2788.52,1618.36c0,36.88,0,73.76,0,110.64V1618.36z"/>
				<rect x="2786.9" y="1618.36" class="st3" width="3.24" height="110.64"/>
			</g>
			<path class="st25" d="M2800.37,1603.85c-4.6-7.17-11.85-6.15-11.85-6.15c0,0-7.25-1.02-11.85,6.15
				c-4.6,7.15-11.34,10.58-11.34,10.58c0,1.37,0,2.74,0,4.12c7.73-0.12,15.46-0.18,23.19-0.18c7.73,0,15.47,0.06,23.2,0.18
				c0-1.37,0-2.74,0-4.12C2811.71,1614.43,2804.97,1611,2800.37,1603.85z"/>
		</g>
		<g>
			<path class="st5" d="M2877.72,1725.7c-15.43,1.25-30.87,2.15-46.33,2.69c0-36.54,0-73.07,0-109.61
				c15.46,0.37,30.9,0.98,46.33,1.84C2877.72,1655.65,2877.72,1690.67,2877.72,1725.7z"/>
			<g>
				<path class="st3" d="M2831.4,1653.74c15.46,0.08,30.9,0.22,46.33,0.4L2831.4,1653.74z"/>
				<path class="st3" d="M2877.71,1655.76c-15.51-0.18-31.09-0.32-46.32-0.4l0.02-3.24c15.23,0.08,30.83,0.21,46.34,0.4
					L2877.71,1655.76z"/>
			</g>
			<g>
				<path class="st3" d="M2831.4,1688.34c15.46-0.21,30.9-0.56,46.33-1.04L2831.4,1688.34z"/>
				<path class="st3" d="M2831.42,1689.96l-0.04-3.24c15.25-0.2,30.82-0.55,46.3-1.04l0.1,3.24
					C2862.28,1689.4,2846.68,1689.75,2831.42,1689.96z"/>
			</g>
			<g>
				<path class="st3" d="M2854.57,1619.52c0,35.93,0,71.87,0,107.8V1619.52z"/>
				<rect x="2852.95" y="1619.52" class="st3" width="3.24" height="107.8"/>
			</g>
			<path class="st25" d="M2866.4,1606.01c-4.59-7.16-11.83-6.63-11.83-6.61c0,0-7.24-1.44-11.84,5.36
				c-4.59,6.8-11.34,9.93-11.34,9.93c0,1.37,0,2.73,0,4.09c7.73,0.18,15.45,0.43,23.17,0.74c7.73,0.31,15.44,0.67,23.15,1.1
				c0-1.31,0-2.61,0-3.92C2877.72,1616.7,2871,1613.15,2866.4,1606.01z"/>
		</g>
		<g>
			<path class="st5" d="M2943.68,1719.28c-15.35,2.15-30.73,3.94-46.15,5.38c0-34.44,0-68.89,0-103.33
				c15.42,0.98,30.8,2.21,46.15,3.69C2943.68,1656.44,2943.68,1687.86,2943.68,1719.28z"/>
			<g>
				<path class="st3" d="M2897.52,1654.29c15.42,0.21,30.8,0.47,46.15,0.79L2897.52,1654.29z"/>
				<path class="st3" d="M2943.64,1656.7c-15.23-0.32-30.75-0.58-46.14-0.79l0.04-3.24c15.4,0.21,30.93,0.48,46.16,0.79
					L2943.64,1656.7z"/>
			</g>
			<g>
				<path class="st3" d="M2897.52,1686.9c15.42-0.55,30.8-1.24,46.15-2.07L2897.52,1686.9z"/>
				<path class="st3" d="M2897.58,1688.52l-0.12-3.24c15.14-0.54,30.65-1.24,46.12-2.07l0.17,3.24
					C2928.28,1687.28,2912.74,1687.98,2897.58,1688.52z"/>
			</g>
			<g>
				<path class="st3" d="M2920.62,1622.99c0,33.08,0,66.17,0,99.24V1622.99z"/>
				<rect x="2919" y="1622.99" class="st3" width="3.24" height="99.24"/>
			</g>
			<path class="st25" d="M2932.4,1611.23c-4.57-6.78-11.78-6.79-11.78-6.77c0,0.01-7.22-1.81-11.79,4.27
				c-4.58,6.08-11.31,8.74-11.31,8.74c0,1.29,0,2.57,0,3.86c7.71,0.49,15.41,1.05,23.1,1.66c7.69,0.62,15.37,1.29,23.05,2.03
				c0-1.17,0-2.35,0-3.52C2943.68,1621.49,2936.98,1617.99,2932.4,1611.23z"/>
		</g>
		<g>
			<path class="st5" d="M2679.51,1724.66c-15.41-1.44-30.8-3.23-46.15-5.38c0-31.42,0-62.84,0-94.26
				c15.35-1.47,30.73-2.7,46.15-3.69C2679.51,1655.78,2679.51,1690.22,2679.51,1724.66z"/>
			<g>
				<path class="st3" d="M2633.37,1655.08c15.35-0.32,30.73-0.58,46.15-0.79L2633.37,1655.08z"/>
				<path class="st3" d="M2633.4,1656.7l-0.07-3.24c15.23-0.31,30.76-0.58,46.16-0.79l0.04,3.24
					C2664.14,1656.12,2648.62,1656.39,2633.4,1656.7z"/>
			</g>
			<g>
				<path class="st3" d="M2633.37,1684.83c15.35,0.82,30.73,1.52,46.15,2.07L2633.37,1684.83z"/>
				<path class="st3" d="M2679.46,1688.52c-15.16-0.54-30.7-1.24-46.18-2.07l0.17-3.24c15.46,0.83,30.98,1.52,46.12,2.07
					L2679.46,1688.52z"/>
			</g>
			<g>
				<path class="st3" d="M2656.42,1622.99c0,33.08,0,66.17,0,99.24V1622.99z"/>
				<rect x="2654.79" y="1622.99" class="st3" width="3.24" height="99.24"/>
			</g>
			<path class="st25" d="M2668.21,1608.74c-4.58-6.08-11.79-4.26-11.79-4.27c0-0.02-7.21-0.02-11.78,6.77
				c-4.57,6.76-11.27,10.26-11.27,10.27c0,1.17,0,2.35,0,3.52c7.68-0.74,15.36-1.41,23.05-2.03c7.69-0.61,15.39-1.17,23.1-1.66
				c0-1.28,0-2.57,0-3.86C2679.51,1617.47,2672.79,1614.81,2668.21,1608.74z"/>
		</g>
		<g>
			<path class="st5" d="M2745.65,1728.39c-15.46-0.54-30.91-1.44-46.33-2.69c0-35.03,0-70.05,0-105.08
				c15.42-0.86,30.87-1.47,46.33-1.84C2745.65,1655.32,2745.65,1691.85,2745.65,1728.39z"/>
			<g>
				<path class="st3" d="M2699.32,1654.14c15.42-0.18,30.87-0.32,46.33-0.4L2699.32,1654.14z"/>
				<path class="st3" d="M2699.34,1655.76l-0.04-3.24c15.51-0.18,31.1-0.32,46.34-0.4l0.02,3.24
					C2730.43,1655.44,2714.84,1655.57,2699.34,1655.76z"/>
			</g>
			<g>
				<path class="st3" d="M2699.32,1687.3c15.42,0.48,30.87,0.83,46.33,1.04L2699.32,1687.3z"/>
				<path class="st3" d="M2745.62,1689.96c-15.44-0.21-31.04-0.56-46.36-1.04l0.1-3.24c15.3,0.48,30.88,0.83,46.3,1.04
					L2745.62,1689.96z"/>
			</g>
			<g>
				<path class="st3" d="M2722.47,1619.52c0,35.93,0,71.87,0,107.8V1619.52z"/>
				<rect x="2720.85" y="1619.52" class="st3" width="3.24" height="107.8"/>
			</g>
			<path class="st25" d="M2734.3,1604.76c-4.59-6.81-11.84-5.36-11.84-5.36c0-0.02-7.24-0.55-11.83,6.61
				c-4.59,7.14-11.32,10.69-11.32,10.69c0,1.31,0,2.62,0,3.92c7.71-0.43,15.43-0.8,23.15-1.1c7.72-0.3,15.45-0.55,23.18-0.74
				c0-1.36,0-2.73,0-4.09C2745.65,1614.69,2738.9,1611.56,2734.3,1604.76z"/>
		</g>
	</g>
	<path class="st5" d="M2661.31,1965.67c0,0.68-0.55,1.23-1.23,1.23h-17.86c-0.68,0-1.23-0.55-1.23-1.23v-4.18
		c0-0.68,0.55-1.23,1.23-1.23h17.86c0.68,0,1.23,0.55,1.23,1.23V1965.67z"/>
	<rect x="2646.17" y="1772.89" class="st5" width="9.96" height="187.36"/>
	<path class="st5" d="M2737.74,1965.67c0,0.68-0.55,1.23-1.23,1.23h-17.86c-0.68,0-1.23-0.55-1.23-1.23v-4.18
		c0-0.68,0.55-1.23,1.23-1.23h17.86c0.68,0,1.23,0.55,1.23,1.23V1965.67z"/>
	<rect x="2722.6" y="1772.89" class="st5" width="9.96" height="187.36"/>
	<path class="st5" d="M2826.27,1965.67c0,0.68-0.55,1.23-1.23,1.23h-17.86c-0.68,0-1.23-0.55-1.23-1.23v-4.18
		c0-0.68,0.55-1.23,1.23-1.23h17.86c0.68,0,1.23,0.55,1.23,1.23V1965.67z"/>
	<rect x="2811.13" y="1772.89" class="st5" width="9.95" height="187.36"/>
	<path class="st5" d="M2902.71,1965.67c0,0.68-0.56,1.23-1.24,1.23h-17.86c-0.68,0-1.23-0.55-1.23-1.23v-4.18
		c0-0.68,0.55-1.23,1.23-1.23h17.86c0.68,0,1.24,0.55,1.24,1.23V1965.67z"/>
	<rect x="2887.57" y="1772.89" class="st5" width="9.96" height="187.36"/>
	<g>
		<path class="st14" d="M2941.99,1555.59c-39.66-10.34-66.12-49.57-91.95-92.32c-23.17-38.36-50.62-38.31-70.7-38.31l-1.4,0l-1.4,0
			c-20.11,0-47.52-0.05-70.69,38.31c-25.83,42.75-52.3,81.98-91.95,92.32l-1.57-6.03c37.38-9.75,63.04-47.9,88.18-89.51
			c25-41.37,55.72-41.33,76.04-41.32l1.4,0l1.4,0c20.37-0.01,51.05-0.05,76.04,41.32c25.13,41.6,50.79,79.76,88.19,89.51
			L2941.99,1555.59z"/>
	</g>
	<path class="st0" d="M2828.57,1489.71c-18.62-26.98-55.7-26.22-55.7-26.22s-37.08-0.76-55.7,26.22
		c-18.62,26.98-29.64,64.6-80.94,86.64c0,0,63.14-14.44,136.64-14.44c73.5,0,136.64,14.44,136.64,14.44
		C2858.21,1554.31,2847.19,1516.69,2828.57,1489.71z"/>
	<path class="st0" d="M2514.21,1448.99v-3.93c0-0.95-0.78-1.73-1.73-1.73c-0.96,0-1.73,0.78-1.73,1.73v3.98
		c-5.47,0.9-9.64,5.64-9.64,11.36h23.04C2524.14,1454.57,2519.82,1449.76,2514.21,1448.99z"/>
	<rect x="2503.66" y="1460.39" class="st10" width="17.94" height="19.93"/>
	<polygon class="st10" points="2520.19,1496.5 2505.06,1498.05 2505.06,1483.69 2520.19,1483.69 	"/>
	<path class="st0" d="M2524.96,1482.69c0,0.55-0.45,1-1,1h-22.68c-0.55,0-1-0.45-1-1v-1.36c0-0.55,0.45-1,1-1h22.68
		c0.55,0,1,0.45,1,1V1482.69z"/>
	<path class="st0" d="M3053.6,1448.99v-3.93c0-0.95-0.77-1.73-1.73-1.73c-0.96,0-1.74,0.78-1.74,1.73v3.98
		c-5.46,0.9-9.63,5.64-9.63,11.36h23.03C3063.53,1454.57,3059.21,1449.76,3053.6,1448.99z"/>
	<rect x="3043.05" y="1460.39" class="st10" width="17.94" height="19.93"/>
	<polygon class="st10" points="3059.59,1497.47 3044.45,1494.86 3044.45,1483.69 3059.59,1483.69 	"/>
	<path class="st0" d="M3064.35,1482.69c0,0.55-0.45,1-1,1h-22.67c-0.55,0-1-0.45-1-1v-1.36c0-0.55,0.45-1,1-1h22.67
		c0.55,0,1,0.45,1,1V1482.69z"/>
	<rect x="2266.07" y="1966.9" class="st26" width="1003.55" height="21.6"/>
</g>
</svg>
