<svg xmlns="http://www.w3.org/2000/svg" viewBox="0 0 4258.22 1236.67">
  <defs>
    <style>
      .cls-1, .cls-2 {
        fill: #1d1d1b;
      }

      .cls-1 {
        stroke: #000;
        stroke-miterlimit: 10;
        stroke-width: 0.5px;
      }
    </style>
  </defs>
  <g id="Layer_2" data-name="Layer 2">
    <g id="Layer_1-2" data-name="Layer 1">
      <g id="Layer_2-2" data-name="Layer 2">
        <g id="Layer_1-2-2" data-name="Layer 1-2">
          <path class="cls-1" d="M207.29.25h26.56L238,1.36c16.42,5,30.72,12.92,40.68,27.79a70.89,70.89,0,0,1,12.53,41.92,31.87,31.87,0,0,0,2.56,16.55,42.47,42.47,0,0,1,0,42.14c-2.17,4.12-3.32,7.52,0,11.51a14.3,14.3,0,0,1,2.53,6.33A156.81,156.81,0,0,1,299,173.36c1.51,22.13,1.37,44.26,7.35,65.68a34.63,34.63,0,0,1-2.57,23.68,63.93,63.93,0,0,0-7,25.81c-1.42,38.06,2.52,76,2.17,114.06A164.92,164.92,0,0,0,300.77,437a13.48,13.48,0,0,1,0,4.74c-1.68,9.38-3.19,18.85-5.31,28.15a104.39,104.39,0,0,0-1.37,42.53,7.54,7.54,0,0,1-2.13,7.31,13.83,13.83,0,0,0-3.67,10.13c-1.06,15.63,1.95,31,2.74,46.52.58,10.49,1,21.51,8.19,30.72a38.85,38.85,0,0,0,7.84,9.12,24.86,24.86,0,0,1,6.37,7c5.44,8.1-1.15,14.43-3,21.42-.84,3.28-5.93,4.83-4.42,8.86s5.66,4.42,8.19,7.3l.39.35a144.39,144.39,0,0,0,17.71,12.57c3.63,1.95,5.09,3.81,4.91,7.53V686c0,9.6,0,9.69,9.87,9.6,11,0,22.13-.44,32.93-.66a7.57,7.57,0,0,1,7.66,4.82c2.83,5,1.33,10,1.95,14.92.93,7.17,2.17,14.34,2.92,21.55.84,8.06,1.06,8.46,9.34,8.46h54.18c2.49,0,4.18.45,5.26,1.52,1.88,1.85,1.62,4.87,1.6,5.38C462,773,505.84,824.7,505.84,824.7c2.87,3.38,21.17,31.6,57.78,88,25.79,39.75,24.12,38.89,52.28,82.54,27.08,42,41.14,63.79,60.53,90.81,16.28,22.67,40.1,54.28,71.55,90.8-14.63,5.54-41.14,14-64.39,11.06-2.68-.34-9.53-1.34-17.76-3-14.14-2.92-24.49-6.28-31.27-8.29-53.48-15.81-103.38-11.94-197.59-1,0,0-318.57,37.07-375.92-.75-.5-.33-3.83-5.6-10-5.4a40.27,40.27,0,0,1-20.45-4.82,45.2,45.2,0,0,0-20.93-7.88c-5.54-.22-7.48-3.45-7.66-9.21-.35-10.53,2-20.76,2.12-31,0-18.94-.39-37.84-.66-56.79C2.84,999.06,2.67,938.16,1.3,877.3c-.89-38.91.35-77.9-1-116.81-.31-9.16,0-9.43,8.85-10.8A71.2,71.2,0,0,1,20.28,749H66c6.82,0,8.15-1.2,8.85-7.88,1-13.28,1.86-26.12,2.66-39.17a7.26,7.26,0,0,1,4.12-6.69c7-4,15-3.89,22.44-6,4.11-1.11,7.39-.58,8.36,4.42.27,1.38,1.11,2.79,2.92,2.35s1.69-1.73,1.73-3V683c0-6.33.84-7.08,7-7.17,8.15,0,16.29-.27,24.44,0a10.08,10.08,0,0,0,9.82-4.65,36.93,36.93,0,0,1,10.14-9.52,7.64,7.64,0,0,0,3.67-4.95c1.46-8.37,1.46-8.32,9.43-9.34,1.77,0,4.43.31,4.43-2.35s-2.35-3-4.21-4.07a54.78,54.78,0,0,0-22.17-5.62c-9.83-.67-20.54-.89-27.23,9.12-1.63,2.43-3,1.81-4.42,0a7.9,7.9,0,0,1-2.3-6.25c.53-6.86,5.71-9.87,10.66-12.79,11.07-6.5,23.68-9.34,35.41-14.34,1.24-.53,3.28-.62,3-2.39s-2.48-1.46-4-1.33-3.86.54-5.8.71-3.63.75-4.92-1,0-3.32,1-4.74a4.16,4.16,0,0,0,1.06-3.45,5.44,5.44,0,0,1,3.06-6.59,6.29,6.29,0,0,0,2.65-6.91A38.84,38.84,0,0,1,169.84,564a13.7,13.7,0,0,0,0-11.64c-1.72-5-6.24-7.74-9.29-12.39,3.19,0,4.43,2,6.55,2.65,2.74.93,4.78,1.51,4.43-2.83s0-8.28-.4-12.53a44.59,44.59,0,0,0-7.57-23.1,4.43,4.43,0,0,1-.27-5.58c1.38,1.55,2.48,2.88,3.72,4.08,2.26,2,4.43,1.85,5.18-1.29,1.33-7.61,3.28-15.49.4-23.06a139.87,139.87,0,0,1-5.18-16.11,11.26,11.26,0,0,1,3.36,5.89,18.13,18.13,0,0,0,4.43,7.61c.89.93,2.74,1.86,2.88,0,.44-4.43,4.42-7.48,4.07-12.75a33.49,33.49,0,0,1,3.36-16.64,37.56,37.56,0,0,0-1-38.64,4.12,4.12,0,0,1-.71-4.43,10.58,10.58,0,0,0-.88-8.85c-3.5,3.81-7.53,7.22-7.71,12.48a155.61,155.61,0,0,0-.75,24.61,45.6,45.6,0,0,1-7.21,30.59c-1.55,1.72-1.11,5.35-3.23,5.75-4.78.89-4.16,4.43-4.21,7.26v27.09a36.76,36.76,0,0,1-3,14.43c-1,2.48-2.52,3.45-3.76.48-2.57-6-6-11.72-5-18.67.66-4.43,5.18-8.86,1.28-13.81a9.94,9.94,0,0,1,.75-1.33,12.72,12.72,0,0,0,2.31-8,135.76,135.76,0,0,0-1.64-26.56,229.57,229.57,0,0,0-7.79-36,60,60,0,0,0-6.2-15.76,299,299,0,0,1-15.27-29.35,15,15,0,0,1-1.15-12.3,62.93,62.93,0,0,0,3-25c0-25.14,0-50.28,2-75.24,1-13.28.44-26.25,3.63-39.17-4.87,5.62-5.14,13.72-10.27,19.78a11,11,0,0,1,0-10.35c.79-2,2.08-3.72,2.92-5.67.53-1.28,1-3.14-.44-3.9s-2.48,1-3.06,2.13a46.77,46.77,0,0,0-5.66,20.27v13.86c-1.51-12.8-2.26-25.59-2.88-38.42,0-.67.44-2.93,1.11-1.82,2.12,3.5,2.74.62,3.27-.62a6.53,6.53,0,0,1,4-3.94,5.17,5.17,0,0,0,3.28-4.42c1-5.54,2-11.11,3-16.69a296.08,296.08,0,0,1,11.11-47.49c2.26-6.51,5.89-13.59,14.26-13.9,5.57,0,10.71-2.13,16.15-2.57,3.41-.31,3.9-2.52,2.35-5.4s-2.79-5.75-4.43-8.45A72.32,72.32,0,0,1,151.7,63a67,67,0,0,1,16.11-39.83A75.23,75.23,0,0,1,207.29.25Zm9.83,84.89c-3.15.89-4.43,3.46-6,5.67-3.23,4.43-3,10.67-8.28,13.68-1.2.7-2,2.17-3.63,1.63s-2.08-2.34-2.12-3.94a18.24,18.24,0,0,1,.13-4.55,40.57,40.57,0,0,0,1.24-16.29c-.27-1.64,0-3.72,1.28-4.43,5.31-2.39,4.43-7.3,5.4-11.77a5.47,5.47,0,0,0-3.76,2.48c-8.41,10-10.85,39.83-4.16,51,.44.7,1.15,1.68,1.77,1.72,1.33,0,1.33-1.37,1.68-2.3,1.46-4,1.82-9.12,4.43-11.64C211.72,100.46,211.85,91.61,217.12,85.14ZM197.2,251.88l1.33.4c.66-1.6,1.24-3.23,1.94-4.83a87.55,87.55,0,0,1,7.66-17.39c2-2.66,2.13-4.43,0-6.91s-2-4.69.75-7.08c5-4.43,4.12-8.28-1.9-10.67-1.19-.44-2.48-1-3.32.27s0,2.26,1.11,3.14,3.23.89,3.1,3c-1.51,1.41-4.43-1.55-4.43.79s-2.44,6.11,0,8.59c4.12,4.12,2.7,8.28,1,12.66ZM165.46,622.13c-12.26,1.06-24.25,3-34.52,10.62a8.85,8.85,0,0,0-3.5,8.54C138.24,629.56,153.56,629.52,165.46,622.13ZM145.81,387.54h-1.42c.89,9.21,1,18.59,5.32,27.09a99.56,99.56,0,0,1,11.46,36.78,31.24,31.24,0,0,0-4.43-27.93A56.29,56.29,0,0,1,147,398c-.27-3.58-.71-7.13-1.2-10.71ZM415,1154.89l99.06,2.75ZM136,186.15c1.95-16.73,3.5-33.46,6.33-50.06C135.63,152,136,169,136,186.15Zm114.28-42c-1.94,2.53,0,5.89-1.24,6.51-6.41,2.83-2.34,7.57-2.48,11.47,0,1.15.4,2.56,2,2.61a2.67,2.67,0,0,0,2.66-2.17C252.53,156.58,254.12,150.74,250.31,144.14ZM130.63,292.38a447.62,447.62,0,0,0,2.7-68Q132,258.52,130.63,292.38Z"/>
        </g>
      </g>
      <g>
        <path class="cls-2" d="M1643.15,365.32a41.4,41.4,0,0,0-40.29,31.88h80.57A41.4,41.4,0,0,0,1643.15,365.32Z"/>
        <polygon class="cls-2" points="1644.16 365.32 1644.16 329.57 1655.91 329.57 1655.91 327.55 1644.16 327.55 1644.16 308.98 1642.14 308.98 1642.14 327.55 1630.38 327.55 1630.38 329.57 1642.14 329.57 1642.14 365.32 1643.15 365.32 1644.16 365.32"/>
        <path class="cls-2" d="M1595.44,479.9v83.65h95.41V479.9h10.94l-58.64-29.42-47.71,23.93h0l-10.94,5.49Zm59.06,60.24h-22.71V501.29a11.36,11.36,0,1,1,22.71,0Z"/>
        <polygon class="cls-2" points="1643.15 444.81 1679.12 462.87 1682.15 464.39 1682.15 402.86 1604.14 402.86 1604.14 464.29 1607.17 462.87 1643.15 444.81"/>
        <path class="cls-2" d="M1573.81,690.21h138.67v-120h19.9v-2H1553.91v2h19.9Zm81.75-101.73H1683v70.45h-27.43Zm-52.26,0h27.43v70.45H1603.3Z"/>
        <path class="cls-2" d="M1497.07,865.71v2h14.67V1031h262.82V867.74h14.66v-2ZM1667,1005.16h-47.67V890.09H1667Z"/>
        <path class="cls-2" d="M1546.24,861.06h193.81V696.89h20.22v-2H1526v2h20.21Zm138.67-137h36.76v93.24h-36.76Zm-59.06-8.43h34.6V833.33h-34.6Zm-61.23,8.43h36.76v93.24h-36.76Z"/>
      </g>
      <g>
        <rect class="cls-2" x="844.06" y="782.06" width="545.17" height="10.27"/>
        <rect class="cls-2" x="844.06" y="832.4" width="545.17" height="10.26"/>
        <rect class="cls-2" x="844.06" y="941.08" width="545.17" height="12.59"/>
        <rect class="cls-2" x="844.06" y="796.58" width="545.17" height="30.87"/>
        <path class="cls-2" d="M886.73,936.09h6V854.82a3.66,3.66,0,0,0,1.48.3,3.75,3.75,0,0,0,0-7.5h-15a3.75,3.75,0,0,0,0,7.5,3.66,3.66,0,0,0,1.48-.3v81.27Z"/>
        <path class="cls-2" d="M1071.41,936.09h6V854.82a3.57,3.57,0,0,0,1.46.3,3.75,3.75,0,1,0,0-7.5h-15a3.75,3.75,0,0,0,0,7.5,3.58,3.58,0,0,0,1.47-.3v81.27Z"/>
        <path class="cls-2" d="M1121.55,936.09h6V854.82a3.61,3.61,0,0,0,1.47.3,3.75,3.75,0,0,0,0-7.5h-15a3.75,3.75,0,0,0,0,7.5,3.61,3.61,0,0,0,1.47-.3v81.27Z"/>
        <path class="cls-2" d="M1168.44,936.09h6V854.82a3.61,3.61,0,0,0,1.47.3,3.75,3.75,0,0,0,0-7.5h-15a3.75,3.75,0,0,0,0,7.5,3.58,3.58,0,0,0,1.47-.3v81.27Z"/>
        <path class="cls-2" d="M1217,936.09h6V854.82a3.61,3.61,0,0,0,1.47.3,3.75,3.75,0,0,0,0-7.5h-15a3.75,3.75,0,0,0,0,7.5,3.61,3.61,0,0,0,1.47-.3v81.27Z"/>
        <path class="cls-2" d="M1303,936.09h6V854.82a3.61,3.61,0,0,0,1.47.3,3.75,3.75,0,0,0,0-7.5h-15a3.75,3.75,0,0,0,0,7.5,3.61,3.61,0,0,0,1.47-.3v81.27Z"/>
        <path class="cls-2" d="M1353.12,936.09h6V854.82a3.66,3.66,0,0,0,1.48.3,3.75,3.75,0,0,0,0-7.5h-15a3.75,3.75,0,1,0,0,7.5,3.65,3.65,0,0,0,1.47-.3v81.27Z"/>
        <rect class="cls-2" x="965.14" y="847.62" width="52.44" height="88.48"/>
        <rect class="cls-2" x="1238.81" y="847.62" width="40.08" height="88.48"/>
        <path class="cls-2" d="M913.63,746.35h-3a90.65,90.65,0,0,1-3.6-26.1h2.24v-5.14h-5.06V562.17a4.95,4.95,0,1,0,1.93-9.5H886.37a4.95,4.95,0,1,0,0,9.89,5.05,5.05,0,0,0,1.94-.39V715.11h-5.07v5.14h2.24a90.65,90.65,0,0,1-3.6,26.1h-3v5.13h34.74Z"/>
        <path class="cls-2" d="M943,746.35v5.13h34.75v-5.13h-3a90.88,90.88,0,0,1-3.59-26.1h2.23v-5.14h-5.06V562.17a5,5,0,0,0,1.94.39,4.95,4.95,0,1,0,0-9.89H950.51a4.95,4.95,0,1,0,1.94,9.5V715.11h-5.06v5.14h2.24a90.65,90.65,0,0,1-3.6,26.1Z"/>
        <path class="cls-2" d="M1125.22,746.35v5.13H1160v-5.13h-3a90.65,90.65,0,0,1-3.6-26.1h2.23v-5.14h-5.06V562.17a5,5,0,0,0,1.94.39,4.95,4.95,0,1,0,0-9.89h-19.79a4.95,4.95,0,1,0,1.94,9.5V715.11h-5.06v5.14h2.24a90.65,90.65,0,0,1-3.6,26.1Z"/>
        <path class="cls-2" d="M1193.46,746.35v5.13h34.75v-5.13h-3a90.65,90.65,0,0,1-3.6-26.1h2.24v-5.14h-5.06V562.17a4.95,4.95,0,1,0,1.94-9.5h-19.79a4.95,4.95,0,0,0,0,9.89,5,5,0,0,0,1.94-.39V715.11h-5.06v5.14h2.24a90.65,90.65,0,0,1-3.6,26.1Z"/>
        <path class="cls-2" d="M1258.85,746.35v5.13h34.75v-5.13h-3a90.65,90.65,0,0,1-3.6-26.1h2.24v-5.14h-5.06V562.17a5,5,0,0,0,1.94.39,4.95,4.95,0,0,0,0-9.89h-19.79a4.95,4.95,0,1,0,1.94,9.5V715.11h-5.06v5.14h2.24a90.65,90.65,0,0,1-3.6,26.1Z"/>
        <rect class="cls-2" x="844.06" y="755.72" width="453.6" height="22.09"/>
        <rect class="cls-2" x="1045.59" y="651.02" width="51.27" height="100.46"/>
        <rect class="cls-2" x="879.76" y="520.4" width="99.1" height="28.02"/>
        <rect class="cls-2" x="1118.49" y="520.4" width="177.65" height="28.02"/>
        <path class="cls-2" d="M1160,510.31h-3a90.65,90.65,0,0,1-3.6-26.1h2.23v-5.13h-5.06V326.13a5,5,0,0,0,1.94.39,4.95,4.95,0,1,0,0-9.89h-19.79a4.95,4.95,0,1,0,1.94,9.5v153h-5.06v5.13h2.24a90.65,90.65,0,0,1-3.6,26.1h-3v5.13H1160Z"/>
        <path class="cls-2" d="M1193.46,510.31v5.13h34.75v-5.13h-3a90.65,90.65,0,0,1-3.6-26.1h2.24v-5.13h-5.06V326.13a4.95,4.95,0,1,0,1.94-9.5h-19.79a4.95,4.95,0,0,0,0,9.89,5,5,0,0,0,1.94-.39v153h-5.06v5.13h2.24a90.65,90.65,0,0,1-3.6,26.1Z"/>
        <path class="cls-2" d="M1258.85,510.31v5.13h34.75v-5.13h-3a90.65,90.65,0,0,1-3.6-26.1h2.24v-5.13h-5.06V326.13a5,5,0,0,0,1.94.39,4.95,4.95,0,0,0,0-9.89h-19.79a4.95,4.95,0,1,0,1.94,9.5v153h-5.06v5.13h2.24a90.65,90.65,0,0,1-3.6,26.1Z"/>
        <rect class="cls-2" x="1127.75" y="283.65" width="168.39" height="28.02"/>
      </g>
      <polygon class="cls-2" points="655.05 1157.69 846.55 953.72 1395.2 953.72 1620.04 1157.69 650.46 1158.34 655.05 1157.69"/>
      <g>
        <path class="cls-2" d="M2165.6,769.73H2196Q2180.82,769.67,2165.6,769.73Z"/>
        <path class="cls-2" d="M2165.6,792.54q15.21.13,30.43,0Z"/>
        <path class="cls-2" d="M2209,769.76l30.39.26Q2224.16,769.84,2209,769.76Z"/>
        <path class="cls-2" d="M2209,792.46q15.21-.21,30.39-.68Z"/>
        <path class="cls-2" d="M2252.33,770.12l30.28.52Q2267.51,770.33,2252.33,770.12Z"/>
        <path class="cls-2" d="M2252.33,791.52q15.16-.56,30.28-1.36Z"/>
        <path class="cls-2" d="M2109.3,770.12q-15.16.21-30.27.52Z"/>
        <path class="cls-2" d="M2109.3,791.52,2079,790.16Q2094.13,791,2109.3,791.52Z"/>
        <path class="cls-2" d="M2122.3,770l30.39-.26Q2137.48,769.83,2122.3,770Z"/>
        <path class="cls-2" d="M2122.3,791.78q15.16.47,30.39.68Z"/>
        <path class="cls-2" d="M2541.58,700.64a52.87,52.87,0,0,0,22.89-5l-1-1.8a51.86,51.86,0,0,1-43.53,0l-.41.89h0c-23.9-11.11-57.13-38.34-99.42-38.34-18.66,0-35.56,5.31-50.67,12.19l-10.79-1.8V658.2h2.47a.66.66,0,0,0,.66-.66v-.94a.67.67,0,0,0-.66-.66h-1.55v-13h1.67v0h0a7.55,7.55,0,0,0-6.52-7.48v-2.58a1.14,1.14,0,1,0-2.27,0v2.6a7.56,7.56,0,0,0-6.32,7.46h0v0h1.67v13h-1.55a.67.67,0,0,0-.66.66v.94a.66.66,0,0,0,.66.66h2.47v6.87c-29.12-4.8-80.59-13.07-124.4-19.07l-1.39-2.3c-16.17-26.76-35.58-26.12-49-26.12s-32.89-.64-49.06,26.12q-1.38,2.29-2.79,4.59c-41.4,5.65-88.44,13.13-117.25,17.84V658.2h2.47a.65.65,0,0,0,.66-.66v-.94a.66.66,0,0,0-.66-.66h-1.55v-13h1.67v0h0a7.54,7.54,0,0,0-6.52-7.48v-2.58a1.14,1.14,0,1,0-2.27,0v2.6a7.55,7.55,0,0,0-6.32,7.46h0v0h1.67v13h-1.55a.67.67,0,0,0-.66.66v.94a.66.66,0,0,0,.66.66h2.47v9.42l2.22-.23c-7.68,1.27-13.46,2.23-16.62,2.77-16-7.67-34.06-13.84-54.19-13.84-42.28,0-75.52,27.23-99.41,38.34h0l-.41-.88c-.67.32-1.34.61-2,.88h-3.33v1.25a52,52,0,0,1-38.2-2.1l-1,1.8a54,54,0,0,0,39.17,2.47v15.79h-8.48v134H1817l27.24,57.36v69.92h-6.2v14.22h658.38V975.22h5.68v-70l27.24-57.36h4.42v-134h-8.48V698.08A52.92,52.92,0,0,0,2541.58,700.64Zm-28.88,41.18v66.32h-30.36V741.82Zm-152-50.19c18.81-13,28.54-23.49,56.74-23.49s37.92,10.5,56.73,23.49c15.38,10.63,22.64,12.16,22.64,12.16H2338S2345.27,702.26,2360.65,691.63Zm99,50.19v66.32h-30.36V741.82Zm-53,0v66.32h-30.36V741.82Zm-83.36,0h30.35v66.32h-30.35Zm-77.53,229h-2.59a.82.82,0,0,0-.82.81v2.75a.82.82,0,0,0,.82.81h-38.43a.81.81,0,0,0,.8-.81v-2.75a.81.81,0,0,0-.8-.81h-2.6V847.93h43.62Zm-149.25,0H2094V847.93h43.61V970.85H2135a.81.81,0,0,0-.81.81v2.75a.81.81,0,0,0,.81.81h-38.43a.81.81,0,0,0,.81-.81v-2.75A.81.81,0,0,0,2096.55,970.85Zm50.15,0h-2.59V847.93h51.54V970.85h-2.59a.81.81,0,0,0-.81.81v2.75a.81.81,0,0,0,.81.81H2146.7a.81.81,0,0,0,.8-.81v-2.75A.81.81,0,0,0,2146.7,970.85Zm6-224v71.91q-15.21-.54-30.39-1.77V748Q2137.46,747.19,2152.69,746.83Zm-30.39-2.89v-2.57a22.33,22.33,0,0,0,7.42-7,9,9,0,0,1,7.76-4.33,7.91,7.91,0,0,1,7.77,3.51,20.33,20.33,0,0,0,7.44,6.52v2.68q-7.61.18-15.21.49C2132.42,743.42,2127.35,743.66,2122.3,743.94Zm73.73,2.73V819q-15.21.36-30.43,0V746.67Q2180.81,746.43,2196,746.67Zm-30.43-4.09v-2.7a21.45,21.45,0,0,0,7.44-6.94,9.52,9.52,0,0,1,15.55,0,21.54,21.54,0,0,0,7.44,6.94v2.7q-7.61-.12-15.22-.12T2165.6,742.58Zm73.74,5.45V817q-15.18,1.23-30.39,1.77V746.83Q2224.16,747.19,2239.34,748Zm-30.39-5.3v-2.68a20.35,20.35,0,0,0,7.43-6.52,7.91,7.91,0,0,1,7.77-3.51,9,9,0,0,1,7.76,4.33,22.21,22.21,0,0,0,7.43,7v2.57q-7.59-.42-15.19-.72T2209,742.73Zm73.66,8.19v61.84q-15.11,2.12-30.28,3.53V748.5Q2267.5,749.46,2282.61,750.92Zm-15.13-17.58a9.92,9.92,0,0,1,7.73,4.44,22.89,22.89,0,0,0,7.4,6.74v2.31q-7.56-.74-15.13-1.33t-15.15-1.09v-2.53a19.34,19.34,0,0,0,7.42-5.74A7.75,7.75,0,0,1,2267.48,733.34ZM2134,662.15c12.21-17.7,36.54-17.2,36.54-17.2s24.33-.5,36.54,17.2,19.45,42.38,53.1,56.84a429,429,0,0,0-179.28,0C2114.56,704.53,2121.79,679.85,2134,662.15Zm-55,82.37a22.91,22.91,0,0,0,7.39-6.74,9.93,9.93,0,0,1,7.73-4.44,7.77,7.77,0,0,1,7.74,2.8,19.26,19.26,0,0,0,7.41,5.74v2.53q-7.58.48-15.15,1.09T2079,746.83Zm0,45.64V750.92q15.1-1.45,30.27-2.42v67.79q-15.16-1.41-30.27-3.53Zm-206.78-98.53c18.81-13,28.55-23.49,56.74-23.49s37.93,10.5,56.74,23.49c15.38,10.63,22.63,12.16,22.63,12.16H1849.62S1856.87,702.26,1872.25,691.63Zm150.8,50.19v66.32h-30.36V741.82Zm-53,0v66.32h-30.36V741.82Zm-53,0v66.32h-30.36V741.82Zm-83.36,0H1864v66.32h-30.36Zm-8,106.11v-7.41h200v7.41h-51v20.24h-4.51V847.93h-55.8v20.24h-4.51V847.93ZM2015,872.07v61.74h-30.35V872.07Zm-58.37,0v61.74h-30.36V872.07Zm-58.37,0v61.74h-30.36V872.07Zm140.38-24.14h48.8V970.85h-2.6a.81.81,0,0,0-.8.81v2.75a.81.81,0,0,0,.8.81h-46.2V847.93Zm269.12,127.29h-52.83a.81.81,0,0,0,.81-.81v-2.75a.81.81,0,0,0-.81-.81h-2.59V847.93h55.42V975.22Zm23.63-41.41V872.07h30.36v61.74Zm58.37,0V872.07h30.36v61.74Zm58.38,0V872.07h30.35v61.74Zm73.64-85.88h-85.13v20.24h-4.51V847.93h-55.8v20.24h-4.51V847.93h-52.06v-7.41h202Z"/>
      </g>
      <polygon class="cls-2" points="1148.74 1158.09 1664.29 981.05 2509.92 981.05 2584.25 1158.35 1148.74 1158.09"/>
      <polygon class="cls-2" points="3130.3 1157.57 2726.68 871.57 2579.51 871.57 2386.39 1158.35 3130.3 1157.57"/>
      <g>
        <polygon class="cls-2" points="3449.94 675.95 3460.4 675.95 3470.57 597.67 3449.94 597.67 3449.94 675.95"/>
        <polygon class="cls-2" points="3322.3 675.95 3311.85 675.95 3301.68 597.67 3322.3 597.67 3322.3 675.95"/>
        <path class="cls-2" d="M3327.56,597.67v559.67h117.12V597.67Zm32.18,510.63h-16.07v-14.23h16.07Zm0-30.77h-16.07v-14.22h16.07Zm0-30.77h-16.07v-14.22h16.07Zm0-30.76h-16.07v-14.23h16.07Zm0-30.77h-16.07V971h16.07Zm0-30.76h-16.07V940.24h16.07Zm0-30.77h-16.07V909.47h16.07Zm0-30.77h-16.07V878.71h16.07Zm0-30.76h-16.07V847.94h16.07Zm0-30.77h-16.07V817.18h16.07Zm0-30.77h-16.07V786.41h16.07Zm0-30.76h-16.07V755.64h16.07Zm0-30.77h-16.07V724.88h16.07Zm0-30.76h-16.07V694.11h16.07Zm.85-27.13h-6.31V602.93h6.31Zm12.82-78.28h6.31v78.28h-6.31Zm21,505.37h-16.07v-14.23h16.07Zm0-30.77h-16.07v-14.22h16.07Zm0-30.77h-16.07v-14.22h16.07Zm0-30.76h-16.07v-14.23h16.07Zm0-30.77h-16.07V971h16.07Zm0-30.76h-16.07V940.24h16.07Zm0-30.77h-16.07V909.47h16.07Zm0-30.77h-16.07V878.71h16.07Zm0-30.76h-16.07V847.94h16.07Zm0-30.77h-16.07V817.18h16.07Zm0-30.77h-16.07V786.41h16.07Zm0-30.76h-16.07V755.64h16.07Zm0-30.77h-16.07V724.88h16.07Zm0-30.76h-16.07V694.11h16.07Zm4.4-27.13h-6.31V602.93h6.31Zm12.82-78.28H3418v78.28h-6.31Zm17.47,505.37h-16.07v-14.23h16.07Zm0-30.77h-16.07v-14.22h16.07Zm0-30.77h-16.07v-14.22h16.07Zm0-30.76h-16.07v-14.23h16.07Zm0-30.77h-16.07V971h16.07Zm0-30.76h-16.07V940.24h16.07Zm0-30.77h-16.07V909.47h16.07Zm0-30.77h-16.07V878.71h16.07Zm0-30.76h-16.07V847.94h16.07Zm0-30.77h-16.07V817.18h16.07Zm0-30.77h-16.07V786.41h16.07Zm0-30.76h-16.07V755.64h16.07Zm0-30.77h-16.07V724.88h16.07Zm0-30.76h-16.07V694.11h16.07Z"/>
        <polygon class="cls-2" points="3833.19 842.68 3449.94 842.68 3449.94 794.51 3788.17 794.51 3833.19 842.68"/>
        <polygon class="cls-2" points="2869.97 842.68 3322.3 842.68 3322.3 794.51 2914.99 794.51 2869.97 842.68"/>
        <rect class="cls-2" x="3489.89" y="1108.3" width="10.37" height="49.04"/>
        <rect class="cls-2" x="3554.3" y="1108.3" width="10.37" height="49.04"/>
        <rect class="cls-2" x="3618.72" y="1108.3" width="10.37" height="49.04"/>
        <rect class="cls-2" x="3683.13" y="1108.3" width="10.38" height="49.04"/>
        <path class="cls-2" d="M3783.06,847.94v31.79h-15.13V847.94h-8.71v31.79h-15.14V847.94H3713v31.79h-15.14V847.94h-8.71v31.79H3674V847.94h-28.81v31.79H3630V847.94h-8.71v31.79h-15.14V847.94h-28.82v31.79h-15.13V847.94h-8.71v31.79h-15.14V847.94h-28.82v31.79h-15.14V847.94h-8.7v31.79h-15.14V847.94h-20.63V1108.3h291.43v49h91.82V847.94Zm-298.34,191.71h-14.15v-52.4h14.15Zm0-68.64h-14.15V940.24h14.15Zm27.89,68.64h-14.16v-52.4h14.16Zm0-68.64h-14.16V940.24h14.16Zm27.88,68.64h-14.15v-52.4h14.15Zm0-68.64h-14.15V940.24h14.15Zm27.89,68.64h-14.16v-52.4h14.16Zm0-68.64h-14.16V940.24h14.16Zm27.88,68.64h-14.15v-52.4h14.15Zm0-68.64h-14.15V940.24h14.15Zm27.89,68.64H3610v-52.4h14.16Zm0-68.64H3610V940.24h14.16Zm27.88,68.64h-14.15v-52.4H3652Zm0-68.64h-14.15V940.24H3652Zm27.89,68.64h-14.16v-52.4h14.16Zm0-68.64h-14.16V940.24h14.16Zm27.88,68.64h-14.15v-52.4h14.15Zm0-68.64h-14.15V940.24h14.15Zm27.89,68.64h-14.16v-52.4h14.16Zm0-68.64h-14.16V940.24h14.16Zm27.88,68.64h-14.15v-52.4h14.15Zm0-68.64h-14.15V940.24h14.15Zm27.89,68.64H3777.3v-52.4h14.16Zm0-68.64H3777.3V940.24h14.16Z"/>
        <path class="cls-2" d="M3301.68,847.94v31.79h-15.14V847.94h-8.7v31.79H3262.7V847.94h-21.14v31.79h-15.14V847.94h-8.7v31.79h-15.15V847.94h-21.13v31.79H3166.3V847.94h-8.71v31.79h-15.13V847.94h-21.14v31.79h-15.14V847.94h-8.71v31.79h-15.14V847.94h-21.14v31.79h-15.13V847.94h-8.71v31.79h-15.14V847.94h-21.14v31.79h-15.14V847.94h-8.7v31.79h-15.14V847.94H2941v31.79h-15.14V847.94h-8.7v31.79H2902V847.94h-32v309.4H3322.3V847.94Zm-384.57,217.91H2902v-21.4h15.14Zm0-45H2902v-21.4h15.14Zm0-45H2902v-21.4h15.14Zm0-45H2902V909.47h15.14Zm34.95,135h-15.13v-21.4h15.13Zm0-45h-15.13v-21.4h15.13Zm0-45h-15.13v-21.4h15.13Zm0-45h-15.13V909.47h15.13Zm35,135h-15.14v-21.4H2987Zm0-45h-15.14v-21.4H2987Zm0-45h-15.14v-21.4H2987Zm0-45h-15.14V909.47H2987Zm35,135h-15.14v-21.4H3022Zm0-45h-15.14v-21.4H3022Zm0-45h-15.14v-21.4H3022Zm0-45h-15.14V909.47H3022Zm35,135h-15.14v-21.4H3057Zm0-45h-15.14v-21.4H3057Zm0-45h-15.14v-21.4H3057Zm0-45h-15.14V909.47H3057Zm35,135h-15.13v-21.4h15.13Zm0-45h-15.13v-21.4h15.13Zm0-45h-15.13v-21.4h15.13Zm0-45h-15.13V909.47h15.13Zm35,135h-15.13v-21.4h15.13Zm0-45h-15.13v-21.4h15.13Zm0-45h-15.13v-21.4h15.13Zm0-45h-15.13V909.47h15.13Zm35,135H3146.7v-21.4h15.14Zm0-45H3146.7v-21.4h15.14Zm0-45H3146.7v-21.4h15.14Zm0-45H3146.7V909.47h15.14Zm35,135h-15.14v-21.4h15.14Zm0-45h-15.14v-21.4h15.14Zm0-45h-15.14v-21.4h15.14Zm0-45h-15.14V909.47h15.14Zm35,135h-15.14v-21.4h15.14Zm0-45h-15.14v-21.4h15.14Zm0-45h-15.14v-21.4h15.14Zm0-45h-15.14V909.47h15.14Zm35,135h-15.14v-21.4h15.14Zm0-45h-15.14v-21.4h15.14Zm0-45h-15.14v-21.4h15.14Zm0-45h-15.14V909.47h15.14Zm35,135h-15.14v-21.4h15.14Zm0-45h-15.14v-21.4h15.14Zm0-45h-15.14v-21.4h15.14Zm0-45h-15.14V909.47h15.14Z"/>
        <polygon class="cls-2" points="3399.88 503.55 3399.88 492.88 3386.66 492.88 3386.66 435.73 3384.03 435.73 3384.03 492.88 3370.8 492.88 3370.8 503.55 3364.2 503.55 3364.2 592.41 3380.54 592.41 3380.54 503.55 3391.71 503.55 3391.71 592.41 3408.06 592.41 3408.06 503.55 3399.88 503.55"/>
      </g>
      <g>
        <polygon class="cls-2" points="3832.65 1084.61 3832.65 1090.82 3832.65 1092.87 3832.65 1103.87 4239.07 1103.87 4239.07 1092.87 4239.07 1090.82 4239.07 1084.61 3832.65 1084.61"/>
        <rect class="cls-2" x="3858.22" y="1105.92" width="15.71" height="53.05"/>
        <rect class="cls-2" x="3926.13" y="1105.92" width="15.71" height="53.05"/>
        <rect class="cls-2" x="3994.05" y="1105.92" width="15.71" height="53.05"/>
        <rect class="cls-2" x="4061.96" y="1105.92" width="15.71" height="53.05"/>
        <rect class="cls-2" x="4129.88" y="1105.92" width="15.71" height="53.05"/>
        <rect class="cls-2" x="4197.79" y="1105.92" width="15.71" height="53.05"/>
        <path class="cls-2" d="M3858.22,1082.57h15.71V940.23h3.28v-2.05h-9.88V907.89h-2v30.29h-10.17v2.05h3.1Zm9.11-135.33v-2.78h1.5v7.1h-5v-7.1h1.49v2.78Z"/>
        <path class="cls-2" d="M3926.13,1082.57h15.71V940.23H3945v-2.05h-9.87V907.89h-2v30.29H3923v2.05h3.18Zm9-135.33v-2.78h1.49v7.1h-5v-7.1h1.5v2.78Z"/>
        <path class="cls-2" d="M3994.05,1082.57h15.71V940.23H4013v-2.05h-9.88V907.89h-2v30.29h-10.17v2.05h3.19Zm9-135.33v-2.78h1.5v7.1h-5v-7.1H4001v2.78Z"/>
        <path class="cls-2" d="M4062,1082.57h15.71V940.23h3.19v-2.05H4071V907.89h-2v30.29h-10.17v2.05H4062Zm9-135.33v-2.78h1.49v7.1h-5v-7.1h1.5v2.78Z"/>
        <path class="cls-2" d="M4129.88,1082.57h15.71V940.23h3.19v-2.05h-9.87V907.89h-2.05v30.29h-10.17v2.05h3.19Zm9-135.33v-2.78h1.49v7.1h-5v-7.1h1.49v2.78Z"/>
        <path class="cls-2" d="M4197.79,1082.57h15.71V940.23h3.19v-2.05h-9.87V907.89h-2v30.29h-10.17v2.05h3.18Zm9-135.33v-2.78h1.49v7.1h-5v-7.1h1.5v2.78Z"/>
      </g>
      <g>
        <rect class="cls-2" x="2573.77" y="392.73" width="153.96" height="9.23"/>
        <rect class="cls-2" x="2583.01" y="557.65" width="135.47" height="9.23"/>
        <path class="cls-2" d="M2650.75,387h72.72l-40.12-18.08-31.58-72.62V252.72h-2.05v43.59l-31.57,72.62L2578,387h72.72Zm-39.59-5.39,22.72-12.87,15.88-62.4,1,.25,1-.25,15.87,62.4,22.73,12.87-1,1.78-23.48-13.3-.11-.43-14-54.9v67.74h-2.05V314.77l-14.07,55.33-23.48,13.3Z"/>
        <polygon class="cls-2" points="2650.75 310.75 2650.6 311.33 2650.89 311.33 2650.75 310.75"/>
        <path class="cls-2" d="M2713.18,406.06H2589.76v66.43h-16v9.23h154v-9.23h-14.55Zm-84.73,66.43h-33.78V419.24a8,8,0,0,0,1.85-.66c4.82-2.38,8.81-7.89,13.79-7.89s9,5.51,13.79,7.89a6,6,0,0,0,4.35.65Zm41.14,0h-36.23V419.25a6.09,6.09,0,0,0,4.3-.67c4.82-2.38,8.81-7.89,13.79-7.89s9,5.51,13.79,7.89a6,6,0,0,0,4.35.65Zm38.68,0H2674.5V419.25a6.05,6.05,0,0,0,4.29-.67c4.82-2.38,8.81-7.89,13.8-7.89s9,5.51,13.79,7.89a8,8,0,0,0,1.89.67Z"/>
        <path class="cls-2" d="M2613.4,584.14a10,10,0,0,0-10,10v10.73h-8.68V780.29h112V604.86h-8.69V594.13a10,10,0,1,0-20,0v10.73h-17.38V594.13a10,10,0,1,0-20,0v10.73h-17.37V594.13A10,10,0,0,0,2613.4,584.14Z"/>
        <path class="cls-2" d="M2706.77,571.79h-112V600h3.78v-5.82a14.89,14.89,0,1,1,29.78,0V600h7.56v-5.82a14.9,14.9,0,1,1,29.79,0V600h7.56v-5.82a14.9,14.9,0,1,1,29.79,0V600h3.78Z"/>
        <polygon class="cls-2" points="2580.02 871.57 2633.14 871.57 2633.14 823.88 2668.35 823.88 2668.35 871.57 2721.47 871.57 2721.47 786.84 2580.02 786.84 2580.02 871.57"/>
        <path class="cls-2" d="M2679.62,553.56h38.86V486.63H2584.65v66.93h95Zm12-56.75h11.86v27.06h-11.86Zm-82.84,27.06h-11.87V496.81h11.87Zm16.5,25.67h-3.84V489.65h3.84Zm52.4-59.89h3.84v59.89h-3.84Z"/>
      </g>
      <rect class="cls-2" x="0.25" y="1152.97" width="4257.97" height="83.7"/>
    </g>
  </g>
</svg>
