<svg xmlns="http://www.w3.org/2000/svg" viewBox="0 0 5000.25 1651.65">
  <defs>
    <style>
      .cls-1, .cls-2 {
        fill: #1d1d1b;
      }

      .cls-1 {
        stroke: #000;
        stroke-miterlimit: 10;
        stroke-width: 0.5px;
      }
    </style>
  </defs>
  <g id="Layer_2" data-name="Layer 2">
    <g id="Layer_1-2" data-name="Layer 1">
      <g id="Layer_2-2" data-name="Layer 2">
        <g id="Layer_1-2-2" data-name="Layer 1-2">
          <path class="cls-1" d="M4769.8,31.75a92,92,0,0,1,22.14,54.73,99.25,99.25,0,0,1-16.48,62.26c-2.25,3.71-3.95,7.67-6.08,11.62s-1.46,7,3.22,7.42c7.48.6,14.53,3.52,22.19,3.52,11.5.43,16.48,10.16,19.59,19.1a405.48,405.48,0,0,1,15.26,65.24c1.27,7.67,2.67,15.33,4.07,22.93a7.13,7.13,0,0,0,4.5,6.08,8.92,8.92,0,0,1,5.47,5.41c.73,1.7,1.59,5.66,4.5.85.92-1.52,1.52,1.58,1.52,2.5-.85,17.63-1.88,35.2-3.95,52.78v-19A64.33,64.33,0,0,0,4838,299.3c-.79-1.52-2.25-3.95-4.2-2.91s-1.33,3.58-.61,5.35c1.16,2.67,2.92,5.11,4,7.78a15.07,15.07,0,0,1,0,14.23c-7.06-8.33-7.42-19.46-14.11-27.18,4.38,17.75,3.65,35.57,5,53.81,2.73,34.3,2.73,68.84,2.73,103.38a86.51,86.51,0,0,0,4.2,34.29,20.65,20.65,0,0,1-1.58,16.91,412.91,412.91,0,0,1-21,40.31,82.38,82.38,0,0,0-8.51,21.65,313.68,313.68,0,0,0-10.71,49.5A186.44,186.44,0,0,0,4791,652.9a17.4,17.4,0,0,0,3.17,11,14.49,14.49,0,0,1,1,1.82c-5.35,6.81.85,12.9,1.76,19,1.4,9.54-3.34,17.45-6.87,25.66-1.7,4.07-3.83,2.73-5.17-.67a50.63,50.63,0,0,1-4.13-19.82V652.6c-.06-3.89.79-8.76-5.78-10-2.92-.55-2.31-5.54-4.44-7.91a62.63,62.63,0,0,1-9.91-42,212.18,212.18,0,0,0-1-33.81c-.25-7.23-5.78-11.91-10.58-17.14a14.51,14.51,0,0,0-1.22,12.16,5.68,5.68,0,0,1-1,6.08,51.63,51.63,0,0,0-1.34,53.09,46,46,0,0,1,4.62,22.86c-.49,7.24,5,11.43,5.6,17.51.18,2.56,2.73,1.28,3.95,0a24.73,24.73,0,0,0,6.08-10.46,15.46,15.46,0,0,1,4.62-8.08,193.21,193.21,0,0,1-7.11,22.13c-4,10.4-1.28,21.22.54,31.68,1,4.32,4,4.56,7.12,1.76,1.7-1.64,3.22-3.46,5.11-5.59a6.09,6.09,0,0,1-.37,7.66,61.25,61.25,0,0,0-10.4,31.74c-.55,5.84-.06,11.25-.55,17.21s2.32,5.17,6.09,3.89c2.91-.91,4.62-3.64,9-3.64-4.2,6.38-10.4,10.15-12.77,17a18.8,18.8,0,0,0,0,16,53.2,53.2,0,0,1,2.85,29.37,8.65,8.65,0,0,0,3.65,9.49,7.48,7.48,0,0,1,4.2,9.06,5.69,5.69,0,0,0,1.46,4.74c1.4,2,3.16,4.14,1.4,6.51s-4.08,1.58-6.75,1.34-5.9-.79-8-1-5.05-.61-5.47,1.82,2.37,2.55,4.07,3.28c16.12,6.87,33.45,10.77,48.65,19.71,6.81,4,13.92,8.14,14.65,17.57a10.79,10.79,0,0,1-3.16,8.57c-2,2.5-3.83,3.35-6.08,0-9.18-13.74-23.9-13.44-37.4-12.52a75.39,75.39,0,0,0-30.46,7.72c-2.56,1.46-5.78,1.94-5.78,5.59s3.65,3.23,6.08,3.23c10.95,1.39,10.95,1.33,12.95,12.83a10.57,10.57,0,0,0,5.05,6.81A50.58,50.58,0,0,1,4782.88,922a13.87,13.87,0,0,0,13.5,6.39c11.18-.37,22.37,0,33.56,0,8.45.12,9.61,1.15,9.61,9.85v13.86c.06,1.76-.12,3.53,2.37,4.14s3.65-1.34,4-3.23c1.34-6.87,5.84-7.6,11.5-6.08,10.21,2.86,21.16,2.68,30.83,8.21a10,10,0,0,1,5.65,9.18c1.1,17.94,2.25,35.58,3.65,53.82,1,9.18,2.8,10.82,12.16,10.82h62.76a99.89,99.89,0,0,1,15.26.91c12.16,1.89,12.59,2.25,12.16,14.84-1.82,53.45-.12,107-1.34,160.47-1.88,83.62-2.13,167.29-2.92,250.78-.36,26-.91,52-.91,78,.12,14,3.41,28.09,2.92,42.56-.24,7.91-2.92,12.35-10.52,12.65a62.21,62.21,0,0,0-28.76,10.82,55.24,55.24,0,0,1-28.09,6.63c-8.55-.28-13.12,7-13.81,7.42-78.78,52-516.45,1-516.45,1-129.43-15.06-198-20.38-271.46,1.34-9.31,2.76-23.53,7.37-43,11.38-11.29,2.34-20.71,3.71-24.39,4.18-31.94,4-68.37-7.58-88.46-15.19,43.21-50.18,75.92-93.6,98.29-124.75,26.65-37.12,46-67.07,83.16-124.75,38.68-60,36.4-58.78,71.83-113.4,50.29-77.55,75.43-116.32,79.38-121,0,0,60.18-71,58.92-100.43,0-.7-.38-4.86,2.19-7.4,1.49-1.46,3.82-2.09,7.24-2.09h74.43c11.37,0,11.67-.54,12.83-11.61,1-9.91,2.73-19.76,4-29.61.85-6.82-1.21-13.56,2.68-20.5a10.4,10.4,0,0,1,10.52-6.63c14.83.31,30.16.92,45.24.92,13.56.12,13.56,0,13.56-13.2v-6.57c-.24-5.1,1.76-7.66,6.75-10.33a200.38,200.38,0,0,0,24.32-17.27l.55-.49c3.47-4,9.18-4.5,11.25-10s-4.93-7.66-6.08-12.16c-2.5-9.61-11.56-18.31-4.08-29.44a34.16,34.16,0,0,1,8.76-9.6,53.08,53.08,0,0,0,10.76-12.53c9.85-12.65,10.46-27.79,11.25-42.2,1.1-21.34,5.23-42.44,3.77-63.91a19,19,0,0,0-5-13.92,10.33,10.33,0,0,1-2.92-10,143.3,143.3,0,0,0-1.89-58.43c-2.92-12.77-5-25.79-7.3-38.68a18.26,18.26,0,0,1,0-6.51,227.05,227.05,0,0,0,2.5-47.24c-.49-52.3,4.92-104.41,3-156.71a88,88,0,0,0-9.61-35.45,47.53,47.53,0,0,1-3.53-32.53c8.21-29.43,8-59.83,10.1-90.24a213.49,213.49,0,0,1,3.77-35.39,19.74,19.74,0,0,1,3.46-8.69c4.56-5.48,3-10.16,0-15.82a58.37,58.37,0,0,1,0-57.88,43.89,43.89,0,0,0,3.53-22.75A97.32,97.32,0,0,1,4617.54,40c13.68-20.43,33.32-31.26,55.88-38.19l5.66-1.52h36.48A103.32,103.32,0,0,1,4769.8,31.75Zm-51.2,114.32c3.59,3.46,4.08,10.52,6.08,16,.49,1.28.49,3.16,2.31,3.16.85-.06,1.83-1.4,2.44-2.37,9.18-15.32,5.83-56.37-5.72-70a7.62,7.62,0,0,0-5.17-3.41c1.34,6.15.12,12.9,7.42,16.18,1.76,1,2.13,3.83,1.76,6.08a55.65,55.65,0,0,0,1.71,22.38,26.22,26.22,0,0,1,.18,6.26c-.06,2.19-.73,4.68-2.92,5.41s-3.34-1.27-5-2.25c-7.29-4.13-6.93-12.71-11.37-18.79-2.19-3-3.95-6.56-8.27-7.78C4709.3,125.76,4709.48,137.92,4718.6,146.07Zm.91,175.06c-2.37-6-4.31-11.73,1.34-17.39,3.35-3.4,0-8.57,0-11.79s-4,.85-6.08-1.1c-.18-2.86,2.74-2.86,4.26-4.07s2.67-2.56,1.52-4.32-2.92-1-4.56-.36c-8.27,3.28-9.49,8.57-2.62,14.65,3.83,3.28,4,6.32,1,9.73s-2.68,5.84,0,9.49a120.56,120.56,0,0,1,10.52,23.89c1,2.19,1.76,4.44,2.67,6.63l1.83-.55Zm105.75,559.81a12.16,12.16,0,0,0-4.8-11.74c-14.11-10.46-30.59-13.14-47.43-14.59C4789.38,864.76,4810.42,864.82,4825.26,880.94ZM4800,532c-.66,4.92-1.27,9.79-1.64,14.71a77.17,77.17,0,0,1-13.38,35,43,43,0,0,0-6.08,38.37,136.72,136.72,0,0,1,15.75-50.53c5.9-11.68,6.08-24.57,7.3-37.22H4800Zm-506,1058.29,136.09-3.78Zm510.7-1403.44c3.89,22.8,6,45.79,8.69,68.77C4813.52,232.05,4814,208.7,4804.77,186.87Zm-149.65,36.36a3.65,3.65,0,0,0,3.65,3c2.25-.06,2.79-2,2.79-3.58-.18-5.36,5.42-11.86-3.4-15.75-1.7-.85,1-5.48-1.7-8.94C4651.23,207,4653.42,215,4655.12,223.23Zm162.05,85a616.08,616.08,0,0,0,3.71,93.4Q4819,355.07,4817.17,308.18Z"/>
        </g>
      </g>
      <g>
        <path class="cls-2" d="M2615.07,810.8a41.42,41.42,0,0,1,40.29,31.88h-80.57A41.4,41.4,0,0,1,2615.07,810.8Z"/>
        <polygon class="cls-2" points="2614.06 810.8 2614.06 775.06 2602.31 775.06 2602.31 773.03 2614.06 773.03 2614.06 754.46 2616.08 754.46 2616.08 773.03 2627.84 773.03 2627.84 775.06 2616.08 775.06 2616.08 810.8 2615.07 810.8 2614.06 810.8"/>
        <path class="cls-2" d="M2673.72,925.38l-10.94-5.48h0L2615.07,896l-58.64,29.42h10.94V1009h95.41V925.38Zm-70,21.39a11.36,11.36,0,1,1,22.71,0v38.85h-22.71Z"/>
        <polygon class="cls-2" points="2615.07 890.3 2579.1 908.35 2576.07 909.87 2576.07 848.35 2654.07 848.35 2654.07 909.77 2651.05 908.35 2615.07 890.3"/>
        <path class="cls-2" d="M2684.41,1015.71h19.9v-2H2525.84v2h19.9v120h138.67Zm-81.75,88.71h-27.43V1034h27.43Zm52.25,0h-27.42V1034h27.42Z"/>
        <path class="cls-2" d="M2469,1311.2v2h14.66v163.22h262.82V1313.22h14.67v-2Zm122.23,24.37h47.68v115.07h-47.68Z"/>
        <path class="cls-2" d="M2712,1142.37h20.21v-2H2498v2h20.22v164.17H2712Zm-138.67,120.4h-36.76v-93.24h36.76Zm59.06,16h-34.6v-117.7h34.6Zm61.23-16h-36.76v-93.24h36.76Z"/>
      </g>
      <g>
        <rect class="cls-2" x="3792.57" y="1326.79" width="181.73" height="7.95"/>
        <rect class="cls-2" x="3794.94" y="1246.18" width="176.97" height="7.95"/>
        <path class="cls-2" d="M3798.34,1339.47v264.35h14v-61.1a71.08,71.08,0,0,1,142.16,0v61.1h14V1339.47Zm145.58,10.26h2v120.44h-2Zm-15.78,83h2v46.43h-2Zm-.72-67.73h-2v-14.08h2Zm-1,60.9h-32.38V1370.5a17.57,17.57,0,0,1,32.38,0Zm-33.36,3.91h2v34.87h-2Zm-3.21-78.89h2V1365h-2Zm-26.73,12.48h-2v-12.48h2Zm-.7,69.33h2v34.44h-2Zm-32.67-6.83V1370.5a17.57,17.57,0,0,1,32.38,0v55.39Zm-1.58,1.78h2v58.9h-2Zm0-76.76h2v16.46h-2Z"/>
        <path class="cls-2" d="M3797.08,1258.07v64h171.45v-64Zm151.85,48h4V1316h-4Zm-22.5-34.34a6,6,0,1,1,12.05,0v42.64h-12.05Zm-29.08-7.59h4v12.94h-4Zm-19.9,7.59a6,6,0,1,1,12.05,0v42.64h-12.05Zm-13.47-7.59h3.94v22.19H3864Zm-16.11,44h4v7.8h-4Zm-19.4-36.4a6,6,0,1,1,12.05,0v42.64h-12.05Zm-16.77,29.91h3.94V1316h-3.94Z"/>
        <path class="cls-2" d="M3801.88,1144.65v97.58h163.19v-97.58l-51.77-13.75h-59.65ZM3933.81,1162c0-3.15,2.17-5.17,4.86-4.52a6.82,6.82,0,0,1,4.85,6.41v53.56l-9.71-2.36Zm-21.5-22.81h2v96.42h-2Zm-34.86,21.37a6,6,0,1,1,12.05,0v52.82h-12.05Zm-25.75-21.11h2V1177h-2Zm-29.54,24.44a6.82,6.82,0,0,1,4.85-6.41c2.69-.65,4.86,1.37,4.86,4.52v53.09l-9.71,2.36Z"/>
        <path class="cls-2" d="M3814.78,1038.33v97.58h4.46l34.41-9.13h59.65l34.41,9.13h4.46v-97.58l-43.59-13.74h-50.21ZM3925,1065.15c0-6,4.14-9.84,9.24-8.61s9.25,6.7,9.25,12.21v43.35l-18.49-4.5Zm-14.4-32.47h2v78.44h-2Zm-40.93,29.49a13.78,13.78,0,0,1,27.55,0v40.17H3869.7Zm-16.79-27.59h2v79.6h-2Zm-28.64,34.17c0-5.51,4.14-11,9.24-12.21s9.25,2.62,9.25,8.61v42.45l-18.49,4.5Z"/>
        <path class="cls-2" d="M3908.58,1019h-50.21l-43.55,13.73c0-.6,0-1.19,0-1.79,0-37.57,30.75-68,68.7-68s68.69,30.46,68.69,68c0,.6,0,1.19,0,1.79Z"/>
        <path class="cls-2" d="M3884.72,962.86v0Z"/>
        <path class="cls-2" d="M3862.36,1482.62v121.2h2V1591h34.2v12.87h2v-121.2h-2v26.5h-34.2v-26.5Zm36.18,92.36v14h-34.2v-14Zm-34.2-2v-14h34.2v14Zm0-16v-14h34.2v14Zm0-16v-14h34.2v14Zm0-16v-14h34.2v14Z"/>
        <polygon class="cls-2" points="3973.53 1344.19 4114.88 1253.42 4114.88 1304.8 3973.53 1381.06 3973.53 1344.19"/>
        <rect class="cls-2" x="3532.36" y="1353.07" width="260.78" height="35.8"/>
        <path class="cls-2" d="M3532.36,1392.82v211h260.78v-211Zm19.18,179.93h19v-15.63h2v3.73h92.8v2H3647.5v10.92h-2v-10.92h-22.36v10.92h-2v-10.92h-22.35v10.92h-2v-10.92h-24.32v9.93h14.58v2h-35.58Zm-.26-77.83h93.79v2h-17.85v9.93h58.4v2h-93.79v-2h9.09v-9.93h-22.36v10.92h-2v-10.92h-25.31Zm0-62h93.79v2h-17.85v9.93h25.84v2h-61.23v-2h9.09v-9.93h-22.36v10.92h-2V1434.9h-25.31Z"/>
        <path class="cls-2" d="M3899.33,935.14h0Z"/>
        <polygon class="cls-2" points="3973.53 1603.82 3973.53 1385.79 4114.88 1309.53 4114.88 1603.82 3973.53 1603.82"/>
      </g>
      <g>
        <rect class="cls-2" x="2868.99" y="1227.55" width="545.17" height="10.27"/>
        <rect class="cls-2" x="2868.99" y="1277.88" width="545.17" height="10.26"/>
        <rect class="cls-2" x="2868.99" y="1386.56" width="545.17" height="12.59"/>
        <rect class="cls-2" x="2868.99" y="1242.06" width="545.17" height="30.87"/>
        <path class="cls-2" d="M3371.49,1381.58h-6v-81.27a3.83,3.83,0,0,1-1.48.29,3.75,3.75,0,0,1,0-7.5h15a3.75,3.75,0,0,1,0,7.5,3.83,3.83,0,0,1-1.48-.29v81.27Z"/>
        <path class="cls-2" d="M3186.81,1381.58h-6v-81.27a3.75,3.75,0,1,1-1.46-7.21h15a3.75,3.75,0,0,1,0,7.5,3.83,3.83,0,0,1-1.48-.29v81.27Z"/>
        <path class="cls-2" d="M3136.66,1381.58h-6v-81.27a3.75,3.75,0,1,1-1.47-7.21h15a3.75,3.75,0,1,1-1.47,7.21v81.27Z"/>
        <path class="cls-2" d="M3089.78,1381.58h-6v-81.27a3.82,3.82,0,0,1-1.47.29,3.75,3.75,0,1,1,0-7.5h15a3.75,3.75,0,0,1,0,7.5,3.83,3.83,0,0,1-1.48-.29v81.27Z"/>
        <path class="cls-2" d="M3041.27,1381.58h-6v-81.27a3.75,3.75,0,1,1-1.47-7.21h15a3.75,3.75,0,1,1-1.47,7.21v81.27Z"/>
        <path class="cls-2" d="M2955.24,1381.58h-6v-81.27a3.75,3.75,0,1,1-1.47-7.21h15a3.75,3.75,0,1,1-1.47,7.21v81.27Z"/>
        <path class="cls-2" d="M2905.1,1381.58h-6v-81.27a3.75,3.75,0,1,1-1.47-7.21h15a3.75,3.75,0,1,1,0,7.5,3.82,3.82,0,0,1-1.47-.29v81.27Z"/>
        <rect class="cls-2" x="3240.64" y="1293.1" width="52.44" height="88.48"/>
        <rect class="cls-2" x="2979.32" y="1293.1" width="40.08" height="88.48"/>
        <path class="cls-2" d="M3344.59,1191.83h3a90.65,90.65,0,0,0,3.6-26.1h-2.24v-5.13H3354V1007.65a4.95,4.95,0,1,1-1.93-9.5h19.78a4.95,4.95,0,1,1,0,9.89,5,5,0,0,1-1.94-.39V1160.6H3375v5.13h-2.24a90.65,90.65,0,0,0,3.6,26.1h3V1197h-34.74Z"/>
        <path class="cls-2" d="M3315.19,1191.83V1197h-34.75v-5.13h3a90.65,90.65,0,0,0,3.6-26.1h-2.24v-5.13h5.07V1007.65a5,5,0,0,1-1.94.39,4.95,4.95,0,1,1,0-9.89h19.78a4.95,4.95,0,1,1-1.93,9.5V1160.6h5.06v5.13h-2.24a90.65,90.65,0,0,0,3.6,26.1Z"/>
        <path class="cls-2" d="M3133,1191.83V1197h-34.74v-5.13h3a90.65,90.65,0,0,0,3.6-26.1h-2.24v-5.13h5.07V1007.65a5,5,0,0,1-1.94.39,4.95,4.95,0,1,1,0-9.89h19.78a4.95,4.95,0,1,1-1.93,9.5V1160.6h5.06v5.13h-2.24a90.65,90.65,0,0,0,3.6,26.1Z"/>
        <path class="cls-2" d="M3064.76,1191.83V1197H3030v-5.13h3a90.65,90.65,0,0,0,3.6-26.1h-2.24v-5.13h5.06V1007.65a5,5,0,0,1-1.94.39,4.95,4.95,0,1,1,0-9.89h19.79a4.95,4.95,0,1,1-1.94,9.5V1160.6h5.06v5.13h-2.24a90.65,90.65,0,0,0,3.6,26.1Z"/>
        <path class="cls-2" d="M2999.37,1191.83V1197h-34.75v-5.13h3a90.65,90.65,0,0,0,3.6-26.1H2969v-5.13H2974V1007.65a5,5,0,0,1-1.94.39,4.95,4.95,0,0,1,0-9.89h19.79a4.95,4.95,0,1,1-1.94,9.5V1160.6H2995v5.13h-2.24a90.65,90.65,0,0,0,3.6,26.1Z"/>
        <rect class="cls-2" x="2960.56" y="1201.21" width="453.6" height="22.09"/>
        <rect class="cls-2" x="3161.36" y="1096.5" width="51.27" height="100.46"/>
        <rect class="cls-2" x="3279.36" y="965.88" width="99.1" height="28.02"/>
        <rect class="cls-2" x="2962.08" y="965.88" width="177.65" height="28.02"/>
        <path class="cls-2" d="M3098.26,955.79h3a90.65,90.65,0,0,0,3.6-26.1h-2.24v-5.13h5.07V771.61a5,5,0,0,1-1.94.4,5,5,0,1,1,0-9.9h19.78a5,5,0,1,1-1.93,9.5V924.56h5.06v5.13h-2.24a90.65,90.65,0,0,0,3.6,26.1h3v5.13h-34.74Z"/>
        <path class="cls-2" d="M3064.76,955.79v5.13H3030v-5.13h3a90.65,90.65,0,0,0,3.6-26.1h-2.24v-5.13h5.06V771.61a5,5,0,0,1-1.94.4,5,5,0,1,1,0-9.9h19.79a5,5,0,1,1-1.94,9.5V924.56h5.06v5.13h-2.24a90.65,90.65,0,0,0,3.6,26.1Z"/>
        <path class="cls-2" d="M2999.37,955.79v5.13h-34.75v-5.13h3a90.65,90.65,0,0,0,3.6-26.1H2969v-5.13H2974V771.61a5,5,0,0,1-1.94.4,5,5,0,0,1,0-9.9h19.79a5,5,0,1,1-1.94,9.5V924.56H2995v5.13h-2.24a90.65,90.65,0,0,0,3.6,26.1Z"/>
        <rect class="cls-2" x="2962.08" y="729.13" width="168.39" height="28.02"/>
      </g>
      <polygon class="cls-2" points="3603.16 1603.17 3411.66 1399.2 2863.01 1399.2 2638.18 1603.17 3607.76 1603.82 3603.16 1603.17"/>
      <g>
        <path class="cls-2" d="M2092.62,1215.21h-30.43Q2077.4,1215.15,2092.62,1215.21Z"/>
        <path class="cls-2" d="M2092.62,1238q-15.23.15-30.43,0Z"/>
        <path class="cls-2" d="M2049.27,1215.24l-30.39.26Q2034.06,1215.32,2049.27,1215.24Z"/>
        <path class="cls-2" d="M2049.27,1237.94q-15.21-.21-30.39-.68Z"/>
        <path class="cls-2" d="M2005.89,1215.6l-30.28.52Q1990.72,1215.82,2005.89,1215.6Z"/>
        <path class="cls-2" d="M2005.89,1237q-15.17-.54-30.28-1.36Z"/>
        <path class="cls-2" d="M2148.92,1215.6q15.16.21,30.27.52Z"/>
        <path class="cls-2" d="M2148.92,1237l30.27-1.36Q2164.09,1236.45,2148.92,1237Z"/>
        <path class="cls-2" d="M2135.92,1215.5l-30.39-.26Q2120.74,1215.32,2135.92,1215.5Z"/>
        <path class="cls-2" d="M2135.92,1237.26q-15.18.48-30.39.68Z"/>
        <path class="cls-2" d="M1732.92,1143.56v15.8h-8.48v134h4.42l27.24,57.37v70h5.68v14.17h658.38v-14.22H2414v-69.91l27.24-57.37h4.42v-134h-8.48v-15.8a54,54,0,0,0,39.17-2.47l-1-1.8a52,52,0,0,1-38.2,2.1v-1.25h-3.33q-1-.41-2-.87l-.41.87h0c-23.9-11.11-57.13-38.33-99.41-38.33-20.13,0-38.2,6.16-54.19,13.83-3.16-.53-8.94-1.5-16.63-2.77l2.23.23v-9.42h2.47a.66.66,0,0,0,.66-.65v-1a.66.66,0,0,0-.66-.65h-1.55v-13H2266v-.05h0a7.55,7.55,0,0,0-6.32-7.45v-2.61a1.14,1.14,0,1,0-2.27,0v2.58a7.54,7.54,0,0,0-6.52,7.48h0v.05h1.67v13H2251a.65.65,0,0,0-.65.65v1a.65.65,0,0,0,.65.65h2.48v7.93c-28.81-4.7-75.85-12.18-117.25-17.84-.94-1.52-1.87-3.06-2.8-4.59-16.16-26.75-35.58-26.12-49-26.12s-32.88-.63-49.05,26.12c-.46.77-.93,1.54-1.4,2.31-43.8,6-95.27,14.26-124.39,19.06v-6.87H1912a.66.66,0,0,0,.66-.65v-1a.66.66,0,0,0-.66-.65h-1.55v-13h1.67v-.05h0a7.56,7.56,0,0,0-6.32-7.45v-2.61a1.14,1.14,0,1,0-2.27,0v2.58a7.55,7.55,0,0,0-6.52,7.48h0v.05h1.67v13h-1.55a.65.65,0,0,0-.66.65v1a.65.65,0,0,0,.66.65h2.47v8.51l-10.79,1.81c-15.11-6.89-32-12.19-50.67-12.19-42.29,0-75.52,27.22-99.42,38.33h0l-.41-.88a51.92,51.92,0,0,1-43.54,0l-1,1.8a54,54,0,0,0,39.17,2.47Zm43,43.74v66.32h-30.36V1187.3Zm144.32-38H1761.46s7.26-1.53,22.64-12.16c18.8-13,28.54-23.49,56.73-23.49s37.93,10.5,56.74,23.49C1913,1147.74,1920.2,1149.27,1920.2,1149.27Zm-91.31,38v66.32h-30.36V1187.3Zm53,0v66.32h-30.36V1187.3Zm53,66.32h-30.35V1187.3h30.35Zm77.53,39.79H2056v122.93h-2.6a.8.8,0,0,0-.8.8v2.75a.8.8,0,0,0,.8.81H2015a.81.81,0,0,0,.81-.81v-2.75a.8.8,0,0,0-.81-.8h-2.59Zm148.44,123.73v2.75a.81.81,0,0,0,.81.81h-38.43a.81.81,0,0,0,.81-.81v-2.75a.8.8,0,0,0-.81-.8h-2.59V1293.41h43.61v122.93h-2.59A.8.8,0,0,0,2160.86,1417.14Zm-50.15,0v2.75a.81.81,0,0,0,.81.81h-46.36a.81.81,0,0,0,.81-.81v-2.75a.8.8,0,0,0-.81-.8h-2.59V1293.41h51.54v122.93h-2.59A.8.8,0,0,0,2110.71,1417.14Zm25.21-223.63v68.94q-15.18,1.24-30.39,1.77v-71.91Q2120.74,1192.67,2135.92,1193.51Zm-15.18-4.81q-7.6-.3-15.21-.49v-2.68A20.36,20.36,0,0,0,2113,1179a7.9,7.9,0,0,1,7.77-3.52,9,9,0,0,1,7.76,4.33,22.33,22.33,0,0,0,7.42,7v2.57C2130.87,1189.14,2125.8,1188.9,2120.74,1188.7Zm-28.12,3.45v72.3q-15.23.35-30.43,0v-72.3Q2077.4,1191.91,2092.62,1192.15Zm-15.22-4.21q-7.61,0-15.21.12v-2.7a21.54,21.54,0,0,0,7.44-6.94,9.52,9.52,0,0,1,15.55,0,21.45,21.45,0,0,0,7.44,6.94v2.7Q2085,1187.94,2077.4,1187.94Zm-28.13,4.37v71.91q-15.21-.54-30.39-1.77v-68.94Q2034.06,1192.67,2049.27,1192.31Zm-15.2-3.61q-7.6.3-15.19.72v-2.57a22.31,22.31,0,0,0,7.43-7,9,9,0,0,1,7.76-4.33,7.9,7.9,0,0,1,7.77,3.52,20.38,20.38,0,0,0,7.43,6.51v2.68C2044.21,1188.34,2039.13,1188.5,2034.07,1188.7Zm-28.18,5.28v67.79q-15.17-1.41-30.28-3.53V1196.4Q1990.72,1194.95,2005.89,1194Zm-7.42-12.35a19.25,19.25,0,0,0,7.42,5.73v2.53q-7.59.48-15.16,1.09t-15.12,1.33V1190a22.89,22.89,0,0,0,7.4-6.74,9.91,9.91,0,0,1,7.72-4.44A7.76,7.76,0,0,1,1998.47,1181.63Zm178.84-17.16a429,429,0,0,0-179.28,0c33.65-14.45,40.88-39.14,53.1-56.84s36.54-17.2,36.54-17.2,24.33-.5,36.54,17.2S2143.66,1150,2177.31,1164.47Zm1.88,27.84q-7.55-.74-15.12-1.33t-15.15-1.09v-2.53a19.3,19.3,0,0,0,7.41-5.73,7.76,7.76,0,0,1,7.74-2.81,9.93,9.93,0,0,1,7.73,4.44,22.91,22.91,0,0,0,7.39,6.74Zm0,65.93q-15.11,2.12-30.27,3.53V1194q15.16,1,30.27,2.42v61.84Zm229.41-109H2249.86s7.25-1.53,22.63-12.16c18.81-13,28.55-23.49,56.74-23.49s37.93,10.5,56.74,23.49C2401.35,1147.74,2408.6,1149.27,2408.6,1149.27Zm-143.07,38v66.32h-30.36V1187.3Zm53,0v66.32h-30.36V1187.3Zm53,0v66.32h-30.36V1187.3Zm53,66.32h-30.36V1187.3h30.36Zm-76.06,39.79v20.24H2344v-20.24h-55.8v20.24h-4.51v-20.24h-51V1286h200v7.41Zm-74.9,24.14v61.74h-30.36v-61.74Zm58.38,0v61.74H2301.6v-61.74Zm58.37,0v61.74H2360v-61.74ZM2219.59,1414v6.67h-46.2a.8.8,0,0,0,.8-.81v-2.75a.8.8,0,0,0-.8-.8h-2.6V1293.41h48.8Zm-269.12,0V1293.41h55.42v122.93h-2.59a.8.8,0,0,0-.81.8v2.75a.81.81,0,0,0,.81.81h-52.83Zm-54-34.74v-61.74h30.36v61.74Zm-58.37,0v-61.74h30.35v61.74Zm-58.37,0v-61.74h30.35v61.74ZM1736.45,1286h202v7.41H1886.4v20.24h-4.51v-20.24h-55.8v20.24h-4.51v-20.24h-85.13Z"/>
      </g>
      <polygon class="cls-2" points="3109.47 1603.57 2593.93 1426.53 1748.3 1426.53 1673.97 1603.83 3109.47 1603.57"/>
      <polygon class="cls-2" points="1127.92 1603.05 1531.54 1317.05 1678.71 1317.05 1871.83 1603.83 1127.92 1603.05"/>
      <g>
        <polygon class="cls-2" points="808.27 1121.43 797.82 1121.43 787.65 1043.15 808.27 1043.15 808.27 1121.43"/>
        <polygon class="cls-2" points="935.91 1121.43 946.37 1121.43 956.54 1043.15 935.91 1043.15 935.91 1121.43"/>
        <path class="cls-2" d="M813.54,1043.15v559.67H930.66V1043.15Zm84.94,496.41h16.07v14.22H898.48Zm0-30.77h16.07V1523H898.48Zm0-30.77h16.07v14.23H898.48Zm0-30.76h16.07v14.22H898.48Zm0-30.77h16.07v14.23H898.48Zm0-30.77h16.07V1400H898.48Zm0-30.76h16.07v14.22H898.48Zm0-30.77h16.07v14.22H898.48Zm0-30.76h16.07v14.22H898.48Zm0-30.77h16.07v14.22H898.48Zm0-30.77h16.07v14.23H898.48Zm0-30.77h16.07v14.23H898.48Zm0-30.76h16.07v14.22H898.48Zm0-30.77h16.07v14.23H898.48Zm-.85-91.18h6.31v78.28h-6.31Zm-12.82,78.28H878.5v-78.28h6.31Zm-21,412.87h16.07v14.22H863.78Zm0-30.77h16.07V1523H863.78Zm0-30.77h16.07v14.23H863.78Zm0-30.76h16.07v14.22H863.78Zm0-30.77h16.07v14.23H863.78Zm0-30.77h16.07V1400H863.78Zm0-30.76h16.07v14.22H863.78Zm0-30.77h16.07v14.22H863.78Zm0-30.76h16.07v14.22H863.78Zm0-30.77h16.07v14.22H863.78Zm0-30.77h16.07v14.23H863.78Zm0-30.77h16.07v14.23H863.78Zm0-30.76h16.07v14.22H863.78Zm0-30.77h16.07v14.23H863.78Zm-4.4-91.18h6.31v78.28h-6.31Zm-12.82,78.28h-6.31v-78.28h6.31Zm-17.47,412.87h16.07v14.22H829.09Zm0-30.77h16.07V1523H829.09Zm0-30.77h16.07v14.23H829.09Zm0-30.76h16.07v14.22H829.09Zm0-30.77h16.07v14.23H829.09Zm0-30.77h16.07V1400H829.09Zm0-30.76h16.07v14.22H829.09Zm0-30.77h16.07v14.22H829.09Zm0-30.76h16.07v14.22H829.09Zm0-30.77h16.07v14.22H829.09Zm0-30.77h16.07v14.23H829.09Zm0-30.77h16.07v14.23H829.09Zm0-30.76h16.07v14.22H829.09Zm0-30.77h16.07v14.23H829.09Z"/>
        <polygon class="cls-2" points="425.02 1288.16 808.27 1288.16 808.27 1239.99 470.05 1239.99 425.02 1288.16"/>
        <polygon class="cls-2" points="1388.25 1288.16 935.91 1288.16 935.91 1239.99 1343.22 1239.99 1388.25 1288.16"/>
        <rect class="cls-2" x="757.95" y="1553.78" width="10.37" height="49.04"/>
        <rect class="cls-2" x="693.54" y="1553.78" width="10.37" height="49.04"/>
        <rect class="cls-2" x="629.13" y="1553.78" width="10.37" height="49.04"/>
        <rect class="cls-2" x="564.72" y="1553.78" width="10.38" height="49.04"/>
        <path class="cls-2" d="M425,1293.43v309.39h91.82v-49H808.28V1293.43H787.65v31.78H772.51v-31.78h-8.7v31.78H748.67v-31.78H719.85v31.78H704.71v-31.78H696v31.78H680.87v-31.78H652.05v31.78H636.91v-31.78H628.2v31.78H613.06v-31.78H584.25v31.78H569.11v-31.78H560.4v31.78H545.26v-31.78H514.14v31.78H499v-31.78h-8.71v31.78H475.15v-31.78ZM773.5,1432.74h14.15v52.4H773.5Zm0-47h14.15v30.77H773.5Zm-27.89,47h14.16v52.4H745.61Zm0-47h14.16v30.77H745.61Zm-27.88,47h14.15v52.4H717.73Zm0-47h14.15v30.77H717.73Zm-27.89,47H704v52.4H689.84Zm0-47H704v30.77H689.84Zm-27.88,47h14.15v52.4H662Zm0-47h14.15v30.77H662Zm-27.89,47h14.16v52.4H634.07Zm0-47h14.16v30.77H634.07Zm-27.88,47h14.15v52.4H606.19Zm0-47h14.15v30.77H606.19Zm-27.89,47h14.16v52.4H578.3Zm0-47h14.16v30.77H578.3Zm-27.88,47h14.15v52.4H550.42Zm0-47h14.15v30.77H550.42Zm-27.89,47h14.16v52.4H522.53Zm0-47h14.16v30.77H522.53Zm-27.88,47H508.8v52.4H494.65Zm0-47H508.8v30.77H494.65Zm-27.89,47h14.15v52.4H466.76Zm0-47h14.15v30.77H466.76Z"/>
        <path class="cls-2" d="M935.91,1293.43v309.39h452.34V1293.43h-32v31.78h-15.14v-31.78h-8.7v31.78h-15.14v-31.78h-21.14v31.78H1281v-31.78h-8.7v31.78h-15.14v-31.78H1236v31.78h-15.14v-31.78h-8.71v31.78H1197v-31.78h-21.14v31.78h-15.14v-31.78H1152v31.78H1136.9v-31.78h-21.14v31.78h-15.13v-31.78h-8.71v31.78h-15.14v-31.78h-21.14v31.78H1040.5v-31.78h-8.7v31.78h-15.14v-31.78H995.52v31.78H980.38v-31.78h-8.7v31.78H956.54v-31.78Zm405.2,196.5h15.14v21.4h-15.14Zm0-45h15.14v21.4h-15.14Zm0-45h15.14v21.4h-15.14Zm0-45h15.14v21.4h-15.14Zm-35,135h15.14v21.4h-15.14Zm0-45h15.14v21.4h-15.14Zm0-45h15.14v21.4h-15.14Zm0-45h15.14v21.4h-15.14Zm-35,135h15.14v21.4h-15.14Zm0-45h15.14v21.4h-15.14Zm0-45h15.14v21.4h-15.14Zm0-45h15.14v21.4h-15.14Zm-35,135h15.14v21.4h-15.14Zm0-45h15.14v21.4h-15.14Zm0-45h15.14v21.4h-15.14Zm0-45h15.14v21.4h-15.14Zm-35,135h15.14v21.4h-15.14Zm0-45h15.14v21.4h-15.14Zm0-45h15.14v21.4h-15.14Zm0-45h15.14v21.4h-15.14Zm-35,135h15.13v21.4h-15.13Zm0-45h15.13v21.4h-15.13Zm0-45h15.13v21.4h-15.13Zm0-45h15.13v21.4h-15.13Zm-35,135h15.13v21.4h-15.13Zm0-45h15.13v21.4h-15.13Zm0-45h15.13v21.4h-15.13Zm0-45h15.13v21.4h-15.13Zm-35,135h15.14v21.4h-15.14Zm0-45h15.14v21.4h-15.14Zm0-45h15.14v21.4h-15.14Zm0-45h15.14v21.4h-15.14Zm-35,135h15.14v21.4h-15.14Zm0-45h15.14v21.4h-15.14Zm0-45h15.14v21.4h-15.14Zm0-45h15.14v21.4h-15.14Zm-35,135h15.14v21.4h-15.14Zm0-45h15.14v21.4h-15.14Zm0-45h15.14v21.4h-15.14Zm0-45h15.14v21.4h-15.14Zm-35,135h15.14v21.4H991.5Zm0-45h15.14v21.4H991.5Zm0-45h15.14v21.4H991.5Zm0-45h15.14v21.4H991.5Zm-35,135h15.14v21.4H956.54Zm0-45h15.14v21.4H956.54Zm0-45h15.14v21.4H956.54Zm0-45h15.14v21.4H956.54Z"/>
        <polygon class="cls-2" points="858.34 949.03 858.34 938.36 871.56 938.36 871.56 881.21 874.19 881.21 874.19 938.36 887.42 938.36 887.42 949.03 894.02 949.03 894.02 1037.89 877.68 1037.89 877.68 949.03 866.51 949.03 866.51 1037.89 850.16 1037.89 850.16 949.03 858.34 949.03"/>
      </g>
      <g>
        <polygon class="cls-2" points="425.57 1530.09 425.57 1536.3 425.57 1538.35 425.57 1549.36 19.15 1549.36 19.15 1538.35 19.15 1536.3 19.15 1530.09 425.57 1530.09"/>
        <rect class="cls-2" x="384.29" y="1551.4" width="15.71" height="53.05"/>
        <rect class="cls-2" x="316.38" y="1551.4" width="15.71" height="53.05"/>
        <rect class="cls-2" x="248.46" y="1551.4" width="15.71" height="53.05"/>
        <rect class="cls-2" x="180.54" y="1551.4" width="15.71" height="53.05"/>
        <rect class="cls-2" x="112.63" y="1551.4" width="15.71" height="53.05"/>
        <rect class="cls-2" x="44.71" y="1551.4" width="15.71" height="53.05"/>
        <path class="cls-2" d="M400,1385.71h3.1v-2H392.93v-30.3h-2.05v30.3H381v2h3.28v142.34H400Zm-7.07,7V1390h1.49v7.1h-5V1390h1.49v2.77Z"/>
        <path class="cls-2" d="M332.09,1385.71h3.18v-2H325.1v-30.3h-2v30.3h-9.87v2h3.19v142.34h15.71Zm-7,7V1390h1.5v7.1h-5V1390h1.49v2.77Z"/>
        <path class="cls-2" d="M264.17,1385.71h3.19v-2H257.19v-30.3h-2.05v30.3h-9.87v2h3.19v142.34h15.71Zm-7,7V1390h1.49v7.1h-5V1390h1.49v2.77Z"/>
        <path class="cls-2" d="M196.26,1385.71h3.18v-2H189.27v-30.3h-2v30.3h-9.87v2h3.18v142.34h15.72Zm-7,7V1390h1.5v7.1h-5V1390h1.49v2.77Z"/>
        <path class="cls-2" d="M128.34,1385.71h3.19v-2H121.36v-30.3h-2v30.3h-9.87v2h3.19v142.34h15.71Zm-7,7V1390h1.49v7.1h-5V1390h1.49v2.77Z"/>
        <path class="cls-2" d="M60.43,1385.71h3.18v-2H53.44v-30.3h-2v30.3H41.53v2h3.18v142.34H60.43Zm-7,7V1390h1.5v7.1h-5V1390H51.4v2.77Z"/>
      </g>
      <g>
        <rect class="cls-2" x="1530.49" y="838.22" width="153.96" height="9.23"/>
        <rect class="cls-2" x="1539.73" y="1003.13" width="135.47" height="9.23"/>
        <path class="cls-2" d="M1642.3,832.49h37.89l-40.12-18.08-31.58-72.62V698.2h-2v43.59l-31.58,72.62-40.12,18.08H1642.3Zm3.75-3.61-23.48-13.3-14.08-55.33V828h-2V760.25l-14,54.9-.11.43-23.48,13.3-1-1.77,22.73-12.88,15.87-62.4,1,.26,1-.26,15.88,62.4,22.72,12.88Z"/>
        <polygon class="cls-2" points="1607.47 756.23 1607.62 756.81 1607.33 756.81 1607.47 756.23"/>
        <path class="cls-2" d="M1545,918h-14.55v9.23h154V918h-16V851.54H1545Zm84.73-53.25a6,6,0,0,0,4.35-.66c4.82-2.38,8.8-7.89,13.79-7.89s9,5.51,13.79,7.89a8.38,8.38,0,0,0,1.85.67V918h-33.78Zm-41.14,0a6,6,0,0,0,4.34-.66c4.82-2.38,8.81-7.89,13.8-7.89s9,5.51,13.79,7.89a6.09,6.09,0,0,0,4.3.67V918h-36.23Zm-38.68,0a8.56,8.56,0,0,0,1.89-.68c4.82-2.38,8.81-7.89,13.79-7.89s9,5.51,13.8,7.89a6.05,6.05,0,0,0,4.29.67V918H1550Z"/>
        <path class="cls-2" d="M1644.82,1029.62a10,10,0,0,1,10,10v10.73h8.69v175.43h-112V1050.34h8.69v-10.73a10,10,0,1,1,20,0v10.73h17.38v-10.73a10,10,0,1,1,20,0v10.73h17.37v-10.73A10,10,0,0,1,1644.82,1029.62Z"/>
        <path class="cls-2" d="M1551.45,1017.27h112v28.16h-3.78v-5.82a14.89,14.89,0,1,0-29.78,0v5.82h-7.56v-5.82a14.9,14.9,0,1,0-29.79,0v5.82H1585v-5.82a14.9,14.9,0,1,0-29.79,0v5.82h-3.78Z"/>
        <polygon class="cls-2" points="1678.2 1317.05 1625.07 1317.05 1625.07 1269.36 1589.87 1269.36 1589.87 1317.05 1536.74 1317.05 1536.74 1232.32 1678.2 1232.32 1678.2 1317.05"/>
        <path class="cls-2" d="M1578.64,999h94.93V932.11H1539.73V999h38.91Zm-12.06-29.69h-11.86V942.29h11.86Zm82.84-27.06h11.87v27.06h-11.87Zm-16.5-7.16h3.84V995h-3.84ZM1580.52,995h-3.84V935.13h3.84Z"/>
      </g>
      <rect class="cls-2" y="1598.45" width="5000" height="53.2"/>
    </g>
  </g>
</svg>
