<svg xmlns="http://www.w3.org/2000/svg" viewBox="0 0 4673 1236.67">
  <defs>
    <style>
      .cls-1, .cls-2 {
        fill: #1d1d1b;
      }

      .cls-1 {
        stroke: #000;
        stroke-miterlimit: 10;
        stroke-width: 0.5px;
      }
    </style>
  </defs>
  <g id="Layer_2" data-name="Layer 2">
    <g id="Layer_1-2" data-name="Layer 1">
      <g id="Layer_2-2" data-name="Layer 2">
        <g id="Layer_1-2-2" data-name="Layer 1-2">
          <path class="cls-1" d="M207.29.25h26.56L238,1.36c16.42,5,30.72,12.92,40.68,27.79a70.89,70.89,0,0,1,12.53,41.92,31.87,31.87,0,0,0,2.56,16.55,42.47,42.47,0,0,1,0,42.14c-2.17,4.12-3.32,7.52,0,11.51a14.3,14.3,0,0,1,2.53,6.33A156.81,156.81,0,0,1,299,173.36c1.51,22.13,1.37,44.26,7.35,65.68a34.63,34.63,0,0,1-2.57,23.68,63.93,63.93,0,0,0-7,25.81c-1.42,38.06,2.52,76,2.17,114.06A164.92,164.92,0,0,0,300.77,437a13.48,13.48,0,0,1,0,4.74c-1.68,9.38-3.19,18.85-5.31,28.15a104.39,104.39,0,0,0-1.37,42.53,7.54,7.54,0,0,1-2.13,7.31,13.83,13.83,0,0,0-3.67,10.13c-1.06,15.63,1.95,31,2.74,46.52.58,10.49,1,21.51,8.19,30.72a38.85,38.85,0,0,0,7.84,9.12,24.86,24.86,0,0,1,6.37,7c5.44,8.1-1.15,14.43-3,21.42-.84,3.28-5.93,4.83-4.42,8.86s5.66,4.42,8.19,7.3l.39.35a144.39,144.39,0,0,0,17.71,12.57c3.63,1.95,5.09,3.81,4.91,7.53V686c0,9.6,0,9.69,9.87,9.6,11,0,22.13-.44,32.93-.66a7.57,7.57,0,0,1,7.66,4.82c2.83,5,1.33,10,1.95,14.92.93,7.17,2.17,14.34,2.92,21.55.84,8.06,1.06,8.46,9.34,8.46h54.18c2.49,0,4.18.45,5.26,1.52,1.88,1.85,1.62,4.87,1.6,5.38C462,773,505.84,824.7,505.84,824.7c2.87,3.38,21.17,31.6,57.78,88,25.79,39.75,24.12,38.89,52.28,82.54,27.08,42,41.14,63.79,60.53,90.81,16.28,22.67,40.1,54.28,71.55,90.8-14.63,5.54-41.14,14-64.39,11.06-2.68-.34-9.53-1.34-17.76-3-14.14-2.92-24.49-6.28-31.27-8.29-53.48-15.81-103.38-11.94-197.59-1,0,0-318.57,37.07-375.92-.75-.5-.33-3.83-5.6-10-5.4a40.27,40.27,0,0,1-20.45-4.82,45.2,45.2,0,0,0-20.93-7.88c-5.54-.22-7.48-3.45-7.66-9.21-.35-10.53,2-20.76,2.12-31,0-18.94-.39-37.84-.66-56.79C2.84,999.06,2.67,938.16,1.3,877.3c-.89-38.91.35-77.9-1-116.81-.31-9.16,0-9.43,8.85-10.8A71.2,71.2,0,0,1,20.28,749H66c6.82,0,8.15-1.2,8.85-7.88,1-13.28,1.86-26.12,2.66-39.17a7.26,7.26,0,0,1,4.12-6.69c7-4,15-3.89,22.44-6,4.11-1.11,7.39-.58,8.36,4.42.27,1.38,1.11,2.79,2.92,2.35s1.69-1.73,1.73-3V683c0-6.33.84-7.08,7-7.17,8.15,0,16.29-.27,24.44,0a10.08,10.08,0,0,0,9.82-4.65,36.93,36.93,0,0,1,10.14-9.52,7.64,7.64,0,0,0,3.67-4.95c1.46-8.37,1.46-8.32,9.43-9.34,1.77,0,4.43.31,4.43-2.35s-2.35-3-4.21-4.07a54.78,54.78,0,0,0-22.17-5.62c-9.83-.67-20.54-.89-27.23,9.12-1.63,2.43-3,1.81-4.42,0a7.9,7.9,0,0,1-2.3-6.25c.53-6.86,5.71-9.87,10.66-12.79,11.07-6.5,23.68-9.34,35.41-14.34,1.24-.53,3.28-.62,3-2.39s-2.48-1.46-4-1.33-3.86.54-5.8.71-3.63.75-4.92-1,0-3.32,1-4.74a4.16,4.16,0,0,0,1.06-3.45,5.44,5.44,0,0,1,3.06-6.59,6.29,6.29,0,0,0,2.65-6.91A38.84,38.84,0,0,1,169.84,564a13.7,13.7,0,0,0,0-11.64c-1.72-5-6.24-7.74-9.29-12.39,3.19,0,4.43,2,6.55,2.65,2.74.93,4.78,1.51,4.43-2.83s0-8.28-.4-12.53a44.59,44.59,0,0,0-7.57-23.1,4.43,4.43,0,0,1-.27-5.58c1.38,1.55,2.48,2.88,3.72,4.08,2.26,2,4.43,1.85,5.18-1.29,1.33-7.61,3.28-15.49.4-23.06a139.87,139.87,0,0,1-5.18-16.11,11.26,11.26,0,0,1,3.36,5.89,18.13,18.13,0,0,0,4.43,7.61c.89.93,2.74,1.86,2.88,0,.44-4.43,4.42-7.48,4.07-12.75a33.49,33.49,0,0,1,3.36-16.64,37.56,37.56,0,0,0-1-38.64,4.12,4.12,0,0,1-.71-4.43,10.58,10.58,0,0,0-.88-8.85c-3.5,3.81-7.53,7.22-7.71,12.48a155.61,155.61,0,0,0-.75,24.61,45.6,45.6,0,0,1-7.21,30.59c-1.55,1.72-1.11,5.35-3.23,5.75-4.78.89-4.16,4.43-4.21,7.26v27.09a36.76,36.76,0,0,1-3,14.43c-1,2.48-2.52,3.45-3.76.48-2.57-6-6-11.72-5-18.67.66-4.43,5.18-8.86,1.28-13.81a9.94,9.94,0,0,1,.75-1.33,12.72,12.72,0,0,0,2.31-8,135.76,135.76,0,0,0-1.64-26.56,229.57,229.57,0,0,0-7.79-36,60,60,0,0,0-6.2-15.76,299,299,0,0,1-15.27-29.35,15,15,0,0,1-1.15-12.3,62.93,62.93,0,0,0,3-25c0-25.14,0-50.28,2-75.24,1-13.28.44-26.25,3.63-39.17-4.87,5.62-5.14,13.72-10.27,19.78a11,11,0,0,1,0-10.35c.79-2,2.08-3.72,2.92-5.67.53-1.28,1-3.14-.44-3.9s-2.48,1-3.06,2.13a46.77,46.77,0,0,0-5.66,20.27v13.86c-1.51-12.8-2.26-25.59-2.88-38.42,0-.67.44-2.93,1.11-1.82,2.12,3.5,2.74.62,3.27-.62a6.53,6.53,0,0,1,4-3.94,5.17,5.17,0,0,0,3.28-4.42c1-5.54,2-11.11,3-16.69a296.08,296.08,0,0,1,11.11-47.49c2.26-6.51,5.89-13.59,14.26-13.9,5.57,0,10.71-2.13,16.15-2.57,3.41-.31,3.9-2.52,2.35-5.4s-2.79-5.75-4.43-8.45A72.32,72.32,0,0,1,151.7,63a67,67,0,0,1,16.11-39.83A75.23,75.23,0,0,1,207.29.25Zm9.83,84.89c-3.15.89-4.43,3.46-6,5.67-3.23,4.43-3,10.67-8.28,13.68-1.2.7-2,2.17-3.63,1.63s-2.08-2.34-2.12-3.94a18.24,18.24,0,0,1,.13-4.55,40.57,40.57,0,0,0,1.24-16.29c-.27-1.64,0-3.72,1.28-4.43,5.31-2.39,4.43-7.3,5.4-11.77a5.47,5.47,0,0,0-3.76,2.48c-8.41,10-10.85,39.83-4.16,51,.44.7,1.15,1.68,1.77,1.72,1.33,0,1.33-1.37,1.68-2.3,1.46-4,1.82-9.12,4.43-11.64C211.72,100.46,211.85,91.61,217.12,85.14ZM197.2,251.88l1.33.4c.66-1.6,1.24-3.23,1.94-4.83a87.55,87.55,0,0,1,7.66-17.39c2-2.66,2.13-4.43,0-6.91s-2-4.69.75-7.08c5-4.43,4.12-8.28-1.9-10.67-1.19-.44-2.48-1-3.32.27s0,2.26,1.11,3.14,3.23.89,3.1,3c-1.51,1.41-4.43-1.55-4.43.79s-2.44,6.11,0,8.59c4.12,4.12,2.7,8.28,1,12.66ZM165.46,622.13c-12.26,1.06-24.25,3-34.52,10.62a8.85,8.85,0,0,0-3.5,8.54C138.24,629.56,153.56,629.52,165.46,622.13ZM145.81,387.54h-1.42c.89,9.21,1,18.59,5.32,27.09a99.56,99.56,0,0,1,11.46,36.78,31.24,31.24,0,0,0-4.43-27.93A56.29,56.29,0,0,1,147,398c-.27-3.58-.71-7.13-1.2-10.71ZM415,1154.89l99.06,2.75ZM136,186.15c1.95-16.73,3.5-33.46,6.33-50.06C135.63,152,136,169,136,186.15Zm114.28-42c-1.94,2.53,0,5.89-1.24,6.51-6.41,2.83-2.34,7.57-2.48,11.47,0,1.15.4,2.56,2,2.61a2.67,2.67,0,0,0,2.66-2.17C252.53,156.58,254.12,150.74,250.31,144.14ZM130.63,292.38a447.62,447.62,0,0,0,2.7-68Q132,258.52,130.63,292.38Z"/>
        </g>
      </g>
      <g>
        <path class="cls-2" d="M2057.93,365.32a41.39,41.39,0,0,0-40.28,31.88h80.56A41.39,41.39,0,0,0,2057.93,365.32Z"/>
        <polygon class="cls-2" points="2058.94 365.32 2058.94 329.57 2070.7 329.57 2070.7 327.55 2058.94 327.55 2058.94 308.98 2056.92 308.98 2056.92 327.55 2045.17 327.55 2045.17 329.57 2056.92 329.57 2056.92 365.32 2057.93 365.32 2058.94 365.32"/>
        <path class="cls-2" d="M2010.23,479.9v83.65h95.4V479.9h10.95l-58.65-29.42-47.7,23.93h0l-10.94,5.49Zm59.06,60.24h-22.71V501.29a11.36,11.36,0,1,1,22.71,0Z"/>
        <polygon class="cls-2" points="2057.93 444.81 2093.9 462.87 2096.93 464.39 2096.93 402.86 2018.93 402.86 2018.93 464.29 2021.96 462.87 2057.93 444.81"/>
        <path class="cls-2" d="M1988.6,690.21h138.67v-120h19.89v-2H1968.7v2h19.9Zm81.75-101.73h27.42v70.45h-27.42Zm-52.26,0h27.42v70.45h-27.42Z"/>
        <path class="cls-2" d="M1911.85,865.71v2h14.67V1031h262.82V867.74H2204v-2Zm169.92,139.45h-47.68V890.09h47.68Z"/>
        <path class="cls-2" d="M1961,861.06h193.82V696.89h20.21v-2H1940.81v2H1961Zm138.68-137h36.75v93.24H2099.7Zm-59.07-8.43h34.6V833.33h-34.6Zm-61.23,8.43h36.77v93.24H1979.4Z"/>
      </g>
      <g>
        <rect class="cls-2" x="698.71" y="881.31" width="181.73" height="7.95"/>
        <rect class="cls-2" x="701.09" y="800.7" width="176.97" height="7.95"/>
        <path class="cls-2" d="M704.48,894v264.35h14v-61.1a71.08,71.08,0,0,1,142.15,0v61.1h14V894Zm24.6,130.7h-2V904.25h2Zm15.78,9h-2V987.24h2Zm.73-128.24h2V919.5h-2Zm1,19.59A17.57,17.57,0,0,1,779,925v55.39H746.57Zm33.36,94.17h-2V984.31h2Zm3.21-99.69h-2V905.43h2Zm26.74-14.07h2v12.48h-2Zm.69,116.25h-2V987.24h2Zm.29-41.27V925a17.57,17.57,0,0,1,32.38,0v55.39Zm34,60.68h-2v-58.9h2Zm0-119.2h-2V905.43h2Z"/>
        <path class="cls-2" d="M704.48,812.59v64H875.92v-64Zm19.59,57.89h-3.94v-9.87h3.94Zm22.5-1.56H734.52V826.27a6,6,0,0,1,12.05,0Zm29.08-37.29h-3.94v-13h3.94Zm19.9,37.29h-12V826.27a6,6,0,0,1,12,0Zm13.47-28h-3.94v-22.2H809Zm16.11,29.6h-4v-7.8h4Zm19.4-1.56h-12V826.27a6,6,0,0,1,12,0Zm16.77,1.56h-3.94V856.19h3.94Z"/>
        <path class="cls-2" d="M819.35,685.42H759.7l-51.77,13.75v97.58H871.12V699.17ZM739.19,769.6,729.48,772V718.4a6.8,6.8,0,0,1,4.86-6.41c2.68-.65,4.85,1.37,4.85,4.52Zm21.5,20.52h-2V693.7h2Zm34.86-22.23h-12V715.06a6,6,0,0,1,12,0Zm25.75-36.38h-2V694h2ZM850.84,772l-9.71-2.36V716.51c0-3.15,2.18-5.17,4.86-4.52a6.81,6.81,0,0,1,4.85,6.41Z"/>
        <path class="cls-2" d="M814.64,579.1H764.42l-43.59,13.75v97.58h4.46l34.41-9.13h59.65l34.41,9.13h4.47V592.85Zm-66.66,83-18.5,4.5V623.27c0-5.51,4.14-11,9.25-12.21s9.25,2.62,9.25,8.6Zm14.39,3.52h-2V587.2h2Zm40.93-8.78H775.75V616.69a13.78,13.78,0,0,1,27.55,0Zm16.8,11.84h-2V589.1h2Zm28.64-2.08-18.5-4.5V619.66c0-6,4.14-9.83,9.25-8.6s9.25,6.7,9.25,12.21Z"/>
        <path class="cls-2" d="M764.42,573.47h50.22l43.54,13.73c0-.6.05-1.19.05-1.8,0-37.57-30.76-68-68.7-68s-68.7,30.45-68.7,68c0,.61,0,1.2,0,1.8Z"/>
        <path class="cls-2" d="M788.28,517.38v0Z"/>
        <path class="cls-2" d="M808.67,1037.13v26.51H774.46v-26.51h-2v121.21h2v-12.87h34.21v12.87h2V1037.13Zm0,92.37v14H774.46v-14Zm-34.21-2v-14h34.21v14Zm0-16v-14h34.21v14Zm0-16v-14h34.21v14Zm0-16v-14h34.21v14Z"/>
        <polygon class="cls-2" points="699.47 898.71 558.12 807.94 558.12 859.32 699.47 935.58 699.47 898.71"/>
        <rect class="cls-2" x="879.86" y="907.59" width="260.78" height="35.8"/>
        <path class="cls-2" d="M879.86,947.34v211h260.78v-211Zm241.6,181.9h-35.58v-2h14.58v-9.93h-24.32v10.91h-2v-10.91h-22.36v10.91h-2v-10.91h-22.36v10.91h-2v-10.91h-17.85v-2h92.8v-3.72h2v15.63h19Zm.26-77.83h-25.3v10.92h-2v-10.92h-22.35v9.93h9.08v2H987.38v-2h58.4v-9.93h-17.85v-2h93.79Zm0-62h-25.3v10.91h-2V989.42h-22.35v9.93h9.08v2h-61.23v-2h25.84v-9.93h-17.85v-2h93.79Z"/>
        <path class="cls-2" d="M773.68,489.66h0Z"/>
        <polygon class="cls-2" points="699.47 1158.34 699.47 940.31 558.12 864.05 558.12 1158.34 699.47 1158.34"/>
      </g>
      <g>
        <rect class="cls-2" x="1258.84" y="782.06" width="545.17" height="10.27"/>
        <rect class="cls-2" x="1258.84" y="832.4" width="545.17" height="10.26"/>
        <rect class="cls-2" x="1258.84" y="941.08" width="545.17" height="12.59"/>
        <rect class="cls-2" x="1258.84" y="796.58" width="545.17" height="30.87"/>
        <path class="cls-2" d="M1301.51,936.09h6V854.82a3.61,3.61,0,0,0,1.47.3,3.75,3.75,0,0,0,0-7.5h-15a3.75,3.75,0,1,0,0,7.5,3.61,3.61,0,0,0,1.47-.3v81.27Z"/>
        <path class="cls-2" d="M1486.19,936.09h6V854.82a3.58,3.58,0,0,0,1.47.3,3.75,3.75,0,0,0,0-7.5h-15a3.75,3.75,0,0,0,0,7.5,3.61,3.61,0,0,0,1.47-.3v81.27Z"/>
        <path class="cls-2" d="M1536.34,936.09h6V854.82a3.61,3.61,0,0,0,1.47.3,3.75,3.75,0,0,0,0-7.5h-15a3.75,3.75,0,0,0,0,7.5,3.58,3.58,0,0,0,1.47-.3v81.27Z"/>
        <path class="cls-2" d="M1583.22,936.09h6V854.82a3.58,3.58,0,0,0,1.47.3,3.75,3.75,0,0,0,0-7.5h-15a3.75,3.75,0,1,0,0,7.5,3.61,3.61,0,0,0,1.47-.3v81.27Z"/>
        <path class="cls-2" d="M1631.74,936.09h6V854.82a3.61,3.61,0,0,0,1.47.3,3.75,3.75,0,0,0,0-7.5h-15a3.75,3.75,0,0,0,0,7.5,3.61,3.61,0,0,0,1.47-.3v81.27Z"/>
        <path class="cls-2" d="M1717.76,936.09h6V854.82a3.65,3.65,0,0,0,1.47.3,3.75,3.75,0,1,0,0-7.5h-15a3.75,3.75,0,0,0,0,7.5,3.58,3.58,0,0,0,1.47-.3v81.27Z"/>
        <path class="cls-2" d="M1767.9,936.09h6V854.82a3.61,3.61,0,0,0,1.47.3,3.75,3.75,0,0,0,0-7.5h-15a3.75,3.75,0,0,0,0,7.5,3.61,3.61,0,0,0,1.47-.3v81.27Z"/>
        <rect class="cls-2" x="1379.92" y="847.62" width="52.44" height="88.48"/>
        <rect class="cls-2" x="1653.59" y="847.62" width="40.08" height="88.48"/>
        <path class="cls-2" d="M1328.42,746.35h-3a90.65,90.65,0,0,1-3.6-26.1h2.24v-5.14H1319V562.17a4.95,4.95,0,1,0,1.94-9.5h-19.79a4.95,4.95,0,1,0,0,9.89,5,5,0,0,0,1.94-.39V715.11H1298v5.14h2.24a90.65,90.65,0,0,1-3.6,26.1h-3v5.13h34.75Z"/>
        <path class="cls-2" d="M1357.82,746.35v5.13h34.75v-5.13h-3a90.65,90.65,0,0,1-3.6-26.1h2.24v-5.14h-5.06V562.17a4.95,4.95,0,1,0,1.93-9.5H1365.3a4.95,4.95,0,1,0,0,9.89,5,5,0,0,0,1.94-.39V715.11h-5.07v5.14h2.24a90.65,90.65,0,0,1-3.6,26.1Z"/>
        <path class="cls-2" d="M1540,746.35v5.13h34.75v-5.13h-3a90.65,90.65,0,0,1-3.6-26.1h2.24v-5.14h-5.06V562.17a4.95,4.95,0,1,0,1.93-9.5h-19.78a4.95,4.95,0,1,0,0,9.89,5,5,0,0,0,1.94-.39V715.11h-5.07v5.14h2.25a90.42,90.42,0,0,1-3.61,26.1Z"/>
        <path class="cls-2" d="M1608.25,746.35v5.13H1643v-5.13h-3a90.65,90.65,0,0,1-3.6-26.1h2.24v-5.14h-5.07V562.17a5,5,0,0,0,1.94.39,4.95,4.95,0,1,0,0-9.89h-19.78a4.95,4.95,0,1,0,0,9.89,5.05,5.05,0,0,0,1.94-.39V715.11h-5.07v5.14h2.24a90.65,90.65,0,0,1-3.6,26.1Z"/>
        <path class="cls-2" d="M1673.64,746.35v5.13h34.74v-5.13h-3a90.65,90.65,0,0,1-3.6-26.1H1704v-5.14H1699V562.17a5,5,0,0,0,1.94.39,4.95,4.95,0,1,0,0-9.89h-19.78a4.95,4.95,0,1,0,0,9.89,5,5,0,0,0,1.94-.39V715.11H1678v5.14h2.24a90.65,90.65,0,0,1-3.6,26.1Z"/>
        <rect class="cls-2" x="1258.84" y="755.72" width="453.6" height="22.09"/>
        <rect class="cls-2" x="1460.38" y="651.02" width="51.27" height="100.46"/>
        <rect class="cls-2" x="1294.54" y="520.4" width="99.1" height="28.02"/>
        <rect class="cls-2" x="1533.27" y="520.4" width="177.65" height="28.02"/>
        <path class="cls-2" d="M1574.75,510.31h-3a90.65,90.65,0,0,1-3.6-26.1h2.24v-5.13h-5.06V326.13a4.95,4.95,0,1,0,1.93-9.5h-19.78a4.95,4.95,0,1,0,0,9.89,5,5,0,0,0,1.94-.39v153h-5.07v5.13h2.25a90.42,90.42,0,0,1-3.61,26.1h-3v5.13h34.75Z"/>
        <path class="cls-2" d="M1608.25,510.31v5.13H1643v-5.13h-3a90.65,90.65,0,0,1-3.6-26.1h2.24v-5.13h-5.07V326.13a5,5,0,0,0,1.94.39,4.95,4.95,0,1,0,0-9.89h-19.78a4.95,4.95,0,1,0,0,9.89,5.05,5.05,0,0,0,1.94-.39v153h-5.07v5.13h2.24a90.65,90.65,0,0,1-3.6,26.1Z"/>
        <path class="cls-2" d="M1673.64,510.31v5.13h34.74v-5.13h-3a90.65,90.65,0,0,1-3.6-26.1H1704v-5.13H1699V326.13a5,5,0,0,0,1.94.39,4.95,4.95,0,1,0,0-9.89h-19.78a4.95,4.95,0,1,0,0,9.89,5,5,0,0,0,1.94-.39v153H1678v5.13h2.24a90.65,90.65,0,0,1-3.6,26.1Z"/>
        <rect class="cls-2" x="1542.53" y="283.65" width="168.39" height="28.02"/>
      </g>
      <polygon class="cls-2" points="1069.84 1157.69 1261.34 953.72 1809.99 953.72 2034.82 1157.69 1065.24 1158.34 1069.84 1157.69"/>
      <g>
        <path class="cls-2" d="M2580.38,769.73h30.44Q2595.6,769.67,2580.38,769.73Z"/>
        <path class="cls-2" d="M2580.38,792.54q15.23.13,30.44,0Z"/>
        <path class="cls-2" d="M2623.73,769.76l30.39.26Q2638.94,769.84,2623.73,769.76Z"/>
        <path class="cls-2" d="M2623.73,792.46q15.21-.21,30.39-.68Z"/>
        <path class="cls-2" d="M2667.11,770.12l30.28.52Q2682.29,770.33,2667.11,770.12Z"/>
        <path class="cls-2" d="M2667.11,791.52q15.18-.56,30.28-1.36Z"/>
        <path class="cls-2" d="M2524.09,770.12q-15.16.21-30.28.52Z"/>
        <path class="cls-2" d="M2524.09,791.52l-30.28-1.36Q2508.92,791,2524.09,791.52Z"/>
        <path class="cls-2" d="M2537.08,770l30.39-.26Q2552.26,769.83,2537.08,770Z"/>
        <path class="cls-2" d="M2537.08,791.78q15.18.47,30.39.68Z"/>
        <path class="cls-2" d="M2956.37,700.64a52.8,52.8,0,0,0,22.88-5l-1-1.8a51.89,51.89,0,0,1-43.54,0l-.41.89h0c-23.89-11.11-57.13-38.34-99.41-38.34-18.67,0-35.57,5.31-50.68,12.19l-10.79-1.8V658.2h2.47a.65.65,0,0,0,.66-.66v-.94a.66.66,0,0,0-.66-.66h-1.55v-13H2776v0h0a7.54,7.54,0,0,0-6.51-7.48v-2.58a1.14,1.14,0,1,0-2.28,0v2.6a7.56,7.56,0,0,0-6.32,7.46h0v0h1.67v13H2761a.66.66,0,0,0-.65.66v.94a.65.65,0,0,0,.65.66h2.47v6.87c-29.11-4.8-80.58-13.07-124.39-19.07-.47-.76-.93-1.53-1.4-2.3-16.16-26.76-35.58-26.12-49.05-26.12s-32.89-.64-49,26.12l-2.79,4.59c-41.41,5.65-88.44,13.13-117.26,17.84V658.2H2422a.65.65,0,0,0,.65-.66v-.94a.66.66,0,0,0-.65-.66h-1.56v-13h1.67v0h0a7.54,7.54,0,0,0-6.51-7.48v-2.58a1.14,1.14,0,1,0-2.28,0v2.6a7.56,7.56,0,0,0-6.32,7.46h0v0h1.67v13h-1.55a.66.66,0,0,0-.65.66v.94a.65.65,0,0,0,.65.66h2.47v9.42l2.23-.23c-7.69,1.27-13.46,2.23-16.63,2.77-16-7.67-34.06-13.84-54.18-13.84-42.29,0-75.52,27.23-99.42,38.34h0l-.41-.88c-.67.32-1.34.61-2,.88h-3.34v1.25a51.93,51.93,0,0,1-38.19-2.1l-1,1.8a54,54,0,0,0,39.17,2.47v15.79h-8.48v134h4.42L2259,905.25v69.92h-6.2v14.22h658.39V975.22h5.67v-70l27.24-57.36h4.42v-134h-8.48V698.08A52.93,52.93,0,0,0,2956.37,700.64Zm-28.89,41.18v66.32h-30.36V741.82Zm-152.05-50.19c18.81-13,28.55-23.49,56.74-23.49s37.93,10.5,56.73,23.49c15.39,10.63,22.64,12.16,22.64,12.16H2752.8S2760.05,702.26,2775.43,691.63Zm99.05,50.19v66.32h-30.36V741.82Zm-53,0v66.32h-30.36V741.82Zm-83.36,0h30.36v66.32h-30.36Zm-77.53,229H2658a.81.81,0,0,0-.81.81v2.75a.81.81,0,0,0,.81.81h-38.43a.82.82,0,0,0,.81-.81v-2.75a.82.82,0,0,0-.81-.81H2617V847.93h43.61Zm-149.25,0h-2.59V847.93h43.62V970.85h-2.6a.8.8,0,0,0-.8.81v2.75a.8.8,0,0,0,.8.81h-38.43a.81.81,0,0,0,.81-.81v-2.75A.81.81,0,0,0,2511.33,970.85Zm50.15,0h-2.59V847.93h51.54V970.85h-2.59a.82.82,0,0,0-.81.81v2.75a.82.82,0,0,0,.81.81h-46.36a.81.81,0,0,0,.81-.81v-2.75A.81.81,0,0,0,2561.48,970.85Zm6-224v71.91q-15.21-.54-30.39-1.77V748Q2552.26,747.19,2567.47,746.83Zm-30.39-2.89v-2.57a22.31,22.31,0,0,0,7.43-7,9,9,0,0,1,7.76-4.33,7.89,7.89,0,0,1,7.76,3.51,20.42,20.42,0,0,0,7.44,6.52v2.68q-7.6.18-15.2.49T2537.08,743.94Zm73.74,2.73V819q-15.22.36-30.44,0V746.67Q2595.61,746.43,2610.82,746.67Zm-30.44-4.09v-2.7a21.53,21.53,0,0,0,7.45-6.94,9.51,9.51,0,0,1,15.54,0,21.53,21.53,0,0,0,7.45,6.94v2.7q-7.62-.12-15.22-.12T2580.38,742.58Zm73.74,5.45V817q-15.18,1.23-30.39,1.77V746.83Q2638.94,747.19,2654.12,748Zm-30.39-5.3v-2.68a20.42,20.42,0,0,0,7.44-6.52,7.89,7.89,0,0,1,7.76-3.51,9,9,0,0,1,7.77,4.33,22.23,22.23,0,0,0,7.42,7v2.57q-7.59-.42-15.19-.72T2623.73,742.73Zm73.66,8.19v61.84q-15.1,2.12-30.28,3.53V748.5Q2682.29,749.46,2697.39,750.92Zm-15.12-17.58a9.91,9.91,0,0,1,7.72,4.44,23,23,0,0,0,7.4,6.74v2.31q-7.56-.74-15.12-1.33t-15.16-1.09v-2.53a19.34,19.34,0,0,0,7.42-5.74A7.77,7.77,0,0,1,2682.27,733.34Zm-133.48-71.19c12.22-17.7,36.54-17.2,36.54-17.2s24.33-.5,36.55,17.2,19.44,42.38,53.1,56.84a429,429,0,0,0-179.29,0C2529.34,704.53,2536.58,679.85,2548.79,662.15Zm-55,82.37a22.8,22.8,0,0,0,7.39-6.74,9.93,9.93,0,0,1,7.73-4.44,7.77,7.77,0,0,1,7.74,2.8,19.26,19.26,0,0,0,7.42,5.74v2.53q-7.59.48-15.16,1.09t-15.12,1.33Zm0,45.64V750.92q15.11-1.45,30.28-2.42v67.79q-15.16-1.41-30.28-3.53ZM2287,691.63c18.8-13,28.54-23.49,56.73-23.49s37.93,10.5,56.74,23.49c15.38,10.63,22.63,12.16,22.63,12.16H2264.4S2271.66,702.26,2287,691.63Zm150.79,50.19v66.32h-30.35V741.82Zm-53,0v66.32h-30.36V741.82Zm-53,0v66.32h-30.36V741.82Zm-83.37,0h30.36v66.32h-30.36Zm-8.05,106.11v-7.41h200v7.41h-51v20.24h-4.51V847.93H2329v20.24h-4.51V847.93Zm189.37,24.14v61.74h-30.36V872.07Zm-58.37,0v61.74h-30.36V872.07Zm-58.37,0v61.74h-30.37V872.07Zm140.37-24.14h48.8V970.85h-2.59a.81.81,0,0,0-.81.81v2.75a.81.81,0,0,0,.81.81h-46.21V847.93Zm269.12,127.29H2669.7a.82.82,0,0,0,.82-.81v-2.75a.82.82,0,0,0-.82-.81h-2.59V847.93h55.42V975.22Zm23.64-41.41V872.07h30.35v61.74Zm58.37,0V872.07h30.36v61.74Zm58.37,0V872.07h30.36v61.74Zm73.65-85.88h-85.14v20.24h-4.51V847.93h-55.8v20.24h-4.51V847.93h-52.06v-7.41h202Z"/>
      </g>
      <polygon class="cls-2" points="1563.53 1158.09 2079.08 981.05 2924.7 981.05 2999.03 1158.35 1563.53 1158.09"/>
      <polygon class="cls-2" points="3545.08 1157.57 3141.46 871.57 2994.29 871.57 2801.17 1158.35 3545.08 1157.57"/>
      <g>
        <polygon class="cls-2" points="3864.73 675.95 3875.18 675.95 3885.35 597.67 3864.73 597.67 3864.73 675.95"/>
        <polygon class="cls-2" points="3737.09 675.95 3726.63 675.95 3716.47 597.67 3737.09 597.67 3737.09 675.95"/>
        <path class="cls-2" d="M3742.35,597.67v559.67h117.12V597.67Zm32.18,510.63h-16.07v-14.23h16.07Zm0-30.77h-16.07v-14.22h16.07Zm0-30.77h-16.07v-14.22h16.07Zm0-30.76h-16.07v-14.23h16.07Zm0-30.77h-16.07V971h16.07Zm0-30.76h-16.07V940.24h16.07Zm0-30.77h-16.07V909.47h16.07Zm0-30.77h-16.07V878.71h16.07Zm0-30.76h-16.07V847.94h16.07Zm0-30.77h-16.07V817.18h16.07Zm0-30.77h-16.07V786.41h16.07Zm0-30.76h-16.07V755.64h16.07Zm0-30.77h-16.07V724.88h16.07Zm0-30.76h-16.07V694.11h16.07Zm.84-27.13h-6.31V602.93h6.31Zm12.82-78.28h6.31v78.28h-6.31Zm21,505.37h-16.07v-14.23h16.07Zm0-30.77h-16.07v-14.22h16.07Zm0-30.77h-16.07v-14.22h16.07Zm0-30.76h-16.07v-14.23h16.07Zm0-30.77h-16.07V971h16.07Zm0-30.76h-16.07V940.24h16.07Zm0-30.77h-16.07V909.47h16.07Zm0-30.77h-16.07V878.71h16.07Zm0-30.76h-16.07V847.94h16.07Zm0-30.77h-16.07V817.18h16.07Zm0-30.77h-16.07V786.41h16.07Zm0-30.76h-16.07V755.64h16.07Zm0-30.77h-16.07V724.88h16.07Zm0-30.76h-16.07V694.11h16.07Zm4.41-27.13h-6.32V602.93h6.32Zm12.81-78.28h6.31v78.28h-6.31Zm17.48,505.37h-16.08v-14.23h16.08Zm0-30.77h-16.08v-14.22h16.08Zm0-30.77h-16.08v-14.22h16.08Zm0-30.76h-16.08v-14.23h16.08Zm0-30.77h-16.08V971h16.08Zm0-30.76h-16.08V940.24h16.08Zm0-30.77h-16.08V909.47h16.08Zm0-30.77h-16.08V878.71h16.08Zm0-30.76h-16.08V847.94h16.08Zm0-30.77h-16.08V817.18h16.08Zm0-30.77h-16.08V786.41h16.08Zm0-30.76h-16.08V755.64h16.08Zm0-30.77h-16.08V724.88h16.08Zm0-30.76h-16.08V694.11h16.08Z"/>
        <polygon class="cls-2" points="4247.98 842.68 3864.73 842.68 3864.73 794.51 4202.96 794.51 4247.98 842.68"/>
        <polygon class="cls-2" points="3284.76 842.68 3737.09 842.68 3737.09 794.51 3329.78 794.51 3284.76 842.68"/>
        <rect class="cls-2" x="3904.68" y="1108.3" width="10.37" height="49.04"/>
        <rect class="cls-2" x="3969.09" y="1108.3" width="10.37" height="49.04"/>
        <rect class="cls-2" x="4033.5" y="1108.3" width="10.37" height="49.04"/>
        <rect class="cls-2" x="4097.91" y="1108.3" width="10.38" height="49.04"/>
        <path class="cls-2" d="M4197.85,847.94v31.79h-15.14V847.94H4174v31.79h-15.14V847.94h-31.12v31.79H4112.6V847.94h-8.7v31.79h-15.14V847.94h-28.82v31.79H4044.8V847.94h-8.71v31.79H4021V847.94h-28.81v31.79H3977V847.94h-8.71v31.79h-15.14V847.94h-28.82v31.79H3909.2V847.94h-8.71v31.79h-15.14V847.94h-20.62V1108.3h291.42v49H4248V847.94Zm-298.34,191.71h-14.16v-52.4h14.16Zm0-68.64h-14.16V940.24h14.16Zm27.88,68.64h-14.16v-52.4h14.16Zm0-68.64h-14.16V940.24h14.16Zm27.89,68.64h-14.16v-52.4h14.16Zm0-68.64h-14.16V940.24h14.16Zm27.88,68.64H3969v-52.4h14.15Zm0-68.64H3969V940.24h14.15Zm27.89,68.64h-14.16v-52.4h14.16Zm0-68.64h-14.16V940.24h14.16Zm27.88,68.64h-14.15v-52.4h14.15Zm0-68.64h-14.15V940.24h14.15Zm27.88,68.64h-14.15v-52.4h14.15Zm0-68.64h-14.15V940.24h14.15Zm27.89,68.64h-14.15v-52.4h14.15Zm0-68.64h-14.15V940.24h14.15Zm27.89,68.64h-14.16v-52.4h14.16Zm0-68.64h-14.16V940.24h14.16Zm27.88,68.64h-14.15v-52.4h14.15Zm0-68.64h-14.15V940.24h14.15Zm27.88,68.64H4164.2v-52.4h14.15Zm0-68.64H4164.2V940.24h14.15Zm27.89,68.64h-14.15v-52.4h14.15Zm0-68.64h-14.15V940.24h14.15Z"/>
        <path class="cls-2" d="M3716.47,847.94v31.79h-15.14V847.94h-8.71v31.79h-15.14V847.94h-21.14v31.79h-15.13V847.94h-8.71v31.79h-15.14V847.94h-21.14v31.79h-15.14V847.94h-8.7v31.79h-15.14V847.94H3536.1v31.79H3521V847.94h-8.7v31.79h-15.14V847.94H3476v31.79h-15.14V847.94h-8.71v31.79H3437V847.94h-21.15v31.79h-15.13V847.94H3392v31.79h-15.14V847.94h-21.14v31.79h-15.14V847.94h-8.7v31.79h-15.14V847.94h-32v309.4h452.33V847.94Zm-384.58,217.91h-15.14v-21.4h15.14Zm0-45h-15.14v-21.4h15.14Zm0-45h-15.14v-21.4h15.14Zm0-45h-15.14V909.47h15.14Zm35,135h-15.14v-21.4h15.14Zm0-45h-15.14v-21.4h15.14Zm0-45h-15.14v-21.4h15.14Zm0-45h-15.14V909.47h15.14Zm35,135h-15.14v-21.4h15.14Zm0-45h-15.14v-21.4h15.14Zm0-45h-15.14v-21.4h15.14Zm0-45h-15.14V909.47h15.14Zm35,135h-15.13v-21.4h15.13Zm0-45h-15.13v-21.4h15.13Zm0-45h-15.13v-21.4h15.13Zm0-45h-15.13V909.47h15.13Zm35,135h-15.14v-21.4h15.14Zm0-45h-15.14v-21.4h15.14Zm0-45h-15.14v-21.4h15.14Zm0-45h-15.14V909.47h15.14Zm35,135h-15.14v-21.4h15.14Zm0-45h-15.14v-21.4h15.14Zm0-45h-15.14v-21.4h15.14Zm0-45h-15.14V909.47h15.14Zm35,135h-15.14v-21.4h15.14Zm0-45h-15.14v-21.4h15.14Zm0-45h-15.14v-21.4h15.14Zm0-45h-15.14V909.47h15.14Zm35,135h-15.14v-21.4h15.14Zm0-45h-15.14v-21.4h15.14Zm0-45h-15.14v-21.4h15.14Zm0-45h-15.14V909.47h15.14Zm35,135h-15.14v-21.4h15.14Zm0-45h-15.14v-21.4h15.14Zm0-45h-15.14v-21.4h15.14Zm0-45h-15.14V909.47h15.14Zm35,135H3631.4v-21.4h15.14Zm0-45H3631.4v-21.4h15.14Zm0-45H3631.4v-21.4h15.14Zm0-45H3631.4V909.47h15.14Zm35,135h-15.13v-21.4h15.13Zm0-45h-15.13v-21.4h15.13Zm0-45h-15.13v-21.4h15.13Zm0-45h-15.13V909.47h15.13Zm35,135h-15.14v-21.4h15.14Zm0-45h-15.14v-21.4h15.14Zm0-45h-15.14v-21.4h15.14Zm0-45h-15.14V909.47h15.14Z"/>
        <polygon class="cls-2" points="3814.67 503.55 3814.67 492.88 3801.44 492.88 3801.44 435.73 3798.81 435.73 3798.81 492.88 3785.58 492.88 3785.58 503.55 3778.98 503.55 3778.98 592.41 3795.32 592.41 3795.32 503.55 3806.5 503.55 3806.5 592.41 3822.84 592.41 3822.84 503.55 3814.67 503.55"/>
      </g>
      <g>
        <polygon class="cls-2" points="4247.44 1084.61 4247.44 1090.82 4247.44 1092.87 4247.44 1103.87 4653.85 1103.87 4653.85 1092.87 4653.85 1090.82 4653.85 1084.61 4247.44 1084.61"/>
        <rect class="cls-2" x="4273" y="1105.92" width="15.71" height="53.05"/>
        <rect class="cls-2" x="4340.92" y="1105.92" width="15.71" height="53.05"/>
        <rect class="cls-2" x="4408.83" y="1105.92" width="15.71" height="53.05"/>
        <rect class="cls-2" x="4476.75" y="1105.92" width="15.71" height="53.05"/>
        <rect class="cls-2" x="4544.66" y="1105.92" width="15.71" height="53.05"/>
        <rect class="cls-2" x="4612.58" y="1105.92" width="15.71" height="53.05"/>
        <path class="cls-2" d="M4273,1082.57h15.71V940.23H4292v-2.05h-9.87V907.89h-2.05v30.29H4269.9v2.05h3.1Zm9.12-135.33v-2.78h1.49v7.1h-5v-7.1h1.49v2.78Z"/>
        <path class="cls-2" d="M4340.92,1082.57h15.71V940.23h3.18v-2.05h-9.87V907.89h-2v30.29h-10.17v2.05h3.19Zm9-135.33v-2.78h1.5v7.1h-5v-7.1h1.49v2.78Z"/>
        <path class="cls-2" d="M4408.83,1082.57h15.71V940.23h3.19v-2.05h-9.87V907.89h-2v30.29h-10.16v2.05h3.18Zm9-135.33v-2.78h1.49v7.1h-5v-7.1h1.49v2.78Z"/>
        <path class="cls-2" d="M4476.75,1082.57h15.71V940.23h3.18v-2.05h-9.86V907.89h-2.05v30.29h-10.17v2.05h3.19Zm9-135.33v-2.78h1.49v7.1h-5v-7.1h1.49v2.78Z"/>
        <path class="cls-2" d="M4544.66,1082.57h15.71V940.23h3.19v-2.05h-9.87V907.89h-2v30.29h-10.17v2.05h3.18Zm9-135.33v-2.78h1.49v7.1h-5v-7.1h1.5v2.78Z"/>
        <path class="cls-2" d="M4612.58,1082.57h15.71V940.23h3.18v-2.05h-9.86V907.89h-2v30.29h-10.17v2.05h3.19Zm9-135.33v-2.78h1.49v7.1h-5v-7.1h1.49v2.78Z"/>
      </g>
      <g>
        <rect class="cls-2" x="2988.55" y="392.73" width="153.96" height="9.23"/>
        <rect class="cls-2" x="2997.79" y="557.65" width="135.47" height="9.23"/>
        <path class="cls-2" d="M3065.53,387h72.72l-40.12-18.08-31.58-72.62V252.72h-2v43.59l-31.58,72.62L2992.81,387h72.72Zm-39.59-5.39,22.73-12.87,15.87-62.4,1,.25,1-.25,15.88,62.4,22.72,12.87-1,1.78-23.48-13.3-.11-.43-14-54.9v67.74h-2V314.77l-14.08,55.33L3027,383.4Z"/>
        <polygon class="cls-2" points="3065.53 310.75 3065.39 311.33 3065.68 311.33 3065.53 310.75"/>
        <path class="cls-2" d="M3128,406.06H3004.55v66.43h-16v9.23h154v-9.23H3128Zm-84.74,66.43h-33.77V419.24a7.93,7.93,0,0,0,1.84-.66c4.82-2.38,8.81-7.89,13.79-7.89s9,5.51,13.8,7.89a6,6,0,0,0,4.34.65Zm41.14,0h-36.23V419.25a6.08,6.08,0,0,0,4.3-.67c4.82-2.38,8.81-7.89,13.79-7.89s9,5.51,13.8,7.89a6,6,0,0,0,4.34.65Zm38.69,0h-33.78V419.25a6.09,6.09,0,0,0,4.3-.67c4.82-2.38,8.8-7.89,13.79-7.89s9,5.51,13.79,7.89a7.91,7.91,0,0,0,1.9.67Z"/>
        <path class="cls-2" d="M3028.19,584.14a10,10,0,0,0-10,10v10.73h-8.69V780.29h112V604.86h-8.69V594.13a10,10,0,1,0-20,0v10.73h-17.37V594.13a10,10,0,1,0-20,0v10.73h-17.38V594.13A10,10,0,0,0,3028.19,584.14Z"/>
        <path class="cls-2" d="M3121.55,571.79h-112V600h3.78v-5.82a14.9,14.9,0,1,1,29.79,0V600h7.56v-5.82a14.89,14.89,0,1,1,29.78,0V600H3088v-5.82a14.9,14.9,0,1,1,29.79,0V600h3.78Z"/>
        <polygon class="cls-2" points="2994.8 871.57 3047.93 871.57 3047.93 823.88 3083.13 823.88 3083.13 871.57 3136.26 871.57 3136.26 786.84 2994.8 786.84 2994.8 871.57"/>
        <path class="cls-2" d="M3094.4,553.56h38.87V486.63H2999.44v66.93h95Zm12-56.75h11.86v27.06h-11.86Zm-82.84,27.06h-11.86V496.81h11.86Zm16.5,25.67h-3.84V489.65h3.84Zm52.41-59.89h3.83v59.89h-3.83Z"/>
      </g>
      <rect class="cls-2" x="9.62" y="1152.97" width="4663.39" height="83.7"/>
    </g>
  </g>
</svg>
